<svg width="24" height="25" viewBox="0 0 24 25" fill="none" xmlns="http://www.w3.org/2000/svg">
<path fill-rule="evenodd" clip-rule="evenodd" d="M12 11.0457C14.2091 11.0457 16 9.25485 16 7.04572C16 4.83658 14.2091 3.04572 12 3.04572C9.79086 3.04572 8 4.83658 8 7.04572C8 9.25485 9.79086 11.0457 12 11.0457ZM5 19.0457C5 16.8366 6.79086 15.0457 9 15.0457H15C17.2091 15.0457 19 16.8366 19 19.0457C19 20.1503 18.1046 21.0457 17 21.0457H7C5.89543 21.0457 5 20.1503 5 19.0457Z" fill="#D9FDE5"/>
<path fill-rule="evenodd" clip-rule="evenodd" d="M8.75 7.04572C8.75 5.25079 10.2051 3.79572 12 3.79572C13.7949 3.79572 15.25 5.25079 15.25 7.04572C15.25 8.84064 13.7949 10.2957 12 10.2957C10.2051 10.2957 8.75 8.84064 8.75 7.04572ZM12 2.29572C9.37665 2.29572 7.25 4.42236 7.25 7.04572C7.25 9.66907 9.37665 11.7957 12 11.7957C14.6234 11.7957 16.75 9.66907 16.75 7.04572C16.75 4.42236 14.6234 2.29572 12 2.29572ZM5.75 19.0457C5.75 17.2508 7.20507 15.7957 9 15.7957H15C16.7949 15.7957 18.25 17.2508 18.25 19.0457C18.25 19.7361 17.6904 20.2957 17 20.2957H7C6.30964 20.2957 5.75 19.7361 5.75 19.0457ZM9 14.2957C6.37665 14.2957 4.25 16.4224 4.25 19.0457C4.25 20.5645 5.48122 21.7957 7 21.7957H17C18.5188 21.7957 19.75 20.5645 19.75 19.0457C19.75 16.4224 17.6234 14.2957 15 14.2957H9Z" fill="#B7E2C6"/>
</svg>
