<svg width="27" height="27" viewBox="0 0 27 27" fill="none" xmlns="http://www.w3.org/2000/svg">
<path d="M24.0827 13.1307L26.124 16.6667C26.5335 17.376 26.7491 18.1806 26.7492 18.9996C26.7493 19.8187 26.5338 20.6233 26.1244 21.3327C25.7149 22.0421 25.126 22.6312 24.4168 23.0409C23.7076 23.4506 22.903 23.6664 22.084 23.6667H19.3333V26.3333L12.6667 21.6667L19.3333 17V19.6667H22.0827C22.1897 19.6673 22.2953 19.642 22.3905 19.593C22.4856 19.544 22.5675 19.4728 22.6292 19.3853C22.6909 19.2978 22.7305 19.1967 22.7447 19.0906C22.7589 18.9845 22.7472 18.8766 22.7107 18.776L22.66 18.6667L20.6187 15.1307L24.0827 13.1307ZM8.316 9.51199L9.02266 17.6187L6.716 16.2853L5.34 18.6667C5.28591 18.759 5.25496 18.8631 5.24978 18.9701C5.24461 19.077 5.26537 19.1836 5.31029 19.2808C5.35521 19.3779 5.42296 19.4628 5.50776 19.5281C5.59257 19.5935 5.69191 19.6373 5.79733 19.656L5.91733 19.6667H10V23.6667H5.91733C5.09817 23.6666 4.29344 23.451 3.58404 23.0414C2.87463 22.6318 2.28554 22.0427 1.87597 21.3333C1.4664 20.6239 1.25078 19.8191 1.25078 19C1.25079 18.1808 1.46642 17.3761 1.876 16.6667L3.25066 14.2853L0.94133 12.952L8.31466 9.51199H8.316ZM16.3333 0.958657C17.0427 1.36799 17.632 1.95732 18.0413 2.66666L19.4147 5.04799L21.7253 3.71466L21.0187 11.8213L13.6427 8.38132L15.952 7.04799L14.5773 4.66666C14.5242 4.57373 14.4495 4.49501 14.3594 4.4372C14.2694 4.37939 14.1667 4.34421 14.0601 4.33465C13.9535 4.32509 13.8462 4.34144 13.7472 4.3823C13.6483 4.42316 13.5608 4.48732 13.492 4.56932L13.4227 4.66666L11.3827 8.20266L7.91733 6.20266L9.95733 2.66666C10.2638 2.13577 10.6718 1.67046 11.1581 1.2973C11.6444 0.924135 12.1994 0.650431 12.7915 0.49182C13.3836 0.33321 14.0011 0.292801 14.6089 0.372902C15.2166 0.453003 15.8026 0.652045 16.3333 0.958657Z" fill="#16BF78"/>
</svg>
