<svg width="20" height="20" viewBox="0 0 20 20" fill="none" xmlns="http://www.w3.org/2000/svg">
<path d="M18 19C18 19.2652 17.8946 19.5196 17.7071 19.7071C17.5196 19.8946 17.2652 20 17 20H3C2.73478 20 2.48043 19.8946 2.29289 19.7071C2.10536 19.5196 2 19.2652 2 19V10.8364C2 10.3745 1.62551 10 1.16356 10V10C0.39903 10 0.0352072 9.05892 0.600921 8.54464L9.327 0.611996C9.51111 0.444474 9.75108 0.351639 10 0.351639C10.2489 0.351639 10.4889 0.444474 10.673 0.611996L19.3991 8.54464C19.9648 9.05892 19.601 10 18.8364 10V10C18.3745 10 18 10.3745 18 10.8364V19ZM15 18C15.5523 18 16 17.5523 16 17V8.5994C16 8.31763 15.8811 8.04895 15.6726 7.85942L10.6726 3.31442C10.2912 2.96772 9.70877 2.96772 9.32736 3.31442L4.32736 7.85942C4.11887 8.04895 4 8.31763 4 8.5994V17C4 17.5523 4.44772 18 5 18H15ZM10.7071 15.2929C10.3166 15.6834 9.68342 15.6834 9.29289 15.2929L6.641 12.641C6.43207 12.4321 6.26633 12.184 6.15326 11.911C6.04018 11.6381 5.98199 11.3455 5.98199 11.05C5.98199 10.7545 6.04018 10.4619 6.15326 10.189C6.26633 9.91597 6.43207 9.66793 6.641 9.459C6.84993 9.25006 7.09797 9.08433 7.37096 8.97125C7.64394 8.85818 7.93652 8.79998 8.232 8.79998C8.52748 8.79998 8.82006 8.85818 9.09304 8.97125C9.36603 9.08433 9.61407 9.25006 9.823 9.459V9.459C9.92075 9.55675 10.0792 9.55675 10.177 9.459V9.459C10.3859 9.25006 10.634 9.08433 10.907 8.97125C11.1799 8.85818 11.4725 8.79998 11.768 8.79998C12.0635 8.79998 12.3561 8.85818 12.629 8.97125C12.902 9.08433 13.1501 9.25006 13.359 9.459C13.5679 9.66793 13.7337 9.91597 13.8467 10.189C13.9598 10.4619 14.018 10.7545 14.018 11.05C14.018 11.3455 13.9598 11.6381 13.8467 11.911C13.7337 12.184 13.5679 12.4321 13.359 12.641L10.7071 15.2929Z" fill="#16BF78"/>
</svg>
