<svg width="161" height="148" viewBox="0 0 161 148" fill="none" xmlns="http://www.w3.org/2000/svg">
<path d="M87.4047 147.302C125.539 147.302 156.452 131.226 156.452 111.397C156.452 91.5671 125.539 75.492 87.4047 75.492C49.2708 75.492 18.3572 91.5671 18.3572 111.397C18.3572 131.226 49.2708 147.302 87.4047 147.302Z" fill="#EBEBEB"/>
<path d="M146.012 119.892C154.014 119.892 160.5 116.147 160.5 111.528C160.5 106.908 154.014 103.164 146.012 103.164C138.011 103.164 131.525 106.908 131.525 111.528C131.525 116.147 138.011 119.892 146.012 119.892Z" fill="#E0E0E0"/>
<path d="M92.8136 88.3873L75.7459 98.2412L97.1177 110.609L114.185 100.726L92.8136 88.3873Z" fill="#E0E0E0"/>
<path d="M22.0809 121.471C25.1015 123.236 25.1015 126.095 22.0809 127.857C19.0604 129.619 14.1572 129.619 11.1431 127.857C8.1289 126.095 8.12256 123.236 11.1431 121.471C14.1636 119.705 19.0604 119.708 22.0809 121.471Z" fill="#E0E0E0"/>
<path d="M74.4566 10.4531V90.0165L26.3883 117.765V38.2082L74.4566 10.4531Z" fill="#FFD657"/>
<path opacity="0.15" d="M74.4566 10.4531V90.0165L26.3883 117.765V38.2082L74.4566 10.4531Z" fill="black"/>
<path opacity="0.1" d="M74.4566 10.4529L62.5045 17.2926L62.5014 83.11L74.4566 90.0163V10.4529Z" fill="black"/>
<path d="M62.5014 83.11L76.0763 90.945L26.3884 119.635V62.2707L62.5014 83.11Z" fill="#FFD657"/>
<path opacity="0.8" d="M62.5014 83.11L76.0763 90.945L26.3884 119.635V62.2707L62.5014 83.11Z" fill="white"/>
<path opacity="0.1" d="M29.8874 106.339L44.8378 114.97L71.7499 99.4328L56.7995 90.8023L29.8874 106.339Z" fill="black"/>
<path d="M30.534 104.932L45.0216 113.296L71.1033 98.2412L56.6156 89.8738L30.534 104.932Z" fill="#FFD657"/>
<path opacity="0.1" d="M30.534 104.932L45.0216 113.296L71.1033 98.2412L56.6156 89.8738L30.534 104.932Z" fill="black"/>
<path d="M30.534 104.932V105.689L45.0216 114.057V113.296L30.534 104.932Z" fill="#FFD657"/>
<path opacity="0.35" d="M30.534 104.932V105.689L45.0216 114.057V113.296L30.534 104.932Z" fill="black"/>
<path d="M45.0216 113.296L71.1033 98.2411V98.9986L45.0216 114.057V113.296Z" fill="#FFD657"/>
<path opacity="0.2" d="M45.0216 113.296L71.1033 98.2411V98.9986L45.0216 114.057V113.296Z" fill="black"/>
<path d="M41.9822 106.602L40.7366 105.547C40.6985 105.515 40.6858 105.487 40.6954 105.461C40.7061 105.432 40.7277 105.408 40.7556 105.395L41.3514 105.049C41.3821 105.034 41.4157 105.027 41.4497 105.027C41.4851 105.026 41.5202 105.035 41.5511 105.052C41.5626 105.058 41.5733 105.066 41.5828 105.075L43.868 107.071C43.8858 107.083 43.8997 107.1 43.9082 107.12C43.9166 107.139 43.9192 107.161 43.9155 107.182C43.9088 107.209 43.8962 107.233 43.8786 107.254C43.8611 107.275 43.839 107.292 43.8141 107.303L43.437 107.521C43.3754 107.557 43.3053 107.576 43.2341 107.575C43.1679 107.577 43.1018 107.569 43.0376 107.553L41.6684 107.157L42.3562 107.946C42.3817 107.979 42.3952 108.019 42.3942 108.06C42.3942 108.105 42.3593 108.143 42.2991 108.177L41.9219 108.396C41.858 108.432 41.7861 108.452 41.7128 108.453C41.648 108.458 41.5829 108.449 41.5226 108.425L38.0647 107.106L38.0235 107.087C38.0115 107.083 38.0012 107.075 37.9938 107.065C37.9865 107.055 37.9825 107.043 37.9825 107.03C37.9825 107.018 37.9865 107.005 37.9938 106.995C38.0012 106.985 38.0115 106.977 38.0235 106.973L38.6193 106.628C38.6548 106.609 38.6935 106.597 38.7334 106.593C38.7844 106.589 38.8355 106.598 38.8824 106.618L40.708 107.338L40.1534 106.704C40.1362 106.683 40.1233 106.659 40.1153 106.634C40.1153 106.602 40.1153 106.571 40.1787 106.539L40.6034 106.292C40.6525 106.261 40.7109 106.248 40.7683 106.257C40.8101 106.26 40.8514 106.268 40.8919 106.279L41.9822 106.602Z" fill="#FAFAFA"/>
<path d="M46.6286 104.837C46.6664 104.816 46.7092 104.806 46.7522 104.808C46.7942 104.807 46.8358 104.817 46.8726 104.837L47.3544 105.116C47.369 105.121 47.3815 105.131 47.3904 105.144C47.3992 105.156 47.404 105.172 47.404 105.187C47.404 105.203 47.3992 105.218 47.3904 105.23C47.3815 105.243 47.369 105.253 47.3544 105.258L45.2023 106.504C45.1642 106.524 45.1217 106.534 45.0787 106.532C45.0353 106.534 44.9922 106.523 44.9551 106.501L42.0202 104.808C42.0056 104.802 41.9931 104.792 41.9841 104.779C41.9752 104.766 41.9701 104.751 41.9695 104.735C41.97 104.72 41.9748 104.706 41.9832 104.694C41.9916 104.681 42.0033 104.672 42.017 104.666L44.1374 103.442C44.1752 103.422 44.218 103.412 44.261 103.414C44.303 103.412 44.3446 103.422 44.3814 103.442L44.8632 103.721C44.8781 103.726 44.8912 103.735 44.9005 103.747C44.9098 103.76 44.9148 103.775 44.9148 103.791C44.9148 103.806 44.9098 103.822 44.9005 103.834C44.8912 103.847 44.8781 103.856 44.8632 103.861L43.4654 104.669L43.9567 104.954L45.2562 104.203C45.2931 104.183 45.3347 104.173 45.3766 104.174C45.4197 104.173 45.4624 104.182 45.5003 104.203L45.982 104.482C45.9963 104.487 46.0087 104.497 46.0177 104.509C46.0267 104.522 46.0319 104.536 46.0327 104.552C46.0327 104.58 46.0169 104.602 45.982 104.624L44.6825 105.372L45.1928 105.667L46.6286 104.837Z" fill="#FAFAFA"/>
<path d="M49.5129 103.179C49.5514 103.16 49.5936 103.15 49.6365 103.15C49.6793 103.15 49.7216 103.16 49.7601 103.179L50.2418 103.458C50.2557 103.464 50.2677 103.474 50.2766 103.486C50.2855 103.498 50.291 103.513 50.2926 103.528C50.2913 103.543 50.2859 103.558 50.277 103.571C50.2681 103.584 50.256 103.594 50.2418 103.6L48.1373 104.814C48.0988 104.833 48.0565 104.843 48.0137 104.843C47.9709 104.843 47.9286 104.833 47.8901 104.814L44.9552 103.119C44.9409 103.113 44.9285 103.104 44.9195 103.091C44.9105 103.079 44.9053 103.064 44.9044 103.049C44.9044 103.02 44.9203 102.998 44.9552 102.976L45.551 102.634C45.5879 102.614 45.6295 102.604 45.6715 102.605C45.7145 102.603 45.7572 102.613 45.7951 102.634L48.1278 103.981L49.5129 103.179Z" fill="#FAFAFA"/>
<path d="M49.4558 101.769L49.6142 101.867L49.8266 101.991L50.0453 102.118L50.2196 102.209C50.2976 102.246 50.3781 102.276 50.4605 102.301C50.5483 102.326 50.6388 102.338 50.7299 102.339C50.827 102.341 50.9239 102.33 51.0183 102.308C51.1236 102.28 51.2248 102.238 51.3194 102.184C51.4024 102.141 51.4766 102.083 51.5381 102.013C51.5742 101.972 51.6002 101.923 51.6142 101.87C51.6215 101.828 51.6148 101.785 51.5952 101.747C51.5782 101.711 51.5558 101.677 51.5286 101.648C51.5032 101.625 51.4855 101.594 51.4779 101.56C51.4779 101.537 51.5001 101.512 51.5508 101.48L52.1466 101.138C52.1776 101.121 52.2126 101.112 52.2481 101.113C52.2825 101.112 52.3165 101.121 52.3463 101.138C52.4787 101.213 52.5883 101.323 52.6633 101.455C52.7263 101.57 52.7454 101.704 52.7172 101.832C52.6836 101.98 52.6114 102.117 52.508 102.228C52.3752 102.379 52.2176 102.505 52.0421 102.602C51.8274 102.727 51.5972 102.821 51.3574 102.885C51.1273 102.944 50.8913 102.976 50.6538 102.983C50.4279 102.99 50.202 102.967 49.9819 102.916C49.778 102.873 49.5808 102.803 49.3955 102.707C49.2656 102.64 49.1293 102.564 48.9867 102.482C48.844 102.4 48.7109 102.32 48.5842 102.241C48.44 102.155 48.3157 102.04 48.2197 101.902C48.1406 101.789 48.1005 101.653 48.1056 101.515C48.1217 101.365 48.1824 101.222 48.2799 101.106C48.4168 100.946 48.5823 100.813 48.768 100.713C48.9672 100.597 49.1801 100.505 49.4019 100.441C49.6254 100.378 49.8548 100.337 50.0865 100.32C50.3057 100.305 50.5259 100.316 50.7426 100.352C50.9346 100.383 51.12 100.446 51.2909 100.539C51.3024 100.544 51.3124 100.552 51.3196 100.562C51.3269 100.572 51.3312 100.584 51.3321 100.596C51.3318 100.609 51.3278 100.622 51.3205 100.632C51.3132 100.643 51.3029 100.651 51.2909 100.656L50.695 100.999C50.655 101.024 50.6093 101.04 50.5619 101.043C50.5103 101.038 50.4593 101.027 50.4098 101.011L50.2386 100.973C50.1681 100.965 50.0968 100.965 50.0263 100.973C49.9403 100.978 49.8553 100.993 49.7727 101.018C49.6706 101.046 49.5726 101.088 49.4811 101.141C49.3986 101.185 49.3254 101.244 49.2656 101.316C49.2277 101.363 49.2075 101.423 49.2085 101.484C49.2132 101.542 49.2378 101.597 49.2783 101.639C49.3317 101.69 49.3913 101.733 49.4558 101.769Z" fill="#FAFAFA"/>
<path d="M51.7885 100.396C51.644 100.308 51.5189 100.192 51.4208 100.054C51.3388 99.9424 51.2984 99.8056 51.3067 99.6674C51.3226 99.5192 51.3822 99.3791 51.4779 99.2649C51.6175 99.102 51.7863 98.9666 51.9755 98.8655C52.1905 98.7391 52.4219 98.6431 52.6633 98.5802C52.893 98.5191 53.1292 98.485 53.3669 98.4788C53.5907 98.472 53.8144 98.4944 54.0325 98.5454C54.2383 98.5907 54.4374 98.662 54.6252 98.7577C54.7615 98.8306 54.9009 98.9067 55.0435 98.9891C55.1862 99.0715 55.3161 99.1507 55.4334 99.2236C55.5772 99.3125 55.7022 99.4288 55.8011 99.5659C55.8826 99.6779 55.9239 99.8142 55.9183 99.9526C55.9026 100.102 55.8418 100.244 55.744 100.358C55.6035 100.519 55.4349 100.654 55.2464 100.755C55.031 100.881 54.7997 100.978 54.5586 101.043C54.3298 101.103 54.0947 101.136 53.8582 101.141C53.6334 101.147 53.4087 101.124 53.1894 101.075C52.9836 101.029 52.7844 100.958 52.5967 100.862C52.4668 100.793 52.3305 100.72 52.1878 100.637C52.0452 100.555 51.9121 100.472 51.7885 100.396ZM54.584 99.6959L54.4097 99.5881L54.21 99.4645L54.004 99.3504L53.8201 99.2553C53.7376 99.2167 53.6517 99.186 53.5634 99.1634C53.4732 99.1409 53.3806 99.1292 53.2877 99.1286C53.1903 99.1289 53.0934 99.1417 52.9992 99.1666C52.8995 99.1933 52.8036 99.2327 52.714 99.2839C52.6359 99.3258 52.566 99.3817 52.508 99.4487C52.4706 99.4969 52.4496 99.5557 52.4477 99.6167C52.4467 99.6741 52.4658 99.7302 52.5016 99.7751C52.5464 99.833 52.6011 99.8824 52.6633 99.9209C52.7108 99.9558 52.7647 99.9907 52.8281 100.029L53.0278 100.149L53.2338 100.266L53.4271 100.365C53.5948 100.444 53.7773 100.487 53.9628 100.491C54.1636 100.493 54.361 100.439 54.5333 100.336C54.7203 100.225 54.809 100.117 54.7995 100.019C54.7911 99.9523 54.7673 99.8882 54.7299 99.8321C54.6925 99.776 54.6425 99.7293 54.584 99.6959Z" fill="#FAFAFA"/>
<path d="M57.6806 98.3711H57.5443L56.3652 98.1841L57.8707 99.0526C57.8846 99.0587 57.8966 99.0683 57.9055 99.0806C57.9144 99.0928 57.9199 99.1072 57.9214 99.1223C57.9201 99.1378 57.9148 99.1528 57.9059 99.1656C57.897 99.1784 57.8848 99.1886 57.8707 99.1952L57.2749 99.5375C57.2368 99.5576 57.1942 99.5674 57.1513 99.566C57.1093 99.5675 57.0677 99.5576 57.0308 99.5375L54.0927 97.8418C54.0788 97.8357 54.0668 97.8261 54.0579 97.8138C54.049 97.8016 54.0435 97.7872 54.042 97.7721C54.042 97.7436 54.0578 97.7214 54.0927 97.6992L54.6188 97.3823C54.6752 97.3485 54.7402 97.3319 54.8058 97.3347H54.939L56.9326 97.6358L56.4128 96.4853C56.404 96.4608 56.3987 96.4352 56.3969 96.4092C56.3969 96.3712 56.4223 96.3363 56.4825 96.3015L57.0118 95.9845C57.0487 95.9644 57.0903 95.9546 57.1322 95.956C57.1753 95.9541 57.218 95.964 57.2558 95.9845L60.1939 97.6802C60.2256 97.6992 60.2447 97.7214 60.2415 97.7499C60.2383 97.7785 60.2415 97.8006 60.1939 97.8197L59.5981 98.1651C59.56 98.185 59.5174 98.1948 59.4745 98.1937C59.4325 98.1951 59.3909 98.1853 59.354 98.1651L57.8485 97.2967L58.1655 97.975C58.1688 98.0013 58.1688 98.0279 58.1655 98.0542C58.1655 98.0859 58.1433 98.1112 58.0958 98.1398L57.8073 98.3078C57.7704 98.3382 57.7271 98.3599 57.6806 98.3711Z" fill="#FAFAFA"/>
<path d="M62.5077 95.6738C62.5446 95.6537 62.5862 95.6438 62.6281 95.6453C62.6711 95.6442 62.7136 95.654 62.7518 95.6738L63.2335 95.9527C63.2478 95.9582 63.2602 95.9677 63.2692 95.9801C63.2782 95.9925 63.2834 96.0072 63.2842 96.0224C63.2827 96.0375 63.2772 96.0519 63.2683 96.0642C63.2594 96.0764 63.2474 96.0861 63.2335 96.0922L61.0783 97.3378C61.0404 97.3583 60.9977 97.3682 60.9547 97.3663C60.9127 97.3678 60.8711 97.3579 60.8342 97.3378L57.8961 95.6421C57.882 95.6355 57.8699 95.6253 57.861 95.6125C57.8521 95.5997 57.8467 95.5847 57.8454 95.5692C57.8466 95.554 57.852 95.5395 57.8609 95.5272C57.8699 95.5149 57.882 95.5053 57.8961 95.4995L60.0133 94.2761C60.0514 94.2562 60.094 94.2464 60.1369 94.2475C60.1799 94.2461 60.2225 94.256 60.2605 94.2761L60.7423 94.555C60.7569 94.5604 60.7694 94.5701 60.7783 94.5829C60.7871 94.5956 60.7919 94.6108 60.7919 94.6263C60.7919 94.6418 60.7871 94.657 60.7783 94.6697C60.7694 94.6825 60.7569 94.6922 60.7423 94.6976L59.3382 95.5058L59.8295 95.7879L61.129 95.0367C61.1675 95.018 61.2098 95.0082 61.2526 95.0082C61.2954 95.0082 61.3377 95.018 61.3762 95.0367L61.858 95.3157C61.8725 95.3211 61.8851 95.3308 61.8939 95.3435C61.9028 95.3563 61.9076 95.3714 61.9076 95.387C61.9076 95.4025 61.9028 95.4177 61.8939 95.4304C61.8851 95.4432 61.8725 95.4529 61.858 95.4583L60.5585 96.2094L61.0656 96.501L62.5077 95.6738Z" fill="#FAFAFA"/>
<path d="M55.3384 58.9998C54.7045 59.1583 53.1895 59.4593 53.1895 59.4593C53.1895 59.4593 54.004 58.4229 53.6712 58.1916C53.3384 57.9602 53.1039 58.6765 52.1467 59.0695C51.1895 59.4625 50.8155 59.9601 50.226 59.9665L42.9362 60.0679C42.9362 60.0679 37.865 54.0015 37.0283 53.3866C36.7183 53.1336 36.3572 52.9508 35.9699 52.8507C35.5825 52.7505 35.178 52.7355 34.7843 52.8066L35.808 58.1947L40.0044 62.3753C40.9806 63.3451 41.361 63.6779 42.6636 63.6114C44.1438 63.5353 47.8933 62.9489 50.0548 62.594C51.4748 62.4767 51.9565 62.5337 52.9486 62.3658C54.0167 62.1883 55.1419 62.1851 55.8899 60.8317C56.7551 59.2597 56.2797 58.7716 55.3384 58.9998Z" fill="#F28F8F"/>
<path d="M41.2532 29.8216V95.3886L62.5014 83.1101V17.5589L41.2532 29.8216Z" fill="#455A64"/>
<path d="M42.0932 60.1727C42.107 59.9106 42.1825 59.6554 42.3136 59.4279C42.4446 59.2004 42.6276 59.0071 42.8475 58.8638C43.2659 58.6229 43.6018 58.8194 43.6018 59.3011C43.5809 59.6981 43.4191 60.0746 43.1454 60.3629V60.9968C43.1402 61.0857 43.1143 61.1721 43.0697 61.2491C43.0251 61.3262 42.9632 61.3917 42.8887 61.4405L42.8 61.4913C42.6605 61.5737 42.5464 61.4913 42.5464 61.3423V60.7084C42.2802 60.7306 42.0932 60.5309 42.0932 60.1727Z" fill="#263238"/>
<path d="M49.6651 28.1038L44.2421 31.2352V56.122L49.6651 52.9905V28.1038Z" fill="#FFD657"/>
<path opacity="0.25" d="M49.6651 28.1038L44.2421 31.2352V56.122L49.6651 52.9905V28.1038Z" fill="black"/>
<path d="M58.6505 22.906L53.2244 26.0374V50.9242L58.6505 47.7927V22.906Z" fill="#FFD657"/>
<path opacity="0.25" d="M58.6505 22.906L53.2244 26.0374V50.9242L58.6505 47.7927V22.906Z" fill="black"/>
<path d="M49.6651 52.9907L50.524 53.4851L44.2421 57.1142V56.1221L49.6651 52.9907Z" fill="#263238"/>
<path d="M58.6505 47.7927L59.5095 48.2903L53.2276 51.9162L52.3686 51.4186L58.6505 47.7927Z" fill="#263238"/>
<path d="M58.6505 47.7927V22.8964L59.5126 22.3988L59.5095 48.2871L58.6505 47.7927Z" fill="#37474F"/>
<path d="M50.524 53.4849L53.2276 51.9161V26.0373L50.524 27.6062V53.4849Z" fill="#455A64"/>
<path d="M50.524 53.4852L49.665 52.9907V28.104L50.524 27.6064V53.4852Z" fill="#37474F"/>
<path opacity="0.1" d="M50.524 57.6148L44.2421 61.2407V89.0973L50.524 85.4682V57.6148Z" fill="black"/>
<path d="M49.9186 59.618L45.6303 62.0934V86.6378L49.9186 84.1625V59.618Z" fill="#455A64"/>
<path d="M44.2421 61.2408L45.6303 62.0934V86.6379L44.2421 89.0974V61.2408Z" fill="#37474F"/>
<path d="M50.524 57.6148L49.9186 59.6179V84.1624L50.524 85.4682V57.6148Z" fill="#37474F"/>
<path d="M50.524 85.4683L49.9186 84.1625L45.6303 86.6378L44.2421 89.0973L50.524 85.4683Z" fill="#263238"/>
<path opacity="0.1" d="M59.5126 52.4135L53.2276 56.0426V83.8991L59.5126 80.2701V52.4135Z" fill="black"/>
<path d="M58.9072 54.42L54.6189 56.8954V81.4398L58.9072 78.9644V54.42Z" fill="#455A64"/>
<path d="M53.2276 56.0428L54.619 56.8954V81.4398L53.2276 83.8994V56.0428Z" fill="#37474F"/>
<path d="M59.5126 52.4135L58.9072 54.4198V78.9642L59.5126 80.2701V52.4135Z" fill="#37474F"/>
<path d="M59.5126 80.2705L58.9073 78.9647L54.619 81.4401L53.2276 83.8996L59.5126 80.2705Z" fill="#263238"/>
<path d="M40.3309 94.8752L41.2532 95.3886V29.8216L40.3309 30.3446V94.8752Z" fill="#263238"/>
<path opacity="0.1" d="M62.5014 17.2927V24.6934L26.3883 45.6088V38.2081L62.5014 17.2927Z" fill="black"/>
<path opacity="0.1" d="M33.5418 109.312C35.2533 109.553 36.7113 110.453 38.3626 110.802C39.4466 111.027 40.6129 111.096 41.6145 110.618C41.9314 110.462 42.4132 110.126 42.521 109.781C42.6858 109.258 42.2737 108.83 41.9409 108.513C41.5276 108.129 41.0927 107.77 40.6383 107.436C39.6883 106.797 38.6563 106.291 37.5702 105.93C36.6194 105.578 35.6685 105.255 34.6955 104.979C33.7931 104.767 32.8734 104.637 31.9476 104.589C29.8549 104.354 27.7368 104.502 25.6974 105.027C23.7259 105.575 21.894 106.104 20.4455 107.654C19.926 108.148 19.5811 108.798 19.463 109.505C19.4452 109.9 19.5124 110.294 19.6601 110.66C19.8077 111.026 20.0323 111.357 20.3188 111.629C20.759 112.107 21.2936 112.488 21.8888 112.749C22.484 113.01 23.1268 113.144 23.7767 113.144C24.2355 113.137 24.6882 113.037 25.1076 112.851C25.527 112.665 25.9044 112.396 26.2172 112.06C26.832 111.363 27.3043 110.548 28.1188 110.041C29.6846 109.058 31.7637 109.077 33.5418 109.312Z" fill="black"/>
<path d="M30.0903 51.1078C30.0364 51.7069 30.1252 52.3376 29.0792 52.775C29.0792 52.775 29.6054 54.3027 28.3851 54.8098C28.3851 54.8098 28.8003 56.2424 27.7861 56.7115C27.8813 57.0104 27.8789 57.3319 27.7792 57.6294C27.6795 57.9268 27.4876 58.1848 27.2314 58.3659C27.4335 58.643 27.5403 58.9781 27.5357 59.321C27.5312 59.6639 27.4155 59.9961 27.2061 60.2676C27.3201 60.3557 27.4133 60.4678 27.4791 60.596C27.5448 60.7242 27.5815 60.8653 27.5864 61.0093C27.6308 61.5418 27.3962 62.1788 26.8764 62.2993C26.9697 62.1858 27.0206 62.0436 27.0206 61.8967C27.0206 61.7499 26.9697 61.6076 26.8764 61.4942C26.5405 61.1107 26.3915 60.629 26.7497 60.2771C26.7497 60.2771 25.5072 59.9 26.2267 58.4483C26.0822 58.3121 25.9727 58.1431 25.9074 57.9555C25.8421 57.768 25.8229 57.5675 25.8515 57.371C25.8801 57.1744 25.9557 56.9877 26.0717 56.8266C26.1878 56.6654 26.341 56.5346 26.5183 56.4452C26.5183 56.4452 25.8495 54.9429 27.1046 54.3946C27.1046 54.3946 26.3725 53.5198 27.336 52.4929C27.336 52.4929 26.42 50.943 28.3471 49.6087L30.0903 51.1078Z" fill="#263238"/>
<path d="M37.1677 103.858C37.2352 103.732 37.268 103.591 37.2628 103.449C37.2612 103.294 37.2676 103.14 37.2818 102.986C37.3579 101.813 38.2897 90.679 38.5211 88.1212C38.9109 83.8265 38.93 72.3435 38.0679 68.6447L26.5119 69.5607C25.6847 71.6431 25.0825 74.204 25.222 78.2229C25.3266 81.2878 25.279 89.6013 25.279 89.6013C24.2357 90.6292 23.4213 91.8659 22.8892 93.2304C22.0113 95.3634 21.352 100.52 20.8671 102.599C20.7752 102.992 20.6706 103.55 20.6706 103.55C20.4212 103.898 20.2831 104.314 20.2744 104.742C20.2784 106.015 20.4166 107.285 20.6864 108.529C20.752 108.833 20.8964 109.114 21.105 109.343C21.3137 109.573 21.5793 109.744 21.875 109.838C22.0163 109.897 22.1693 109.922 22.3219 109.911C22.4023 109.911 22.4798 109.881 22.5406 109.829C22.6484 109.721 22.5406 109.464 22.5406 109.335C22.5061 109.125 22.486 108.913 22.4804 108.701C22.4804 108.285 22.4804 107.781 22.5057 107.366C22.5569 106.446 22.7002 105.533 22.9336 104.641L23.1555 104.111C23.1555 104.111 28.0999 94.0735 29.4944 91.6235C30.6101 89.7059 31.7448 82.2513 32.5308 78.1785L33.9 87.9025C33.5679 88.9142 33.3219 89.9522 33.1647 91.0054C32.9618 92.8088 33.9951 99.7595 34.3818 102.273C34.4382 102.641 34.4584 103.013 34.442 103.385C34.4231 103.498 34.4231 103.612 34.442 103.725C34.4893 103.84 34.5698 103.94 34.6734 104.01C34.8825 104.113 35.1025 104.193 35.3294 104.247C35.6393 104.33 35.9622 104.351 36.2803 104.311C36.4007 104.292 36.5148 104.251 36.6353 104.228C36.7721 104.201 36.8991 104.138 37.0029 104.045C37.0694 103.993 37.1253 103.93 37.1677 103.858Z" fill="#FFA8A7"/>
<path d="M24.138 112.212H24.0492C23.2738 112.311 22.4863 112.238 21.7418 112C21.0799 111.784 20.4857 111.4 20.0176 110.884C19.8334 110.633 19.695 110.35 19.6088 110.051C19.5126 109.74 19.4406 109.422 19.3933 109.1C19.1967 108.076 19.4725 107.788 19.1651 106.78C19.0247 106.429 18.9092 106.069 18.8196 105.702C18.87 105.513 18.9597 105.337 19.0826 105.185L20.3504 106.96L21.1903 108.139L21.6372 108.773C21.7355 108.913 21.8116 109.09 21.9225 109.223C22.0933 109.38 22.2854 109.511 22.493 109.613C22.699 109.743 22.9114 109.867 23.1269 109.981C23.5487 110.209 23.9837 110.412 24.4296 110.589C24.6182 110.653 24.7982 110.741 24.9652 110.849C25.0485 110.905 25.1187 110.979 25.1707 111.065C25.2227 111.151 25.2553 111.247 25.2663 111.347C25.2662 111.52 25.1979 111.686 25.0761 111.81C24.8192 112.048 24.4878 112.19 24.138 112.212Z" fill="#37474F"/>
<path d="M22.848 104.783L23.0603 104.355C23.2347 104.501 22.9906 105.388 22.9589 106.314C22.9473 106.727 22.9738 107.141 23.0382 107.55C23.0952 107.924 23.2384 108.28 23.4565 108.589C23.7778 109.086 24.1795 109.527 24.6451 109.892C24.8623 110.028 25.0439 110.214 25.1744 110.434C25.2464 110.556 25.2883 110.694 25.2965 110.836C25.3048 110.977 25.2792 111.119 25.2219 111.249C25.116 111.432 24.9504 111.573 24.7528 111.648C24.4856 111.753 24.2029 111.813 23.9161 111.825C22.9957 111.899 22.073 111.716 21.2506 111.296C20.8047 111.067 20.42 110.734 20.1286 110.326C19.9209 109.96 19.7873 109.556 19.7356 109.138C19.5834 108.412 19.6341 107.67 19.5454 107.112C19.4566 106.555 19.0034 105.753 19.0826 105.211C19.127 104.91 19.5232 104.403 19.8909 103.997C20.2585 103.591 20.5977 103.195 20.7244 103.312L20.6737 103.566C20.8574 104.011 21.1948 104.375 21.6246 104.593C21.9972 104.798 22.4305 104.866 22.848 104.783Z" fill="#455A64"/>
<path d="M23.5231 108.761C23.5462 108.758 23.5681 108.749 23.5856 108.733C23.6032 108.718 23.6156 108.698 23.6213 108.675C23.6251 108.661 23.626 108.646 23.6239 108.631C23.6218 108.616 23.6168 108.601 23.6092 108.588C23.6015 108.575 23.5914 108.564 23.5793 108.555C23.5672 108.546 23.5535 108.54 23.5389 108.536C22.8892 108.368 21.7006 108.409 21.1428 108.713C21.1297 108.721 21.1181 108.73 21.1088 108.742C21.0995 108.754 21.0925 108.767 21.0884 108.782C21.0843 108.796 21.083 108.811 21.0848 108.826C21.0865 108.841 21.0911 108.856 21.0984 108.869C21.1054 108.882 21.115 108.894 21.1267 108.904C21.1384 108.913 21.152 108.92 21.1665 108.924C21.181 108.928 21.1963 108.93 21.2113 108.928C21.2263 108.926 21.2407 108.921 21.2537 108.913C21.7545 108.637 22.8828 108.596 23.4724 108.758L23.5231 108.761Z" fill="#E0E0E0"/>
<path d="M23.2061 107.873C23.229 107.872 23.2509 107.863 23.269 107.849C23.2871 107.835 23.3005 107.816 23.3075 107.794C23.3124 107.78 23.3144 107.765 23.3134 107.75C23.3124 107.735 23.3083 107.72 23.3015 107.707C23.2947 107.694 23.2853 107.682 23.2738 107.672C23.2623 107.663 23.249 107.656 23.2346 107.651C22.5055 107.437 21.7264 107.467 21.016 107.737C21.0002 107.742 20.9856 107.75 20.9733 107.761C20.961 107.772 20.9511 107.785 20.9445 107.8C20.9379 107.815 20.9346 107.832 20.935 107.848C20.9353 107.865 20.9392 107.881 20.9463 107.896C20.9535 107.911 20.9639 107.924 20.9766 107.934C20.9894 107.945 21.0042 107.952 21.0202 107.957C21.0361 107.961 21.0528 107.961 21.069 107.959C21.0853 107.956 21.1007 107.949 21.1142 107.94C21.7759 107.698 22.4973 107.672 23.1744 107.867C23.1845 107.871 23.1952 107.873 23.2061 107.873Z" fill="#E0E0E0"/>
<path d="M23.0255 106.964C23.0459 106.964 23.066 106.958 23.0834 106.948C23.1007 106.937 23.1148 106.922 23.1238 106.903C23.1311 106.89 23.1357 106.876 23.1374 106.861C23.1391 106.846 23.1379 106.831 23.1338 106.816C23.1297 106.802 23.1227 106.789 23.1134 106.777C23.1041 106.765 23.0925 106.755 23.0794 106.748C22.3862 106.476 21.6147 106.484 20.9273 106.77C20.9138 106.777 20.9017 106.786 20.8916 106.797C20.8816 106.808 20.8739 106.821 20.8689 106.835C20.8638 106.849 20.8617 106.864 20.8625 106.879C20.8632 106.894 20.867 106.909 20.8734 106.922C20.887 106.949 20.9106 106.969 20.9391 106.979C20.9676 106.988 20.9986 106.986 21.0256 106.973C21.6464 106.718 22.3411 106.709 22.9685 106.948C22.986 106.957 23.0055 106.963 23.0255 106.964Z" fill="#E0E0E0"/>
<path d="M42.4164 108.894C42.4352 109.082 42.4051 109.272 42.329 109.445C42.253 109.618 42.1335 109.769 41.9822 109.883C41.1276 110.373 40.1257 110.54 39.1582 110.355C37.5196 109.943 37.1994 109.502 36.6226 108.91C35.9063 108.155 35.9887 107.762 35.1805 107.081C34.8733 106.861 34.5821 106.619 34.3089 106.358C34.242 106.108 34.2163 105.849 34.2328 105.591L42.4164 108.894Z" fill="#37474F"/>
<path d="M37.2311 103.338L37.2818 102.986C37.5037 103.015 37.678 103.769 38.1502 104.571C38.5607 105.223 39.0833 105.797 39.6938 106.266C40.6446 106.98 41.8173 107.683 42.353 108.485C42.8886 109.287 41.2246 110.038 39.9632 110.01C39.4001 109.999 38.8446 109.878 38.3288 109.651C37.8131 109.425 37.3473 109.099 36.9585 108.691C36.4387 108.162 36.0806 107.509 35.6907 107.087C35.3009 106.666 34.5022 106.235 34.274 105.728C34.1444 105.248 34.1281 104.744 34.2264 104.257C34.3088 103.759 34.2803 103.075 34.4483 103.103C34.4483 103.151 34.4483 103.373 34.4483 103.373C34.9354 103.688 35.507 103.847 36.0869 103.829C36.5149 103.808 36.9211 103.634 37.2311 103.338Z" fill="#455A64"/>
<path d="M40.5368 106.808C40.5568 106.797 40.573 106.779 40.5831 106.758C40.5933 106.737 40.597 106.714 40.5939 106.691C40.5916 106.676 40.5863 106.662 40.5785 106.65C40.5707 106.637 40.5604 106.626 40.5483 106.618C40.5362 106.609 40.5225 106.603 40.508 106.6C40.4935 106.597 40.4785 106.596 40.4639 106.599C39.7983 106.701 38.7239 107.211 38.334 107.715C38.3248 107.726 38.318 107.74 38.3141 107.754C38.3102 107.769 38.3093 107.784 38.3113 107.799C38.3134 107.814 38.3185 107.828 38.3262 107.841C38.3339 107.853 38.3441 107.864 38.3562 107.873C38.3799 107.891 38.4097 107.9 38.4393 107.896C38.4689 107.892 38.496 107.877 38.5147 107.854C38.8665 107.401 39.8871 106.919 40.4988 106.824L40.5368 106.808Z" fill="#E0E0E0"/>
<path d="M39.6367 106.187C39.6568 106.176 39.6731 106.159 39.6833 106.139C39.6935 106.119 39.6972 106.096 39.6938 106.073C39.6891 106.043 39.6728 106.016 39.6484 105.999C39.6241 105.981 39.5937 105.973 39.5638 105.978C38.8141 106.115 38.1298 106.494 37.6146 107.055C37.5961 107.079 37.5879 107.11 37.5918 107.14C37.5956 107.17 37.6112 107.197 37.6352 107.216C37.6592 107.234 37.6895 107.242 37.7195 107.238C37.7495 107.235 37.7768 107.219 37.7953 107.195C38.2748 106.68 38.9069 106.332 39.5987 106.203C39.6124 106.2 39.6253 106.195 39.6367 106.187Z" fill="#E0E0E0"/>
<path d="M38.8761 105.54C38.8936 105.53 38.9081 105.515 38.9181 105.497C38.9281 105.479 38.9333 105.459 38.9331 105.439C38.9331 105.409 38.9211 105.38 38.8997 105.358C38.8783 105.337 38.8493 105.325 38.819 105.325C38.0809 105.419 37.4082 105.796 36.9427 106.377C36.9255 106.402 36.9189 106.433 36.9242 106.462C36.9296 106.492 36.9465 106.518 36.9712 106.536C36.9956 106.553 37.026 106.56 37.0557 106.555C37.0853 106.551 37.1119 106.534 37.1297 106.51C37.5516 105.989 38.1572 105.648 38.8222 105.559C38.8416 105.558 38.8602 105.552 38.8761 105.54Z" fill="#E0E0E0"/>
<path d="M27.7734 66.0741C26.8745 67.8205 26.1667 69.6589 25.6625 71.5573C25.0286 74.2577 25.0508 76.0326 25.0762 80.7488C25.1015 85.465 25.1681 89.5505 25.1681 89.5505C25.1681 89.5505 22.8322 91.094 22.0588 96.4441C22.0588 96.4441 23.9003 98.3458 26.344 97.7119C26.344 97.7119 28.9683 93.0496 29.8304 91.5884C30.6925 90.1273 32.5371 78.1815 32.5371 78.1815L33.6465 87.9213C33.6465 87.9213 32.8097 90.2509 32.9175 91.8959C33.0252 93.5408 33.4721 96.1144 33.4721 96.1144C34.9529 96.5656 36.5482 96.4527 37.9506 95.7975C37.9506 95.7975 38.743 88.1527 38.8476 85.3794C38.9522 82.6061 39.2913 72.8061 37.9284 66.6795L27.7734 66.0741Z" fill="#455A64"/>
<path d="M32.5371 78.2007L33.6337 73.8966C33.6337 73.8966 35.7415 74.1406 37.3991 72.914C37.3991 72.914 37.06 74.4988 34.1218 74.9552L32.8541 79.1674L32.8731 81.18L32.5371 78.2007Z" fill="#263238"/>
<path d="M37.8713 64.892C37.7497 63.7082 37.737 62.5157 37.8333 61.3295C38.5037 60.7061 38.9307 59.8647 39.0381 58.9555C39.1455 58.0464 38.9263 57.1286 38.4196 56.3661C36.8191 53.7735 34.7906 52.8068 34.7906 52.8068L32.1187 52.7244C31.7384 52.7688 28.4548 53.241 28.0364 53.3583C28.0364 53.3583 26.9049 54.3091 26.5975 55.4153C26.4232 56.0492 26.3725 56.6831 26.9398 58.7084L28.3312 62.255C28.3312 62.255 28.7369 63.3168 28.5309 64.0616C28.3249 64.8064 27.1934 66.6574 26.5975 68.4545C26.5975 68.4545 29.1331 70.727 33.789 70.2009C37.7667 69.7477 38.3467 68.4101 38.3467 68.4101C38.3467 68.4101 37.9189 65.6178 37.8713 64.892Z" fill="#FAFAFA"/>
<path opacity="0.1" d="M30.3818 60.6163C30.6535 61.094 31.0574 61.4829 31.5449 61.7365C32.0324 61.9901 32.5827 62.0975 33.1298 62.0458C33.6584 62.0138 34.1692 61.8427 34.6105 61.55C35.0519 61.2573 35.4081 60.8532 35.6432 60.3786C35.6432 60.3786 35.6242 62.4768 33.1456 62.5497C30.6671 62.6226 30.3818 60.6163 30.3818 60.6163Z" fill="black"/>
<path d="M48.3433 60.4517C48.3534 60.1603 48.2665 59.8738 48.0961 59.6372C48.0723 59.5938 48.0387 59.5566 47.998 59.5285C47.9572 59.5005 47.9105 59.4823 47.8615 59.4755C47.7401 59.4832 47.6265 59.5378 47.5446 59.6277C47.2023 59.9446 46.9107 60.2616 46.5525 60.5785C46.2157 60.8757 45.79 61.0529 45.3418 61.0825C45.3456 60.9938 45.3791 60.9089 45.4369 60.8416C45.5763 60.6482 45.6809 60.5088 45.8299 60.2996C45.9249 60.196 45.9958 60.0727 46.0375 59.9384C46.0792 59.8041 46.0905 59.6623 46.0708 59.5231C46.0616 59.4856 46.0427 59.4512 46.016 59.4233C45.9893 59.3955 45.9557 59.3752 45.9186 59.3646C45.8557 59.3592 45.7929 59.376 45.7411 59.4121C45.2508 59.6559 44.7912 59.957 44.3719 60.3091C43.9123 60.6958 43.6398 61.336 42.8442 61.6498C42.0487 61.9636 41.1993 62.0396 39.7318 62.233C38.5876 62.3819 36.705 62.626 35.4372 62.7369C33.621 60.8955 31.3992 57.596 30.1885 55.9574C29.5437 55.0363 28.8251 54.1693 28.0396 53.3648C26.9778 53.6817 26.3629 54.2237 26.1157 54.9844C25.4818 56.7371 26.3756 58.7402 28.7496 61.3804C29.5229 62.2457 31.8652 64.8193 33.0601 66.0205C33.2363 66.2 33.4495 66.3389 33.6848 66.4276C33.9202 66.5163 34.1721 66.5526 34.4229 66.534C35.1389 66.4563 35.8499 66.3388 36.5528 66.1821C37.8618 65.8652 39.5226 65.3898 40.8284 65.0728C41.8839 64.8161 42.9805 64.5055 43.8775 64.2424C44.4895 64.0805 45.0907 63.8805 45.6777 63.6434C46.1744 63.464 46.6437 63.2165 47.0723 62.9081C47.3545 62.7115 47.601 62.4681 47.8013 62.1886C47.9745 61.9235 48.1069 61.634 48.1943 61.3297C48.2916 61.0471 48.3419 60.7506 48.3433 60.4517Z" fill="#FFA8A7"/>
<path d="M27.6434 43.6437C26.9081 44.5945 26.7686 45.837 26.9493 47.0604C27.2662 49.1174 28.5119 50.718 30.0015 51.3931C30.8921 51.7987 32.0522 51.9699 32.648 51.4501C33.5767 50.6451 34.518 49.8654 35.5196 49.1459C36.2676 48.6166 37.1043 48.0873 37.4688 47.2442C37.7857 46.5279 37.7857 45.3013 37.1138 44.772C37.6441 44.3574 38.0138 43.7715 38.1597 43.1144C38.2261 42.9422 38.2398 42.7542 38.1992 42.5742C38.1586 42.3942 38.0654 42.2303 37.9315 42.1033C37.7414 41.9385 37.1423 41.91 36.8888 41.8814C36.0011 41.7483 35.1256 41.5437 34.2708 41.2697C33.2115 41.0431 32.121 41.0013 31.0474 41.1461C30.2107 41.3078 29.2567 41.6374 28.8288 42.8038C28.3471 42.9354 27.9273 43.2329 27.6434 43.6437Z" fill="#263238"/>
<path d="M35.2502 43.0764C35.8841 43.3934 36.6986 44.845 36.8349 47.9955C36.9395 50.6642 36.1154 51.3773 35.6939 51.596C35.2724 51.8147 34.4261 51.7481 33.6052 51.6657L33.6908 53.0001C33.6908 53.0001 36.0584 54.7084 34.2042 55.0634C33.1788 55.2045 32.1378 54.9544 31.2883 54.363C30.8293 54.0705 30.4346 53.6877 30.1283 53.2378L29.9413 49.9257C29.9413 49.9257 29.4912 50.4201 28.6355 49.7609C27.9287 49.2157 27.6403 48.2427 28.1284 47.6785C28.2561 47.5442 28.414 47.4422 28.5888 47.3807C28.7637 47.3192 28.9507 47.3 29.1344 47.3247C29.3181 47.3495 29.4934 47.4174 29.6458 47.523C29.7981 47.6286 29.9233 47.7688 30.011 47.9321C30.011 47.9321 30.5055 48.1825 30.927 47.2665C31.7313 47.1376 32.4967 46.8312 33.1678 46.3695C33.7177 45.988 34.1854 45.4999 34.5431 44.9342C34.9008 44.3686 35.1412 43.7368 35.2502 43.0764Z" fill="#FFA8A7"/>
<path d="M33.3199 47.3742C33.3316 47.4641 33.3072 47.555 33.2519 47.6269C33.1966 47.6988 33.1151 47.7459 33.0252 47.7577C32.9337 47.7647 32.8431 47.7354 32.7731 47.676C32.7031 47.6167 32.6593 47.5322 32.6512 47.4407C32.6415 47.3521 32.6675 47.2632 32.7233 47.1936C32.7792 47.1241 32.8604 47.0796 32.9491 47.0699C33.0378 47.0602 33.1267 47.0862 33.1962 47.1421C33.2658 47.198 33.3103 47.2792 33.3199 47.3678V47.3742Z" fill="#263238"/>
<path d="M33.3738 49.3963L34.6416 49.7608C34.6217 49.8468 34.5846 49.9279 34.5327 49.9992C34.4807 50.0705 34.4148 50.1306 34.3391 50.1759C34.2633 50.2211 34.1792 50.2507 34.0918 50.2627C34.0044 50.2747 33.9154 50.2689 33.8302 50.2458C33.6599 50.1896 33.5175 50.0701 33.4326 49.9121C33.3477 49.754 33.3267 49.5694 33.3738 49.3963Z" fill="#B16668"/>
<path d="M34.1376 50.2553C34.1232 50.0939 34.0474 49.9442 33.926 49.8369C33.8046 49.7296 33.6467 49.6729 33.4847 49.6784C33.4441 49.6814 33.4038 49.6878 33.3643 49.6975C33.385 49.8248 33.4412 49.9438 33.5264 50.0408C33.6116 50.1378 33.7224 50.2088 33.846 50.2458C33.9412 50.2716 34.041 50.2748 34.1376 50.2553Z" fill="#F28F8F"/>
<path d="M36.2866 46.1412L35.5671 45.7134C35.5925 45.6659 35.6273 45.6241 35.6693 45.5905C35.7114 45.5569 35.7598 45.5323 35.8117 45.518C35.8636 45.5038 35.9179 45.5003 35.9712 45.5077C36.0245 45.5151 36.0757 45.5333 36.1218 45.5612C36.219 45.6177 36.2905 45.7098 36.3213 45.8179C36.352 45.9261 36.3396 46.042 36.2866 46.1412Z" fill="#263238"/>
<path d="M32.7748 46.1414L32.0236 46.4837C31.9985 46.4359 31.9834 46.3835 31.9793 46.3297C31.9751 46.2759 31.982 46.2218 31.9996 46.1708C32.0171 46.1197 32.0448 46.0728 32.0811 46.0328C32.1174 45.9929 32.1615 45.9608 32.2106 45.9385C32.3127 45.8933 32.4283 45.8892 32.5333 45.9269C32.6384 45.9647 32.7249 46.0415 32.7748 46.1414Z" fill="#263238"/>
<path d="M36.163 47.1207C36.1678 47.1646 36.1639 47.2091 36.1515 47.2515C36.1392 47.2939 36.1185 47.3334 36.0909 47.3679C36.0632 47.4023 36.029 47.4309 35.9903 47.4522C35.9516 47.4734 35.909 47.4868 35.8651 47.4916C35.8212 47.4964 35.7768 47.4924 35.7344 47.4801C35.692 47.4677 35.6524 47.4471 35.618 47.4194C35.5836 47.3917 35.5549 47.3576 35.5337 47.3188C35.5125 47.2801 35.4991 47.2375 35.4943 47.1936C35.4826 47.1037 35.5071 47.0128 35.5623 46.9409C35.6176 46.869 35.6991 46.822 35.789 46.8101C35.8796 46.803 35.9693 46.8315 36.0391 46.8895C36.109 46.9475 36.1534 47.0305 36.163 47.1207Z" fill="#263238"/>
<path d="M34.5402 47.0287L34.7209 49.0445L35.7636 48.6483L34.5402 47.0287Z" fill="#F28F8F"/>
<path d="M33.5894 51.6656C32.7241 51.6054 30.9302 51.2092 30.61 50.531C30.7434 50.8762 30.979 51.1725 31.2851 51.3804C31.8398 51.7988 33.6242 52.1981 33.6242 52.1981L33.5894 51.6656Z" fill="#F28F8F"/>
<path d="M29.9952 47.273L30.0808 48.6739C30.2066 48.667 30.3297 48.6352 30.4431 48.5804C30.5566 48.5255 30.6579 48.4487 30.7414 48.3543C30.8248 48.26 30.8887 48.15 30.9293 48.0307C30.9699 47.9114 30.9863 47.7853 30.9777 47.6596L30.8953 46.3633L29.9952 47.273Z" fill="#263238"/>
<path d="M74.4567 90.0164L76.0763 90.9451V9.51804L74.4567 10.453V90.0164Z" fill="#FFD657"/>
<path opacity="0.4" d="M74.4567 90.0164L76.0763 90.9451V9.51804L74.4567 10.453V90.0164Z" fill="white"/>
<path opacity="0.1" d="M74.4567 90.0164L76.0763 90.9451V9.51804L74.4567 10.453V90.0164Z" fill="black"/>
<path d="M76.0762 90.945L81.0365 88.0798V0.922333L21.4218 35.3429V122.491L26.3883 119.635V38.2081L76.0731 9.51796L76.0762 90.945Z" fill="#FFD657"/>
<path opacity="0.7" d="M76.0762 90.945L81.0365 88.0798V0.922333L21.4218 35.3429V122.491L26.3883 119.635V38.2081L76.0731 9.51796L76.0762 90.945Z" fill="white"/>
<path d="M81.0365 0.922318L21.4218 35.3428L19.8275 34.4174L79.4454 0L81.0365 0.922318Z" fill="#FFD657"/>
<path opacity="0.85" d="M81.0365 0.922318L21.4218 35.3428L19.8275 34.4174L79.4454 0L81.0365 0.922318Z" fill="white"/>
<path d="M21.4218 122.491V35.3428L19.8275 34.4174V121.572L21.4218 122.491Z" fill="#FFD657"/>
<path opacity="0.6" d="M19.8275 34.4174V121.572L21.4218 122.491V35.3428" fill="white"/>
<path d="M78.4591 98.2414L93.0831 89.7979L111.472 100.413L96.8484 108.856L78.4591 98.2414Z" fill="black"/>
<path d="M93.083 89.798V75.361L78.1643 83.9756L90.6457 91.2052L93.083 89.798Z" fill="#37474F"/>
<path d="M93.083 75.361V89.798L99.2857 93.3763L111.767 86.1467L93.083 75.361Z" fill="#263238"/>
<path d="M78.1643 83.9753V98.07L96.8484 108.856V94.7832L78.1643 83.9753Z" fill="#263238"/>
<path d="M96.8484 94.7833V108.856L111.767 100.241V86.1465L96.8484 94.7833Z" fill="#37474F"/>
<path d="M96.8484 94.7832L97.14 108.32L107.976 102.431L96.8484 108.856V94.7832Z" fill="#455A64"/>
<path d="M98.6296 104.324C98.5761 104.324 98.5234 104.31 98.4775 104.282C98.4116 104.235 98.3594 104.171 98.326 104.097C98.2926 104.023 98.2793 103.942 98.2873 103.861V102.615V102.523H98.3507L99.3269 101.95V103.373C99.3253 103.552 99.2807 103.728 99.1969 103.886C99.113 104.044 98.9924 104.18 98.8452 104.282C98.7779 104.314 98.7038 104.328 98.6296 104.324ZM98.4426 102.707V103.861C98.4359 103.914 98.4428 103.968 98.4628 104.018C98.4828 104.068 98.5151 104.112 98.5567 104.146C98.5911 104.161 98.6286 104.166 98.6658 104.163C98.703 104.159 98.7385 104.145 98.7691 104.124C98.8908 104.034 98.9904 103.918 99.0602 103.784C99.1299 103.65 99.1681 103.502 99.1716 103.35V103.249H98.8103L98.7374 102.758L98.4426 102.707ZM98.9434 103.091H99.1716V102.229L98.5884 102.574L98.8768 102.625L98.9434 103.091Z" fill="#E0E0E0"/>
<path d="M98.8071 105.325C98.7861 105.325 98.7659 105.317 98.7511 105.302C98.7362 105.287 98.7279 105.267 98.7279 105.246V104.2C98.7279 104.179 98.7362 104.159 98.7511 104.144C98.7659 104.129 98.7861 104.121 98.8071 104.121C98.8281 104.121 98.8483 104.129 98.8631 104.144C98.878 104.159 98.8863 104.179 98.8863 104.2V105.246C98.8863 105.267 98.878 105.287 98.8631 105.302C98.8483 105.317 98.8281 105.325 98.8071 105.325Z" fill="#E0E0E0"/>
<path d="M98.3507 105.591C98.3371 105.59 98.3238 105.586 98.3122 105.579C98.3006 105.572 98.291 105.562 98.2842 105.55C98.2738 105.532 98.2709 105.51 98.2763 105.49C98.2816 105.47 98.2947 105.453 98.3127 105.442L99.2223 104.919C99.2404 104.909 99.2619 104.906 99.2821 104.911C99.3022 104.917 99.3195 104.93 99.3301 104.948C99.3351 104.957 99.3384 104.966 99.3397 104.976C99.3411 104.986 99.3404 104.996 99.3377 105.006C99.3351 105.016 99.3305 105.025 99.3243 105.033C99.3181 105.041 99.3104 105.048 99.3016 105.052L98.3919 105.591C98.3786 105.596 98.3641 105.596 98.3507 105.591Z" fill="#E0E0E0"/>
<path d="M101.596 103.785C101.566 103.784 101.537 103.777 101.511 103.763C101.479 103.742 101.454 103.714 101.437 103.68C101.42 103.647 101.413 103.61 101.416 103.572V103.373C101.416 103.352 101.424 103.332 101.439 103.317C101.454 103.302 101.474 103.293 101.495 103.293C101.516 103.293 101.536 103.302 101.551 103.317C101.566 103.332 101.574 103.352 101.574 103.373V103.588C101.568 103.606 101.568 103.625 101.574 103.642C101.574 103.642 101.599 103.642 101.625 103.626C101.673 103.582 101.711 103.527 101.736 103.466C101.762 103.406 101.773 103.34 101.771 103.274V101.88C101.771 101.859 101.779 101.839 101.794 101.824C101.809 101.809 101.829 101.801 101.85 101.801C101.871 101.801 101.891 101.809 101.906 101.824C101.921 101.839 101.929 101.859 101.929 101.88V103.274C101.933 103.367 101.914 103.46 101.876 103.545C101.837 103.629 101.78 103.704 101.707 103.763C101.672 103.779 101.634 103.786 101.596 103.785Z" fill="#E0E0E0"/>
<path d="M100.769 102.564V102.422C100.788 102.074 100.889 101.735 101.064 101.433C101.238 101.132 101.482 100.875 101.774 100.685C101.879 100.597 102.009 100.544 102.145 100.533C102.282 100.521 102.419 100.552 102.537 100.622C102.655 100.691 102.749 100.795 102.806 100.92C102.863 101.045 102.88 101.184 102.855 101.319V101.366L100.769 102.564ZM102.243 100.707C102.104 100.713 101.968 100.754 101.85 100.828C101.601 100.991 101.391 101.206 101.233 101.458C101.075 101.711 100.973 101.994 100.934 102.289L102.696 101.271C102.702 101.173 102.683 101.075 102.641 100.985C102.599 100.896 102.535 100.819 102.455 100.761C102.39 100.726 102.317 100.707 102.243 100.707Z" fill="#E0E0E0"/>
<path d="M104.411 102.178C104.39 102.178 104.37 102.17 104.355 102.155C104.34 102.14 104.332 102.12 104.332 102.099V99.4331C104.332 99.4121 104.34 99.3919 104.355 99.3771C104.37 99.3622 104.39 99.3539 104.411 99.3539C104.432 99.3539 104.452 99.3622 104.467 99.3771C104.482 99.3919 104.49 99.4121 104.49 99.4331V102.105C104.488 102.125 104.479 102.143 104.465 102.157C104.45 102.17 104.431 102.178 104.411 102.178Z" fill="#E0E0E0"/>
<path d="M104.183 100.042H104.151C104.141 100.037 104.133 100.031 104.125 100.024C104.118 100.016 104.112 100.008 104.109 99.9979C104.105 99.9882 104.103 99.9778 104.103 99.9673C104.103 99.9569 104.105 99.9466 104.11 99.937L104.389 99.3031L104.706 99.6613C104.72 99.6761 104.728 99.696 104.728 99.7167C104.728 99.7375 104.72 99.7574 104.706 99.7722C104.698 99.7798 104.69 99.7858 104.68 99.79C104.671 99.7941 104.66 99.7962 104.65 99.7962C104.64 99.7962 104.629 99.7941 104.62 99.79C104.61 99.7858 104.602 99.7798 104.595 99.7722L104.446 99.6042L104.265 100.019C104.255 100.031 104.242 100.039 104.227 100.043C104.212 100.046 104.197 100.046 104.183 100.042Z" fill="#E0E0E0"/>
<path d="M105.137 101.766C105.116 101.766 105.095 101.757 105.081 101.743C105.066 101.728 105.057 101.708 105.057 101.687V99.0179C105.058 98.9974 105.067 98.9781 105.082 98.9639C105.096 98.9497 105.116 98.9418 105.137 98.9418C105.157 98.9418 105.177 98.9497 105.192 98.9639C105.206 98.9781 105.215 98.9974 105.216 99.0179V101.687C105.216 101.708 105.207 101.728 105.193 101.743C105.178 101.757 105.158 101.766 105.137 101.766Z" fill="#E0E0E0"/>
<path d="M104.905 99.6263C104.896 99.6293 104.886 99.6293 104.877 99.6263C104.867 99.6229 104.858 99.6175 104.85 99.6103C104.843 99.6032 104.837 99.5946 104.833 99.585C104.829 99.5754 104.827 99.565 104.828 99.5547C104.828 99.5443 104.831 99.5342 104.835 99.5249L105.114 98.891L105.431 99.2523C105.439 99.2595 105.445 99.2681 105.449 99.2776C105.453 99.2871 105.455 99.2974 105.455 99.3078C105.455 99.3182 105.453 99.3285 105.449 99.338C105.445 99.3476 105.439 99.3562 105.431 99.3633C105.417 99.3769 105.397 99.3844 105.377 99.3844C105.357 99.3844 105.338 99.3769 105.324 99.3633L105.175 99.1921L104.994 99.6073C104.983 99.6196 104.969 99.6281 104.953 99.6315C104.937 99.6349 104.92 99.6331 104.905 99.6263Z" fill="#E0E0E0"/>
<path d="M81.3592 93.9817L85.4319 96.3334C85.4853 96.3681 85.5297 96.4149 85.5617 96.47C85.5936 96.525 85.6121 96.5868 85.6158 96.6504V99.4839C85.6158 99.7153 85.4509 99.8008 85.2513 99.6962L81.1785 97.3508C81.125 97.3163 81.0804 97.2696 81.0484 97.2145C81.0165 97.1594 80.998 97.0975 80.9947 97.0339V94.1813C80.9947 93.9595 81.1595 93.8644 81.3592 93.9817Z" fill="#FAFAFA"/>
<path d="M81.2609 94.4221L81.3972 94.5014V96.9989L81.2577 96.9197L81.2609 94.4221Z" fill="#455A64"/>
<path d="M81.822 94.7455L82.0628 94.8881V97.3857L81.822 97.2462V94.7455Z" fill="#455A64"/>
<path d="M82.386 95.0718L82.5255 95.151V97.6518L82.386 97.5694V95.0718Z" fill="#455A64"/>
<path d="M82.8139 95.3125L83.0897 95.4773V97.9781L82.8139 97.8132V95.3125Z" fill="#455A64"/>
<path d="M83.5144 95.7246L83.6539 95.8038V98.3014L83.5144 98.2221V95.7246Z" fill="#455A64"/>
<path d="M83.9201 95.9529L84.2181 96.1272V98.628L83.9201 98.4505V95.9529Z" fill="#455A64"/>
<path d="M84.6427 96.3743L84.7822 96.4535V98.9542L84.6427 98.8718V96.3743Z" fill="#455A64"/>
<path d="M84.966 96.5583L85.0357 96.5963V99.097L84.966 99.0558V96.5583Z" fill="#455A64"/>
<path d="M84.3861 96.238L84.4558 96.2792V98.7767L84.3861 98.7355V96.238Z" fill="#455A64"/>
<path d="M83.2513 95.5725L83.3211 95.6137V98.1113L83.2513 98.0701V95.5725Z" fill="#455A64"/>
<path d="M82.6269 95.2145L82.6966 95.2557V97.7533L82.6269 97.7152V95.2145Z" fill="#455A64"/>
<path d="M82.1801 94.9702L82.2498 95.0083V97.509L82.1801 97.4678V94.9702Z" fill="#455A64"/>
<path d="M81.5746 94.5994L81.6444 94.6406V97.1381L81.5746 97.1001V94.5994Z" fill="#455A64"/>
<path d="M85.2069 96.7008L85.3464 96.78V99.2776L85.2069 99.1983V96.7008Z" fill="#455A64"/>
<path d="M93.083 75.361L78.1643 83.9756L96.8484 94.7836L111.767 86.1467L93.083 75.361Z" fill="#455A64"/>
<path opacity="0.1" d="M78.1643 83.9753L96.8484 94.2508L111.767 86.1464L96.8484 94.7832L78.1643 83.9753Z" fill="white"/>
<path d="M84.3544 80.397L103.051 91.1922L105.349 89.8642L86.6554 79.069L84.3544 80.397Z" fill="#FFD657"/>
<path d="M105.349 89.8609V92.7832L105.07 92.6247L104.782 93.1223L104.493 92.9543L104.205 93.4583L103.916 93.2871L103.628 93.7847L103.336 93.6199L103.048 94.1207V91.1921L105.349 89.8609Z" fill="#FFD657"/>
<path opacity="0.25" d="M105.349 89.8609V92.7832L105.07 92.6247L104.782 93.1223L104.493 92.9543L104.205 93.4583L103.916 93.2871L103.628 93.7847L103.336 93.6199L103.048 94.1207V91.1921L105.349 89.8609Z" fill="black"/>
<path opacity="0.1" d="M95.4538 77.2245L82.4431 84.7362L95.4538 92.2732L108.468 84.7362L95.4538 77.2245Z" fill="black"/>
<path d="M84.5793 84.5713L95.4538 78.2926L106.331 84.5713L95.4538 90.8532L84.5793 84.5713Z" fill="black"/>
<path d="M95.4538 78.2923V65.868L84.3226 72.2957L95.0671 78.5174L95.4538 78.2923Z" fill="#37474F"/>
<path d="M95.4538 65.8678V78.2922L95.8437 78.5172L106.585 72.2955L95.4538 65.8678Z" fill="#263238"/>
<path d="M84.3226 72.2959V84.4255L95.4538 90.8532V78.7427L84.3226 72.2959Z" fill="#263238"/>
<path d="M95.4538 78.7425V90.853L106.585 84.4253V72.2957L95.4538 78.7425Z" fill="#37474F"/>
<path d="M95.4538 78.7427L95.7074 90.3905L105.032 85.3225L95.4538 90.8532V78.7427Z" fill="#455A64"/>
<path d="M96.991 86.9546C96.9442 86.9558 96.8981 86.9437 96.8579 86.9197C96.8011 86.8793 96.7559 86.8246 96.727 86.7612C96.698 86.6977 96.6863 86.6278 96.6931 86.5584V85.4839V85.4015H96.747L97.5901 84.9071V86.1051C97.5901 86.2583 97.5539 86.4094 97.4845 86.546C97.4151 86.6826 97.3144 86.8008 97.1907 86.8912C97.1319 86.9317 97.0624 86.9538 96.991 86.9546ZM96.8294 85.5632V86.5742C96.8238 86.6201 96.8295 86.6666 96.8461 86.7097C96.8627 86.7528 96.8896 86.7912 96.9245 86.8214C96.9545 86.8337 96.9871 86.8381 97.0193 86.8342C97.0514 86.8304 97.0821 86.8183 97.1083 86.7993C97.2131 86.7223 97.2989 86.6222 97.3588 86.5068C97.4187 86.3914 97.4512 86.2637 97.4538 86.1337V86.0449H97.1368L97.0766 85.6266L96.8294 85.5632ZM97.2604 85.8959H97.4538V85.1543L96.953 85.4491L97.2002 85.4934L97.2604 85.8959Z" fill="#E0E0E0"/>
<path d="M97.14 87.8105C97.1224 87.8105 97.1054 87.8035 97.0929 87.791C97.0805 87.7785 97.0735 87.7616 97.0735 87.7439V86.8438C97.0712 86.8336 97.0713 86.8231 97.0737 86.8129C97.0761 86.8028 97.0808 86.7933 97.0873 86.7852C97.0939 86.7771 97.1021 86.7706 97.1115 86.7661C97.1209 86.7616 97.1312 86.7593 97.1416 86.7593C97.152 86.7593 97.1623 86.7616 97.1717 86.7661C97.1811 86.7706 97.1893 86.7771 97.1959 86.7852C97.2024 86.7933 97.2071 86.8028 97.2094 86.8129C97.2118 86.8231 97.2119 86.8336 97.2097 86.8438V87.7439C97.2097 87.7529 97.2079 87.7618 97.2044 87.7701C97.2008 87.7784 97.1957 87.7859 97.1891 87.7921C97.1826 87.7984 97.1749 87.8032 97.1665 87.8064C97.158 87.8095 97.149 87.8109 97.14 87.8105Z" fill="#E0E0E0"/>
<path d="M96.7501 88.0386C96.738 88.0383 96.7261 88.0349 96.7156 88.0288C96.7051 88.0227 96.6962 88.0141 96.6899 88.0037C96.6817 87.9881 96.6797 87.9698 96.6844 87.9528C96.6891 87.9357 96.7001 87.921 96.7152 87.9118L97.4981 87.4586C97.5132 87.4534 97.5297 87.4536 97.5447 87.4592C97.5597 87.4647 97.5723 87.4752 97.5805 87.489C97.5887 87.5027 97.5919 87.5188 97.5896 87.5346C97.5872 87.5505 97.5796 87.565 97.5678 87.5758L96.7818 88.0291C96.7723 88.0351 96.7613 88.0384 96.7501 88.0386Z" fill="#E0E0E0"/>
<path d="M99.5424 86.4855C99.5158 86.4859 99.4896 86.4793 99.4663 86.4665C99.4399 86.449 99.4186 86.4248 99.4047 86.3964C99.3908 86.368 99.3847 86.3364 99.3871 86.3048V86.1178C99.3871 86.1002 99.3941 86.0832 99.4066 86.0707C99.4191 86.0583 99.436 86.0513 99.4537 86.0513C99.4713 86.0513 99.4883 86.0583 99.5007 86.0707C99.5132 86.0832 99.5202 86.1002 99.5202 86.1178V86.3048C99.5154 86.3192 99.5154 86.3348 99.5202 86.3492C99.5202 86.3492 99.5424 86.3492 99.5646 86.3492C99.6082 86.3093 99.6422 86.2601 99.6642 86.2052C99.6861 86.1503 99.6954 86.0912 99.6914 86.0322V84.8342C99.6914 84.8165 99.6984 84.7996 99.7109 84.7871C99.7234 84.7746 99.7403 84.7676 99.7579 84.7676C99.7756 84.7676 99.7925 84.7746 99.805 84.7871C99.8175 84.7996 99.8245 84.8165 99.8245 84.8342V86.0322C99.828 86.1125 99.8126 86.1924 99.7796 86.2656C99.7465 86.3388 99.6968 86.4033 99.6343 86.4538C99.6068 86.4718 99.5752 86.4826 99.5424 86.4855Z" fill="#E0E0E0"/>
<path d="M98.8293 85.4364V85.3064C98.8456 85.007 98.9325 84.7157 99.0829 84.4562C99.2332 84.1968 99.4428 83.9766 99.6945 83.8136C99.7842 83.7384 99.8948 83.6925 100.011 83.6823C100.128 83.6721 100.245 83.6979 100.346 83.7564C100.448 83.8149 100.529 83.9032 100.578 84.0092C100.628 84.1153 100.643 84.234 100.623 84.3493V84.3904L98.8293 85.4364ZM100.097 83.8516C99.9779 83.8566 99.8621 83.8927 99.7611 83.9562C99.5455 84.0977 99.3632 84.2843 99.227 84.5033C99.0907 84.7222 99.0037 84.9681 98.9719 85.224L100.487 84.3493C100.493 84.2644 100.477 84.1795 100.441 84.1025C100.405 84.0254 100.35 83.9588 100.281 83.9087C100.227 83.8703 100.163 83.8463 100.097 83.839V83.8516Z" fill="#E0E0E0"/>
<path d="M101.964 85.1038C101.946 85.1038 101.929 85.0968 101.917 85.0843C101.904 85.0718 101.897 85.0549 101.897 85.0373V82.7426C101.897 82.7249 101.904 82.708 101.917 82.6955C101.929 82.683 101.946 82.676 101.964 82.676C101.982 82.676 101.999 82.683 102.011 82.6955C102.023 82.708 102.03 82.7249 102.03 82.7426V85.0373C102.03 85.046 102.029 85.0547 102.025 85.0627C102.022 85.0708 102.017 85.0781 102.011 85.0843C102.005 85.0905 101.997 85.0954 101.989 85.0987C101.981 85.1021 101.973 85.1038 101.964 85.1038Z" fill="#E0E0E0"/>
<path d="M101.767 83.2653H101.739C101.731 83.2618 101.723 83.2568 101.717 83.2504C101.711 83.2441 101.706 83.2365 101.703 83.2282C101.699 83.22 101.698 83.2111 101.698 83.2022C101.698 83.1934 101.7 83.1846 101.704 83.1765L101.945 82.6219L102.211 82.9388C102.217 82.945 102.222 82.9524 102.226 82.9606C102.229 82.9687 102.231 82.9775 102.231 82.9863C102.231 82.9952 102.229 83.004 102.226 83.0121C102.222 83.0203 102.217 83.0277 102.211 83.0339C102.198 83.0459 102.181 83.0526 102.164 83.0526C102.146 83.0526 102.129 83.0459 102.116 83.0339L101.989 82.8881L101.834 83.2462C101.826 83.2552 101.815 83.2617 101.803 83.2651C101.792 83.2684 101.779 83.2685 101.767 83.2653Z" fill="#E0E0E0"/>
<path d="M102.579 84.7487C102.561 84.7487 102.544 84.7418 102.531 84.7294C102.518 84.717 102.51 84.7 102.509 84.6821V82.3842C102.512 82.3687 102.521 82.3547 102.533 82.3447C102.546 82.3347 102.561 82.3293 102.577 82.3293C102.593 82.3293 102.609 82.3347 102.621 82.3447C102.633 82.3547 102.642 82.3687 102.645 82.3842V84.6726C102.646 84.682 102.645 84.6915 102.642 84.7005C102.639 84.7095 102.635 84.7178 102.628 84.7249C102.622 84.732 102.615 84.7378 102.606 84.7419C102.598 84.746 102.588 84.7483 102.579 84.7487Z" fill="#E0E0E0"/>
<path d="M102.389 82.9104H102.363C102.355 82.907 102.348 82.9019 102.341 82.8956C102.335 82.8892 102.33 82.8817 102.327 82.8734C102.324 82.8651 102.322 82.8563 102.323 82.8474C102.323 82.8385 102.325 82.8298 102.328 82.8217L102.569 82.267L102.836 82.584C102.847 82.5974 102.853 82.615 102.852 82.6328C102.851 82.6507 102.843 82.6673 102.829 82.6791C102.823 82.6849 102.815 82.6893 102.806 82.6922C102.798 82.695 102.789 82.6962 102.78 82.6956C102.762 82.6944 102.746 82.6862 102.734 82.6727L102.607 82.5269L102.452 82.8851C102.445 82.8944 102.435 82.9016 102.424 82.906C102.413 82.9105 102.4 82.912 102.389 82.9104Z" fill="#E0E0E0"/>
<path d="M87.0737 80.9074L90.5792 82.9295C90.625 82.9602 90.6632 83.001 90.6907 83.0488C90.7182 83.0967 90.7343 83.1502 90.7376 83.2052V85.6394C90.7376 85.8422 90.595 85.9247 90.4207 85.8232L86.9153 83.7979C86.8699 83.7678 86.8322 83.7274 86.8052 83.6801C86.7782 83.6328 86.7627 83.5798 86.7599 83.5254V81.088C86.7599 80.8884 86.9026 80.8059 87.0737 80.9074Z" fill="#FAFAFA"/>
<path d="M86.9881 81.2844L87.1054 81.3541V83.503L86.9881 83.4364V81.2844Z" fill="#455A64"/>
<path d="M87.4731 81.5666L87.6791 81.687V83.8359L87.4731 83.7155V81.5666Z" fill="#455A64"/>
<path d="M87.958 81.8454L88.0784 81.9152V84.0641L87.958 83.9943V81.8454Z" fill="#455A64"/>
<path d="M88.3257 82.0513L88.5634 82.1939V84.3428L88.3257 84.2034V82.0513Z" fill="#455A64"/>
<path d="M88.9279 82.4062L89.0483 82.4728V84.6249L88.9279 84.5551V82.4062Z" fill="#455A64"/>
<path d="M89.2797 82.6028L89.5332 82.755V84.9039L89.2797 84.7517V82.6028Z" fill="#455A64"/>
<path d="M89.9008 82.9674L90.0181 83.034V85.1861L89.9008 85.1163V82.9674Z" fill="#455A64"/>
<path d="M90.1766 83.1227L90.2368 83.1575V85.3064L90.1766 85.2747V83.1227Z" fill="#455A64"/>
<path d="M89.679 82.8503L89.7392 82.8819V85.034L89.679 84.9992V82.8503Z" fill="#455A64"/>
<path d="M88.6997 82.2763L88.7599 82.3112V84.4601L88.6997 84.4252V82.2763Z" fill="#455A64"/>
<path d="M88.164 81.9691L88.2242 82.004V84.1529L88.164 84.118V81.9691Z" fill="#455A64"/>
<path d="M87.7805 81.7567L87.8408 81.7916V83.9405L87.7805 83.9056V81.7567Z" fill="#455A64"/>
<path d="M87.2607 81.4395L87.3178 81.4744V83.6233L87.2607 83.5885V81.4395Z" fill="#455A64"/>
<path d="M90.3858 83.2463L90.5031 83.3161V85.465L90.3858 85.3952V83.2463Z" fill="#455A64"/>
<path d="M95.4538 65.868L84.3226 72.2957L95.4538 78.7424L106.585 72.2957L95.4538 65.868Z" fill="#455A64"/>
<path opacity="0.1" d="M84.3226 72.2959L95.4538 78.283L106.585 72.2959L95.4538 78.7426L84.3226 72.2959Z" fill="white"/>
<path d="M89.2702 69.4401L100.411 75.871L102.389 74.7268L91.2511 68.296L89.2702 69.4401Z" fill="#FFD657"/>
<path d="M102.389 74.7269V77.2403L102.151 77.104L101.901 77.5319L101.653 77.3861L101.406 77.8203L101.156 77.6745L100.908 78.1024L100.658 77.9597L100.411 78.3908V75.8711L102.389 74.7269Z" fill="#FFD657"/>
<path opacity="0.25" d="M102.389 74.7269V77.2403L102.151 77.104L101.901 77.5319L101.653 77.3861L101.406 77.8203L101.156 77.6745L100.908 78.1024L100.658 77.9597L100.411 78.3908V75.8711L102.389 74.7269Z" fill="black"/>
<path d="M154.817 108.986C153.993 109.461 153.061 109.452 152.05 109.068L151.378 103.636L154.865 102.83L154.817 108.986Z" fill="#B16668"/>
<path d="M144.748 106.716C144.082 108.269 143.112 107.762 141.638 106.824L141.524 101.471L145.328 101.211L144.748 106.716Z" fill="#B16668"/>
<path d="M148.89 114.009C148.813 114.316 148.832 114.639 148.944 114.935C149.058 115.103 149.66 115.616 150.798 115.664C151.885 115.708 152.849 115.534 153.473 115.112C153.743 114.96 153.971 114.744 154.137 114.482C154.303 114.221 154.401 113.922 154.424 113.613C154.468 112.979 154.38 112.399 154.662 111.914C154.944 111.429 155.27 111.027 155.359 110.786C155.468 110.351 155.481 109.898 155.397 109.458L148.89 114.009Z" fill="#263238"/>
<path d="M151.654 108.84C151.646 109.074 151.609 109.306 151.543 109.531C151.388 110.014 151.176 110.477 150.909 110.91C150.779 111.137 150.634 111.355 150.475 111.563C150.158 111.962 149.762 112.295 149.426 112.678C149.064 113.042 148.84 113.521 148.792 114.032C148.77 114.884 149.702 115.144 150.418 115.252C151.191 115.363 151.98 115.299 152.725 115.065C153.122 114.955 153.478 114.732 153.75 114.423C154.022 114.114 154.198 113.732 154.256 113.325C154.288 113.087 154.256 112.846 154.288 112.605C154.367 112.059 154.579 111.541 154.906 111.097C155.095 110.84 155.257 110.564 155.388 110.273C155.594 109.74 155.388 109.151 155.242 108.631C155.106 108.181 155.001 107.642 154.842 107.68C154.842 107.772 154.842 107.972 154.842 107.972C154.795 108.07 154.681 108.14 154.649 108.257C154.62 108.378 154.58 108.497 154.532 108.612C154.456 108.788 154.329 108.937 154.167 109.04L154.104 108.089C154.108 107.988 154.079 107.889 154.022 107.807C153.945 107.74 153.847 107.702 153.746 107.699C153.147 107.573 152.532 107.54 151.923 107.601C151.877 107.601 151.832 107.612 151.79 107.631C151.749 107.651 151.712 107.679 151.683 107.715C151.645 107.781 151.633 107.859 151.648 107.934C151.667 108.235 151.669 108.538 151.654 108.84Z" fill="#37474F"/>
<path d="M150.808 111.09C151.125 110.843 151.828 110.821 152.218 110.849C152.614 110.872 152.998 110.994 153.334 111.204C153.382 111.236 153.441 111.25 153.499 111.244C153.556 111.238 153.61 111.211 153.651 111.17C153.675 111.145 153.693 111.115 153.705 111.082C153.716 111.05 153.72 111.015 153.717 110.981C153.714 110.946 153.703 110.913 153.686 110.883C153.668 110.854 153.644 110.828 153.616 110.808C153.242 110.549 152.802 110.403 152.348 110.387C151.397 110.345 151.115 110.52 151.115 110.52C151.115 110.52 150.706 110.811 150.808 111.09Z" fill="#F5F5F5"/>
<path d="M150.107 111.984C150.497 111.737 151.28 111.749 151.67 111.778C152.058 111.806 152.432 111.936 152.754 112.155C152.803 112.186 152.861 112.199 152.918 112.193C152.976 112.186 153.03 112.161 153.071 112.12C153.095 112.095 153.113 112.066 153.125 112.033C153.136 112 153.14 111.966 153.137 111.931C153.134 111.897 153.123 111.864 153.106 111.834C153.088 111.804 153.064 111.778 153.036 111.759C152.659 111.489 152.215 111.33 151.752 111.299C150.801 111.261 150.551 111.464 150.551 111.464C150.443 111.512 150.347 111.583 150.27 111.673C150.193 111.763 150.137 111.869 150.107 111.984Z" fill="#F5F5F5"/>
<path d="M152.722 109.461C152.318 109.4 151.904 109.447 151.524 109.597C151.356 109.696 151.255 109.965 151.366 110.028C151.699 109.883 152.062 109.822 152.424 109.851C152.784 109.874 153.137 109.96 153.467 110.104C153.549 110.139 153.648 110.187 153.733 110.231C153.761 110.247 153.791 110.256 153.823 110.259C153.854 110.262 153.886 110.258 153.916 110.248C153.946 110.238 153.973 110.221 153.996 110.2C154.019 110.179 154.038 110.152 154.05 110.123C154.072 110.076 154.075 110.021 154.058 109.971C154.042 109.921 154.007 109.88 153.961 109.854C153.581 109.636 153.159 109.502 152.722 109.461Z" fill="#F5F5F5"/>
<path d="M135.794 110.282C135.72 110.533 135.744 110.802 135.86 111.036C135.971 111.255 137.15 111.873 138.713 111.721C139.864 111.604 140.962 111.182 141.895 110.498C142.478 110.086 143.096 109.994 143.867 109.927C144.637 109.861 145.226 109.61 145.385 109.239C145.463 108.912 145.443 108.57 145.328 108.254L135.794 110.282Z" fill="#263238"/>
<path d="M141.968 105.487C141.828 105.453 141.691 105.411 141.556 105.36C141.484 105.324 141.401 105.318 141.325 105.341C141.279 105.369 141.241 105.408 141.214 105.453C141.186 105.499 141.17 105.551 141.166 105.604C141.137 105.835 141.087 106.063 141.017 106.285C140.906 106.469 140.762 106.63 140.593 106.761C140.213 107.082 139.802 107.365 139.366 107.604C138.865 107.892 138.371 108.12 137.851 108.371C137.331 108.621 136.612 108.799 136.2 109.093C135.601 109.524 135.566 110.564 136.263 110.954C136.875 111.29 138.482 111.626 140.12 111.106C141.017 110.821 141.993 109.838 143.179 109.696C143.933 109.616 144.938 109.521 145.397 108.935C145.569 108.675 145.442 107.933 145.328 107.059C145.226 106.273 145.147 105.049 144.897 105.125C144.897 105.125 144.795 105.41 144.776 105.442C144.712 105.539 144.64 105.63 144.561 105.715C144.493 105.784 144.421 105.85 144.345 105.911C144.259 106.005 144.168 106.094 144.073 106.177C143.949 106.28 143.796 106.34 143.635 106.349C143.559 106.352 143.483 106.333 143.417 106.295C143.29 106.219 143.277 106.051 143.176 105.943C143.058 105.822 142.918 105.727 142.764 105.661C142.546 105.576 142.318 105.524 142.085 105.506C142.05 105.502 142.006 105.493 141.968 105.487Z" fill="#37474F"/>
<path d="M140.06 107.176C140.111 107.07 140.188 106.98 140.283 106.911C140.378 106.843 140.489 106.8 140.605 106.786C140.947 106.713 141.556 106.948 141.949 107.249C141.986 107.277 142.015 107.313 142.034 107.355C142.053 107.397 142.062 107.442 142.06 107.488C142.057 107.534 142.043 107.579 142.02 107.618C141.996 107.658 141.963 107.691 141.924 107.715C141.874 107.743 141.818 107.755 141.761 107.751C141.705 107.746 141.651 107.725 141.607 107.689C141.178 107.323 140.623 107.138 140.06 107.176Z" fill="#F5F5F5"/>
<path d="M139.011 107.81C139.083 107.701 139.18 107.612 139.293 107.549C139.407 107.486 139.534 107.452 139.664 107.448C140.194 107.457 140.707 107.632 141.131 107.949C141.166 107.976 141.194 108.012 141.212 108.052C141.231 108.092 141.239 108.136 141.237 108.18C141.235 108.224 141.222 108.267 141.2 108.305C141.178 108.343 141.146 108.376 141.109 108.399C141.06 108.429 141.003 108.442 140.947 108.438C140.89 108.433 140.836 108.411 140.792 108.374C140.557 108.152 140.274 107.986 139.966 107.888C139.658 107.791 139.331 107.764 139.011 107.81Z" fill="#F5F5F5"/>
<path d="M137.851 108.371C137.935 108.272 138.039 108.193 138.156 108.139C138.273 108.084 138.4 108.055 138.529 108.054C139.04 108.07 139.533 108.247 139.936 108.561C139.971 108.588 139.999 108.624 140.017 108.664C140.036 108.705 140.044 108.749 140.042 108.793C140.04 108.838 140.027 108.881 140.005 108.919C139.983 108.958 139.952 108.99 139.914 109.014C139.865 109.043 139.808 109.056 139.751 109.051C139.694 109.046 139.64 109.023 139.597 108.986C139.374 108.754 139.1 108.578 138.797 108.472C138.494 108.365 138.17 108.33 137.851 108.371Z" fill="#F5F5F5"/>
<path d="M129.686 59.5956C129.084 59.041 128.45 57.7129 127.959 58.4419C127.642 58.9332 128.314 59.266 128.276 59.8872C128.238 60.5084 126.346 59.0346 125.557 58.4831C125.03 58.1155 123.816 59.266 124.305 60.5116C124.736 61.6177 125.427 62.3182 126.666 62.8412C127.975 63.3958 128.659 63.6716 130.301 64.4101C131.037 63.3673 131.55 62.3372 131.369 61.3357C130.079 60.5845 130.206 60.0742 129.686 59.5956Z" fill="#FFD657"/>
<path opacity="0.7" d="M129.686 59.5956C129.084 59.041 128.45 57.7129 127.959 58.4419C127.642 58.9332 128.314 59.266 128.276 59.8872C128.238 60.5084 126.346 59.0346 125.557 58.4831C125.03 58.1155 123.816 59.266 124.305 60.5116C124.736 61.6177 125.427 62.3182 126.666 62.8412C127.975 63.3958 128.659 63.6716 130.301 64.4101C131.037 63.3673 131.55 62.3372 131.369 61.3357C130.079 60.5845 130.206 60.0742 129.686 59.5956Z" fill="white"/>
<path opacity="0.1" d="M129.686 59.5956C129.084 59.041 128.45 57.7129 127.959 58.4419C127.642 58.9332 128.314 59.266 128.276 59.8872C128.238 60.5084 126.346 59.0346 125.557 58.4831C125.03 58.1155 123.816 59.266 124.305 60.5116C124.736 61.6177 125.427 62.3182 126.666 62.8412C127.975 63.3958 128.659 63.6716 130.301 64.4101C131.037 63.3673 131.55 62.3372 131.369 61.3357C130.079 60.5845 130.206 60.0742 129.686 59.5956Z" fill="black"/>
<path opacity="0.1" d="M128.149 60.5434C128.149 61.1012 128.301 61.9887 129.1 62.4451C128.9 62.4179 128.709 62.3433 128.544 62.2275C128.379 62.1117 128.243 61.9581 128.149 61.7795C128.046 61.5897 127.992 61.3773 127.992 61.1614C127.992 60.9456 128.046 60.7331 128.149 60.5434Z" fill="black"/>
<path d="M145.239 53.3677C144.526 54.3185 144.821 53.9287 144.605 55.3803C144.428 56.5498 141.971 67.8047 139.746 68.2706C138.77 68.4766 131.727 65.2532 130.019 64.3119C130.664 63.4204 131.123 62.4083 131.369 61.3357C133.417 62.1376 136.944 62.9205 138.212 63.3198C138.799 61.6844 139.515 60.0046 140.187 58.3533C141.461 55.2123 142.187 52.9778 145.239 53.3677Z" fill="#455A64"/>
<path d="M154.456 72.4067C154.456 74.9043 154.627 89.4268 154.627 89.4268C154.69 90.1463 155.381 91.4236 155.435 94.0131C155.514 97.7657 155.365 108.799 155.365 108.799C155.365 108.799 153.02 109.658 151.378 108.973C151.378 108.973 149.632 94.7452 149.16 91.0306C148.751 87.7882 147.917 80.3843 147.917 80.3843L146.76 90.2097C146.931 91.7767 146.975 93.3549 146.893 94.929C146.773 96.6501 145.283 106.276 145.283 106.276C145.283 106.276 142.802 106.796 141.014 106.193C141.014 106.193 141.109 90.701 141.081 89.1226C141.046 87.3255 141.829 71.8616 141.829 71.8616L154.456 72.4067Z" fill="#FFD657"/>
<path opacity="0.4" d="M154.456 72.4067C154.456 74.9043 154.627 89.4268 154.627 89.4268C154.69 90.1463 155.381 91.4236 155.435 94.0131C155.514 97.7657 155.365 108.799 155.365 108.799C155.365 108.799 153.02 109.658 151.378 108.973C151.378 108.973 149.632 94.7452 149.16 91.0306C148.751 87.7882 147.917 80.3843 147.917 80.3843L146.76 90.2097C146.931 91.7767 146.975 93.3549 146.893 94.929C146.773 96.6501 145.283 106.276 145.283 106.276C145.283 106.276 142.802 106.796 141.014 106.193C141.014 106.193 141.109 90.701 141.081 89.1226C141.046 87.3255 141.829 71.8616 141.829 71.8616L154.456 72.4067Z" fill="black"/>
<path opacity="0.15" d="M147.917 80.3844L147.711 78.8535C146.973 78.7267 145.122 77.5065 144.031 76.4542C144.796 77.6718 145.844 78.6855 147.087 79.4082L146.931 89.1353L147.917 80.3844Z" fill="black"/>
<path d="M149.949 53.3233C150.503 53.4564 151.85 53.6212 152.827 53.9033C153.549 54.1093 153.854 54.9936 154.006 55.6592C154.487 57.7891 154.573 62.2549 154.573 62.2549L154.602 72.6571C152.798 73.9693 145.41 74.6349 141.607 71.8679C141.607 71.8679 142.069 59.4784 142.069 57.5514C142.069 55.6244 143.141 53.3075 146.098 53.1331L149.949 53.3233Z" fill="#455A64"/>
<path d="M150.32 53.3994C150.418 53.4208 150.51 53.4636 150.59 53.5247C150.67 53.5858 150.735 53.6638 150.781 53.7531C150.828 53.8423 150.854 53.9407 150.858 54.0411C150.862 54.1416 150.844 54.2417 150.805 54.3344C150.408 55.2415 149.873 56.0819 149.22 56.8256C148.142 58.0553 145.86 59.0442 145.86 59.0442C145.86 59.0442 144.729 57.7764 144.935 56.328C145.141 54.8795 145.727 53.6688 146.164 53.3296C146.28 53.2526 146.407 53.1958 146.542 53.1617V52.9778C145.893 52.9163 145.24 52.9941 144.624 53.206C143.854 53.5483 142.488 54.122 142.057 56.4928C141.626 58.8635 141.261 72.2039 141.261 72.2039C141.261 72.2039 145.835 76.3496 154.842 73.3164V62.3341C154.842 62.3341 154.776 57.1996 153.423 53.8526L150.332 53.2187L150.32 53.3994Z" fill="#FFD657"/>
<path opacity="0.1" d="M154.833 67.4212C153.714 68.2262 152.212 69.2626 151.121 69.9568C150.805 70.1596 150.519 70.3339 150.291 70.467C150.012 70.6287 149.581 70.4068 149.264 70.3434C148.418 70.1691 147.879 70.3054 147.084 70.3434C146.45 70.372 146.114 70.1976 146.057 70.3434C146.007 70.5154 146.024 70.6998 146.105 70.8596C146.185 71.0195 146.323 71.143 146.491 71.2055C146.858 71.3547 147.241 71.4611 147.632 71.5225C146.991 71.8272 146.305 72.0263 145.6 72.112C144.164 72.2927 143.562 72.7459 144.5 73.8489C145.889 74.2628 147.334 74.4574 148.782 74.4257C149.099 74.2894 149.454 74.1088 149.828 73.9313C150.354 73.6555 151.438 73.0438 152.456 72.4923C152.931 72.2324 153.407 71.9852 153.774 71.7982C154.142 71.6112 154.472 71.4559 154.833 71.2848V67.4212Z" fill="black"/>
<path opacity="0.1" d="M153.72 54.7116C152.215 58.0237 154.51 60.7336 154.51 60.7336L154.811 61.6369C154.747 60.2994 154.522 57.2123 153.72 54.7116Z" fill="black"/>
<path d="M141.439 66.6067C142.177 67.9347 145.607 68.7303 148.567 68.7747C151.527 68.819 153.987 67.9728 154.833 67.1899V65.8999C153.987 66.6923 151.527 67.5449 148.567 67.4847C145.607 67.4245 142.228 66.6321 141.489 65.3041L141.439 66.6067Z" fill="#FAFAFA"/>
<path d="M154.833 69.5733C153.987 70.3657 151.527 71.2183 148.567 71.1581C145.607 71.0979 142.092 70.2865 141.353 68.9585L141.398 67.6621C142.136 68.9902 145.607 69.811 148.567 69.8554C151.527 69.8998 153.987 69.0535 154.833 68.2707V69.5733Z" fill="#FAFAFA"/>
<path opacity="0.15" d="M145.86 59.0378L145.654 74.1404C145.423 74.0928 145.204 74.039 144.989 73.9851L145.86 59.0378Z" fill="black"/>
<path d="M134.127 65.2152L144.624 65.922L149.965 77.7568L139.933 76.825L134.127 65.2152Z" fill="#263238"/>
<path opacity="0.15" d="M143.841 73.4021C143.994 73.7951 144.248 74.1407 144.577 74.4035C144.907 74.6663 145.3 74.837 145.718 74.8981C146.656 74.9791 147.599 74.8038 148.446 74.391L148 73.4021H143.841Z" fill="black"/>
<path opacity="0.15" d="M137.398 66.4482L137.242 66.0805C137.157 65.8809 137.74 65.7636 138.548 65.808L140.092 65.9062C140.9 65.9601 141.626 66.163 141.711 66.3658L141.867 66.7303L137.398 66.4482Z" fill="black"/>
<path d="M136.428 65.1423C136.374 65.0155 136.605 64.9362 136.944 64.9616L137.556 65.0123C137.556 65.0123 137.223 64.2199 138.574 64.2611C139.924 64.3023 140.386 65.1803 140.386 65.1803L141.043 65.2373C141.326 65.2352 141.602 65.334 141.819 65.5162L141.936 65.7413L136.529 65.3768L136.428 65.1423Z" fill="#FFD657"/>
<path opacity="0.3" d="M136.428 65.1423C136.374 65.0155 136.605 64.9362 136.944 64.9616L137.556 65.0123C137.556 65.0123 137.223 64.2199 138.574 64.2611C139.924 64.3023 140.386 65.1803 140.386 65.1803L141.043 65.2373C141.326 65.2352 141.602 65.334 141.819 65.5162L141.936 65.7413L136.529 65.3768L136.428 65.1423Z" fill="black"/>
<path d="M141.654 66.4133C141.585 66.2453 141.071 66.0773 140.434 65.9949C140.434 65.9727 140.418 65.9537 140.412 65.9347C140.339 65.7604 140.396 65.6336 140.776 65.6621V65.51L137.033 65.2881L137.214 65.4181C137.705 65.4403 137.914 65.4656 138.047 65.7762L138.076 65.8459C137.496 65.8459 137.125 65.9632 137.182 66.128L137.337 66.4957L141.81 66.7778L141.654 66.4133Z" fill="#FFD657"/>
<path opacity="0.4" d="M141.654 66.4133C141.585 66.2453 141.071 66.0773 140.434 65.9949C140.434 65.9727 140.418 65.9537 140.412 65.9347C140.339 65.7604 140.396 65.6336 140.776 65.6621V65.51L137.033 65.2881L137.214 65.4181C137.705 65.4403 137.914 65.4656 138.047 65.7762L138.076 65.8459C137.496 65.8459 137.125 65.9632 137.182 66.128L137.337 66.4957L141.81 66.7778L141.654 66.4133Z" fill="black"/>
<path d="M150.551 69.6207C150.234 69.8267 149.949 70.0011 149.721 70.1342C149.442 70.2927 149.011 70.074 148.694 70.0106C147.847 69.8363 147.309 69.9725 146.513 70.0106C145.879 70.0423 145.543 69.868 145.486 70.0106C145.436 70.1825 145.453 70.3672 145.533 70.5273C145.614 70.6873 145.752 70.8108 145.92 70.8727C146.287 71.0236 146.67 71.13 147.061 71.1896C146.42 71.4944 145.734 71.6934 145.03 71.7791C143.42 71.982 142.852 72.5081 144.339 73.9534C145.271 74.8567 146.573 74.993 149.258 73.5984C149.784 73.3227 150.868 72.7078 151.885 72.1563C151.848 71.6649 151.71 71.1864 151.481 70.7503C151.251 70.3142 150.935 69.9298 150.551 69.6207Z" fill="#FFD657"/>
<path opacity="0.7" d="M150.551 69.6207C150.234 69.8267 149.949 70.0011 149.721 70.1342C149.442 70.2927 149.011 70.074 148.694 70.0106C147.847 69.8363 147.309 69.9725 146.513 70.0106C145.879 70.0423 145.543 69.868 145.486 70.0106C145.436 70.1825 145.453 70.3672 145.533 70.5273C145.614 70.6873 145.752 70.8108 145.92 70.8727C146.287 71.0236 146.67 71.13 147.061 71.1896C146.42 71.4944 145.734 71.6934 145.03 71.7791C143.42 71.982 142.852 72.5081 144.339 73.9534C145.271 74.8567 146.573 74.993 149.258 73.5984C149.784 73.3227 150.868 72.7078 151.885 72.1563C151.848 71.6649 151.71 71.1864 151.481 70.7503C151.251 70.3142 150.935 69.9298 150.551 69.6207Z" fill="white"/>
<path opacity="0.1" d="M150.551 69.6207C150.234 69.8267 149.949 70.0011 149.721 70.1342C149.442 70.2927 149.011 70.074 148.694 70.0106C147.847 69.8363 147.309 69.9725 146.513 70.0106C145.879 70.0423 145.543 69.868 145.486 70.0106C145.436 70.1825 145.453 70.3672 145.533 70.5273C145.614 70.6873 145.752 70.8108 145.92 70.8727C146.287 71.0236 146.67 71.13 147.061 71.1896C146.42 71.4944 145.734 71.6934 145.03 71.7791C143.42 71.982 142.852 72.5081 144.339 73.9534C145.271 74.8567 146.573 74.993 149.258 73.5984C149.784 73.3227 150.868 72.7078 151.885 72.1563C151.848 71.6649 151.71 71.1864 151.481 70.7503C151.251 70.3142 150.935 69.9298 150.551 69.6207Z" fill="black"/>
<path d="M157.597 57.6148C156.646 54.2869 155.359 54.008 153.413 53.8527C151.404 57.393 153.939 60.4071 153.939 60.4071L155.781 65.9284C155.495 66.2453 152.421 68.4259 150.551 69.6208C151.09 70.0614 151.885 71.4116 151.885 72.1564C152.361 71.8997 152.836 71.6525 153.204 71.4623C156.041 70.0519 159.828 68.5527 159.891 67.1169C159.955 65.6812 158.579 61.1203 157.597 57.6148Z" fill="#455A64"/>
<path d="M146.599 47.2252C146.602 47.3052 146.629 47.3823 146.677 47.447C146.724 47.5116 146.789 47.5611 146.864 47.5891C146.939 47.6172 147.02 47.6226 147.098 47.6047C147.176 47.5869 147.247 47.5465 147.303 47.4887C147.358 47.4308 147.395 47.358 147.409 47.2792C147.424 47.2005 147.415 47.1193 147.383 47.0457C147.352 46.972 147.299 46.9093 147.233 46.8651C147.166 46.821 147.088 46.7974 147.008 46.7973C146.897 46.8007 146.792 46.8474 146.715 46.9275C146.639 47.0075 146.597 47.1145 146.599 47.2252Z" fill="#263238"/>
<path d="M147.008 45.8401L147.854 46.3219C147.915 46.2064 147.929 46.0714 147.892 45.9459C147.856 45.8203 147.771 45.7141 147.657 45.6499C147.602 45.6189 147.542 45.5992 147.479 45.5919C147.416 45.5847 147.353 45.5901 147.292 45.6078C147.232 45.6255 147.175 45.6552 147.126 45.6951C147.077 45.735 147.037 45.7843 147.008 45.8401Z" fill="#263238"/>
<path d="M146.703 49.7228L145.752 50.0778C145.772 50.1408 145.805 50.1991 145.848 50.2493C145.891 50.2995 145.943 50.3406 146.002 50.3701C146.062 50.3997 146.126 50.4171 146.192 50.4213C146.258 50.4255 146.324 50.4165 146.386 50.3948C146.517 50.3468 146.623 50.2495 146.682 50.1238C146.742 49.998 146.749 49.854 146.703 49.7228Z" fill="#F28F8F"/>
<path d="M143.334 46.1794L144.104 45.5867C144.068 45.5345 144.022 45.4902 143.969 45.4564C143.915 45.4227 143.855 45.4002 143.792 45.3905C143.73 45.3807 143.666 45.3837 143.605 45.3995C143.543 45.4153 143.486 45.4434 143.436 45.4821C143.332 45.5625 143.263 45.6802 143.244 45.8103C143.225 45.9403 143.257 46.0727 143.334 46.1794Z" fill="#263238"/>
<path d="M143.508 47.2251C143.511 47.3028 143.537 47.3779 143.583 47.441C143.628 47.5041 143.692 47.5524 143.764 47.5799C143.837 47.6074 143.916 47.6128 143.992 47.5955C144.068 47.5782 144.137 47.539 144.191 47.4827C144.245 47.4264 144.281 47.3555 144.294 47.2789C144.308 47.2023 144.299 47.1234 144.268 47.052C144.237 46.9806 144.186 46.9198 144.121 46.8774C144.055 46.8349 143.979 46.8125 143.901 46.8131C143.849 46.8143 143.796 46.8259 143.748 46.8473C143.7 46.8687 143.656 46.8994 143.62 46.9376C143.583 46.9759 143.554 47.021 143.535 47.0703C143.516 47.1196 143.507 47.1722 143.508 47.2251Z" fill="#263238"/>
<path d="M145.654 46.5406L145.518 49.0287L144.215 48.5849L145.654 46.5406Z" fill="#F28F8F"/>
<path d="M146.605 46.6389L152.424 46.2079C153.549 47.0604 155.644 48.8544 155.641 49.352V49.6974C155.646 49.7108 155.646 49.7253 155.641 49.7387C155.435 50.1317 154.69 50.3725 153.537 50.3916C152.167 50.4169 150.05 50.2901 149.477 49.8084C148.637 49.0857 146.624 46.9559 146.624 46.9559L146.916 46.9337L146.605 46.6389Z" fill="#FFD657"/>
<path opacity="0.2" d="M146.605 46.6389L152.424 46.2079C153.549 47.0604 155.644 48.8544 155.641 49.352V49.6974C155.646 49.7108 155.646 49.7253 155.641 49.7387C155.435 50.1317 154.69 50.3725 153.537 50.3916C152.167 50.4169 150.05 50.2901 149.477 49.8084C148.637 49.0857 146.624 46.9559 146.624 46.9559L146.916 46.9337L146.605 46.6389Z" fill="black"/>
<path d="M152.424 46.5501C153.6 47.4408 155.838 49.3583 155.629 49.7513C155.419 50.1443 154.678 50.3852 153.524 50.4042C152.155 50.4296 150.038 50.3028 149.464 49.821C148.624 49.0984 146.611 46.9685 146.611 46.9685L152.424 46.5501Z" fill="#FFD657"/>
<path opacity="0.4" d="M152.424 46.5501C153.6 47.4408 155.838 49.3583 155.629 49.7513C155.419 50.1443 154.678 50.3852 153.524 50.4042C152.155 50.4296 150.038 50.3028 149.464 49.821C148.624 49.0984 146.611 46.9685 146.611 46.9685L152.424 46.5501Z" fill="black"/>
<path d="M152.424 46.5501C152.443 46.718 151.85 47.0699 151.85 47.0699L152.015 46.0461L152.424 46.5501Z" fill="#FFD657"/>
<path opacity="0.3" d="M152.424 46.5501C152.443 46.718 151.85 47.0699 151.85 47.0699L152.015 46.0461L152.424 46.5501Z" fill="black"/>
<path d="M150.896 43.1523C150.896 43.1523 151.806 43.279 152.139 43.9636C152.427 44.5595 152.323 45.9984 151.936 47.5673C151.716 48.5816 151.389 49.5697 150.96 50.5149C150.808 50.7822 150.56 50.9808 150.266 51.0696L150.31 49.2091L150.377 47.9128C150.377 47.9128 149.546 46.775 149.454 45.8431C149.337 44.6451 149.587 44.1538 149.587 44.1538L150.896 43.1523Z" fill="#263238"/>
<path d="M149.426 44.9496C149.42 45.8704 149.05 46.7515 148.397 47.4005C147.744 48.0496 146.86 48.4139 145.939 48.4138C145.066 48.3412 144.252 47.9422 143.659 47.2963C143.066 46.6503 142.739 45.8048 142.742 44.9283C142.745 44.0517 143.077 43.2083 143.674 42.5662C144.271 41.924 145.088 41.5302 145.962 41.4632C146.882 41.469 147.764 41.8389 148.413 42.4921C149.062 43.1453 149.426 44.0288 149.426 44.9496Z" fill="#263238"/>
<path d="M150.329 47.7039C150.646 47.9733 150.897 47.2728 151.16 46.9971C151.423 46.7213 152.278 46.3632 152.703 47.2538C153.128 48.1444 152.329 49.4724 151.67 49.7165C151.472 49.7923 151.254 49.7998 151.052 49.7378C150.849 49.6758 150.673 49.5478 150.551 49.3742V53.4945C149.562 55.2757 147.816 55.2219 146.884 55.1204C145.952 55.019 145.746 54.0523 146.428 53.2695V52.0017C145.91 52.0822 145.385 52.1066 144.862 52.0746C144.006 51.9414 143.559 51.298 143.306 50.3726C142.894 48.8861 142.729 46.3854 143.306 43.5011C144.256 42.7595 147.578 42.8672 149.584 44.154C149.442 46.7118 150.015 47.4313 150.329 47.7039Z" fill="#FFA8A7"/>
<path d="M143.667 42.2365C144.058 41.8125 144.534 41.4765 145.065 41.2508C145.494 41.0671 145.955 40.9691 146.421 40.9624C147.027 40.9624 147.632 40.8736 148.237 40.8926C149.29 40.9243 150.557 41.3522 151.033 42.3759C151.252 42.845 151.286 43.3268 150.858 43.6437C150.475 43.903 150.035 44.0671 149.575 44.1223C148.798 44.2586 148.025 44.4393 147.239 44.5344C146.399 44.6774 145.539 44.6656 144.703 44.4995C144.312 44.4082 143.94 44.2495 143.604 44.0304C143.433 43.9133 143.274 43.7807 143.128 43.6342C143.074 43.5772 142.925 43.4599 142.906 43.3807C142.887 43.3014 142.992 43.1493 143.03 43.0637C143.203 42.76 143.418 42.4816 143.667 42.2365Z" fill="#263238"/>
<path d="M146.437 51.9985C146.437 51.9985 148.339 51.6182 149.011 51.2664C149.404 51.0656 149.727 50.7493 149.936 50.3599C149.834 50.7486 149.655 51.1129 149.41 51.4312C148.919 52.0651 146.434 52.5056 146.434 52.5056L146.437 51.9985Z" fill="#F28F8F"/>
<path d="M146.783 47.07C146.781 47.1212 146.789 47.1721 146.808 47.2199C146.826 47.2677 146.854 47.3114 146.889 47.3483C146.925 47.3852 146.967 47.4147 147.014 47.4349C147.061 47.4552 147.112 47.4658 147.163 47.4662C147.266 47.4637 147.364 47.4208 147.436 47.3466C147.507 47.2725 147.547 47.1732 147.546 47.07C147.551 47.0169 147.545 46.9634 147.528 46.9129C147.511 46.8624 147.484 46.816 147.448 46.7766C147.412 46.7372 147.368 46.7058 147.319 46.6843C147.27 46.6628 147.218 46.6517 147.164 46.6517C147.111 46.6517 147.058 46.6628 147.01 46.6843C146.961 46.7058 146.917 46.7372 146.881 46.7766C146.845 46.816 146.818 46.8624 146.801 46.9129C146.784 46.9634 146.778 47.0169 146.783 47.07Z" fill="#263238"/>
<path d="M147.163 45.7388L148.012 46.1223C148.061 46.006 148.064 45.8752 148.019 45.7572C147.974 45.6391 147.885 45.5429 147.771 45.4884C147.715 45.4632 147.654 45.4497 147.593 45.4487C147.531 45.4478 147.47 45.4593 147.413 45.4828C147.356 45.5062 147.305 45.541 147.262 45.585C147.219 45.629 147.185 45.6814 147.163 45.7388Z" fill="#263238"/>
<path d="M146.744 49.6721L145.524 50.1253C145.549 50.2079 145.591 50.2846 145.647 50.3504C145.703 50.4163 145.772 50.47 145.85 50.5083C145.927 50.5466 146.012 50.5686 146.098 50.5731C146.184 50.5775 146.27 50.5643 146.351 50.5342C146.515 50.4682 146.647 50.342 146.72 50.1816C146.793 50.0211 146.802 49.8387 146.744 49.6721Z" fill="#B16668"/>
<path d="M146.351 50.5341C146.243 50.5722 146.126 50.581 146.012 50.5595C146.018 50.407 146.083 50.2627 146.193 50.1569C146.303 50.0511 146.449 49.992 146.602 49.9922C146.658 49.9924 146.713 50.0009 146.767 50.0175C146.749 50.1325 146.701 50.2408 146.628 50.3315C146.555 50.4222 146.46 50.4921 146.351 50.5341Z" fill="#F28F8F"/>
<path d="M143.588 45.9668L144.472 45.6499C144.454 45.5911 144.424 45.5367 144.384 45.4899C144.344 45.4432 144.295 45.4051 144.24 45.3781C144.184 45.3511 144.124 45.3357 144.063 45.3328C144.001 45.3299 143.94 45.3397 143.882 45.3615C143.766 45.4071 143.672 45.4946 143.617 45.6067C143.563 45.7188 143.552 45.8474 143.588 45.9668Z" fill="#263238"/>
<path d="M143.635 46.9559C143.63 47.009 143.637 47.0625 143.654 47.113C143.671 47.1635 143.698 47.2099 143.734 47.2493C143.77 47.2886 143.814 47.3201 143.862 47.3416C143.911 47.3631 143.964 47.3742 144.017 47.3742C144.07 47.3742 144.123 47.3631 144.172 47.3416C144.221 47.3201 144.264 47.2886 144.3 47.2493C144.336 47.2099 144.364 47.1635 144.381 47.113C144.398 47.0625 144.404 47.009 144.399 46.9559C144.401 46.9047 144.392 46.8537 144.374 46.806C144.356 46.7582 144.328 46.7145 144.292 46.6776C144.257 46.6407 144.214 46.6112 144.167 46.591C144.12 46.5707 144.07 46.5601 144.019 46.5597C143.916 46.5622 143.818 46.6051 143.746 46.6792C143.674 46.7534 143.634 46.8527 143.635 46.9559Z" fill="#263238"/>
<path d="M145.794 45.9669L145.654 49.0286L144.104 48.6198L145.794 45.9669Z" fill="#F28F8F"/>
<path d="M152.671 45.1333C152.659 45.6245 152.576 46.1113 152.424 46.5786C152.327 46.4265 152.207 46.2898 152.069 46.1729C151.29 45.5253 150.404 45.0181 149.451 44.6737C147.255 43.8275 144.697 43.6944 142.637 44.417C142.672 43.9967 142.763 43.583 142.909 43.1872C143.657 41.2348 145.169 40.2143 147.584 40.4647C150.415 40.7594 152.751 42.3315 152.671 45.1333Z" fill="#FFD657"/>
<path d="M147.489 43.4091C146.833 43.1873 145.156 43.0573 144.665 43.2126C144.438 43.0257 144.24 42.8068 144.076 42.5629C143.847 42.1984 143.924 41.7388 144.139 41.6469C144.355 41.555 144.37 41.8339 145.204 42.2491C145.094 41.9821 145.07 41.6875 145.134 41.406C145.271 41.0669 145.559 41.6754 146.177 42.0653C146.795 42.4551 147.41 42.658 147.489 43.4091Z" fill="#263238"/>
<path d="M151.21 46.9558C150.901 47.3054 150.669 47.7171 150.532 48.1634C150.469 48.4556 150.43 48.7524 150.415 49.0508L150.342 49.615C150.342 49.615 149.901 50.8511 149.014 51.3424C148.126 51.8336 145.581 52.5341 144.399 52.027C143.217 51.5199 142.846 49.26 142.928 48.0651C142.928 48.0651 144.586 47.5168 145.204 47.6277C145.822 47.7387 147.248 48.2616 147.816 48.3631C149.049 48.5691 149.499 48.436 150.266 47.6214C150.963 46.8829 151.21 46.9558 151.21 46.9558Z" fill="#FFD657"/>
<path opacity="0.6" d="M151.21 46.9558C150.901 47.3054 150.669 47.7171 150.532 48.1634C150.469 48.4556 150.43 48.7524 150.415 49.0508L150.342 49.615C150.342 49.615 149.901 50.8511 149.014 51.3424C148.126 51.8336 145.581 52.5341 144.399 52.027C143.217 51.5199 142.846 49.26 142.928 48.0651C142.928 48.0651 144.586 47.5168 145.204 47.6277C145.822 47.7387 147.248 48.2616 147.816 48.3631C149.049 48.5691 149.499 48.436 150.266 47.6214C150.963 46.8829 151.21 46.9558 151.21 46.9558Z" fill="white"/>
<path opacity="0.1" d="M151.21 46.9558C150.901 47.3054 150.669 47.7171 150.532 48.1634C150.469 48.4556 150.43 48.7524 150.415 49.0508L150.342 49.615C150.342 49.615 149.901 50.8511 149.014 51.3424C148.126 51.8336 145.581 52.5341 144.399 52.027C143.217 51.5199 142.846 49.26 142.928 48.0651C142.928 48.0651 144.586 47.5168 145.204 47.6277C145.822 47.7387 147.248 48.2616 147.816 48.3631C149.049 48.5691 149.499 48.436 150.266 47.6214C150.963 46.8829 151.21 46.9558 151.21 46.9558Z" fill="black"/>
<path d="M142.916 48.3378C142.916 48.2428 142.916 48.1477 142.916 48.0621C142.916 48.0621 144.573 47.5138 145.191 47.6247C145.809 47.7356 147.236 48.2586 147.803 48.36C149.036 48.566 149.486 48.4329 150.253 47.6184C150.95 46.883 151.204 46.9591 151.204 46.9591C150.894 47.3087 150.663 47.7204 150.526 48.1667C150.463 48.4589 150.424 48.7557 150.408 49.0541L150.335 49.6183C150.224 50.004 150.032 50.3616 149.771 50.6674C150.052 50.1887 150.181 49.6362 150.142 49.0827C150.136 48.6213 150.252 48.1665 150.478 47.7642C150.348 47.9842 150.176 48.1762 149.972 48.3291C149.767 48.482 149.534 48.5927 149.286 48.6548C148.193 48.9464 147.344 48.528 145.857 48.0779C144.726 47.742 144.193 47.9607 142.916 48.3378Z" fill="#FAFAFA"/>
<path d="M11.6248 125.498C8.95931 122.747 7.39042 111.553 9.99256 109.363H23.2315C25.8304 111.546 24.2647 122.744 21.5992 125.498L21.5263 125.574L21.4344 125.663C21.3615 125.736 21.2791 125.809 21.1935 125.882L21.1301 125.933L20.9304 126.085C20.8202 126.166 20.7048 126.24 20.585 126.307C18.3917 127.59 14.8324 127.59 12.6391 126.307C12.5182 126.24 12.4018 126.166 12.2904 126.085C12.2239 126.037 12.1668 125.99 12.1034 125.939L12.0242 125.879C11.9418 125.809 11.8657 125.739 11.7928 125.67L11.6882 125.565L11.6248 125.498Z" fill="#455A64"/>
<path d="M22.0809 108.485C25.1014 110.247 25.1014 113.106 22.0809 114.871C19.0604 116.637 14.1572 116.633 11.1431 114.871C8.12888 113.109 8.12255 110.247 11.1431 108.485C14.1636 106.722 19.0604 106.722 22.0809 108.485Z" fill="#455A64"/>
<g opacity="0.1">
<path opacity="0.1" d="M22.0809 108.485C25.1014 110.247 25.1014 113.106 22.0809 114.871C19.0604 116.637 14.1572 116.633 11.1431 114.871C8.12888 113.109 8.12255 110.247 11.1431 108.485C14.1636 106.722 19.0604 106.722 22.0809 108.485Z" fill="white"/>
</g>
<path d="M20.6293 109.334C22.8479 110.627 22.8479 112.729 20.6293 114.022C18.4106 115.315 14.8133 115.318 12.5947 114.022C10.376 112.726 10.376 110.627 12.5947 109.334C14.8133 108.041 18.4106 108.038 20.6293 109.334Z" fill="#263238"/>
<path d="M12.5947 111.559C14.8134 110.263 18.4107 110.263 20.6293 111.559C21.1672 111.854 21.6236 112.277 21.9574 112.792C21.6224 113.305 21.1663 113.727 20.6293 114.022C18.4107 115.318 14.8134 115.318 12.5947 114.022C12.0577 113.727 11.6016 113.305 11.2667 112.792C11.6005 112.277 12.0568 111.854 12.5947 111.559Z" fill="#F5F5F5"/>
<path d="M23.9478 87.636L18.6579 91.2556L23.6625 89.3539C23.6173 90.6932 23.2798 92.0065 22.6736 93.2016C22.6736 93.2016 19.3679 94.8054 17.5708 96.4979L21.9732 95.1318C22.1111 95.8988 22.0644 96.6876 21.8369 97.4329C21.8084 97.5343 21.7767 97.6389 21.745 97.7498C21.5104 98.4534 21.1776 99.7846 20.6135 101.363C20.1338 102.744 19.5246 104.077 18.7942 105.344C18.4299 105.965 18.0255 106.563 17.5834 107.131L17.501 107.239C16.6833 106.694 15.8381 106.166 14.9655 105.654C14.4425 104.323 13.8815 101.154 13.7801 98.6183C13.3966 88.7929 21.1428 83.7439 27.1901 82.2923C27.1901 82.2923 24.9778 84.6947 23.9478 87.636Z" fill="#FFD657"/>
<path opacity="0.3" d="M23.9478 87.636L18.6579 91.2556L23.6625 89.3539C23.6173 90.6932 23.2798 92.0065 22.6736 93.2016C22.6736 93.2016 19.3679 94.8054 17.5708 96.4979L21.9732 95.1318C22.1111 95.8988 22.0644 96.6876 21.8369 97.4329C21.8084 97.5343 21.7767 97.6389 21.745 97.7498C21.5104 98.4534 21.1776 99.7846 20.6135 101.363C20.1338 102.744 19.5246 104.077 18.7942 105.344C18.4299 105.965 18.0255 106.563 17.5834 107.131L17.501 107.239C16.6833 106.694 15.8381 106.166 14.9655 105.654C14.4425 104.323 13.8815 101.154 13.7801 98.6183C13.3966 88.7929 21.1428 83.7439 27.1901 82.2923C27.1901 82.2923 24.9778 84.6947 23.9478 87.636Z" fill="black"/>
<path d="M19.7197 87.7468C19.1815 88.228 18.7179 88.7866 18.3442 89.4044C17.9757 90.0252 17.6516 90.6713 17.3743 91.3378C16.8283 92.672 16.4308 94.0623 16.1889 95.4835C15.6727 98.3221 15.8356 101.243 16.6644 104.006C16.6753 104.042 16.6716 104.081 16.654 104.114C16.6365 104.147 16.6066 104.171 16.5709 104.182C16.5351 104.193 16.4965 104.189 16.4635 104.172C16.4306 104.154 16.4059 104.124 16.395 104.089C15.6018 101.276 15.4867 98.3147 16.059 95.4486C16.3277 94.0233 16.7529 92.6319 17.3268 91.2998C17.6143 90.6354 17.949 89.9925 18.3283 89.3759C18.7098 88.7676 19.1786 88.2187 19.7197 87.7468Z" fill="#FAFAFA"/>
<path d="M0.5 92.7292C0.62044 92.8813 2.6077 95.3979 5.52045 100.266L10.5916 101.242L6.82311 101.788L8.74381 105.046L13.7262 106.237L9.78974 106.754C9.78974 106.754 10.7628 110.608 13.517 112.288C15.0384 113.217 15.7896 113.372 16.2682 112.944C16.5851 112.646 16.7341 110.814 17.0542 109.188C17.3743 107.562 17.4789 104.9 16.0336 101.642C15.6405 100.769 15.1238 99.9581 14.4996 99.2329C10.9181 94.9922 3.96741 92.7862 0.5 92.7292Z" fill="#FFD657"/>
<path opacity="0.15" d="M0.5 92.7292C0.62044 92.8813 2.6077 95.3979 5.52045 100.266L10.5916 101.242L6.82311 101.788L8.74381 105.046L13.7262 106.237L9.78974 106.754C9.78974 106.754 10.7628 110.608 13.517 112.288C15.0384 113.217 15.7896 113.372 16.2682 112.944C16.5851 112.646 16.7341 110.814 17.0542 109.188C17.3743 107.562 17.4789 104.9 16.0336 101.642C15.6405 100.769 15.1238 99.9581 14.4996 99.2329C10.9181 94.9922 3.96741 92.7862 0.5 92.7292Z" fill="black"/>
<path opacity="0.1" d="M14.9655 103.318C15.5114 104.679 15.8615 106.11 16.0051 107.569C16.1086 109.411 16.1002 111.258 15.9797 113.099C16.0855 113.063 16.1834 113.008 16.2682 112.935C16.5851 112.637 16.7341 110.805 17.0542 109.179C17.3743 107.553 17.4789 104.891 16.0336 101.632C15.6405 100.76 15.1238 99.9487 14.4996 99.2235C10.9181 94.9764 3.96741 92.7705 0.5 92.7134C5.7962 93.7498 11.4093 97.4676 14.1066 101.67C14.4402 102.194 14.7276 102.745 14.9655 103.318Z" fill="black"/>
<path d="M32.1156 96.3454C31.687 96.3197 31.2573 96.3197 30.8287 96.3454C29.1415 96.4449 27.4732 96.7537 25.8622 97.2646C25.2663 97.4516 24.6641 97.6639 24.0714 97.8985C23.7767 98.0221 23.4819 98.152 23.1903 98.2883C21.7497 98.9422 20.428 99.8312 19.2792 100.919C18.7449 101.441 18.2766 102.026 17.8846 102.662C17.8371 102.745 17.7832 102.827 17.7356 102.909C17.612 103.125 17.5011 103.34 17.3965 103.543C16.4187 105.379 15.9236 107.432 15.9576 109.511C15.929 110.976 16.3347 112.681 16.5915 112.963C16.6263 113.003 16.6669 113.037 16.7119 113.064C17.1144 113.353 17.7863 113.236 19.0636 112.611C21.6214 111.362 22.7878 107.901 22.7878 107.901L19.3711 107.125L23.8496 106.491L25.8051 103.784L22.5406 103.004L27.0761 102.564C28.6272 100.395 30.3069 98.3202 32.106 96.3518L32.1156 96.3454Z" fill="#FFD657"/>
<path opacity="0.05" d="M30.8287 96.3363C29.1415 96.4358 27.4732 96.7445 25.8622 97.2554C25.2663 97.4424 24.6641 97.6548 24.0714 97.8893C23.7767 98.0129 23.4819 98.1429 23.1903 98.2792C21.7497 98.9331 20.428 99.8221 19.2792 100.91C18.7449 101.432 18.2766 102.017 17.8846 102.653C17.8371 102.735 17.7832 102.818 17.7356 102.9C17.612 103.116 17.5011 103.331 17.3965 103.534C16.4187 105.369 15.9236 107.423 15.9576 109.502C15.929 110.967 16.3347 112.672 16.5915 112.954C16.6263 112.994 16.6669 113.028 16.7119 113.055C16.7933 113.111 16.8848 113.151 16.9813 113.173C16.8006 110.891 18.2332 105.208 20.0494 102.938C21.951 100.577 26.3027 97.2332 32.0934 96.3299C31.6721 96.3067 31.2498 96.3088 30.8287 96.3363Z" fill="black"/>
</svg>
