<svg width="346" height="161" viewBox="0 0 346 161" fill="none" xmlns="http://www.w3.org/2000/svg">
<path d="M7.62672 157.141C9.5193 157.141 10.7498 156.162 10.7498 154.598C10.7498 153.402 10.0525 152.699 8.28883 152.312L7.35133 152.107C6.19703 151.855 5.74586 151.398 5.74586 150.73C5.74586 149.869 6.56031 149.354 7.615 149.354C8.52906 149.354 9.22633 149.729 9.5193 150.584C9.61305 150.854 9.77711 150.994 10.0466 150.994C10.3279 150.994 10.5271 150.807 10.5271 150.52C10.5271 150.408 10.5154 150.32 10.4978 150.256C10.1931 149.113 9.05641 148.404 7.6443 148.404C5.89234 148.404 4.66187 149.383 4.66187 150.777C4.66187 151.979 5.3943 152.746 7.08766 153.115L8.02516 153.32C9.19703 153.578 9.66578 154.047 9.66578 154.756C9.66578 155.588 8.83375 156.191 7.68531 156.191C6.61891 156.191 5.78687 155.781 5.52906 154.908C5.44703 154.627 5.28297 154.492 5.0193 154.492C4.72047 154.492 4.53297 154.703 4.53297 155.037C4.53297 155.16 4.55641 155.289 4.59156 155.406C4.90797 156.426 6.03883 157.141 7.62672 157.141ZM14.7367 157.105C15.85 157.105 16.7055 156.637 17.098 155.811C17.1449 155.699 17.1742 155.594 17.1742 155.512C17.1742 155.242 16.9926 155.066 16.723 155.066C16.5648 155.066 16.4477 155.125 16.3422 155.271C15.8676 155.963 15.4223 156.221 14.6957 156.221C13.6059 156.221 12.932 155.459 12.932 154.229H16.7406C17.0922 154.229 17.3031 154.006 17.3031 153.637C17.3031 151.967 16.2074 150.801 14.6488 150.801C12.9672 150.801 11.8832 152.055 11.8832 153.977C11.8832 155.945 12.9379 157.105 14.7367 157.105ZM12.9379 153.432C13.0023 152.383 13.682 151.686 14.6313 151.686C15.5746 151.686 16.225 152.377 16.2484 153.432H12.9379ZM19.2041 159.15C19.503 159.15 19.7139 158.928 19.7139 158.605V156.01H19.7373C20.1006 156.678 20.8037 157.105 21.6768 157.105C23.212 157.105 24.2608 155.863 24.2608 153.953C24.2608 152.043 23.2061 150.801 21.6534 150.801C20.7686 150.801 20.0596 151.252 19.6846 151.938H19.6612V151.316C19.6612 151.012 19.462 150.801 19.1807 150.801C18.8936 150.801 18.6944 151.012 18.6944 151.316V158.605C18.6944 158.928 18.9053 159.15 19.2041 159.15ZM21.4541 156.209C20.4112 156.209 19.708 155.312 19.708 153.953C19.708 152.6 20.4112 151.697 21.4541 151.697C22.5381 151.697 23.2178 152.576 23.2178 153.953C23.2178 155.336 22.5381 156.209 21.4541 156.209ZM28.9769 157H33.6351C33.9339 157 34.1331 156.812 34.1331 156.531C34.1331 156.25 33.9339 156.062 33.6351 156.062H29.9437V156.039L32.0648 153.859C33.512 152.377 33.9339 151.68 33.9339 150.754C33.9339 149.389 32.8323 148.404 31.3089 148.404C29.5804 148.404 28.6488 149.529 28.5257 150.396C28.514 150.467 28.5081 150.531 28.5081 150.607C28.5081 150.883 28.6839 151.076 28.9945 151.076C29.2816 151.076 29.3988 150.924 29.4691 150.707C29.7562 149.799 30.3948 149.324 31.3089 149.324C32.2171 149.324 32.8792 149.957 32.8792 150.818C32.8792 151.527 32.6097 151.979 31.473 153.168L28.7659 155.992C28.514 156.256 28.4671 156.35 28.4671 156.566C28.4671 156.83 28.6663 157 28.9769 157ZM38.6123 157.141C40.581 157.141 41.7177 155.436 41.7177 152.764C41.7177 150.109 40.5752 148.404 38.6123 148.404C36.6494 148.404 35.4951 150.121 35.4951 152.77C35.4951 155.441 36.6377 157.141 38.6123 157.141ZM38.6123 156.221C37.288 156.221 36.5556 154.873 36.5556 152.764C36.5556 150.701 37.3056 149.33 38.6123 149.33C39.9189 149.33 40.6572 150.689 40.6572 152.77C40.6572 154.879 39.9306 156.221 38.6123 156.221ZM43.6539 157H48.3121C48.6109 157 48.8102 156.812 48.8102 156.531C48.8102 156.25 48.6109 156.062 48.3121 156.062H44.6207V156.039L46.7418 153.859C48.1891 152.377 48.6109 151.68 48.6109 150.754C48.6109 149.389 47.5094 148.404 45.9859 148.404C44.2574 148.404 43.3258 149.529 43.2027 150.396C43.191 150.467 43.1852 150.531 43.1852 150.607C43.1852 150.883 43.3609 151.076 43.6715 151.076C43.9586 151.076 44.0758 150.924 44.1461 150.707C44.4332 149.799 45.0719 149.324 45.9859 149.324C46.8941 149.324 47.5563 149.957 47.5563 150.818C47.5563 151.527 47.2867 151.979 46.15 153.168L43.443 155.992C43.191 156.256 43.1441 156.35 43.1441 156.566C43.1441 156.83 43.3434 157 43.6539 157ZM52.9905 157.105C53.2893 157.105 53.5002 156.883 53.5002 156.561V149.031C53.5002 148.662 53.2776 148.439 52.9143 148.439C52.6741 148.439 52.5334 148.498 52.2053 148.732L50.3948 150.027C50.1721 150.186 50.1018 150.309 50.1018 150.496C50.1018 150.754 50.2717 150.93 50.5178 150.93C50.6467 150.93 50.758 150.889 50.8752 150.807L52.4573 149.699H52.4807V156.561C52.4807 156.883 52.6916 157.105 52.9905 157.105Z" fill="#16BF78"/>
<path d="M292.619 157.082C292.941 157.082 293.14 156.871 293.14 156.537V150.385H293.193L297.64 156.736C297.828 157.006 297.963 157.082 298.25 157.082C298.625 157.082 298.847 156.865 298.847 156.508V149.008C298.847 148.674 298.648 148.463 298.326 148.463C298.004 148.463 297.804 148.674 297.804 149.008V155.184H297.752L293.31 148.814C293.123 148.545 292.982 148.463 292.701 148.463C292.338 148.463 292.097 148.709 292.097 149.078V156.537C292.097 156.871 292.297 157.082 292.619 157.082ZM303.215 157.105C304.897 157.105 306.034 155.893 306.034 153.953C306.034 152.008 304.897 150.801 303.215 150.801C301.528 150.801 300.391 152.008 300.391 153.953C300.391 155.893 301.528 157.105 303.215 157.105ZM303.215 156.209C302.137 156.209 301.428 155.389 301.428 153.953C301.428 152.518 302.137 151.697 303.215 151.697C304.293 151.697 304.996 152.518 304.996 153.953C304.996 155.389 304.293 156.209 303.215 156.209ZM309.481 157.105C309.81 157.105 310.026 156.941 310.161 156.59L312.095 151.533C312.13 151.445 312.147 151.357 312.147 151.27C312.147 150.988 311.948 150.801 311.644 150.801C311.421 150.801 311.269 150.924 311.175 151.188L309.499 155.916H309.476L307.806 151.188C307.712 150.924 307.56 150.801 307.331 150.801C307.026 150.801 306.821 150.988 306.821 151.27C306.821 151.357 306.839 151.445 306.874 151.533L308.814 156.59C308.96 156.959 309.147 157.105 309.481 157.105ZM316.735 157H321.393C321.692 157 321.891 156.812 321.891 156.531C321.891 156.25 321.692 156.062 321.393 156.062H317.701V156.039L319.823 153.859C321.27 152.377 321.692 151.68 321.692 150.754C321.692 149.389 320.59 148.404 319.067 148.404C317.338 148.404 316.407 149.529 316.284 150.396C316.272 150.467 316.266 150.531 316.266 150.607C316.266 150.883 316.442 151.076 316.752 151.076C317.039 151.076 317.157 150.924 317.227 150.707C317.514 149.799 318.153 149.324 319.067 149.324C319.975 149.324 320.637 149.957 320.637 150.818C320.637 151.527 320.368 151.979 319.231 153.168L316.524 155.992C316.272 156.256 316.225 156.35 316.225 156.566C316.225 156.83 316.424 157 316.735 157ZM326.37 157.141C328.339 157.141 329.476 155.436 329.476 152.764C329.476 150.109 328.333 148.404 326.37 148.404C324.407 148.404 323.253 150.121 323.253 152.77C323.253 155.441 324.395 157.141 326.37 157.141ZM326.37 156.221C325.046 156.221 324.313 154.873 324.313 152.764C324.313 150.701 325.063 149.33 326.37 149.33C327.677 149.33 328.415 150.689 328.415 152.77C328.415 154.879 327.688 156.221 326.37 156.221ZM331.412 157H336.07C336.369 157 336.568 156.812 336.568 156.531C336.568 156.25 336.369 156.062 336.07 156.062H332.379V156.039L334.5 153.859C335.947 152.377 336.369 151.68 336.369 150.754C336.369 149.389 335.267 148.404 333.744 148.404C332.015 148.404 331.084 149.529 330.961 150.396C330.949 150.467 330.943 150.531 330.943 150.607C330.943 150.883 331.119 151.076 331.429 151.076C331.716 151.076 331.834 150.924 331.904 150.707C332.191 149.799 332.83 149.324 333.744 149.324C334.652 149.324 335.314 149.957 335.314 150.818C335.314 151.527 335.045 151.979 333.908 153.168L331.201 155.992C330.949 156.256 330.902 156.35 330.902 156.566C330.902 156.83 331.101 157 331.412 157ZM340.748 157.105C341.047 157.105 341.258 156.883 341.258 156.561V149.031C341.258 148.662 341.035 148.439 340.672 148.439C340.432 148.439 340.291 148.498 339.963 148.732L338.153 150.027C337.93 150.186 337.86 150.309 337.86 150.496C337.86 150.754 338.03 150.93 338.276 150.93C338.405 150.93 338.516 150.889 338.633 150.807L340.215 149.699H340.239V156.561C340.239 156.883 340.449 157.105 340.748 157.105Z" fill="#16BF78"/>
<path d="M153.75 157.141C156.146 157.141 157.646 155.459 157.646 152.775C157.646 150.092 156.146 148.404 153.75 148.404C151.353 148.404 149.853 150.092 149.853 152.775C149.853 155.459 151.353 157.141 153.75 157.141ZM153.75 156.168C152.021 156.168 150.937 154.855 150.937 152.775C150.937 150.689 152.021 149.377 153.75 149.377C155.478 149.377 156.562 150.689 156.562 152.775C156.562 154.855 155.478 156.168 153.75 156.168ZM159.723 157.105C160.022 157.105 160.233 156.883 160.233 156.561V154.703L160.801 154.164L163.092 156.918C163.209 157.059 163.315 157.105 163.473 157.105C163.737 157.105 163.942 156.918 163.942 156.672C163.942 156.543 163.912 156.449 163.813 156.326L161.522 153.537L163.596 151.568C163.719 151.451 163.76 151.363 163.76 151.223C163.76 150.994 163.567 150.801 163.327 150.801C163.18 150.801 163.08 150.848 162.957 150.971L160.233 153.613V148.984C160.233 148.662 160.022 148.439 159.723 148.439C159.424 148.439 159.213 148.662 159.213 148.984V156.561C159.213 156.883 159.424 157.105 159.723 157.105ZM165.673 155.594C165.673 156.566 166.165 157.047 167.149 157.047H167.214C167.782 157.047 167.958 156.883 167.958 156.572C167.958 156.332 167.806 156.197 167.472 156.174L167.384 156.168C166.874 156.133 166.692 155.887 166.692 155.371V151.744H167.478C167.771 151.744 167.935 151.592 167.935 151.322C167.935 151.059 167.771 150.906 167.478 150.906H166.692V149.863C166.692 149.541 166.481 149.318 166.183 149.318C165.884 149.318 165.673 149.541 165.673 149.863V150.906H165.163C164.87 150.906 164.706 151.059 164.706 151.322C164.706 151.592 164.87 151.744 165.163 151.744H165.673V155.594ZM172.651 157H177.309C177.608 157 177.807 156.812 177.807 156.531C177.807 156.25 177.608 156.062 177.309 156.062H173.618V156.039L175.739 153.859C177.186 152.377 177.608 151.68 177.608 150.754C177.608 149.389 176.506 148.404 174.983 148.404C173.254 148.404 172.323 149.529 172.2 150.396C172.188 150.467 172.182 150.531 172.182 150.607C172.182 150.883 172.358 151.076 172.668 151.076C172.955 151.076 173.073 150.924 173.143 150.707C173.43 149.799 174.069 149.324 174.983 149.324C175.891 149.324 176.553 149.957 176.553 150.818C176.553 151.527 176.284 151.979 175.147 153.168L172.44 155.992C172.188 156.256 172.141 156.35 172.141 156.566C172.141 156.83 172.34 157 172.651 157ZM182.286 157.141C184.255 157.141 185.392 155.436 185.392 152.764C185.392 150.109 184.249 148.404 182.286 148.404C180.323 148.404 179.169 150.121 179.169 152.77C179.169 155.441 180.311 157.141 182.286 157.141ZM182.286 156.221C180.962 156.221 180.229 154.873 180.229 152.764C180.229 150.701 180.979 149.33 182.286 149.33C183.593 149.33 184.331 150.689 184.331 152.77C184.331 154.879 183.604 156.221 182.286 156.221ZM187.328 157H191.986C192.285 157 192.484 156.812 192.484 156.531C192.484 156.25 192.285 156.062 191.986 156.062H188.295V156.039L190.416 153.859C191.863 152.377 192.285 151.68 192.285 150.754C192.285 149.389 191.183 148.404 189.66 148.404C187.931 148.404 187 149.529 186.877 150.396C186.865 150.467 186.859 150.531 186.859 150.607C186.859 150.883 187.035 151.076 187.345 151.076C187.632 151.076 187.75 150.924 187.82 150.707C188.107 149.799 188.746 149.324 189.66 149.324C190.568 149.324 191.23 149.957 191.23 150.818C191.23 151.527 190.961 151.979 189.824 153.168L187.117 155.992C186.865 156.256 186.818 156.35 186.818 156.566C186.818 156.83 187.017 157 187.328 157ZM196.664 157.105C196.963 157.105 197.174 156.883 197.174 156.561V149.031C197.174 148.662 196.951 148.439 196.588 148.439C196.348 148.439 196.207 148.498 195.879 148.732L194.069 150.027C193.846 150.186 193.776 150.309 193.776 150.496C193.776 150.754 193.946 150.93 194.192 150.93C194.321 150.93 194.432 150.889 194.549 150.807L196.131 149.699H196.155V156.561C196.155 156.883 196.365 157.105 196.664 157.105Z" fill="#16BF78"/>
<line x1="1" y1="8.75" x2="313" y2="8.75" stroke="#A9A9A9" stroke-opacity="0.6" stroke-width="0.5"/>
<line x1="1" y1="72.75" x2="313" y2="72.75" stroke="#A9A9A9" stroke-opacity="0.6" stroke-width="0.5"/>
<line x1="1" y1="136.75" x2="313" y2="136.75" stroke="#A9A9A9" stroke-opacity="0.6" stroke-width="0.5"/>
<path d="M313 56L1 90V136H313V56Z" fill="url(#paint0_linear_32_2133)" fill-opacity="0.2"/>
<path d="M1 91L313 57" stroke="#16BF78" stroke-width="3"/>
<path d="M323.54 11.0879C323.789 11.0879 323.965 10.9023 323.965 10.6338V4.35938C323.965 4.05176 323.779 3.86621 323.477 3.86621C323.277 3.86621 323.159 3.91504 322.886 4.11035L321.377 5.18945C321.192 5.32129 321.133 5.42383 321.133 5.58008C321.133 5.79492 321.275 5.94141 321.48 5.94141C321.587 5.94141 321.68 5.90723 321.778 5.83887L323.096 4.91602H323.115V10.6338C323.115 10.9023 323.291 11.0879 323.54 11.0879ZM328.274 11.0879C328.523 11.0879 328.699 10.9023 328.699 10.6338V4.35938C328.699 4.05176 328.513 3.86621 328.21 3.86621C328.01 3.86621 327.893 3.91504 327.62 4.11035L326.111 5.18945C325.925 5.32129 325.867 5.42383 325.867 5.58008C325.867 5.79492 326.008 5.94141 326.213 5.94141C326.321 5.94141 326.413 5.90723 326.511 5.83887L327.829 4.91602H327.849V10.6338C327.849 10.9023 328.025 11.0879 328.274 11.0879ZM331.191 11H335.073C335.322 11 335.488 10.8438 335.488 10.6094C335.488 10.375 335.322 10.2188 335.073 10.2188H331.997V10.1992L333.764 8.38281C334.97 7.14746 335.322 6.56641 335.322 5.79492C335.322 4.65723 334.404 3.83691 333.134 3.83691C331.694 3.83691 330.918 4.77441 330.815 5.49707C330.805 5.55566 330.8 5.60938 330.8 5.67285C330.8 5.90234 330.947 6.06348 331.206 6.06348C331.445 6.06348 331.543 5.93652 331.601 5.75586C331.84 4.99902 332.373 4.60352 333.134 4.60352C333.891 4.60352 334.443 5.13086 334.443 5.84863C334.443 6.43945 334.218 6.81543 333.271 7.80664L331.015 10.1602C330.805 10.3799 330.766 10.458 330.766 10.6387C330.766 10.8584 330.932 11 331.191 11ZM339.221 11.1172C340.861 11.1172 341.808 9.69629 341.808 7.46973C341.808 5.25781 340.856 3.83691 339.221 3.83691C337.585 3.83691 336.623 5.26758 336.623 7.47461C336.623 9.70117 337.575 11.1172 339.221 11.1172ZM339.221 10.3506C338.117 10.3506 337.507 9.22754 337.507 7.46973C337.507 5.75098 338.132 4.6084 339.221 4.6084C340.309 4.6084 340.925 5.74121 340.925 7.47461C340.925 9.23242 340.319 10.3506 339.221 10.3506Z" fill="black"/>
<path d="M324.655 76.0879C324.904 76.0879 325.08 75.9023 325.08 75.6338V69.3594C325.08 69.0518 324.895 68.8662 324.592 68.8662C324.392 68.8662 324.275 68.915 324.001 69.1104L322.492 70.1895C322.307 70.3213 322.248 70.4238 322.248 70.5801C322.248 70.7949 322.39 70.9414 322.595 70.9414C322.702 70.9414 322.795 70.9072 322.893 70.8389L324.211 69.916H324.231V75.6338C324.231 75.9023 324.406 76.0879 324.655 76.0879ZM329.389 76.0879C329.638 76.0879 329.814 75.9023 329.814 75.6338V69.3594C329.814 69.0518 329.628 68.8662 329.326 68.8662C329.125 68.8662 329.008 68.915 328.735 69.1104L327.226 70.1895C327.04 70.3213 326.982 70.4238 326.982 70.5801C326.982 70.7949 327.123 70.9414 327.329 70.9414C327.436 70.9414 327.529 70.9072 327.626 70.8389L328.945 69.916H328.964V75.6338C328.964 75.9023 329.14 76.0879 329.389 76.0879ZM334.123 76.0879C334.372 76.0879 334.547 75.9023 334.547 75.6338V69.3594C334.547 69.0518 334.362 68.8662 334.059 68.8662C333.859 68.8662 333.742 68.915 333.468 69.1104L331.96 70.1895C331.774 70.3213 331.715 70.4238 331.715 70.5801C331.715 70.7949 331.857 70.9414 332.062 70.9414C332.17 70.9414 332.262 70.9072 332.36 70.8389L333.678 69.916H333.698V75.6338C333.698 75.9023 333.874 76.0879 334.123 76.0879ZM339.105 76.1172C340.746 76.1172 341.693 74.6963 341.693 72.4697C341.693 70.2578 340.741 68.8369 339.105 68.8369C337.47 68.8369 336.508 70.2676 336.508 72.4746C336.508 74.7012 337.46 76.1172 339.105 76.1172ZM339.105 75.3506C338.002 75.3506 337.391 74.2275 337.391 72.4697C337.391 70.751 338.016 69.6084 339.105 69.6084C340.194 69.6084 340.809 70.7412 340.809 72.4746C340.809 74.2324 340.204 75.3506 339.105 75.3506Z" fill="black"/>
<path d="M322.34 138.088C322.589 138.088 322.765 137.902 322.765 137.634V131.359C322.765 131.052 322.579 130.866 322.277 130.866C322.076 130.866 321.959 130.915 321.686 131.11L320.177 132.189C319.991 132.321 319.933 132.424 319.933 132.58C319.933 132.795 320.074 132.941 320.279 132.941C320.387 132.941 320.48 132.907 320.577 132.839L321.896 131.916H321.915V137.634C321.915 137.902 322.091 138.088 322.34 138.088ZM327.074 138.088C327.323 138.088 327.498 137.902 327.498 137.634V131.359C327.498 131.052 327.313 130.866 327.01 130.866C326.81 130.866 326.693 130.915 326.419 131.11L324.911 132.189C324.725 132.321 324.666 132.424 324.666 132.58C324.666 132.795 324.808 132.941 325.013 132.941C325.121 132.941 325.213 132.907 325.311 132.839L326.629 131.916H326.649V137.634C326.649 137.902 326.825 138.088 327.074 138.088ZM332.056 138.117C333.697 138.117 334.644 136.696 334.644 134.47C334.644 132.258 333.692 130.837 332.056 130.837C330.421 130.837 329.459 132.268 329.459 134.475C329.459 136.701 330.411 138.117 332.056 138.117ZM332.056 137.351C330.953 137.351 330.342 136.228 330.342 134.47C330.342 132.751 330.967 131.608 332.056 131.608C333.145 131.608 333.76 132.741 333.76 134.475C333.76 136.232 333.155 137.351 332.056 137.351ZM338.421 138.117C340.061 138.117 341.009 136.696 341.009 134.47C341.009 132.258 340.056 130.837 338.421 130.837C336.785 130.837 335.823 132.268 335.823 134.475C335.823 136.701 336.775 138.117 338.421 138.117ZM338.421 137.351C337.317 137.351 336.707 136.228 336.707 134.47C336.707 132.751 337.332 131.608 338.421 131.608C339.51 131.608 340.125 132.741 340.125 134.475C340.125 136.232 339.519 137.351 338.421 137.351Z" fill="black"/>
<defs>
<linearGradient id="paint0_linear_32_2133" x1="157" y1="56" x2="157" y2="136" gradientUnits="userSpaceOnUse">
<stop stop-color="#16BF78"/>
<stop offset="0.817708" stop-color="#16BF78" stop-opacity="0"/>
</linearGradient>
</defs>
</svg>
