<svg width="241" height="230" viewBox="0 0 241 230" fill="none" xmlns="http://www.w3.org/2000/svg">
<path d="M205.074 111.175C158.058 83.9948 82.0817 83.9948 35.3712 111.175C-11.3393 138.355 -11.0898 182.433 35.9212 209.613C82.9323 236.793 158.919 236.798 205.629 209.613C252.34 182.428 252.09 138.36 205.074 111.175Z" fill="#F5F5F5"/>
<path d="M175.64 26.1611L177.229 25.2379L194.017 34.9083V36.7495L175.64 26.1611Z" fill="#F5F5F5"/>
<path d="M175.64 26.1611L194.017 36.7495V38.8458L175.635 28.2726L175.64 26.1611Z" fill="#E0E0E0"/>
<path d="M195.759 37.739L197.348 36.8159L214.135 46.4863V48.3224L195.759 37.739Z" fill="#F5F5F5"/>
<path d="M195.759 37.739L214.135 48.3224V50.4238L195.754 39.8506L195.759 37.739Z" fill="#E0E0E0"/>
<path d="M175.732 8.49321L177.316 7.57004L177.224 70.1675L175.635 71.0907L175.732 8.49321Z" fill="#F0F0F0"/>
<path d="M175.635 71.0907L177.224 70.1675L195.509 80.6794L193.92 81.6026L175.635 71.0907Z" fill="#F5F5F5"/>
<path d="M173.908 5.33604L195.85 17.9596L195.743 84.7751L173.802 72.1515L173.908 5.33604ZM193.92 81.6026L194.017 19.0052L175.732 8.49321L175.635 71.0907L193.92 81.6026Z" fill="#E0E0E0"/>
<path d="M173.909 5.33606L175.498 4.41289L197.44 17.0364L195.85 17.9596L173.909 5.33606Z" fill="#F5F5F5"/>
<path d="M195.85 17.9596L197.439 17.0364L197.333 83.8366L195.743 84.7598L195.85 17.9596Z" fill="#F0F0F0"/>
<path d="M195.85 20.0712L197.439 19.148L197.343 81.7454L195.754 82.6686L195.85 20.0712Z" fill="#F0F0F0"/>
<path d="M195.754 82.6686L197.343 81.7455L215.628 92.2574L214.038 93.1806L195.754 82.6686Z" fill="#F5F5F5"/>
<path d="M194.027 16.914L215.969 29.5375L215.862 96.353L193.92 83.7295L194.027 16.914ZM214.039 93.1806L214.135 30.5831L195.85 20.0712L195.754 82.6686L214.039 93.1806Z" fill="#E0E0E0"/>
<path d="M194.027 16.914L195.616 15.9908L217.558 28.6144L215.969 29.5375L194.027 16.914Z" fill="#F5F5F5"/>
<path d="M215.969 29.5376L217.558 28.6144L217.451 95.4146L215.862 96.3378L215.969 29.5376Z" fill="#F0F0F0"/>
<path d="M224.205 169.702C220.726 167.693 215.108 167.693 211.655 169.702C208.202 171.712 208.217 174.976 211.696 176.986C215.174 178.995 220.792 178.995 224.245 176.986C227.699 174.976 227.683 171.712 224.205 169.702Z" fill="#EBEBEB"/>
<path d="M191.806 154.753C176.526 145.909 151.778 145.909 136.575 154.753C123.144 162.572 121.651 174.675 132.037 183.494C123.653 182.984 114.969 184.575 108.567 188.298C97.3309 194.837 97.3921 205.436 108.699 211.974C120.006 218.513 138.281 218.513 149.517 211.974C158.455 206.772 160.213 198.999 154.9 192.746C167.781 194.613 181.956 192.629 191.99 186.794C207.188 177.944 207.112 163.602 191.806 154.753Z" fill="#EBEBEB"/>
<path d="M109.835 158.303L48.6341 193.684C48.3244 193.863 47.9731 193.958 47.6154 193.958C47.2578 193.958 46.9065 193.863 46.5968 193.684L42.2216 191.134C42.1137 191.072 42.0241 190.982 41.9617 190.875C41.8994 190.767 41.8666 190.644 41.8666 190.52C41.8666 190.395 41.8994 190.272 41.9617 190.165C42.0241 190.057 42.1137 189.967 42.2216 189.905L103.489 154.539C103.798 154.36 104.15 154.265 104.507 154.265C104.865 154.265 105.216 154.36 105.526 154.539L109.835 157.048C109.949 157.108 110.045 157.198 110.111 157.309C110.178 157.42 110.213 157.546 110.213 157.675C110.213 157.805 110.178 157.931 110.111 158.042C110.045 158.152 109.949 158.243 109.835 158.303Z" fill="#EBEBEB"/>
<path d="M104.497 150.239L29.7686 193.123C29.449 193.309 29.0862 193.406 28.7168 193.406C28.3475 193.406 27.9847 193.309 27.6651 193.123L23.1524 190.517C23.0426 190.452 22.9516 190.36 22.8884 190.249C22.8251 190.138 22.7919 190.012 22.7919 189.885C22.7919 189.757 22.8251 189.631 22.8884 189.52C22.9516 189.41 23.0426 189.317 23.1524 189.252L97.9473 146.409C98.2683 146.222 98.6329 146.123 99.0041 146.123C99.3754 146.123 99.74 146.222 100.061 146.409L104.497 148.994C104.604 149.06 104.692 149.151 104.753 149.26C104.814 149.369 104.846 149.492 104.846 149.617C104.846 149.742 104.814 149.864 104.753 149.973C104.692 150.082 104.604 150.174 104.497 150.239Z" fill="#EBEBEB"/>
<path d="M168.377 52.668C168.136 52.2418 167.784 51.8892 167.358 51.6479L151.06 42.1203C149.858 41.4317 146.985 42.3702 146.985 44.3084V62.0119C146.986 62.4863 147.111 62.9521 147.349 63.3623C147.587 63.7725 147.929 64.1125 148.34 64.3479L158.944 70.4174L157.111 69.3667L157.992 71.8659C158.006 71.9011 158.032 71.9296 158.066 71.9458C158.101 71.9619 158.139 71.9643 158.175 71.9526C158.333 71.8761 159.021 71.5038 159.418 71.2437H159.444C159.457 71.2331 159.469 71.2211 159.479 71.208L159.693 70.8612L164.628 73.8551C165.025 74.109 165.482 74.2525 165.952 74.2707C166.423 74.289 166.889 74.1814 167.304 73.9591C167.72 73.7367 168.068 73.4076 168.314 73.0057C168.56 72.6037 168.694 72.1434 168.703 71.6721V53.9839C168.707 53.5247 168.595 53.0721 168.377 52.668Z" fill="#16BF78"/>
<path opacity="0.2" d="M159.54 71.1978C159.53 71.2109 159.518 71.2229 159.505 71.2335H159.479C159.082 71.4936 158.394 71.8659 158.236 71.9425C158.271 71.9357 158.303 71.9156 158.323 71.8863L159.174 70.5041L159.006 70.4072L159.754 70.8357L159.54 71.1978Z" fill="white"/>
<path opacity="0.4" d="M165.729 54.1879C165.556 53.8395 165.311 53.5317 165.011 53.2851C164.908 53.2017 164.799 53.1266 164.685 53.0607L148.386 43.5331C148.25 43.4555 148.095 43.415 147.939 43.4158C147.782 43.4165 147.628 43.4585 147.492 43.5375C147.357 43.6165 147.244 43.7297 147.166 43.8659C147.088 44.0021 147.047 44.1564 147.047 44.3135C147.047 42.3753 149.899 41.4368 151.121 42.1254L167.42 51.653C167.845 51.8943 168.197 52.2469 168.438 52.6731L165.729 54.1879Z" fill="white"/>
<path opacity="0.2" d="M166.029 73.0696V55.3916C166.037 55.2863 166.037 55.1806 166.029 55.0753C165.986 54.766 165.891 54.4661 165.749 54.1879L168.418 52.6577C168.643 53.06 168.762 53.5127 168.764 53.9737V71.6517C168.755 72.123 168.621 72.5833 168.375 72.9853C168.129 73.3872 167.781 73.7163 167.366 73.9387C166.951 74.161 166.484 74.2686 166.014 74.2503C165.543 74.2321 165.086 74.0886 164.69 73.8347C164.825 73.9133 164.978 73.9551 165.134 73.9558C165.29 73.9564 165.444 73.916 165.58 73.8385C165.715 73.761 165.828 73.6492 165.907 73.5143C165.986 73.3793 166.028 73.226 166.029 73.0696Z" fill="white"/>
<path d="M160.141 60.8541C160.557 60.2289 160.766 59.4882 160.737 58.7375C160.732 58.4882 160.711 58.2396 160.676 57.9928C160.627 57.648 160.554 57.3071 160.457 56.9727C160.275 56.3319 160.027 55.7115 159.719 55.1213C159.622 54.9325 159.52 54.7489 159.408 54.5653C159.193 54.2077 158.957 53.8636 158.7 53.535C158.547 53.3412 158.384 53.1525 158.221 52.974C157.74 52.449 157.184 51.9986 156.571 51.6377C153.383 49.7913 151.376 52.6068 152.965 56.7075L154.279 60.1095L156.53 65.9392L160.141 60.8541ZM158.613 57.6205C158.613 58.9109 157.702 59.4311 156.576 58.7834C156.284 58.608 156.018 58.3916 155.787 58.1407L155.731 58.0744C155.448 57.7553 155.208 57.4003 155.017 57.0186C154.833 56.6612 154.697 56.2803 154.615 55.8863C154.573 55.6849 154.551 55.4799 154.549 55.2743C154.549 53.9839 155.471 53.4687 156.586 54.1165C156.879 54.2918 157.145 54.5082 157.376 54.7591C157.54 54.9372 157.69 55.1282 157.824 55.3304C157.926 55.4784 158.018 55.6335 158.099 55.7945C158.294 56.153 158.436 56.5378 158.522 56.937C158.575 57.1611 158.604 57.3902 158.608 57.6205H158.613Z" fill="white"/>
<path d="M100.703 4.75981C100.234 3.09707 96.8624 -0.0600894 93.511 0.00621609C93.1891 0.0167281 92.871 0.0787152 92.5687 0.189831L27.4562 37.2852C26.5055 37.8366 25.7147 38.6266 25.1618 39.5774C24.609 40.5281 24.3131 41.6068 24.3035 42.7069V183.764C24.3035 187.334 28.4443 190.787 32.3254 189.135H32.3559C32.4417 189.107 32.5251 189.073 32.6055 189.033L97.7282 151.871C98.6826 151.325 99.4758 150.536 100.028 149.584C100.58 148.631 100.87 147.55 100.871 146.449V5.43816C100.869 5.20194 100.811 4.96951 100.703 4.75981Z" fill="#16BF78"/>
<path d="M33.4052 57.6154C33.4048 57.0649 33.5502 56.5241 33.8267 56.0483C34.1032 55.5725 34.5008 55.1787 34.979 54.9071L95.4312 20.4843C95.6678 20.3499 95.9355 20.2798 96.2076 20.2811C96.4797 20.2824 96.7467 20.3549 96.9821 20.4916C97.2175 20.6283 97.413 20.8243 97.5493 21.0602C97.6855 21.296 97.7578 21.5635 97.7588 21.8359V135.575C97.757 136.126 97.6106 136.667 97.3344 137.143C97.0581 137.619 96.6618 138.014 96.185 138.289L35.7175 172.768C35.4815 172.9 35.2151 172.968 34.9447 172.966C34.6742 172.963 34.4091 172.89 34.1755 172.754C33.9419 172.617 33.748 172.422 33.6129 172.187C33.4777 171.953 33.4062 171.687 33.4052 171.416V57.6154Z" fill="#37474F"/>
<path opacity="0.3" d="M24.3035 42.7068V183.764C24.3035 187.334 28.4443 190.787 32.3254 189.135H32.3559C32.1217 189.226 31.8686 189.259 31.6189 189.229C31.3693 189.199 31.1308 189.108 30.9248 188.963C30.7187 188.819 30.5514 188.626 30.4377 188.402C30.324 188.177 30.2673 187.928 30.2728 187.676V46.6036C30.2774 45.377 30.6442 44.1791 31.3271 43.1608L24.9503 39.973C24.5297 40.8231 24.3085 41.7582 24.3035 42.7068Z" fill="black"/>
<path opacity="0.1" d="M93.5059 0.00102809C93.1841 0.0115401 92.866 0.0735282 92.5637 0.184644L27.4562 37.2851C26.3684 37.9063 25.4945 38.8436 24.9503 39.973L31.3271 43.1608C31.8558 42.3475 32.5675 41.6697 33.4052 41.1818L98.5432 4.08136C98.7271 3.97345 98.9315 3.90526 99.1433 3.88118C99.3551 3.85711 99.5696 3.87767 99.773 3.94156C99.9764 4.00545 100.164 4.11125 100.324 4.25215C100.484 4.39305 100.613 4.56595 100.703 4.75972C100.239 3.09188 96.8675 -0.0652774 93.5059 0.00102809Z" fill="white"/>
<path d="M73.6014 27.375C74.0547 27.1098 74.4367 27.3189 74.4367 27.8442C74.4193 28.1328 74.3353 28.4133 74.1913 28.6638C74.0472 28.9143 73.847 29.1278 73.6065 29.2876L60.8274 36.673C60.369 36.9383 60.0023 36.7139 60.0023 36.1885C60.0157 35.9023 60.097 35.6234 60.2397 35.375C60.3823 35.1266 60.582 34.9159 60.8223 34.7604L73.6014 27.375Z" fill="#263238"/>
<path d="M57.5422 36.6577C58.0006 36.3976 58.3674 36.6067 58.3724 37.1321C58.3573 37.4198 58.2747 37.7 58.1313 37.9499C57.988 38.1997 57.7879 38.4123 57.5473 38.5704C57.0889 38.8356 56.712 38.6163 56.712 38.0909C56.7274 37.8033 56.8106 37.5234 56.9549 37.2743C57.0992 37.0252 57.3005 36.8138 57.5422 36.6577Z" fill="#263238"/>
<path d="M65.722 26.3039C66.6337 25.7939 67.3723 26.1917 67.3723 27.2475C67.3435 27.8215 67.1799 28.3806 66.895 28.8796C66.61 29.3785 66.2117 29.8031 65.7322 30.119C64.8154 30.629 64.0616 30.2159 64.0565 29.1652C64.0877 28.5902 64.255 28.0309 64.5446 27.5334C64.8342 27.0358 65.2377 26.6144 65.722 26.3039Z" fill="#263238"/>
<path d="M65.722 159.093C67.5861 158.017 69.0887 158.874 69.0938 161.016C69.0336 162.186 68.6993 163.325 68.118 164.341C67.5367 165.358 66.7246 166.223 65.7475 166.866C63.8833 167.937 62.3451 167.06 62.335 164.918C62.4032 163.749 62.7453 162.613 63.3338 161.601C63.9222 160.589 64.7404 159.73 65.722 159.093Z" fill="#263238"/>
<path d="M110.497 10.4008C110.064 8.87072 107.008 6.02468 103.962 6.08589C103.672 6.09546 103.384 6.15231 103.112 6.2542L43.9992 39.917C43.1364 40.4175 42.4191 41.1348 41.9179 41.998C41.4168 42.8612 41.1493 43.8404 41.1418 44.8389V172.859C41.1418 176.124 44.9007 179.235 48.4252 177.735C48.5022 177.711 48.5771 177.68 48.6493 177.644L107.793 143.915C108.659 143.418 109.379 142.702 109.88 141.838C110.381 140.973 110.645 139.992 110.645 138.993V11.018C110.642 10.8038 110.592 10.5929 110.497 10.4008Z" fill="#455A64"/>
<path opacity="0.1" d="M41.147 44.8439V172.864C41.147 176.129 44.9058 179.24 48.4304 177.74C48.218 177.818 47.99 177.844 47.7656 177.815C47.5413 177.786 47.3273 177.703 47.1418 177.573C46.9564 177.443 46.8049 177.271 46.7002 177.07C46.5956 176.869 46.5409 176.646 46.5408 176.419V48.3989C46.5453 47.285 46.8784 46.1972 47.4983 45.2723L41.7072 42.3753C41.337 43.1453 41.1454 43.9892 41.147 44.8439Z" fill="white"/>
<path opacity="0.2" d="M103.967 6.08069C103.677 6.09027 103.389 6.14711 103.117 6.24901L44.0043 39.9118C43.0212 40.4794 42.2301 41.3284 41.7327 42.3498L47.5237 45.2468C48.0089 44.5085 48.6594 43.8938 49.4235 43.4515L108.531 9.7734C108.699 9.67798 108.884 9.61806 109.076 9.59733C109.268 9.5766 109.462 9.5955 109.647 9.65286C109.831 9.71023 110.001 9.80484 110.148 9.93085C110.294 10.0569 110.413 10.2116 110.497 10.3854C110.069 8.88592 107.013 6.01949 103.967 6.08069Z" fill="white"/>
<path d="M110.497 10.4008C110.414 10.2256 110.296 10.0693 110.151 9.94176C110.005 9.81418 109.835 9.71797 109.65 9.65913C109.466 9.60029 109.271 9.58007 109.079 9.59972C108.886 9.61938 108.7 9.6785 108.531 9.7734L49.449 43.4362C48.588 43.9386 47.872 44.6564 47.3711 45.5192C46.8702 46.3819 46.6017 47.3602 46.5917 48.3581V176.379C46.5918 176.605 46.6465 176.828 46.7511 177.029C46.8558 177.23 47.0073 177.403 47.1927 177.532C47.3782 177.662 47.5922 177.745 47.8165 177.774C48.0409 177.803 48.2689 177.778 48.4813 177.7C48.5582 177.675 48.6331 177.644 48.7054 177.608L107.793 143.914C108.659 143.418 109.379 142.702 109.88 141.838C110.381 140.973 110.645 139.992 110.645 138.993V11.0179C110.642 10.8037 110.592 10.5928 110.497 10.4008Z" fill="#455A64"/>
<path d="M49.4897 56.3454C49.4897 55.7999 49.6529 55.2669 49.9583 54.8152C50.188 54.4569 50.5008 54.1594 50.87 53.9482L107.721 21.5758V137.008C107.721 137.491 107.594 137.965 107.353 138.382C107.111 138.799 106.764 139.145 106.346 139.385L49.4897 171.829V56.3454Z" fill="#455A64"/>
<path opacity="0.3" d="M49.4897 56.3454C49.4897 55.7999 49.6529 55.2669 49.9583 54.8152C50.188 54.4569 50.5008 54.1594 50.87 53.9482L107.721 21.5758V137.008C107.721 137.491 107.594 137.965 107.353 138.382C107.111 138.799 106.764 139.145 106.346 139.385L49.4897 171.829V56.3454Z" fill="black"/>
<path d="M104.278 17.1792L104.283 18.6277L106.117 17.5668L106.112 16.1183L104.278 17.1792Z" fill="#16BF78"/>
<path d="M107.798 14.6596L103.855 16.9395V19.3571L107.798 17.0772V16.2509L108.078 16.0877V15.3227L107.976 15.3839L107.798 15.4859V14.6596ZM106.117 17.5668L104.283 18.6277V17.1792L106.117 16.1183V17.5668Z" fill="white"/>
<path d="M74.0444 34.1738L74.0495 36.5965L83.7217 31.0014L83.7115 28.5838L74.0444 34.1738Z" fill="white"/>
<path d="M98.4973 20.0354L98.5075 22.453L102.078 20.3874L102.073 17.9647L98.4973 20.0354Z" fill="white"/>
<path d="M50.8955 47.9042L50.9006 49.9749L51.3896 49.6944L51.3845 47.6236L50.8955 47.9042Z" fill="white"/>
<path d="M58.566 45.5478L60.6695 44.3288L60.6644 41.9061L59.4471 42.6099L58.5558 43.1251L58.566 45.5478Z" fill="white"/>
<path d="M53.5389 48.4499L57.4811 46.1751L57.476 43.7524L53.5338 46.0323L53.5389 48.4499Z" fill="white"/>
<path d="M51.7104 49.5108L52.0007 49.3425L52.1994 49.2252L52.1943 46.8076L51.7053 47.0881L51.7104 49.5108Z" fill="white"/>
<path d="M50.0908 50.4442L50.4473 50.2401L50.5797 50.1636L50.5746 48.5315L50.4422 48.608L50.0857 48.812L50.0908 50.4442Z" fill="white"/>
<path d="M49.286 50.9134L49.7698 50.6329L49.7647 49.4394L49.2809 49.7148L49.286 50.9134Z" fill="white"/>
<path d="M102.801 94.8382L107.721 92.0279V89.7021L102.745 92.5481L102.475 81.7454L107.721 78.5781V76.2523L102.419 79.4554L102.231 71.9016L107.721 68.2905V65.9545L102.165 69.6064L101.981 61.7977L99.5771 53.127L107.726 45.7212V41.6816L98.9507 49.6638L97.5806 37.1627L107.716 29.3335V26.9669L97.3412 34.9848L96.5619 27.9309L94.5246 29.0887L95.3854 36.9638L85.917 51.3622L78.2261 38.3817L74.4418 40.5392L76.3518 43.7575L72.3688 48.4856L70.8918 45.6243L62.7425 53.2749L63.5065 61.4356L49.5152 69.5248V71.8506L65.7425 62.471L64.9173 53.6829L69.8273 49.0926L71.4571 52.2497L77.294 45.308L78.5826 47.4859L59.7375 76.7725L49.4949 85.9533V88.3709L59.7527 79.1901L66.1092 87.7537L60.7256 96.9345L49.5203 108.665V112.802L55.561 106.498L57.5983 114.057L57.6288 123.941L49.5102 127.863V130.199L57.5321 126.323L56.4574 139.584L53.2079 144.118L52.7495 155.921L49.5102 158.032V161.919L78.3178 143.149L77.8492 155.645L79.8865 154.493L80.513 137.019L91.163 130.653L92.1155 147.485L95.4923 145.557L95.0798 138.238L107.721 129.985V127.649L94.9524 135.983L94.1732 122.299L103.774 116.75L103.076 104.305L107.721 102.06V99.7193L102.979 102.015L102.801 94.8382ZM95.6706 39.5395L96.9694 51.3979L89.8031 57.9214L86.8847 52.9485L95.6706 39.5395ZM75.98 105.626L73.0157 107.339L70.2857 108.915L68.5794 97.5517L75.8119 91.6199L77.7677 104.59L75.98 105.626ZM78.0937 106.727L79.1123 113.562L76.6166 114.766L76.1073 107.86L78.0937 106.727ZM68.2585 95.4605L67.5455 90.7273L78.2261 72.5086L78.6743 72.1057L79.4892 76.696L76.2601 80.0776L77.0343 81.7863L84.72 73.7174L83.9458 71.9985L81.3992 74.6814L80.625 70.3001L87.394 64.1592L88.2395 79.0422L68.2585 95.4605ZM88.3617 81.3425L89.8897 108.375L86.7624 109.905L84.0426 84.8873L88.3617 81.3425ZM74.7881 56.4219L77.0648 59.6249L69.8527 70.805L67.576 67.6479L74.7881 56.4219ZM61.5456 77.0582L66.0022 70.0502L69.323 74.6406L79.6522 58.615L76.3365 53.9635L79.4892 49.0671L86.5027 60.9102L76.8713 69.6728L76.4638 70.04L67.576 85.1933L61.5456 77.0582ZM57.4353 104.57L62.6254 99.1481L65.7985 93.7416L68.5489 112.241L73.0055 109.665L74.1005 109.028L74.5793 115.75L59.6203 123.003V113.756L63.532 110.757L63.1958 108.65L59.3453 111.608L57.4353 104.57ZM61.8155 150.076L54.7766 154.666L55.179 144.292L58.3776 139.834L59.549 125.4L62.9615 123.753L61.8155 150.076ZM78.4604 139.232L63.8478 148.755L64.9836 122.748L79.3008 115.826L78.4604 139.232ZM77.8084 90.0183L82.0919 86.5092L84.7404 110.884L81.2158 112.588L77.8084 90.0183ZM80.6047 134.667L81.2821 114.842L90.017 110.619L91.0357 128.409L80.6047 134.667ZM90.7199 61.1704L97.6621 54.8611L99.9897 63.2972L100.178 70.9479L91.5807 76.5889L90.7199 61.1704ZM91.7386 78.8586L100.244 73.2481L100.433 80.6897L92.1257 85.7034L91.7386 78.8586ZM92.2479 87.9629L100.484 82.99L100.749 93.7263L92.8285 98.2555L92.2479 87.9629ZM92.9559 100.51L100.805 96.0215L100.983 103.04L93.3124 106.748L92.9559 100.51ZM94.0713 120.096L93.4448 109.017L101.085 105.33L101.665 115.714L94.0713 120.096Z" fill="#455A64"/>
<g opacity="0.3">
<path opacity="0.3" d="M102.801 94.8382L107.721 92.0279V89.7021L102.745 92.5481L102.475 81.7454L107.721 78.5781V76.2523L102.419 79.4554L102.231 71.9016L107.721 68.2905V65.9545L102.165 69.6064L101.981 61.7977L99.5771 53.127L107.726 45.7212V41.6816L98.9507 49.6638L97.5806 37.1627L107.716 29.3335V26.9669L97.3412 34.9848L96.5619 27.9309L94.5246 29.0887L95.3854 36.9638L85.917 51.3622L78.2261 38.3817L74.4418 40.5392L76.3518 43.7575L72.3688 48.4856L70.8918 45.6243L62.7425 53.2749L63.5065 61.4356L49.5152 69.5248V71.8506L65.7425 62.471L64.9173 53.6829L69.8273 49.0926L71.4571 52.2497L77.294 45.308L78.5826 47.4859L59.7375 76.7725L49.4949 85.9533V88.3709L59.7527 79.1901L66.1092 87.7537L60.7256 96.9345L49.5203 108.665V112.802L55.561 106.498L57.5983 114.057L57.6288 123.941L49.5102 127.863V130.199L57.5321 126.323L56.4574 139.584L53.2079 144.118L52.7495 155.921L49.5102 158.032V161.919L78.3178 143.149L77.8492 155.645L79.8865 154.493L80.513 137.019L91.163 130.653L92.1155 147.485L95.4923 145.557L95.0798 138.238L107.721 129.985V127.649L94.9524 135.983L94.1732 122.299L103.774 116.75L103.076 104.305L107.721 102.06V99.7193L102.979 102.015L102.801 94.8382ZM95.6706 39.5395L96.9694 51.3979L89.8031 57.9214L86.8847 52.9485L95.6706 39.5395ZM75.98 105.626L73.0157 107.339L70.2857 108.915L68.5794 97.5517L75.8119 91.6199L77.7677 104.59L75.98 105.626ZM78.0937 106.727L79.1123 113.562L76.6166 114.766L76.1073 107.86L78.0937 106.727ZM68.2585 95.4605L67.5455 90.7273L78.2261 72.5086L78.6743 72.1057L79.4892 76.696L76.2601 80.0776L77.0343 81.7863L84.72 73.7174L83.9458 71.9985L81.3992 74.6814L80.625 70.3001L87.394 64.1592L88.2395 79.0422L68.2585 95.4605ZM88.3617 81.3425L89.8897 108.375L86.7624 109.905L84.0426 84.8873L88.3617 81.3425ZM74.7881 56.4219L77.0648 59.6249L69.8527 70.805L67.576 67.6479L74.7881 56.4219ZM61.5456 77.0582L66.0022 70.0502L69.323 74.6406L79.6522 58.615L76.3365 53.9635L79.4892 49.0671L86.5027 60.9102L76.8713 69.6728L76.4638 70.04L67.576 85.1933L61.5456 77.0582ZM57.4353 104.57L62.6254 99.1481L65.7985 93.7416L68.5489 112.241L73.0055 109.665L74.1005 109.028L74.5793 115.75L59.6203 123.003V113.756L63.532 110.757L63.1958 108.65L59.3453 111.608L57.4353 104.57ZM61.8155 150.076L54.7766 154.666L55.179 144.292L58.3776 139.834L59.549 125.4L62.9615 123.753L61.8155 150.076ZM78.4604 139.232L63.8478 148.755L64.9836 122.748L79.3008 115.826L78.4604 139.232ZM77.8084 90.0183L82.0919 86.5092L84.7404 110.884L81.2158 112.588L77.8084 90.0183ZM80.6047 134.667L81.2821 114.842L90.017 110.619L91.0357 128.409L80.6047 134.667ZM90.7199 61.1704L97.6621 54.8611L99.9897 63.2972L100.178 70.9479L91.5807 76.5889L90.7199 61.1704ZM91.7386 78.8586L100.244 73.2481L100.433 80.6897L92.1257 85.7034L91.7386 78.8586ZM92.2479 87.9629L100.484 82.99L100.749 93.7263L92.8285 98.2555L92.2479 87.9629ZM92.9559 100.51L100.805 96.0215L100.983 103.04L93.3124 106.748L92.9559 100.51ZM94.0713 120.096L93.4448 109.017L101.085 105.33L101.665 115.714L94.0713 120.096Z" fill="white"/>
</g>
<path d="M119.41 99.1073C119.874 98.8421 120.241 99.0563 120.246 99.5817L120.276 110.961C120.261 111.248 120.178 111.527 120.035 111.776C119.892 112.025 119.692 112.237 119.451 112.394L92.5586 127.94L92.5229 114.653L119.41 99.1073Z" fill="#16BF78"/>
<g opacity="0.3">
<path opacity="0.3" d="M119.41 99.1073C119.874 98.8421 120.241 99.0563 120.246 99.5817L120.276 110.961C120.261 111.248 120.178 111.527 120.035 111.776C119.892 112.025 119.692 112.237 119.451 112.394L92.5586 127.94L92.5229 114.653L119.41 99.1073Z" fill="white"/>
</g>
<path d="M118.427 108.533L118.433 109.446L98.6247 120.901L98.6196 119.983L118.427 108.533Z" fill="white"/>
<path d="M106.682 117.275L106.687 118.193L98.6297 122.85L98.6246 121.937L106.682 117.275Z" fill="white"/>
<path d="M118.422 106.585L118.427 107.503L98.6196 118.953L98.6145 118.04L118.422 106.585Z" fill="white"/>
<path d="M118.417 104.636V105.549L98.6145 117.005L98.6094 116.087L118.417 104.636Z" fill="white"/>
<path d="M113.12 104.83L113.125 106.661L98.6043 115.051L98.5992 113.225L113.12 104.83Z" fill="white"/>
<path d="M85.321 110.083C88.4687 108.263 91.6214 107.824 94.0356 109.201C98.477 111.751 98.8946 119.621 95.0084 127.506L85.4229 146.944L75.7711 138.631C71.8442 135.259 72.2058 126.9 76.6319 119.249C79.0257 115.107 82.1734 111.904 85.321 110.083Z" fill="#16BF78"/>
<path d="M92.7524 128.468C96.8452 121.415 96.8567 113.773 92.778 111.4C88.6993 109.026 82.075 112.82 77.9821 119.873C73.8893 126.927 73.8778 134.569 77.9566 136.942C82.0353 139.315 88.6596 135.522 92.7524 128.468Z" fill="#455A64"/>
<path d="M85.4076 136.218C88.3464 134.514 91.0102 131.582 92.8947 128.231C92.3801 127.81 91.7765 127.511 91.1296 127.359C90.4828 127.206 89.8097 127.202 89.1614 127.348L87.7607 127.665L83.3194 128.613L79.3211 131.622C78.6233 132.149 78.0495 132.822 77.6402 133.595C77.231 134.368 76.9963 135.222 76.9528 136.096V136.157C78.8576 138.054 81.934 138.222 85.4076 136.218Z" fill="#16BF78"/>
<path opacity="0.2" d="M85.4076 136.218C88.3464 134.514 91.0102 131.582 92.8947 128.231C92.3801 127.81 91.7765 127.511 91.1296 127.359C90.4828 127.206 89.8097 127.202 89.1614 127.348L87.7607 127.665L83.3194 128.613L79.3211 131.622C78.6233 132.149 78.0495 132.822 77.6402 133.595C77.231 134.368 76.9963 135.222 76.9528 136.096V136.157C78.8576 138.054 81.934 138.222 85.4076 136.218Z" fill="black"/>
<path d="M91.5858 123.722C92.2624 123.235 92.7331 122.513 92.9055 121.697C93.078 120.881 92.9397 120.029 92.5178 119.31C92.896 119.139 93.2061 118.847 93.399 118.479C93.4731 118.299 93.4943 118.101 93.46 117.91C93.4257 117.718 93.3374 117.54 93.2054 117.397C93.0663 117.263 92.8919 117.171 92.7025 117.132C92.5131 117.093 92.3165 117.109 92.1358 117.178C92.2346 116.889 92.2347 116.576 92.1361 116.287C92.0374 115.998 91.8456 115.75 91.5909 115.582C91.3302 115.439 91.0284 115.391 90.7362 115.444C90.4441 115.498 90.1793 115.651 89.9865 115.878C89.9936 115.689 89.9393 115.504 89.8318 115.349C89.7242 115.195 89.5694 115.079 89.3906 115.021C89.0224 114.924 88.6331 114.95 88.2802 115.092C87.9237 115.214 87.5875 115.393 87.2259 115.505C86.6077 115.66 85.9734 115.74 85.3363 115.745C84.6937 115.759 84.0649 115.934 83.5078 116.255C83.2016 116.443 82.9655 116.726 82.8358 117.062C82.706 117.397 82.6898 117.766 82.7897 118.112C82.6985 117.995 82.5838 117.899 82.4531 117.829C82.3223 117.76 82.1784 117.719 82.0308 117.709C81.8847 117.705 81.7396 117.732 81.6051 117.789C81.4706 117.847 81.3501 117.932 81.2515 118.04C81.6488 118.285 82.0308 118.55 82.4331 118.8C82.2053 118.735 81.9624 118.748 81.7422 118.835C81.5221 118.923 81.337 119.081 81.2158 119.285C81.0274 119.685 80.9534 120.13 81.0019 120.57C81.055 122.243 81.3519 123.899 81.8831 125.487C82.153 126.308 82.5503 127.175 83.3245 127.552L91.5858 123.722Z" fill="#263238"/>
<path d="M87.3634 127.67L87.1902 129.633C87.1818 129.784 87.2191 129.933 87.2972 130.062C87.4069 130.267 87.4497 130.501 87.4195 130.732C87.3894 130.962 87.2878 131.177 87.1291 131.347C86.8746 131.534 86.5686 131.637 86.2531 131.643C85.6564 131.675 85.0598 131.58 84.5023 131.365C83.9449 131.15 83.4393 130.818 83.0188 130.393C82.933 130.304 82.8662 130.199 82.8224 130.083C82.7786 129.967 82.7588 129.844 82.7642 129.72L82.8915 124.752L87.3634 127.67Z" fill="#FFA8A7"/>
<path opacity="0.3" d="M83.2837 125.007L87.3583 127.67L87.2055 129.409C86.248 129.248 85.3401 128.87 84.5519 128.302C84.0785 127.906 83.7136 127.396 83.4917 126.819C83.2698 126.243 83.1982 125.619 83.2837 125.007Z" fill="black"/>
<path d="M91.8099 119.687C92.1109 121.961 91.962 124.271 91.3718 126.486C91.2589 126.974 91.0772 127.443 90.8319 127.879C90.5861 128.32 90.1984 128.665 89.7318 128.858C89.1366 129.021 88.5086 129.021 87.9135 128.858C86.7925 128.73 85.7047 128.397 84.7047 127.874C84.2082 127.606 83.794 127.207 83.5068 126.721C83.2197 126.235 83.0703 125.679 83.0749 125.114C82.8029 125.292 82.4891 125.394 82.1651 125.411C81.8411 125.427 81.5184 125.358 81.2296 125.21C80.9407 125.062 80.696 124.841 80.5201 124.568C80.3442 124.295 80.2433 123.98 80.2277 123.656C80.169 123.403 80.1936 123.137 80.298 122.899C80.4023 122.661 80.5807 122.464 80.8065 122.336C81.0323 122.208 81.2934 122.156 81.5508 122.189C81.8082 122.222 82.048 122.338 82.2345 122.518C82.5249 122.771 82.7771 123.065 82.9832 123.39C83.0768 123.548 83.2037 123.684 83.355 123.788C83.4301 123.839 83.5189 123.867 83.6097 123.867C83.7005 123.867 83.7892 123.839 83.8643 123.788C83.9283 123.711 83.9743 123.621 83.9989 123.524C84.0236 123.427 84.0263 123.325 84.0069 123.227L83.9458 121.804C83.9448 121.698 83.974 121.594 84.0299 121.503C84.0858 121.413 84.1662 121.34 84.2616 121.294C84.5539 121.132 84.7795 120.872 84.8983 120.56C84.9985 120.286 85.0585 119.999 85.0765 119.708C85.0807 119.653 85.0977 119.6 85.1261 119.553C85.1545 119.506 85.1936 119.466 85.2401 119.437C85.2867 119.407 85.3395 119.389 85.3942 119.384C85.4489 119.379 85.5041 119.387 85.5553 119.407C87.5629 120.137 89.7452 120.235 91.8099 119.687Z" fill="#FFA8A7"/>
<path d="M88.6877 123.135L89.9661 125.288L88.4432 125.579L88.6877 123.135Z" fill="#F28F8F"/>
<path d="M86.9712 126.318L88.1274 126.884C88.028 127.015 87.8889 127.11 87.731 127.155C87.573 127.2 87.4047 127.193 87.2513 127.134C87.1188 127.05 87.0187 126.924 86.9678 126.775C86.9168 126.627 86.918 126.466 86.9712 126.318Z" fill="#F28F8F"/>
<path opacity="0.3" d="M86.9712 126.318L88.1274 126.884C88.028 127.015 87.8889 127.11 87.731 127.155C87.573 127.2 87.4047 127.193 87.2513 127.134C87.1188 127.05 87.0187 126.924 86.9678 126.775C86.9168 126.627 86.918 126.466 86.9712 126.318Z" fill="black"/>
<path d="M87.6537 127.169C87.519 127.196 87.3793 127.183 87.2514 127.133C87.1453 127.073 87.0593 126.983 87.0041 126.874C86.9489 126.766 86.9268 126.643 86.9407 126.522C87.1199 126.518 87.2939 126.582 87.4266 126.703C87.5594 126.823 87.6407 126.99 87.6537 127.169Z" fill="#F28F8F"/>
<path d="M86.4823 123.222C86.4759 123.279 86.4809 123.337 86.497 123.392C86.5131 123.447 86.5399 123.498 86.5759 123.543C86.6119 123.587 86.6564 123.624 86.7067 123.652C86.7571 123.679 86.8124 123.696 86.8694 123.702C86.9273 123.709 86.9862 123.705 87.0426 123.69C87.0989 123.674 87.1516 123.647 87.1975 123.611C87.2434 123.575 87.2816 123.53 87.3098 123.478C87.3381 123.427 87.3557 123.371 87.3619 123.313C87.368 123.254 87.3624 123.195 87.3455 123.139C87.3285 123.083 87.3005 123.031 87.2632 122.986C87.2258 122.941 87.1798 122.904 87.128 122.877C87.0761 122.85 87.0193 122.834 86.961 122.829C86.9037 122.823 86.8458 122.828 86.7905 122.845C86.7352 122.861 86.6838 122.888 86.6392 122.925C86.5946 122.961 86.5577 123.007 86.5308 123.058C86.5039 123.109 86.4874 123.165 86.4823 123.222Z" fill="#263238"/>
<path d="M90.1494 123.452C90.1408 123.538 90.1579 123.625 90.1986 123.702C90.2393 123.778 90.3019 123.841 90.3782 123.882C90.4546 123.923 90.5414 123.94 90.6277 123.932C90.7139 123.924 90.7958 123.89 90.8628 123.835C90.9298 123.78 90.9791 123.706 91.0043 123.623C91.0295 123.54 91.0296 123.451 91.0045 123.368C90.9793 123.285 90.9302 123.211 90.8632 123.156C90.7962 123.101 90.7144 123.067 90.6282 123.059C90.5127 123.047 90.3974 123.082 90.3077 123.156C90.2179 123.23 90.161 123.336 90.1494 123.452Z" fill="#263238"/>
<path d="M90.7454 121.758L91.6469 122.523C91.7004 122.408 91.7174 122.278 91.6956 122.152C91.6737 122.027 91.6141 121.91 91.5246 121.819C91.4135 121.737 91.2815 121.688 91.1437 121.677C91.006 121.666 90.868 121.694 90.7454 121.758Z" fill="#263238"/>
<path d="M87.0272 121.33C86.6809 121.519 86.3346 121.707 86.0086 121.901C85.9795 121.777 85.9882 121.647 86.0336 121.528C86.0789 121.409 86.159 121.306 86.2632 121.233C86.3872 121.177 86.5241 121.157 86.6589 121.174C86.7937 121.191 86.9211 121.245 87.0272 121.33Z" fill="#263238"/>
<path d="M88.7488 67.8009C89.2123 67.5357 89.579 67.7499 89.5841 68.2752L89.6146 79.6543C89.5987 79.9412 89.5157 80.2203 89.3724 80.4692C89.2291 80.7181 89.0294 80.9299 88.7895 81.0875L61.897 96.6336L61.8613 83.347L88.7488 67.8009Z" fill="#16BF78"/>
<g opacity="0.3">
<path opacity="0.3" d="M88.7488 67.8009C89.2123 67.5357 89.579 67.7499 89.5841 68.2752L89.6146 79.6543C89.5987 79.9412 89.5157 80.2203 89.3724 80.4692C89.2291 80.7181 89.0294 80.9299 88.7895 81.0875L61.897 96.6336L61.8613 83.347L88.7488 67.8009Z" fill="white"/>
</g>
<path d="M87.7658 77.2265L87.7709 78.1395L67.9631 89.5899L67.958 88.6769L87.7658 77.2265Z" fill="white"/>
<path d="M76.0207 85.9686L76.0258 86.8867L67.9682 91.5434L67.9631 90.6253L76.0207 85.9686Z" fill="white"/>
<path d="M87.7607 75.2781L87.7658 76.1962L67.958 87.6466L67.9529 86.7286L87.7607 75.2781Z" fill="white"/>
<path d="M87.7555 73.3298L87.7606 74.2427L67.9478 85.6932V84.7802L87.7555 73.3298Z" fill="white"/>
<path d="M82.4586 73.5236L82.4637 75.3495L67.9427 83.7448L67.9376 81.9138L82.4586 73.5236Z" fill="white"/>
<path d="M54.6594 78.1191C57.807 76.2982 60.9598 75.8596 63.374 77.2367C67.8153 79.7869 68.233 87.6568 64.3417 95.5421L54.7612 114.995L45.1196 106.681C41.1978 103.31 41.5543 94.9504 45.9855 87.2998C48.3641 83.1583 51.5117 79.9552 54.6594 78.1191Z" fill="#16BF78"/>
<path d="M62.093 96.5186C66.1858 89.4653 66.1973 81.8234 62.1186 79.45C58.0399 77.0766 51.4155 80.8705 47.3227 87.9239C43.2299 94.9772 43.2184 102.619 47.2971 104.992C51.3758 107.366 58.0002 103.572 62.093 96.5186Z" fill="#455A64"/>
<path d="M54.746 104.269C57.802 102.504 60.532 99.4082 62.4369 95.8991C61.2203 95.2314 59.8013 95.0336 58.4488 95.3432L56.0652 95.8838L51.1705 96.9345L46.9329 100.127C46.1772 100.701 45.5037 101.375 44.9313 102.132C46.4338 105.825 50.2639 106.86 54.746 104.269Z" fill="white"/>
<path d="M48.6086 90.7171C48.7412 90.4035 48.984 90.1495 49.2911 90.003C49.3559 89.9701 49.4243 89.9444 49.4948 89.9265C49.7009 89.8925 49.9122 89.9096 50.1102 89.9763C50.3082 90.043 50.4869 90.1572 50.6306 90.3091C50.914 90.615 51.1047 90.9953 51.1807 91.4057C51.2569 91.8148 51.3029 92.2291 51.3182 92.6451C51.378 93.3801 51.4921 94.1098 51.6594 94.828C51.7472 95.2203 51.9188 95.5889 52.1623 95.9085C52.4059 96.2281 52.7156 96.4911 53.0703 96.6795L53.1212 96.705C54.1499 97.2156 55.2705 97.5139 56.4166 97.5823V98.8319C57.3283 100.071 57.5829 102.443 55.184 101.734C52.7851 101.025 51.2265 99.4286 51.2265 97.8628C51.2265 97.1997 51.196 96.3327 51.1756 95.588C51.1756 94.5679 51.1348 93.7059 51.1348 93.7059C50.9116 93.9648 50.5984 94.1289 50.2588 94.165C50.1057 94.1849 49.9503 94.1763 49.8004 94.1395C49.5809 94.0683 49.3778 93.9541 49.2029 93.8035C49.028 93.6528 48.8849 93.4688 48.7817 93.2622C48.5789 92.8452 48.4678 92.3895 48.4558 91.9259C48.4116 91.5165 48.4639 91.1025 48.6086 90.7171Z" fill="#FFA8A7"/>
<path opacity="0.3" d="M48.6086 90.7171C48.7412 90.4035 48.984 90.1495 49.2911 90.003C49.3559 89.9701 49.4243 89.9444 49.4948 89.9265C49.7009 89.8925 49.9122 89.9096 50.1102 89.9763C50.3082 90.043 50.4869 90.1572 50.6306 90.3091C50.914 90.615 51.1047 90.9953 51.1807 91.4057C51.2569 91.8148 51.3029 92.2291 51.3182 92.6451C51.378 93.3801 51.4921 94.1098 51.6594 94.828C51.7472 95.2203 51.9188 95.5889 52.1623 95.9085C52.4059 96.2281 52.7156 96.4911 53.0703 96.6795L53.1212 96.705C54.1499 97.2156 55.2705 97.5139 56.4166 97.5823V98.8319C57.3283 100.071 57.5829 102.443 55.184 101.734C52.7851 101.025 51.2265 99.4286 51.2265 97.8628C51.2265 97.1997 51.196 96.3327 51.1756 95.588C51.1756 94.5679 51.1348 93.7059 51.1348 93.7059C50.9116 93.9648 50.5984 94.1289 50.2588 94.165C50.1057 94.1849 49.9503 94.1763 49.8004 94.1395C49.5809 94.0683 49.3778 93.9541 49.2029 93.8035C49.028 93.6528 48.8849 93.4688 48.7817 93.2622C48.5789 92.8452 48.4678 92.3895 48.4558 91.9259C48.4116 91.5165 48.4639 91.1025 48.6086 90.7171Z" fill="black"/>
<path d="M49.3879 86.3817C49.8668 85.818 50.539 85.4541 51.2724 85.3617L61.1177 86.2797C62.2535 88.6922 61.3469 90.2836 61.3469 90.2836C61.4997 93.9559 61.627 96.2919 60.0125 97.0671C58.8729 97.5267 57.6388 97.7017 56.4166 97.5772C55.2705 97.5088 54.1499 97.2105 53.1212 96.6999L53.0703 96.6693C52.7144 96.4812 52.4038 96.2177 52.1601 95.897C51.9165 95.5764 51.7456 95.2063 51.6595 94.8127C51.4921 94.0979 51.3781 93.3717 51.3182 92.64C51.3029 92.224 51.2569 91.8097 51.1807 91.4006C51.1047 90.9902 50.914 90.61 50.6306 90.304C50.4869 90.1521 50.3083 90.0379 50.1103 89.9712C49.9122 89.9045 49.7009 89.8874 49.4948 89.9214C49.4243 89.9393 49.356 89.965 49.2911 89.9979C49.011 88.3709 48.9295 86.9581 49.3879 86.3817Z" fill="#263238"/>
<path d="M52.9939 86.6623C53.1637 87.348 53.1175 88.0696 52.8615 88.7279C52.6069 89.3821 52.3992 90.0537 52.2401 90.7375C52.1062 91.4289 52.2009 92.1451 52.51 92.7777C52.6638 93.0891 52.884 93.3629 53.1551 93.5797C53.4261 93.7965 53.7415 93.951 54.0788 94.0324C55.1331 94.2568 56.167 93.6396 57.2315 93.4356C58.2471 93.2512 59.2951 93.4318 60.1907 93.9457C60.2663 93.9919 60.3526 94.0175 60.4412 94.0201C60.5297 94.0227 60.6174 94.0021 60.6956 93.9604C60.7737 93.9187 60.8397 93.8573 60.8869 93.7823C60.9342 93.7072 60.961 93.6211 60.9649 93.5325C61.0922 91.421 61.0922 88.1057 60.7764 86.55L52.9939 86.6623Z" fill="#FFA8A7"/>
<path opacity="0.3" d="M52.9939 86.6623C53.1637 87.348 53.1175 88.0696 52.8615 88.7279C52.6069 89.3821 52.3992 90.0537 52.2401 90.7375C52.1062 91.4289 52.2009 92.1451 52.51 92.7777C52.6638 93.0891 52.884 93.3629 53.1551 93.5797C53.4261 93.7965 53.7415 93.951 54.0788 94.0324C55.1331 94.2568 56.167 93.6396 57.2315 93.4356C58.2471 93.2512 59.2951 93.4318 60.1907 93.9457C60.2663 93.9919 60.3526 94.0175 60.4412 94.0201C60.5297 94.0227 60.6174 94.0021 60.6956 93.9604C60.7737 93.9187 60.8397 93.8573 60.8869 93.7823C60.9342 93.7072 60.961 93.6211 60.9649 93.5325C61.0922 91.421 61.0922 88.1057 60.7764 86.55L52.9939 86.6623Z" fill="black"/>
<path d="M60.6134 84.7496L61.8358 83.8978C61.9623 84.3075 61.9857 84.7421 61.904 85.163C61.8222 85.5839 61.6379 85.978 61.3672 86.3103C60.8073 86.961 60.0479 87.4076 59.2077 87.5804C58.3706 87.7558 57.5107 87.7954 56.661 87.6977C55.4215 87.5951 54.195 87.3713 52.999 87.0295C52.4583 86.9166 51.9605 86.6532 51.5627 86.2695C51.3131 85.9523 51.1711 85.5636 51.1574 85.16C51.1436 84.7564 51.2588 84.3589 51.4863 84.0254C51.7231 83.6961 52.0274 83.4212 52.3787 83.2189C52.73 83.0166 53.1203 82.8916 53.5236 82.8523C54.3402 82.7896 55.1617 82.855 55.9582 83.0461C56.7563 83.2381 57.5806 83.2967 58.3979 83.2195C58.805 83.1765 59.1959 83.0359 59.5372 82.8095C59.8786 82.5831 60.1604 82.2776 60.3588 81.9189C61.0464 83.0359 60.6134 84.7496 60.6134 84.7496Z" fill="#263238"/>
<path d="M57.5219 90.4162L59.3198 92.594L57.6696 93.1755L57.5219 90.4162Z" fill="#F28F8F"/>
<path opacity="0.3" d="M57.5219 90.4162L59.3198 92.594L57.6696 93.1755L57.5219 90.4162Z" fill="black"/>
<path d="M56.1619 94.2568L57.5524 94.6801C57.4646 94.8447 57.3256 94.9761 57.1564 95.0543C56.9873 95.1326 56.7972 95.1534 56.6152 95.1136C56.4536 95.0437 56.3207 94.9207 56.2383 94.7649C56.1559 94.6092 56.1289 94.4299 56.1619 94.2568Z" fill="#F28F8F"/>
<path opacity="0.3" d="M56.1619 94.2568L57.5524 94.6801C57.4646 94.8447 57.3256 94.9761 57.1564 95.0543C56.9873 95.1326 56.7972 95.1534 56.6152 95.1136C56.4536 95.0437 56.3207 94.9207 56.2383 94.7649C56.1559 94.6092 56.1289 94.4299 56.1619 94.2568Z" fill="black"/>
<path d="M57.0685 95.0822C56.9244 95.1401 56.7657 95.1508 56.6152 95.1128C56.4872 95.0639 56.3765 94.9784 56.2968 94.867C56.2171 94.7556 56.172 94.6232 56.167 94.4863C56.3427 94.4644 56.5209 94.4983 56.6763 94.5831C56.7719 94.6356 56.856 94.7068 56.9234 94.7926C56.9907 94.8784 57.0401 94.9769 57.0685 95.0822Z" fill="#F28F8F"/>
<path d="M55.0822 90.8701C55.0826 90.9729 55.114 91.0731 55.1722 91.1577C55.2305 91.2422 55.3129 91.3072 55.4087 91.3441C55.5044 91.381 55.6091 91.388 55.7089 91.3643C55.8088 91.3406 55.8991 91.2873 55.9682 91.2113C56.0372 91.1353 56.0818 91.0402 56.0959 90.9385C56.1101 90.8367 56.0932 90.733 56.0476 90.641C56.0019 90.549 55.9295 90.473 55.84 90.4228C55.7504 90.3727 55.6478 90.3508 55.5456 90.3601C55.4187 90.3716 55.3006 90.4303 55.2148 90.5248C55.129 90.6192 55.0816 90.7424 55.0822 90.8701Z" fill="#263238"/>
<path d="M59.2077 90.508C59.1916 90.5845 59.1932 90.6636 59.2124 90.7394C59.2317 90.8152 59.268 90.8855 59.3187 90.9449C59.3695 91.0043 59.4331 91.0513 59.5048 91.0822C59.5766 91.1131 59.6544 91.127 59.7324 91.123C59.8103 91.1189 59.8863 91.097 59.9544 91.0589C60.0226 91.0207 60.0811 90.9674 60.1254 90.9031C60.1697 90.8387 60.1986 90.765 60.2099 90.6876C60.2213 90.6103 60.2147 90.5314 60.1907 90.457C60.2069 90.3805 60.2053 90.3013 60.186 90.2256C60.1668 90.1498 60.1304 90.0795 60.0797 90.0201C60.029 89.9606 59.9653 89.9137 59.8936 89.8828C59.8219 89.8519 59.744 89.8379 59.6661 89.842C59.5881 89.846 59.5121 89.868 59.444 89.9061C59.3758 89.9442 59.3174 89.9975 59.2731 90.0619C59.2288 90.1263 59.1998 90.2 59.1885 90.2773C59.1772 90.3547 59.1837 90.4336 59.2077 90.508Z" fill="#263238"/>
<path d="M59.5796 88.5188L60.7103 89.2176C60.7524 89.0801 60.7505 88.933 60.7048 88.7967C60.6591 88.6604 60.572 88.5418 60.4556 88.4576C60.3185 88.3848 60.1637 88.3519 60.0089 88.3627C59.854 88.3736 59.7053 88.4276 59.5796 88.5188Z" fill="#263238"/>
<path d="M55.3623 88.6871L54.308 89.5032C54.2533 89.3702 54.2406 89.2237 54.2715 89.0832C54.3025 88.9428 54.3757 88.8152 54.4812 88.7177C54.6108 88.6314 54.7619 88.5828 54.9174 88.5774C55.073 88.572 55.2271 88.61 55.3623 88.6871Z" fill="#263238"/>
<path opacity="0.2" d="M52.4591 96.6387C52.1832 96.2854 51.9869 95.8765 51.8835 95.4401C52.1377 95.9689 52.5534 96.403 53.0703 96.6795L53.1212 96.705C54.1499 97.2156 55.2705 97.5139 56.4166 97.5823V98.4238C55.7538 98.3678 55.1004 98.2308 54.4709 98.0158C53.6837 97.7566 52.9861 97.2791 52.4591 96.6387Z" fill="black"/>
<path d="M132.928 20.6781C133.386 20.4129 133.758 20.6271 133.758 21.1525L133.789 32.5315C133.774 32.8188 133.692 33.0985 133.549 33.3477C133.405 33.5968 133.205 33.8083 132.964 33.9647L106.076 49.5108L106.035 36.2497L132.928 20.6781Z" fill="#16BF78"/>
<g opacity="0.3">
<path opacity="0.3" d="M132.928 20.6781C133.386 20.4129 133.758 20.6271 133.758 21.1525L133.789 32.5315C133.774 32.8188 133.692 33.0985 133.549 33.3477C133.405 33.5968 133.205 33.8083 132.964 33.9647L106.076 49.5108L106.035 36.2497L132.928 20.6781Z" fill="white"/>
</g>
<path d="M131.945 30.1037V31.0167L112.137 42.4722V41.5541L131.945 30.1037Z" fill="white"/>
<path d="M120.195 38.8458L120.2 39.7639L112.142 44.4206V43.5076L120.195 38.8458Z" fill="white"/>
<path d="M131.935 28.1553L131.94 29.0734L112.132 40.5239L112.127 39.6109L131.935 28.1553Z" fill="white"/>
<path d="M131.93 26.207L131.935 27.1199L112.127 38.5755V37.6574L131.93 26.207Z" fill="white"/>
<path d="M126.633 26.4008L126.638 28.2318L112.122 36.622L112.117 34.7961L126.633 26.4008Z" fill="white"/>
<path d="M98.1204 32.9599C101.268 31.1391 104.421 30.7004 106.835 32.0776C111.276 34.6278 111.694 42.4977 107.803 50.383L98.2223 69.8207L88.5451 61.507C84.6232 58.1356 84.9798 49.776 89.4109 42.1254C91.8251 37.9838 94.9728 34.7655 98.1204 32.9599Z" fill="#16BF78"/>
<path d="M105.554 51.348C109.647 44.2946 109.658 36.6528 105.58 34.2794C101.501 31.906 94.8766 35.6999 90.7838 42.7533C86.6909 49.8066 86.6795 57.4485 90.7582 59.8219C94.8369 62.1952 101.461 58.4014 105.554 51.348Z" fill="#455A64"/>
<path d="M98.207 59.0945C100.876 57.5644 103.3 55.0142 105.144 52.0253C103.863 51.3939 102.419 51.1731 101.008 51.3929L99.6178 51.5969L95.151 52.4435L91.7945 54.4378C90.4564 55.2314 89.4219 56.4505 88.8557 57.901C90.6129 60.8133 94.1374 61.4458 98.207 59.0945Z" fill="#16BF78"/>
<path opacity="0.2" d="M98.207 59.0945C100.876 57.5644 103.3 55.0142 105.144 52.0253C103.863 51.3939 102.419 51.1731 101.008 51.3929L99.6178 51.5969L95.151 52.4435L91.7945 54.4378C90.4564 55.2314 89.4219 56.4505 88.8557 57.901C90.6129 60.8133 94.1374 61.4458 98.207 59.0945Z" fill="white"/>
<path d="M90.3787 43.5076C90.3787 43.7677 90.4194 44.0176 90.4347 44.2931C90.5011 44.984 90.4123 45.6811 90.175 46.3332C89.8643 47.083 89.248 47.6899 89.0493 48.4754C88.958 48.8378 88.9627 49.2178 89.063 49.5778C89.1632 49.9378 89.3556 50.2654 89.6211 50.5281C89.8865 50.7909 90.2159 50.9797 90.5765 51.0759C90.9372 51.1721 91.3167 51.1723 91.6775 51.0766C91.5276 50.5304 91.4606 49.9647 91.4788 49.3986C91.5451 50.1585 92.2989 50.7502 93.0068 51.0052C93.7408 51.2169 94.5087 51.2844 95.2682 51.2041L97.9473 51.1021L101.069 50.9797C101.626 50.9912 102.18 50.8942 102.699 50.6941C103.132 50.4591 103.494 50.1134 103.749 49.6922C104.004 49.2709 104.143 48.7894 104.151 48.2969C104.135 47.2488 103.892 46.2168 103.438 45.2723C104.107 44.5968 104.522 43.711 104.615 42.7643C104.708 41.8177 104.472 40.8679 103.947 40.075C104.228 39.9639 104.466 39.7644 104.624 39.5065C104.782 39.2486 104.853 38.9462 104.825 38.6448C104.797 38.3435 104.671 38.0594 104.468 37.8353C104.265 37.6112 103.995 37.4593 103.698 37.4024C103.188 37.3727 102.677 37.4456 102.195 37.6166C101.34 37.7721 100.463 37.7721 99.6077 37.6166C98.747 37.4942 97.8964 37.3055 97.0611 37.2443C96.3604 37.179 95.6537 37.2465 94.9779 37.4432C93.1326 39.2069 91.58 41.2541 90.3787 43.5076Z" fill="#263238"/>
<path d="M99.6178 49.623V52.4741C99.6178 52.4741 101.945 53.9634 100.968 54.754C99.1187 56.2433 95.151 52.4588 95.151 52.4588V47.7103L99.6178 49.623Z" fill="#FFA8A7"/>
<path opacity="0.3" d="M95.1613 47.7103C95.8488 49.7505 98.3446 51.3061 99.6281 51.6121V49.623L95.1613 47.7103Z" fill="black"/>
<path d="M95.696 44.4563C95.7561 44.8117 95.7732 45.173 95.7469 45.5325C95.7089 45.8045 95.5838 46.0568 95.3904 46.2516C95.2955 46.3423 95.1804 46.4091 95.0547 46.4463C94.9289 46.4836 94.796 46.4903 94.6672 46.4658C94.7297 46.115 94.6565 45.7535 94.4625 45.4547C94.2685 45.1559 93.9682 44.9423 93.6226 44.8572C93.277 44.7722 92.912 44.8221 92.6018 44.9967C92.2916 45.1714 92.0594 45.4578 91.9524 45.7977C91.8915 46.0473 91.886 46.3073 91.9361 46.5593C91.9863 46.8113 92.0909 47.0492 92.2428 47.2564C92.5504 47.6697 92.952 48.0037 93.4142 48.2306C93.6766 48.3187 93.9615 48.3119 94.2193 48.2112C94.4771 48.1106 94.6915 47.9225 94.825 47.6797C96.185 49.4037 98.5584 50.7043 100.784 50.5156C101.393 50.483 101.98 50.2759 102.475 49.9188C103.316 49.266 103.377 48.2816 103.494 47.3125C103.651 46.0826 103.642 44.8372 103.468 43.6096C103.24 41.8934 102.412 40.3139 101.131 39.1518C100.356 42.8445 96.9846 44.1962 95.696 44.4563Z" fill="#FFA8A7"/>
<path d="M100.326 44.0482L101.849 45.9303L100.433 46.4148L100.326 44.0482Z" fill="#F28F8F"/>
<path d="M99.134 47.3329L100.321 47.7103C100.245 47.8502 100.124 47.961 99.9789 48.0255C99.8334 48.0901 99.6707 48.1048 99.516 48.0673C99.3773 48.008 99.2635 47.9024 99.1938 47.7685C99.1242 47.6346 99.1031 47.4807 99.134 47.3329Z" fill="#F28F8F"/>
<path opacity="0.3" d="M99.134 47.3329L100.321 47.7103C100.245 47.8502 100.124 47.961 99.9789 48.0255C99.8334 48.0901 99.6707 48.1048 99.516 48.0673C99.3773 48.008 99.2635 47.9024 99.1938 47.7685C99.1242 47.6346 99.1031 47.4807 99.134 47.3329Z" fill="black"/>
<path d="M99.9031 48.0513C99.7769 48.0893 99.6423 48.0893 99.516 48.0513C99.41 48.0123 99.3176 47.9435 99.2498 47.8531C99.182 47.7627 99.1418 47.6547 99.134 47.542C99.2923 47.5166 99.4544 47.5472 99.5924 47.6286C99.6697 47.6749 99.737 47.7361 99.7904 47.8087C99.8437 47.8813 99.882 47.9638 99.9031 48.0513Z" fill="#F28F8F"/>
<path d="M98.2325 44.4563C98.2345 44.5117 98.2474 44.5661 98.2706 44.6164C98.2937 44.6668 98.3266 44.712 98.3674 44.7495C98.4081 44.787 98.4559 44.816 98.508 44.8348C98.56 44.8537 98.6153 44.8619 98.6706 44.8592C98.7543 44.8561 98.8352 44.8281 98.903 44.7788C98.9709 44.7296 99.0225 44.6612 99.0515 44.5825C99.0805 44.5037 99.0854 44.4181 99.0657 44.3366C99.046 44.255 99.0025 44.1812 98.9408 44.1244C98.8791 44.0676 98.8019 44.0305 98.7191 44.0178C98.6363 44.005 98.5515 44.0172 98.4756 44.0527C98.3997 44.0883 98.3361 44.1456 98.2928 44.2175C98.2495 44.2893 98.2286 44.3725 98.2325 44.4563Z" fill="#263238"/>
<path d="M101.767 44.1451C101.771 44.2287 101.8 44.3092 101.85 44.3764C101.9 44.4436 101.968 44.4946 102.047 44.5228C102.125 44.551 102.211 44.5553 102.292 44.535C102.373 44.5147 102.446 44.4708 102.502 44.4089C102.559 44.3469 102.595 44.2697 102.607 44.1869C102.62 44.1041 102.607 44.0195 102.572 43.9438C102.536 43.8681 102.479 43.8047 102.407 43.7616C102.336 43.7184 102.253 43.6975 102.17 43.7014C102.058 43.708 101.953 43.7581 101.878 43.8411C101.803 43.924 101.763 44.0332 101.767 44.1451Z" fill="#263238"/>
<path d="M102.103 42.4416L103.071 43.0486C103.106 42.9301 103.104 42.8039 103.066 42.6864C103.028 42.569 102.955 42.4659 102.857 42.3906C102.739 42.3287 102.606 42.3007 102.473 42.3097C102.34 42.3187 102.212 42.3644 102.103 42.4416Z" fill="#263238"/>
<path d="M98.4871 42.5538L97.5805 43.2424C97.5351 43.1287 97.5253 43.0038 97.5526 42.8844C97.5799 42.765 97.643 42.6568 97.7333 42.5742C97.8443 42.5 97.9739 42.4587 98.1073 42.4551C98.2406 42.4515 98.3723 42.4857 98.4871 42.5538Z" fill="#263238"/>
<path d="M143.965 124.273C138.75 127.899 132.872 130.393 128.512 135.274C120.363 144.363 120.185 158.986 126.577 169.381C132.969 179.776 144.862 186.018 156.968 187.447C169.671 188.946 183 185.406 192.962 177.404C202.925 169.401 209.261 156.834 209.261 144.022C209.261 131.209 202.701 118.463 191.99 111.466C182.216 105.08 168.173 103.259 158.374 110.563C153.418 114.256 150.113 119.708 145.167 123.411C144.77 123.707 144.367 123.992 143.965 124.273Z" fill="#16BF78"/>
<path opacity="0.3" d="M143.965 124.273C138.75 127.899 132.872 130.393 128.512 135.274C120.363 144.363 120.185 158.986 126.577 169.381C132.969 179.776 144.862 186.018 156.968 187.447C169.671 188.946 183 185.406 192.962 177.404C202.925 169.401 209.261 156.834 209.261 144.022C209.261 131.209 202.701 118.463 191.99 111.466C182.216 105.08 168.173 103.259 158.374 110.563C153.418 114.256 150.113 119.708 145.167 123.411C144.77 123.707 144.367 123.992 143.965 124.273Z" fill="black"/>
<path opacity="0.1" d="M146.094 177.516C146.094 177.429 146.094 177.343 146.13 177.256C146.563 174.424 147.869 171.797 149.864 169.743C151.858 167.689 154.443 166.309 157.259 165.795C162.298 164.831 167.126 162.98 171.52 160.328C174.632 158.44 177.576 156.13 181.075 155.105C184.474 154.128 188.105 154.34 191.368 155.707C188.435 152.616 183.397 151.259 179.374 152.646C182.16 148.377 184.609 143.777 185.567 138.768C186.525 133.76 185.847 128.266 182.832 124.155C181.546 122.404 179.887 120.96 177.977 119.927C176.067 118.894 173.951 118.299 171.783 118.182C169.615 118.066 167.449 118.433 165.439 119.256C163.43 120.079 161.627 121.338 160.162 122.942C157.177 126.216 155.491 130.817 153.54 134.795C152.13 137.646 150.673 140.569 148.35 142.741C144.846 146.026 139.809 147.209 136.172 150.351C132.057 153.922 130.279 159.603 130.259 165.051C130.327 168.727 130.863 172.379 131.853 175.92C136.113 179.99 141.192 183.101 146.751 185.044C145.941 182.622 145.716 180.042 146.094 177.516Z" fill="black"/>
<path d="M202.446 142.267C202.284 133.423 198.996 124.922 193.165 118.277C187.335 111.632 179.341 107.272 170.603 105.973C169.39 106.092 168.187 106.295 167.002 106.579C176.188 107.069 184.849 111.023 191.242 117.647C197.635 124.27 201.287 133.072 201.463 142.282C201.692 154.202 195.861 166.351 185.883 174.782C178.06 181.413 167.664 185.769 156.235 187.35L156.968 187.442C157.987 187.564 159.006 187.651 160.06 187.707C170.211 185.733 179.414 181.54 186.52 175.537C196.732 166.917 202.686 154.483 202.446 142.267Z" fill="white"/>
<path d="M132.108 175.287C132.467 177.173 132.671 179.085 132.719 181.005L134.074 180.495C134.713 180.257 135.408 180.212 136.073 180.364C136.738 180.516 137.344 180.859 137.817 181.352L137.884 181.423C138.126 181.676 138.456 181.826 138.806 181.842C139.156 181.859 139.499 181.739 139.763 181.51C139.905 181.386 140.02 181.234 140.101 181.064C140.181 180.894 140.226 180.709 140.232 180.52L140.415 174.752L132.108 175.287Z" fill="#916160"/>
<path d="M137.334 196.745C134.522 199.754 129.347 202.386 125.589 199.805L126.011 200.759C129.77 203.309 134.945 200.697 137.756 197.698C140.568 194.699 138.744 192.598 141.271 189.93C142.225 189.015 142.971 187.905 143.461 186.676C143.349 186.391 143.242 186.013 143.109 185.585C142.561 186.837 141.798 187.984 140.853 188.972C138.327 191.649 140.145 193.735 137.334 196.745Z" fill="white"/>
<path d="M141.724 182.443C141.292 181.831 140.99 181.137 140.838 180.403C140.813 180.231 140.75 180.067 140.654 179.922C140.558 179.778 140.431 179.656 140.283 179.566L140.252 180.53C140.243 180.799 140.156 181.059 140 181.278C139.844 181.497 139.628 181.665 139.377 181.762C139.127 181.858 138.853 181.878 138.591 181.82C138.329 181.761 138.09 181.627 137.904 181.433L137.838 181.362C137.363 180.866 136.753 180.52 136.084 180.368C135.415 180.215 134.716 180.263 134.074 180.505L132.699 181.015C132.492 181.092 132.315 181.231 132.191 181.414C132.068 181.597 132.005 181.814 132.011 182.035C132.098 185.983 130.259 191.216 128.329 194.103C126.342 194.929 124.626 197.637 125.502 199.626L125.589 199.825C129.347 202.376 134.522 199.759 137.334 196.765C140.145 193.771 138.322 191.665 140.853 188.997C141.798 188.009 142.561 186.863 143.109 185.61C142.797 184.495 142.33 183.429 141.724 182.443Z" fill="#16BF78"/>
<path d="M136.223 188.145C136.335 188.191 136.46 188.193 136.573 188.151C136.686 188.109 136.779 188.026 136.835 187.919C136.89 187.812 136.904 187.688 136.873 187.571C136.841 187.454 136.768 187.354 136.666 187.288C135.843 186.823 134.913 186.578 133.967 186.578C133.021 186.578 132.091 186.823 131.268 187.288C131.181 187.6 131.094 187.911 130.998 188.217C131.788 187.752 132.685 187.501 133.601 187.488C134.517 187.476 135.421 187.702 136.223 188.145Z" fill="white"/>
<path d="M136.916 186.008C137.029 186.067 137.16 186.079 137.282 186.04C137.403 186.002 137.504 185.917 137.563 185.804C137.622 185.691 137.633 185.56 137.595 185.438C137.557 185.317 137.472 185.215 137.359 185.157C136.498 184.687 135.532 184.444 134.552 184.452C133.572 184.46 132.609 184.718 131.757 185.202C131.701 185.524 131.634 185.845 131.563 186.166C133.188 185.304 134.838 184.958 136.916 186.008Z" fill="white"/>
<path d="M135.464 190.267C135.577 190.326 135.709 190.338 135.83 190.299C135.951 190.261 136.052 190.176 136.111 190.063C136.17 189.95 136.182 189.818 136.143 189.697C136.105 189.576 136.02 189.474 135.908 189.415C135.103 188.96 134.196 188.716 133.271 188.706C132.347 188.696 131.435 188.921 130.621 189.359C130.504 189.696 130.376 190.022 130.249 190.344C131.037 189.88 131.932 189.63 132.847 189.616C133.761 189.603 134.663 189.827 135.464 190.267Z" fill="white"/>
<path d="M128.329 194.098C126.342 194.924 124.626 197.632 125.502 199.621L125.589 199.82C129.296 202.37 134.369 199.82 137.206 196.877C134.838 192.231 129.892 193.389 128.329 194.098Z" fill="white"/>
<path d="M134.634 192.368C134.748 192.423 134.878 192.431 134.997 192.39C135.117 192.349 135.215 192.262 135.271 192.149C135.328 192.038 135.34 191.909 135.302 191.789C135.265 191.67 135.182 191.57 135.072 191.512C134.266 191.056 133.358 190.813 132.432 190.805C131.507 190.797 130.594 191.024 129.78 191.466C129.612 191.833 129.439 192.185 129.271 192.527C130.901 191.634 132.556 191.287 134.634 192.368Z" fill="white"/>
<path d="M126.2 186.758C125.767 188.629 125.183 190.461 124.453 192.236L125.899 192.312C126.584 192.35 127.243 192.589 127.794 192.999C128.344 193.409 128.762 193.972 128.996 194.618L129.032 194.71C129.15 195.041 129.391 195.313 129.705 195.47C130.02 195.627 130.382 195.656 130.717 195.551C130.897 195.495 131.062 195.403 131.204 195.28C131.346 195.157 131.461 195.007 131.543 194.837L134.033 189.63L126.2 186.758Z" fill="#916160"/>
<path d="M122.334 208.511C118.55 210.128 112.753 210.444 110.349 206.573V207.624C112.753 211.49 118.55 211.194 122.334 209.557C126.118 207.92 125.293 205.293 128.68 203.87C129.923 203.42 131.054 202.707 131.996 201.779C131.996 201.473 132.062 201.085 132.113 200.636C131.106 201.562 129.944 202.303 128.68 202.824C125.293 204.247 126.103 206.889 122.334 208.511Z" fill="white"/>
<path d="M132.113 197.199C131.958 196.462 131.958 195.701 132.113 194.965C132.158 194.797 132.165 194.622 132.135 194.451C132.105 194.28 132.039 194.118 131.94 193.975L131.522 194.847C131.407 195.091 131.222 195.295 130.991 195.433C130.76 195.572 130.493 195.639 130.224 195.625C129.955 195.611 129.696 195.518 129.48 195.357C129.264 195.196 129.101 194.974 129.011 194.72L128.975 194.628C128.742 193.982 128.324 193.419 127.773 193.009C127.223 192.599 126.564 192.361 125.879 192.323L124.412 192.241C124.196 192.233 123.983 192.292 123.801 192.408C123.619 192.525 123.477 192.694 123.393 192.894C121.865 196.541 118.081 200.595 115.152 202.452C113.008 202.401 110.344 204.186 110.344 206.359V206.573C112.748 210.444 118.544 210.143 122.329 208.511C126.113 206.879 125.288 204.247 128.675 202.824C129.939 202.303 131.101 201.562 132.108 200.636C132.269 199.496 132.271 198.339 132.113 197.199Z" fill="#16BF78"/>
<path d="M124.784 200.193C124.869 200.283 124.984 200.339 125.108 200.351C125.232 200.362 125.356 200.327 125.456 200.254C125.553 200.176 125.616 200.062 125.63 199.938C125.645 199.814 125.61 199.689 125.532 199.591C124.966 198.832 124.214 198.233 123.348 197.851C122.483 197.469 121.533 197.318 120.592 197.413C120.388 197.663 120.184 197.923 119.971 198.157C120.88 198.049 121.802 198.18 122.646 198.537C123.49 198.893 124.227 199.464 124.784 200.193Z" fill="white"/>
<path d="M126.276 198.52C126.361 198.61 126.477 198.667 126.601 198.678C126.725 198.689 126.848 198.655 126.948 198.581C127.046 198.503 127.109 198.389 127.123 198.265C127.137 198.141 127.102 198.016 127.025 197.918C126.427 197.137 125.639 196.521 124.737 196.13C123.835 195.739 122.849 195.586 121.87 195.684C121.687 195.959 121.499 196.224 121.3 196.495C123.149 196.362 124.799 196.714 126.276 198.52Z" fill="white"/>
<path d="M123.235 201.825C123.315 201.924 123.431 201.988 123.558 202.002C123.684 202.015 123.811 201.978 123.91 201.899C124.01 201.819 124.073 201.703 124.087 201.576C124.101 201.449 124.064 201.322 123.984 201.223C123.429 200.484 122.698 199.896 121.856 199.515C121.015 199.133 120.092 198.97 119.171 199.04C118.927 199.3 118.662 199.55 118.427 199.79C119.336 199.684 120.257 199.815 121.099 200.172C121.942 200.529 122.678 201.098 123.235 201.825Z" fill="white"/>
<path d="M115.157 202.452C113.013 202.401 110.349 204.186 110.349 206.359V206.573C112.718 210.388 118.376 210.143 122.161 208.578C121.87 203.37 116.879 202.432 115.157 202.452Z" fill="white"/>
<path d="M121.636 203.391C121.721 203.481 121.837 203.537 121.961 203.549C122.085 203.56 122.208 203.525 122.308 203.452C122.406 203.374 122.469 203.26 122.483 203.136C122.497 203.012 122.462 202.887 122.385 202.789C121.832 202.045 121.099 201.455 120.255 201.073C119.411 200.691 118.484 200.53 117.562 200.606C117.261 200.871 116.961 201.116 116.66 201.366C118.509 201.233 120.159 201.585 121.636 203.391Z" fill="white"/>
<path d="M148.432 137.468L129.49 148.036C127.773 148.994 126.399 150.468 125.563 152.249C124.727 154.031 124.47 156.031 124.83 157.966L128.507 177.797L125.492 187.39C128.089 190.884 134.064 191.058 134.064 191.058C137.395 184.366 139.84 181.525 141.734 175.92C143.629 170.314 144.887 166.443 144.887 166.443L160.62 162.138C164.218 161.159 167.44 159.122 169.87 156.291C172.3 153.46 173.828 149.964 174.255 146.256C174.52 143.869 174.535 142.242 174.535 142.242L148.432 137.468Z" fill="#37474F"/>
<path opacity="0.2" d="M148.58 142.798C148.581 144.914 149.332 146.961 150.698 148.576L137.308 156.956C135.352 158.189 133.906 160.087 133.233 162.302L128.502 177.797L132.77 160.537C133.259 158.553 134.506 156.84 136.244 155.768L148.585 148.117C147.332 144.965 148.58 142.798 148.58 142.798Z" fill="black"/>
<path d="M144.26 127.889C142.911 130.439 133.3 129.297 133.702 125.125C136.228 119.846 144.184 123.253 144.26 127.889Z" fill="#16BF78"/>
<path d="M150.484 104.871H149.975C146.705 104.906 142.564 107.135 140.537 112.858L132.724 128.103L141.698 132.092L146.608 117.698L150.484 104.871Z" fill="#916160"/>
<path d="M144.184 114.99C143.558 116.79 143.517 118.734 143.42 120.636C143.323 122.539 143.099 124.844 142.228 126.537C141.269 125.873 140.121 125.537 138.955 125.579C137.789 125.621 136.669 126.04 135.76 126.772C135.111 127.319 134.61 128.02 134.303 128.812L141.673 132.087L146.583 117.693L149.023 109.767C147.909 110.271 146.908 110.993 146.077 111.889C145.246 112.786 144.602 113.841 144.184 114.99Z" fill="#7A4C4A"/>
<path d="M141.755 129.343C141.413 128.492 140.859 127.743 140.145 127.168C139.432 126.593 138.583 126.211 137.68 126.058C135.882 125.767 133.845 126.706 132.684 128.098C131.706 129.286 131.858 130.888 132.475 132.296C132.992 133.389 133.871 134.269 134.963 134.787C136.055 135.305 137.292 135.429 138.464 135.137C140.797 134.499 142.631 131.592 141.755 129.343Z" fill="#916160"/>
<path d="M150.485 104.871C146.573 104.437 141.592 105.381 133.702 125.125C138.352 120.504 144.261 127.889 144.261 127.889C147.637 119.943 153.607 106.646 153.607 106.646L150.485 104.871Z" fill="#16BF78"/>
<path opacity="0.2" d="M150.485 104.871C146.573 104.437 141.592 105.381 133.702 125.125C138.352 120.504 144.261 127.889 144.261 127.889C147.637 119.943 153.607 106.646 153.607 106.646L150.485 104.871Z" fill="white"/>
<path d="M176.475 151.014C168.886 157.329 153.383 142.048 145.065 139.324C147.612 133.505 147.612 128.195 147.102 122.324C146.593 116.454 143.15 106.182 149.695 104.983C158.435 103.274 162.851 104.845 169.987 106.702C180.224 121.473 177 139.992 176.475 151.014Z" fill="#16BF78"/>
<path opacity="0.7" d="M176.475 151.014C168.886 157.329 153.383 142.048 145.065 139.324C147.612 133.505 147.612 128.195 147.102 122.324C146.593 116.454 143.15 106.182 149.695 104.983C158.435 103.274 162.851 104.845 169.987 106.702C180.224 121.473 177 139.992 176.475 151.014Z" fill="white"/>
<path d="M153.5 102.015L153.841 105.809C153.858 106.104 153.783 106.396 153.627 106.646C153.416 107.042 153.334 107.494 153.394 107.939C153.453 108.383 153.651 108.798 153.958 109.125C154.447 109.494 155.042 109.696 155.654 109.701C156.81 109.762 157.965 109.578 159.044 109.162C160.124 108.745 161.103 108.105 161.919 107.283C162.087 107.112 162.218 106.908 162.306 106.685C162.393 106.461 162.435 106.223 162.428 105.983L162.179 96.3531L153.5 102.015Z" fill="#916160"/>
<path d="M162.163 96.3531L153.505 102.015L153.805 105.381C155.644 104.947 157.493 104.417 158.944 103.234C160.788 101.729 162.413 100.235 162.163 96.3531Z" fill="#7A4C4A"/>
<path d="M164.812 90.5233C165.678 89.5045 166.11 88.1856 166.014 86.851C165.86 85.4683 165.193 84.1941 164.145 83.2807C164.5 82.624 164.658 81.8784 164.6 81.1337C164.543 80.389 164.271 79.6769 163.819 79.0831C163.333 78.5235 162.696 78.1171 161.985 77.9134C161.273 77.7097 160.518 77.7173 159.81 77.9355C159.408 77.3758 158.888 76.9116 158.287 76.5757C157.686 76.2399 157.018 76.0407 156.332 75.9922C154.956 75.9004 153.586 76.1452 152.654 77.1551C152.109 76.8266 151.496 76.6274 150.862 76.5725C150.228 76.5177 149.59 76.6088 148.997 76.8389C148.388 77.1082 147.844 77.5074 147.404 78.0086C146.964 78.5098 146.639 79.101 146.451 79.741C145.772 79.612 145.073 79.6575 144.417 79.8734C143.761 80.0893 143.171 80.4685 142.702 80.9753C141.78 81.9954 141.48 83.9438 141.887 85.2597C141.605 85.6796 141.414 86.1542 141.328 86.6527C141.241 87.1512 141.26 87.6624 141.383 88.1531C141.507 88.6438 141.732 89.103 142.044 89.5008C142.356 89.8986 142.749 90.2261 143.196 90.4621C143.068 91.4867 143.293 92.5243 143.832 93.4041C144.372 94.2839 145.195 94.9534 146.165 95.3024C146.485 96.0865 146.99 96.7813 147.637 97.3276C148.284 97.8738 149.053 98.2552 149.878 98.4392C151.583 98.7351 153.335 98.5947 154.972 98.0311C158.965 96.807 162.067 93.706 164.812 90.5233Z" fill="#263238"/>
<path d="M156.428 85.7697C156.559 86.4095 156.791 87.0242 157.116 87.5906C157.307 87.9273 157.571 88.2162 157.89 88.4353C158.208 88.6545 158.572 88.7982 158.955 88.8555C159.042 88.8685 159.122 88.9102 159.183 88.9739C159.244 89.0376 159.282 89.1197 159.291 89.2074L159.719 92.4003C159.716 92.5944 159.757 92.7867 159.838 92.9631C159.919 93.1395 160.039 93.2957 160.187 93.4203C160.348 93.4957 160.529 93.5204 160.704 93.4912C160.879 93.4621 161.042 93.3805 161.17 93.2571C161.422 93.0148 161.621 92.7231 161.756 92.4003C162.04 91.7093 162.422 91.0633 162.892 90.4825C163.128 90.1929 163.423 89.9574 163.758 89.792C164.093 89.6266 164.459 89.535 164.832 89.5236C166.05 89.5542 166.977 90.7681 167.104 91.982C167.164 92.6081 167.066 93.2392 166.821 93.8181C166.575 94.397 166.189 94.9055 165.698 95.2973C165.191 95.66 164.601 95.8889 163.982 95.9629C163.364 96.0369 162.736 95.9536 162.158 95.7206C162.708 97.8322 161.608 100.097 159.963 101.53C158.318 102.963 156.225 103.738 154.177 104.483C153.057 104.891 151.87 105.299 150.704 105.085C149.75 104.869 148.895 104.342 148.274 103.585C147.665 102.83 147.163 101.994 146.782 101.102C144.918 97.0722 143.863 92.7157 143.675 88.2791C145.32 88.07 155.496 86.1369 156.428 85.7697Z" fill="#916160"/>
<path d="M150.765 93.808L149.043 98.3474L152.048 98.3831L150.765 93.808Z" fill="#F28F8F"/>
<path d="M150.765 93.808L149.043 98.3474L152.048 98.3831L150.765 93.808Z" fill="#7A4C4A"/>
<path d="M155.094 99.3062L153.057 100.77C153.29 100.987 153.588 101.122 153.905 101.155C154.222 101.188 154.541 101.118 154.814 100.954C155.042 100.753 155.195 100.48 155.246 100.18C155.297 99.8798 155.243 99.5714 155.094 99.3062Z" fill="#F28F8F"/>
<path opacity="0.4" d="M155.094 99.3062L153.057 100.77C153.29 100.987 153.588 101.122 153.905 101.155C154.222 101.188 154.541 101.118 154.814 100.954C155.042 100.753 155.195 100.48 155.246 100.18C155.297 99.8798 155.243 99.5714 155.094 99.3062Z" fill="black"/>
<path d="M154.08 101.158C154.346 101.166 154.608 101.095 154.834 100.954C155.017 100.804 155.151 100.603 155.219 100.377C155.288 100.151 155.289 99.91 155.221 99.6837C154.905 99.7378 154.615 99.8978 154.401 100.138C154.164 100.422 154.049 100.789 154.08 101.158Z" fill="#F28F8F"/>
<path d="M154.997 93.2367C155.041 93.398 155.037 93.5687 154.984 93.7274C154.931 93.8861 154.833 94.0256 154.701 94.1283C154.569 94.231 154.41 94.2924 154.244 94.3046C154.077 94.3168 153.911 94.2794 153.765 94.1971C153.62 94.1147 153.502 93.9911 153.427 93.8419C153.352 93.6926 153.322 93.5244 153.342 93.3584C153.362 93.1924 153.431 93.036 153.54 92.9091C153.648 92.7822 153.792 92.6903 153.953 92.6451C154.06 92.6149 154.173 92.6062 154.283 92.6197C154.394 92.6331 154.501 92.6683 154.598 92.7233C154.695 92.7783 154.78 92.852 154.849 92.9401C154.917 93.0282 154.968 93.129 154.997 93.2367Z" fill="#263238"/>
<path d="M148.075 94.8995C148.119 95.0608 148.115 95.2315 148.062 95.3902C148.009 95.5488 147.911 95.6883 147.779 95.791C147.647 95.8938 147.488 95.9551 147.322 95.9673C147.155 95.9796 146.989 95.9422 146.843 95.8598C146.698 95.7775 146.58 95.6539 146.505 95.5046C146.43 95.3554 146.4 95.1871 146.42 95.0211C146.441 94.8551 146.509 94.6988 146.618 94.5719C146.727 94.4449 146.87 94.353 147.031 94.3078C147.248 94.2483 147.479 94.2771 147.675 94.3879C147.871 94.4988 148.015 94.6827 148.075 94.8995Z" fill="#263238"/>
<path d="M146.369 91.8902L144.912 93.6499C144.771 93.4474 144.695 93.2061 144.695 92.9588C144.695 92.7114 144.771 92.4701 144.912 92.2677C145.096 92.0755 145.33 91.9384 145.587 91.8718C145.845 91.8051 146.115 91.8115 146.369 91.8902Z" fill="#263238"/>
<path d="M153.327 89.8041L155.486 90.5488C155.502 90.3022 155.443 90.0566 155.315 89.845C155.188 89.6335 154.998 89.4661 154.773 89.3655C154.515 89.2968 154.243 89.3014 153.988 89.3789C153.732 89.4564 153.503 89.6036 153.327 89.8041Z" fill="#263238"/>
<path opacity="0.15" d="M151.014 143.328C151.014 143.328 151.014 143.328 151.014 143.297V143.272C151.016 143.262 151.016 143.251 151.014 143.241C151.012 143.231 151.012 143.221 151.014 143.211V143.18V143.149L145.065 132.184L144.26 133.107L150.133 144.062C150.171 144.123 150.196 144.191 150.209 144.261C150.214 144.282 150.215 144.304 150.21 144.325C150.206 144.346 150.197 144.366 150.184 144.384L150.989 143.455C150.993 143.442 150.993 143.428 150.989 143.415C150.991 143.403 150.991 143.391 150.989 143.379C151.002 143.365 151.011 143.347 151.014 143.328Z" fill="black"/>
<path opacity="0.2" d="M145.05 132.133V132.102V132.066L145.024 132.036C145.025 132.024 145.025 132.012 145.024 132V131.964L144.994 131.929L144.968 131.893L144.943 131.862L144.917 131.832V131.806V131.781L144.836 131.704H144.805H144.775L144.744 131.679H144.709H144.673L144.632 131.653L137.879 127.848H137.838H137.802H137.761H137.726H137.69H137.654H137.619H137.583H137.547H137.42C137.401 127.847 137.382 127.85 137.365 127.858C137.347 127.865 137.331 127.875 137.318 127.889L136.514 128.812C136.549 128.771 136.615 128.761 136.712 128.776C136.843 128.81 136.969 128.864 137.084 128.935L143.838 132.739C143.97 132.817 144.098 132.902 144.22 132.994C144.349 133.093 144.474 133.198 144.591 133.311C144.705 133.418 144.812 133.532 144.912 133.652C144.995 133.753 145.07 133.861 145.136 133.974L145.941 133.051L145.05 132.133Z" fill="black"/>
<path d="M174.306 109.68C173.348 108.033 171.881 106.875 169.982 106.727L168.846 108.467C167.662 110.634 167.055 113.07 167.083 115.541L167.287 133.816L165.948 134.377C162.181 136.004 158.242 137.202 154.208 137.947C152.103 136.278 149.486 135.389 146.802 135.432L147.821 137.289C145.931 138.498 141.668 136.32 141.668 136.32C141.352 138.982 143.079 141.747 145.361 143.149C147.642 144.552 169.467 142.491 174.092 139.492C177.148 137.519 176.414 118.673 176.414 118.673C176.628 115.531 175.893 112.398 174.306 109.68Z" fill="#916160"/>
<path d="M137.038 130.781C136.895 131.502 136.812 132.234 136.789 132.969C136.961 134.716 137.702 136.357 138.897 137.641C139.143 137.921 139.452 138.14 139.799 138.279C139.973 138.346 140.163 138.367 140.348 138.338C140.533 138.309 140.707 138.233 140.853 138.115C141.109 137.807 141.24 137.414 141.22 137.014C141.274 136.422 141.242 135.826 141.123 135.244C140.998 134.658 140.667 134.137 140.191 133.775C139.819 133.559 139.422 133.387 139.009 133.265C138.604 133.094 138.243 132.832 137.955 132.5L137.038 130.781Z" fill="#916160"/>
<path d="M169.982 106.727C178.273 108.518 177.484 116.928 178.284 122.166C178.793 125.272 179.567 132.097 179.567 132.097C175.049 136.279 167.027 133.525 165.031 131.352C165.785 120.835 164.252 108.512 169.982 106.727Z" fill="#16BF78"/>
<path opacity="0.2" d="M169.982 106.727C178.273 108.518 177.484 116.928 178.284 122.166C178.793 125.272 179.567 132.097 179.567 132.097C175.049 136.279 167.027 133.525 165.031 131.352C165.785 120.835 164.252 108.512 169.982 106.727Z" fill="white"/>
<path d="M151.014 143.328C151.014 143.328 151.014 143.328 151.014 143.297V143.272C151.016 143.262 151.016 143.251 151.014 143.241C151.012 143.231 151.012 143.221 151.014 143.211V143.18V143.149L145.065 132.184V132.153V132.122V132.087L145.04 132.056C145.041 132.044 145.041 132.032 145.04 132.02V131.985L145.009 131.949L144.984 131.913L144.958 131.883L144.933 131.852V131.826V131.801L144.851 131.724H144.821H144.79L144.76 131.699H144.724H144.688L144.648 131.673L137.894 127.869H137.853H137.817H137.777H137.741H137.705H137.67H137.634H137.598H137.563H137.435C137.417 127.868 137.398 127.871 137.38 127.878C137.363 127.885 137.347 127.896 137.334 127.909L136.529 128.833H136.554C136.488 128.884 136.483 128.991 136.58 129.169L142.457 140.125C142.784 140.632 143.228 141.054 143.751 141.354L150.505 145.159C150.856 145.353 151.065 145.358 151.091 145.215C151.091 145.215 151.091 145.266 151.091 145.276L151.895 144.348C151.9 144.335 151.9 144.32 151.895 144.307C151.898 144.295 151.898 144.283 151.895 144.272C151.957 144.214 152.007 144.144 152.042 144.067C152.077 143.99 152.097 143.906 152.099 143.821C152.102 143.737 152.088 143.652 152.059 143.573C152.029 143.493 151.984 143.42 151.926 143.359C151.868 143.297 151.799 143.247 151.721 143.212C151.644 143.176 151.561 143.157 151.476 143.154C151.392 143.151 151.307 143.165 151.228 143.195C151.149 143.225 151.076 143.27 151.014 143.328ZM135.78 127.899C135.78 127.899 135.806 127.899 135.826 127.899C135.811 127.898 135.795 127.898 135.78 127.899ZM143.527 132.265C143.588 132.321 143.654 132.367 143.71 132.423C143.659 132.367 143.593 132.321 143.532 132.265H143.527ZM143.95 132.678L144.031 132.765L143.95 132.678ZM150.199 144.261C150.195 144.183 150.171 144.107 150.128 144.042C150.165 144.103 150.191 144.17 150.204 144.241C150.204 144.241 150.204 144.251 150.204 144.261H150.199Z" fill="#E0E0E0"/>
<path d="M226.369 158.134L217.95 158.379L209.531 158.134C209.169 163.826 210.275 169.631 211.808 172.467C212.172 173.193 212.754 173.787 213.473 174.165C215.959 175.598 219.972 175.598 222.442 174.165C223.174 173.783 223.76 173.17 224.108 172.421C225.631 169.57 226.731 163.806 226.369 158.134Z" fill="white"/>
<path d="M223.894 154.681C227.194 156.589 227.21 159.68 223.935 161.587C220.66 163.495 215.322 163.495 212.027 161.587C208.731 159.68 208.711 156.589 211.986 154.681C215.261 152.774 220.583 152.774 223.894 154.681Z" fill="#EBEBEB"/>
<path d="M222.58 155.441C225.152 156.926 225.167 159.338 222.61 160.827C220.054 162.317 215.892 162.317 213.32 160.827C210.748 159.338 210.733 156.926 213.29 155.441C215.847 153.957 220.008 153.952 222.58 155.441Z" fill="#E0E0E0"/>
<g opacity="0.15">
<path opacity="0.15" d="M222.58 155.441C225.152 156.926 225.167 159.338 222.61 160.827C220.054 162.317 215.892 162.317 213.32 160.827C210.748 159.338 210.733 156.926 213.29 155.441C215.847 153.957 220.008 153.952 222.58 155.441Z" fill="black"/>
</g>
<path d="M231.794 122.156C212.816 128.379 212.648 141.089 216.926 150.142C218.001 151.973 221.266 152.958 224.108 141.696L219.127 142.338L224.933 139.39L226.461 134.877L221.622 135.234L227.765 132.648C228.891 129.071 230.236 125.567 231.794 122.156Z" fill="#16BF78"/>
<path opacity="0.2" d="M231.794 122.156C212.816 128.379 212.648 141.089 216.926 150.142C218.001 151.973 221.266 152.958 224.108 141.696L219.127 142.338L224.933 139.39L226.461 134.877L221.622 135.234L227.765 132.648C228.891 129.071 230.236 125.567 231.794 122.156Z" fill="black"/>
<path opacity="0.2" d="M231.794 122.156C212.816 128.379 212.648 141.089 216.926 150.142C218.001 151.973 221.266 152.958 224.108 141.696L219.127 142.338L224.933 139.39L226.461 134.877L221.622 135.234L227.765 132.648C228.891 129.071 230.236 125.567 231.794 122.156Z" fill="white"/>
<path d="M226.441 125.334C216.437 132.938 215.531 141.655 218.358 150.759C217.344 142.746 216.254 134.642 226.441 125.334Z" fill="white"/>
<path d="M199.655 135.065C218.358 137.702 220.629 149.515 218.144 158.655C217.446 160.542 214.578 162.001 210.056 151.988L214.802 151.759L208.904 149.979L206.75 146.021L211.334 145.552L205.181 144.164C203.528 141.02 201.682 137.982 199.655 135.065Z" fill="#16BF78"/>
<path opacity="0.2" d="M199.655 135.065C218.358 137.702 220.629 149.515 218.144 158.655C217.446 160.542 214.578 162.001 210.056 151.988L214.802 151.759L208.904 149.979L206.75 146.021L211.334 145.552L205.181 144.164C203.528 141.02 201.682 137.982 199.655 135.065Z" fill="white"/>
<path opacity="0.1" d="M199.655 135.065C218.358 137.702 220.629 149.515 218.144 158.655C217.446 160.542 214.578 162.001 210.056 151.988L214.802 151.759L208.904 149.979L206.75 146.021L211.334 145.552L205.181 144.164C203.528 141.02 201.682 137.982 199.655 135.065Z" fill="black"/>
<path d="M205.181 137.136C215.745 142.553 218.047 150.545 216.926 159.471C216.529 151.841 216.188 144.113 205.181 137.136Z" fill="white"/>
<path d="M237.269 139.492C220.115 139.773 216.748 150.162 217.965 158.68C218.383 160.46 220.818 162.097 226.003 153.58L221.75 152.84L227.266 151.897L229.649 148.571L225.575 147.638L231.274 147.077C233.115 144.428 235.117 141.895 237.269 139.492Z" fill="#16BF78"/>
<path d="M232.043 140.737C221.903 144.435 218.948 151.361 218.964 159.552C220.186 152.718 221.347 145.791 232.043 140.737Z" fill="white"/>
<path opacity="0.2" d="M237.269 139.492C220.115 139.773 216.748 150.162 217.965 158.68C218.383 160.46 220.818 162.097 226.003 153.58L221.75 152.84L227.266 151.897L229.649 148.571L225.575 147.638L231.274 147.077C233.115 144.428 235.117 141.895 237.269 139.492Z" fill="white"/>
</svg>
