<svg width="345" height="109" viewBox="0 0 345 109" fill="none" xmlns="http://www.w3.org/2000/svg">
<g opacity="0.2">
<path opacity="0.0344828" d="M-9.02731 62.6621L81.297 115.134C81.6141 115.319 82.0067 115.315 82.3198 115.124L164.5 65.0288C164.831 64.8274 165.248 64.8347 165.571 65.0473L259.944 127.156C260.186 127.315 260.486 127.362 260.765 127.284L321.071 110.335C321.39 110.245 321.732 110.319 321.986 110.532L418.982 192.19" stroke="#055C37" stroke-linejoin="round"/>
<path opacity="0.0689655" d="M-4.02042 80.5159L89.0743 123.797C89.405 123.951 89.7931 123.912 90.0872 123.697L166.623 67.5751C166.933 67.3476 167.347 67.3183 167.686 67.4997L265.557 119.829C265.811 119.965 266.112 119.984 266.381 119.882L324.196 98.0385C324.505 97.9219 324.851 97.965 325.122 98.1537L427.205 169.338" stroke="#055F3A" stroke-linejoin="round"/>
<path opacity="0.103448" d="M2.88093 98.1463L97.8426 132.161C98.1839 132.283 98.5646 132.211 98.8376 131.973L169.311 70.42C169.599 70.1683 170.006 70.1031 170.358 70.252L270.751 112.674C271.016 112.786 271.316 112.779 271.574 112.654L326.509 86.2187C326.805 86.0762 327.152 86.0883 327.438 86.251L433.533 146.709" stroke="#06633C" stroke-linejoin="round"/>
<path opacity="0.137931" d="M11.6247 115.38L107.558 140.14C107.907 140.23 108.278 140.126 108.528 139.866L172.582 73.5036C172.846 73.23 173.242 73.1298 173.605 73.2453L275.551 105.729C275.824 105.815 276.12 105.782 276.365 105.636L328.066 74.9412C328.347 74.7741 328.693 74.7553 328.99 74.8908L438.018 124.477" stroke="#06663E" stroke-linejoin="round"/>
<path opacity="0.172414" d="M22.1431 132.051L118.171 147.653C118.524 147.71 118.882 147.574 119.107 147.296L176.445 76.7658C176.684 76.4724 177.067 76.3386 177.437 76.42L279.982 99.0246C280.259 99.0858 280.55 99.026 280.781 98.8601L328.928 64.2658C329.193 64.0757 329.533 64.0264 329.841 64.1337L440.729 102.808" stroke="#076A41" stroke-linejoin="round"/>
<path opacity="0.206897" d="M34.354 148.002L129.623 154.622C129.978 154.647 130.319 154.481 130.519 154.187L180.908 80.1456C181.119 79.835 181.487 79.6691 181.859 79.7161L284.072 92.5914C284.352 92.6267 284.634 92.5417 284.849 92.3574L329.162 54.2452C329.408 54.0337 329.741 53.9546 330.056 54.033L441.747 81.8579" stroke="#086D43" stroke-linejoin="round"/>
<path opacity="0.241379" d="M48.1617 163.088L141.85 160.982C142.203 160.974 142.526 160.781 142.699 160.473L185.968 83.5848C186.151 83.2595 186.5 83.0633 186.873 83.0757L287.851 86.4574C288.132 86.4669 288.404 86.3576 288.6 86.1565L328.837 44.9271C329.063 44.6961 329.386 44.5881 329.705 44.6372L441.169 61.7748" stroke="#087145" stroke-linejoin="round"/>
<path opacity="0.275862" d="M63.4573 177.171L154.783 166.668C155.132 166.628 155.434 166.409 155.579 166.09L191.618 87.0229C191.772 86.6857 192.099 86.4611 192.47 86.4394L291.352 80.6447C291.631 80.6284 291.89 80.4961 292.067 80.2799L328.027 36.3492C328.231 36.1006 328.541 35.9649 328.862 35.9844L439.103 42.6926" stroke="#097447" stroke-linejoin="round"/>
<path opacity="0.310345" d="M80.121 190.13L168.348 171.628C168.689 171.556 168.968 171.313 169.085 170.985L197.847 90.4046C197.97 90.058 198.274 89.8074 198.638 89.7521L294.61 75.175C294.884 75.1333 295.129 74.9793 295.286 74.7499L326.808 28.5444C326.988 28.2805 327.283 28.1185 327.603 28.1085L435.669 24.7359" stroke="#0A784A" stroke-linejoin="round"/>
<path opacity="0.344828" d="M98.0232 201.853L182.466 175.813C182.796 175.711 183.05 175.446 183.138 175.112L204.636 93.6745C204.729 93.3213 205.007 93.0471 205.362 92.9591L297.66 70.0643C297.927 69.9978 298.156 69.8237 298.291 69.5831L325.256 21.5367C325.411 21.2596 325.689 21.0729 326.005 21.0338L430.996 8.01401" stroke="#0A7C4C" stroke-linejoin="round"/>
<path opacity="0.37931" d="M117.026 212.246L197.056 179.185C197.373 179.054 197.6 178.77 197.659 178.433L211.962 96.7804C212.025 96.4234 212.276 96.1282 212.618 96.0088L300.539 65.3257C300.797 65.2354 301.008 65.0428 301.121 64.7931L323.451 15.3427C323.581 15.0547 323.839 14.8451 324.148 14.7774L425.222 -7.37717" stroke="#0B7F4E" stroke-linejoin="round"/>
<path opacity="0.413793" d="M136.983 221.226L212.034 181.714C212.334 181.556 212.534 181.256 212.564 180.918L219.799 99.6739C219.831 99.3158 220.053 99.0024 220.38 98.853L303.284 60.9692C303.531 60.8561 303.722 60.647 303.812 60.3902L321.471 9.97192C321.574 9.67545 321.812 9.44501 322.111 9.34966L418.494 -21.3559" stroke="#0B8351" stroke-linejoin="round"/>
<path opacity="0.448276" d="M157.745 228.728L227.314 183.378C227.596 183.194 227.767 182.881 227.768 182.545L228.115 102.309C228.116 101.953 228.307 101.624 228.616 101.446L305.934 57.0001C306.168 56.8655 306.338 56.6419 306.404 56.3802L319.395 5.42571C319.472 5.12323 319.686 4.87412 319.973 4.75219L410.962 -33.8565" stroke="#0C8653" stroke-linejoin="round"/>
<path opacity="0.482759" d="M179.156 234.701L242.811 184.163C243.072 183.956 243.213 183.633 243.186 183.3L236.873 104.645C236.845 104.293 237.004 103.952 237.293 103.749L308.526 53.4212C308.744 53.2666 308.892 53.0306 308.935 52.7661L317.3 1.69903C317.35 1.39302 317.539 1.12759 317.812 0.98044L402.781 -44.8276" stroke="#0D8A55" stroke-linejoin="round"/>
<path opacity="0.517241" d="M201.058 239.11L258.437 184.065C258.675 183.837 258.785 183.506 258.731 183.18L246.034 106.646C245.977 106.3 246.104 105.95 246.37 105.723L311.097 50.2312C311.298 50.0582 311.423 49.8121 311.443 49.547L315.262 -1.22082C315.285 -1.52786 315.449 -1.80715 315.705 -1.97792L394.108 -54.2343" stroke="#0D8D58" stroke-linejoin="round"/>
<path opacity="0.551724" d="M223.292 241.935L274.107 183.086C274.321 182.839 274.4 182.503 274.32 182.186L255.556 108.276C255.471 107.941 255.566 107.585 255.806 107.336L313.684 47.4243C313.867 47.2348 313.967 46.9808 313.964 46.7173L313.355 -3.3543C313.351 -3.65992 313.487 -3.95045 313.724 -4.14302L385.103 -62.0579" stroke="#0E915A" stroke-linejoin="round"/>
<path opacity="0.586207" d="M245.702 243.173L289.738 181.237C289.925 180.974 289.974 180.637 289.868 180.331L265.395 109.511C265.283 109.187 265.345 108.828 265.559 108.56L316.322 44.993C316.485 44.789 316.562 44.5294 316.536 44.2697L311.648 -4.72683C311.617 -5.02857 311.726 -5.32768 311.942 -5.54002L375.923 -68.2942" stroke="#0F945C" stroke-linejoin="round"/>
<path opacity="0.62069" d="M268.13 242.835L305.247 178.538C305.407 178.261 305.425 177.925 305.296 177.633L275.504 110.326C275.366 110.016 275.396 109.657 275.581 109.374L319.047 42.9253C319.189 42.709 319.241 42.4462 319.193 42.1922L310.208 -5.37105C310.152 -5.66656 310.232 -5.97149 310.426 -6.20138L366.724 -72.9549" stroke="#0F985F" stroke-linejoin="round"/>
<path opacity="0.655172" d="M290.424 240.949L320.556 175.015C320.688 174.728 320.676 174.396 320.524 174.119L285.833 110.704C285.672 110.41 285.669 110.055 285.825 109.758L321.891 41.2067C322.01 40.9803 322.038 40.7169 321.968 40.4706L309.098 -5.32495C309.017 -5.61192 309.069 -5.9199 309.239 -6.16494L357.66 -76.0667" stroke="#109B61" stroke-linejoin="round"/>
<path opacity="0.689655" d="M312.436 237.554L335.591 170.701C335.693 170.406 335.652 170.082 335.48 169.822L296.335 110.632C296.152 110.356 296.118 110.008 296.243 109.701L324.883 39.8197C324.979 39.5856 324.983 39.3238 324.893 39.0871L308.375 -4.63196C308.271 -4.9082 308.294 -5.21644 308.438 -5.47407L348.876 -77.6706" stroke="#109F63" stroke-linejoin="round"/>
<path opacity="0.724138" d="M334.026 232.706L350.28 165.637C350.352 165.339 350.283 165.024 350.093 164.782L306.959 110.104C306.756 109.848 306.692 109.509 306.786 109.196L328.054 38.7446C328.126 38.5051 328.106 38.2473 327.998 38.022L308.094 -3.33968C307.967 -3.60312 307.962 -3.90883 308.08 -4.17638L340.516 -77.821" stroke="#11A366" stroke-linejoin="round"/>
<path opacity="0.758621" d="M355.058 226.473L364.558 159.87C364.601 159.57 364.506 159.267 364.299 159.046L317.656 109.118C317.436 108.882 317.343 108.555 317.406 108.239L331.429 37.9579C331.477 37.7157 331.434 37.4641 331.308 37.2517L308.3 -1.5012C308.153 -1.74991 308.12 -2.05037 308.211 -2.32504L332.713 -76.5864" stroke="#12A668" stroke-linejoin="round"/>
<path opacity="0.793103" d="M375.409 218.934L378.366 153.452C378.38 153.154 378.26 152.866 378.039 152.666L328.377 107.676C328.142 107.463 328.022 107.15 328.053 106.834L335.032 37.4357C335.056 37.1932 334.991 36.9501 334.849 36.7521L309.037 0.828226C308.87 0.596008 308.811 0.303472 308.874 0.0245441L325.592 -74.046" stroke="#12AA6A" stroke-linejoin="round"/>
<path opacity="0.827586" d="M394.961 210.181L391.649 146.439C391.634 146.146 391.491 145.875 391.258 145.697L339.075 105.786C338.826 105.596 338.681 105.301 338.682 104.989L338.883 37.1509C338.883 36.9106 338.798 36.6781 338.641 36.4959L310.339 3.58925C310.155 3.37511 310.07 3.09306 310.105 2.8128L319.269 -70.2912" stroke="#13AD6C" stroke-linejoin="round"/>
<path opacity="0.862069" d="M413.611 200.315L404.36 138.894C404.317 138.609 404.153 138.356 403.91 138.201L349.703 103.461C349.444 103.296 349.276 103.02 349.247 102.714L343.001 37.0756C342.978 36.84 342.873 36.6199 342.703 36.4546L312.236 6.72065C312.037 6.52597 311.928 6.25685 311.935 5.97821L313.848 -65.4228" stroke="#14B16F" stroke-linejoin="round"/>
<path opacity="0.896552" d="M431.266 189.444L416.457 130.881C416.387 130.607 416.205 130.375 415.955 130.242L360.217 100.719C359.951 100.578 359.762 100.324 359.704 100.028L347.4 37.1797C347.355 36.9512 347.232 36.7455 347.052 36.598L314.752 10.1588C314.54 9.98474 314.408 9.73084 314.388 9.45675L309.424 -59.5511" stroke="#14B471" stroke-linejoin="round"/>
<path opacity="0.931035" d="M447.843 177.688L427.906 122.468C427.812 122.208 427.614 121.998 427.359 121.889L370.577 97.5815C370.305 97.465 370.098 97.234 370.013 96.9505L352.093 37.4335C352.027 37.2145 351.888 37.0247 351.699 36.8958L317.903 13.8401C317.68 13.6876 317.527 13.451 317.481 13.1843L306.076 -52.7927" stroke="#15B873" stroke-linejoin="round"/>
<path opacity="0.965517" d="M463.275 165.168L438.681 113.727C438.564 113.482 438.353 113.296 438.095 113.21L380.743 94.0735C380.468 93.9817 380.247 93.7751 380.136 93.5072L357.087 37.8056C357.002 37.5982 356.848 37.4257 356.653 37.3159L321.7 17.6992C321.467 17.5689 321.297 17.3516 321.226 17.0952L303.873 -45.2719" stroke="#15BB76" stroke-linejoin="round"/>
<path d="M477.508 152.015L448.763 104.729C448.625 104.502 448.403 104.34 448.146 104.277L390.681 90.2247C390.406 90.1574 390.172 89.9763 390.038 89.7266L362.39 38.2647C362.286 38.0711 362.121 37.9171 361.92 37.8266L326.145 21.6718C325.907 21.5643 325.721 21.3678 325.626 21.1244L302.87 -37.1168" stroke="#16BF78" stroke-linejoin="round"/>
</g>
</svg>
