<svg width="33" height="64" viewBox="0 0 33 64" fill="none" xmlns="http://www.w3.org/2000/svg">
<path d="M8.26249 57.2395C8.26249 57.2395 8.46322 54.5905 7.91729 52.0509C7.37137 49.5113 6.04532 47.5557 4.41969 46.7923C2.79407 46.0289 0.84606 47.0691 2.24966 48.8072C3.65326 50.5454 6.56388 53.6446 6.54715 58.1747L8.26249 57.2395Z" fill="#E0E0E0"/>
<path d="M7.42763 57.1468H7.4474C7.47295 57.146 7.49716 57.1351 7.5148 57.1166C7.53244 57.0982 7.5421 57.0735 7.54169 57.0479C7.38962 51.5004 5.54045 48.7221 3.40539 47.3155C3.3842 47.3016 3.35839 47.2967 3.3336 47.3019C3.30881 47.307 3.28706 47.3217 3.27309 47.3428C3.26597 47.3532 3.26098 47.3648 3.25842 47.3771C3.25586 47.3894 3.25578 47.4021 3.25819 47.4144C3.2606 47.4267 3.26544 47.4385 3.27244 47.4489C3.27944 47.4593 3.28845 47.4682 3.29894 47.4751C5.40511 48.8696 7.19801 51.5901 7.34856 57.0555C7.34927 57.0775 7.35751 57.0985 7.37191 57.1152C7.38631 57.1318 7.40598 57.1429 7.42763 57.1468Z" fill="white"/>
<path d="M0.000541229 52.2607C0.0309551 52.5649 0.278828 52.8021 0.516057 53.0013C0.753286 53.2005 1.01028 53.4134 1.07415 53.7145C1.20493 54.3228 0.482602 54.8855 0.639234 55.4877C0.680794 55.6118 0.747283 55.7262 0.834624 55.8237C0.921964 55.9213 1.02831 55.9999 1.14715 56.0549C1.34166 56.1506 1.54116 56.2359 1.74478 56.3104C1.8447 56.3404 1.94624 56.3648 2.04892 56.3833C2.35326 56.4108 2.64017 56.5374 2.86553 56.7438C3.19704 57.1042 3.15598 57.6562 3.27308 58.1367C3.41602 58.707 3.75514 59.0491 4.53221 59.3137L7.19343 57.8052C7.85646 57.13 8.09064 55.9804 7.47932 55.1881C7.11283 54.7167 6.427 54.6574 6.08028 54.1844C5.77614 53.7617 5.9495 53.1504 5.75942 52.6637C5.56933 52.1771 5.06294 52.0068 4.58544 51.9232C4.10794 51.8395 3.60003 52.0372 3.1347 51.8669C2.66936 51.6966 2.23596 51.4213 1.75238 51.3012C1.51771 51.2315 1.2702 51.2163 1.02877 51.2569C0.787347 51.2975 0.558398 51.3927 0.359426 51.5354C0.24403 51.6169 0.150785 51.726 0.0881232 51.8526C0.0254614 51.9793 -0.0046401 52.1195 0.000541229 52.2607Z" fill="#EBEBEB"/>
<path d="M4.96107 54.6558C4.95622 54.6452 4.94893 54.6358 4.93978 54.6285C3.68976 52.8553 1.72807 52.0129 1.06656 51.8654C1.05722 51.8619 1.04725 51.8605 1.03732 51.8613C1.0274 51.862 1.01774 51.8649 1.009 51.8696C1.00026 51.8744 0.992639 51.881 0.986644 51.8889C0.980649 51.8969 0.976419 51.906 0.974236 51.9157C0.972054 51.9254 0.971969 51.9355 0.973988 51.9452C0.976007 51.955 0.980083 51.9642 0.985944 51.9722C0.991804 51.9803 0.999314 51.987 1.00797 51.9919C1.01663 51.9968 1.02624 51.9998 1.03615 52.0007C1.6642 52.1406 3.48447 52.9131 4.71015 54.5463C4.21064 54.3778 3.6817 54.3143 3.15649 54.3599C2.63129 54.4054 2.12116 54.559 1.65812 54.8109C1.6427 54.8209 1.63183 54.8366 1.62785 54.8545C1.62387 54.8724 1.62709 54.8912 1.63683 54.9067C1.6432 54.916 1.65157 54.9236 1.66131 54.9291C1.67105 54.9347 1.68192 54.9379 1.69309 54.9387C1.70726 54.9391 1.72116 54.9348 1.73263 54.9265C2.20719 54.6699 2.73213 54.5203 3.27064 54.488C3.80915 54.4556 4.34822 54.5415 4.85006 54.7395C5.58041 55.7851 5.94646 57.0419 5.89173 58.3162C5.89085 58.3336 5.89666 58.3507 5.90796 58.364C5.91927 58.3772 5.93522 58.3857 5.95256 58.3876C5.97086 58.388 5.98859 58.3813 6.00195 58.3688C6.01532 58.3562 6.02324 58.339 6.02403 58.3207C6.08221 57.0155 5.70862 55.7274 4.96107 54.6558Z" fill="white"/>
<path d="M25.6561 54.1225C25.6303 52.1456 25.6668 50.3208 26.6704 47.5136C27.5114 45.155 29.6738 42.7766 31.1337 42.877C32.4947 42.9713 32.7958 44.6425 31.5716 46.1297C30.3475 47.617 27.6817 50.4622 27.5174 52.5167L26.9958 54.8479L25.6561 54.1225Z" fill="#E0E0E0"/>
<path d="M26.2598 53.6237C26.2783 53.6189 26.2947 53.6084 26.3067 53.5936C26.3187 53.5788 26.3258 53.5606 26.3268 53.5416C26.5397 48.943 29.1081 45.1109 31.2508 43.9323C31.2709 43.9211 31.2858 43.9022 31.2921 43.88C31.2983 43.8577 31.2955 43.8339 31.2842 43.8137C31.2729 43.7936 31.2541 43.7787 31.2318 43.7724C31.2096 43.7662 31.1858 43.769 31.1656 43.7803C28.988 44.9771 26.3678 48.8716 26.1473 53.534C26.1467 53.5454 26.1483 53.5568 26.1521 53.5676C26.1559 53.5783 26.1618 53.5882 26.1694 53.5967C26.1771 53.6052 26.1863 53.612 26.1966 53.6169C26.2069 53.6219 26.218 53.6247 26.2294 53.6253L26.2598 53.6237Z" fill="white"/>
<path d="M27.4977 55.1262C27.5813 54.4327 28.2169 53.2086 29.3818 52.0939C30.6714 50.8622 32.4323 50.1094 32.7273 49.2624C33.0862 48.2466 32.1875 47.7037 30.7018 48.0215C28.9149 48.4032 26.935 50.447 26.5959 54.6228L27.4977 55.1262Z" fill="#EBEBEB"/>
<path d="M27.0977 54.4768C27.1141 54.473 27.129 54.4645 27.1406 54.4523C27.1522 54.4402 27.16 54.4249 27.1631 54.4084C27.8459 50.7587 30.2851 49.127 31.4804 48.7727C31.5024 48.766 31.5208 48.7509 31.5316 48.7307C31.5424 48.7104 31.5448 48.6867 31.5382 48.6647C31.5352 48.6536 31.53 48.6432 31.5229 48.6341C31.5158 48.6251 31.507 48.6175 31.4969 48.612C31.4868 48.6064 31.4757 48.603 31.4642 48.6019C31.4527 48.6008 31.4412 48.602 31.4302 48.6054C30.1102 48.9963 27.6893 50.6508 26.9913 54.375C26.9891 54.3862 26.9892 54.3979 26.9915 54.4091C26.9939 54.4204 26.9984 54.4311 27.0049 54.4406C27.0114 54.45 27.0198 54.4581 27.0294 54.4644C27.0391 54.4706 27.0499 54.4748 27.0612 54.4768C27.0732 54.4799 27.0858 54.4799 27.0977 54.4768Z" fill="white"/>
<path d="M3.64078 59.035L19.0363 50.1465L27.6374 55.1116L12.2418 64L3.64078 59.035Z" fill="#E0E0E0"/>
<path d="M16.0801 56.6322L14.6765 56.1547C14.5563 54.8104 14.7297 51.5531 16.9149 49.6416C19.1336 47.7012 20.5813 48.9451 20.5387 49.7937C20.4931 50.7198 18.5025 51.5881 17.4973 52.8351C16.3994 54.1915 16.0573 55.1192 16.0801 56.6322Z" fill="#16BF78"/>
<path opacity="0.5" d="M16.0801 56.6322L14.6765 56.1547C14.5563 54.8104 14.7297 51.5531 16.9149 49.6416C19.1336 47.7012 20.5813 48.9451 20.5387 49.7937C20.4931 50.7198 18.5025 51.5881 17.4973 52.8351C16.3994 54.1915 16.0573 55.1192 16.0801 56.6322Z" fill="white"/>
<path d="M15.1327 56.3844C15.1128 56.384 15.0938 56.3758 15.0799 56.3616C15.066 56.3474 15.0582 56.3283 15.0582 56.3083C15.0779 52.6921 17.7635 49.5276 19.1017 49.3223C19.1117 49.3208 19.1219 49.3212 19.1317 49.3237C19.1415 49.3261 19.1507 49.3305 19.1588 49.3365C19.1669 49.3425 19.1738 49.35 19.179 49.3587C19.1842 49.3673 19.1876 49.3769 19.1891 49.3869C19.1906 49.3969 19.1902 49.4071 19.1877 49.4169C19.1853 49.4267 19.1809 49.4359 19.1749 49.444C19.1689 49.4521 19.1614 49.459 19.1527 49.4642C19.1441 49.4694 19.1345 49.4728 19.1245 49.4743C17.8137 49.6751 15.2285 52.8944 15.2102 56.3099C15.21 56.3199 15.2079 56.3297 15.2039 56.3388C15.1999 56.348 15.1941 56.3563 15.1869 56.3632C15.1797 56.3701 15.1712 56.3755 15.1619 56.3792C15.1526 56.3828 15.1427 56.3846 15.1327 56.3844Z" fill="white"/>
<path d="M19.415 53.3901C18.1984 52.9902 15.5524 54.3208 15.0399 56.2794L16.0801 56.6307C16.92 55.9443 17.937 55.5094 19.0135 55.3762C20.7273 55.2043 20.627 53.7901 19.415 53.3901Z" fill="#16BF78"/>
<path opacity="0.65" d="M19.415 53.3901C18.1984 52.9902 15.5524 54.3208 15.0399 56.2794L16.0801 56.6307C16.92 55.9443 17.937 55.5094 19.0135 55.3762C20.7273 55.2043 20.627 53.7901 19.415 53.3901Z" fill="white"/>
<path d="M15.5144 56.5441C15.5023 56.5445 15.4903 56.5418 15.4794 56.5364C15.4617 56.5268 15.4484 56.5106 15.4424 56.4912C15.4365 56.4719 15.4383 56.451 15.4475 56.433C16.4891 54.4212 18.7504 53.8266 19.6704 54.0729C19.6801 54.0754 19.6892 54.0798 19.6971 54.0858C19.7051 54.0918 19.7117 54.0994 19.7167 54.108C19.7216 54.1167 19.7248 54.1262 19.726 54.1361C19.7272 54.146 19.7264 54.1561 19.7237 54.1657C19.7183 54.185 19.7056 54.2016 19.6883 54.2118C19.671 54.222 19.6504 54.2251 19.6309 54.2204C18.7519 53.9847 16.5895 54.5626 15.5828 56.5015C15.5767 56.5144 15.567 56.5253 15.5548 56.5328C15.5427 56.5404 15.5287 56.5443 15.5144 56.5441Z" fill="white"/>
<path d="M14.3404 34.0925V56.5805C14.3471 56.6554 14.3738 56.727 14.4177 56.788C14.4616 56.849 14.521 56.8971 14.5898 56.9273C14.776 57.0224 14.9821 57.0721 15.1912 57.0721C15.4003 57.0721 15.6065 57.0224 15.7927 56.9273C15.8613 56.8968 15.9205 56.8487 15.9644 56.7877C16.0082 56.7268 16.035 56.6553 16.0421 56.5805V34.0925H14.3404Z" fill="#455A64"/>
<path d="M14.3404 38.3079L16.0421 37.3255V34.0925H14.3404V38.3079Z" fill="#37474F"/>
<path d="M11.9635 37.9459L23.7003 31.1697V10.1643L11.9635 16.9406V37.9459Z" fill="#16BF78"/>
<path d="M23.7003 10.1644L18.4189 7.11536L6.68219 13.8916L11.9636 16.9406L23.7003 10.1644Z" fill="#16BF78"/>
<path opacity="0.2" d="M23.7003 10.1644L18.4189 7.11536L6.68219 13.8916L11.9636 16.9406L23.7003 10.1644Z" fill="white"/>
<path d="M6.68219 13.8916V34.8969L11.9636 37.9459V16.9406L6.68219 13.8916Z" fill="#16BF78"/>
<path opacity="0.2" d="M6.68219 13.8916V34.8969L11.9636 37.9459V16.9406L6.68219 13.8916Z" fill="black"/>
<path d="M19.4469 15.6252L15.0946 26.9467L17.8319 24.7326L15.7029 32.7375L20.5691 20.5659L17.8319 22.701L19.4469 15.6252Z" fill="#FAFAFA"/>
<path d="M12.8516 17.1093C13.0128 17.0166 13.1451 17.0926 13.1451 17.2797C13.1395 17.3814 13.11 17.4804 13.059 17.5687C13.008 17.6569 12.937 17.7319 12.8516 17.7876C12.6889 17.8819 12.5581 17.8058 12.5581 17.6188C12.5637 17.5168 12.5931 17.4175 12.6441 17.329C12.6951 17.2405 12.7662 17.1653 12.8516 17.1093Z" fill="#37474F"/>
<path d="M12.8516 36.0846C13.0128 35.9903 13.1451 36.0664 13.1451 36.2534C13.1395 36.3552 13.11 36.4542 13.059 36.5424C13.008 36.6306 12.937 36.7056 12.8516 36.7613C12.6889 36.8556 12.5581 36.7796 12.5581 36.5925C12.5634 36.4907 12.5928 36.3915 12.6438 36.3032C12.6948 36.215 12.766 36.14 12.8516 36.0846Z" fill="#37474F"/>
<path d="M22.8198 11.3505C22.9825 11.2562 23.1133 11.3322 23.1133 11.5193C23.108 11.6211 23.0787 11.7202 23.0277 11.8085C22.9766 11.8968 22.9054 11.9718 22.8198 12.0272C22.6586 12.1215 22.5278 12.0454 22.5278 11.8584C22.5332 11.7567 22.5624 11.6578 22.6131 11.5695C22.6638 11.4813 22.7347 11.4062 22.8198 11.3505Z" fill="#37474F"/>
<path d="M22.8198 30.3242C22.9825 30.2299 23.1133 30.3059 23.1133 30.493C23.108 30.5948 23.0787 30.694 23.0277 30.7823C22.9766 30.8705 22.9054 30.9455 22.8198 31.0009C22.6586 31.0952 22.5278 31.0191 22.5278 30.8321C22.5332 30.7305 22.5624 30.6315 22.6131 30.5433C22.6638 30.455 22.7347 30.38 22.8198 30.3242Z" fill="#37474F"/>
<path d="M23.7003 10.1643V25.0717L30.1556 21.3445V0.339111L18.4189 7.11533L23.7003 10.1643Z" fill="#16BF78"/>
<path d="M30.1556 0.339115L18.4189 7.11534L17.8319 6.77622L29.5687 0L30.1556 0.339115Z" fill="#16BF78"/>
<path opacity="0.2" d="M30.1556 0.339115L18.4189 7.11534L17.8319 6.77622L29.5687 0L30.1556 0.339115Z" fill="white"/>
<path d="M17.8319 7.45444V6.77621L18.4189 7.11533L17.8319 7.45444Z" fill="#16BF78"/>
<path opacity="0.2" d="M17.8319 7.45444V6.77621L18.4189 7.11533L17.8319 7.45444Z" fill="black"/>
<path opacity="0.2" d="M18.4189 7.11536L25.9768 9.18959V23.7579L23.7003 25.0717V10.1644L18.4189 7.11536Z" fill="black"/>
</svg>
