<svg width="30" height="64" viewBox="0 0 30 64" fill="none" xmlns="http://www.w3.org/2000/svg">
<path d="M1.66646 0.124261L29.4269 16.1318C29.578 16.2304 29.7037 16.3632 29.7938 16.5195C29.884 16.6757 29.936 16.851 29.9457 17.0312V62.9194C29.936 63.0993 29.884 63.2743 29.7938 63.4302C29.7036 63.5862 29.5779 63.7186 29.4269 63.8167L29.3211 63.8757C29.1599 63.9574 28.9818 64 28.8012 64C28.6205 64 28.4424 63.9574 28.2813 63.8757L0.520879 47.8458C0.370014 47.747 0.244466 47.6141 0.154343 47.4579C0.0642196 47.3017 0.0120433 47.1265 0.00201416 46.9464V1.0806C0.0128008 0.902382 0.0653938 0.729202 0.155535 0.575078C0.245676 0.420954 0.370831 0.290216 0.520879 0.193443L0.626691 0.1324C0.78732 0.0499123 0.96504 0.00620959 1.14561 0.00479616C1.32617 0.00338273 1.50456 0.0442977 1.66646 0.124261Z" fill="#16BF78"/>
<path opacity="0.45" d="M1.66646 0.124261L29.4269 16.1318C29.578 16.2304 29.7037 16.3632 29.7938 16.5195C29.884 16.6757 29.936 16.851 29.9457 17.0312V62.9194C29.936 63.0993 29.884 63.2743 29.7938 63.4302C29.7036 63.5862 29.5779 63.7186 29.4269 63.8167L29.3211 63.8757C29.1599 63.9574 28.9818 64 28.8012 64C28.6205 64 28.4424 63.9574 28.2813 63.8757L0.520879 47.8458C0.370014 47.747 0.244466 47.6141 0.154343 47.4579C0.0642196 47.3017 0.0120433 47.1265 0.00201416 46.9464V1.0806C0.0128008 0.902382 0.0653938 0.729202 0.155535 0.575078C0.245676 0.420954 0.370831 0.290216 0.520879 0.193443L0.626691 0.1324C0.78732 0.0499123 0.96504 0.00620959 1.14561 0.00479616C1.32617 0.00338273 1.50456 0.0442977 1.66646 0.124261Z" fill="black"/>
<path d="M0.00201416 46.9932C0.00201416 47.449 0.321471 47.74 0.718252 47.9679L28.0839 63.7557C28.4787 63.9856 28.8002 63.8004 28.8002 63.3487V17.9122C28.8006 17.6614 28.7348 17.4149 28.6094 17.1977C28.4839 16.9804 28.3034 16.8002 28.0859 16.6751L0.720289 0.871013C0.648095 0.829085 0.566181 0.806788 0.482696 0.806342C0.399211 0.805896 0.317064 0.827316 0.244426 0.86847C0.171788 0.909625 0.111191 0.96908 0.0686622 1.04092C0.0261335 1.11276 0.00315587 1.19449 0.00201416 1.27797V46.9932Z" fill="#16BF78"/>
<path opacity="0.3" d="M0.00201416 46.9932C0.00201416 47.449 0.321471 47.74 0.718252 47.9679L28.0839 63.7557C28.4787 63.9856 28.8002 63.8004 28.8002 63.3487V17.9122C28.8006 17.6614 28.7348 17.4149 28.6094 17.1977C28.4839 16.9804 28.3034 16.8002 28.0859 16.6751L0.720289 0.871013C0.648095 0.829085 0.566181 0.806788 0.482696 0.806342C0.399211 0.805896 0.317064 0.827316 0.244426 0.86847C0.171788 0.909625 0.111191 0.96908 0.0686622 1.04092C0.0261335 1.11276 0.00315587 1.19449 0.00201416 1.27797V46.9932Z" fill="black"/>
<path d="M0 1.08061V1.28409C0.00154311 1.20055 0.0248585 1.11886 0.0676353 1.04709C0.110412 0.975325 0.171171 0.915958 0.243914 0.874861C0.316658 0.833763 0.398865 0.812355 0.482414 0.812753C0.565963 0.813152 0.647963 0.835342 0.720311 0.877131L28.086 16.6751C28.3039 16.7995 28.4845 16.9801 28.6089 17.198C28.6096 17.2028 28.6096 17.2076 28.6089 17.2123L29.7931 16.5286C29.7041 16.3672 29.5752 16.2313 29.4188 16.1339L1.66648 0.124265C1.50536 0.0425722 1.32725 0 1.1466 0C0.965945 0 0.787838 0.0425722 0.626714 0.124265L0.522938 0.185308C0.371063 0.282423 0.244442 0.414245 0.153521 0.569908C0.0625998 0.72557 0.00998108 0.900614 0 1.08061Z" fill="#16BF78"/>
<path opacity="0.2" d="M0 1.08061V1.28409C0.00154311 1.20055 0.0248585 1.11886 0.0676353 1.04709C0.110412 0.975325 0.171171 0.915958 0.243914 0.874861C0.316658 0.833763 0.398865 0.812355 0.482414 0.812753C0.565963 0.813152 0.647963 0.835342 0.720311 0.877131L28.086 16.6751C28.3039 16.7995 28.4845 16.9801 28.6089 17.198C28.6096 17.2028 28.6096 17.2076 28.6089 17.2123L29.7931 16.5286C29.7041 16.3672 29.5752 16.2313 29.4188 16.1339L1.66648 0.124265C1.50536 0.0425722 1.32725 0 1.1466 0C0.965945 0 0.787838 0.0425722 0.626714 0.124265L0.522938 0.185308C0.371063 0.282423 0.244442 0.414245 0.153521 0.569908C0.0625998 0.72557 0.00998108 0.900614 0 1.08061Z" fill="black"/>
<path opacity="0.25" d="M0.675537 45.925C0.675537 46.395 1.00517 46.6941 1.41416 46.9302L27.2782 61.8613C27.6851 62.0974 28.0168 61.9061 28.0168 61.434V20.5595C28.017 20.3014 27.9493 20.0477 27.8203 19.8241C27.6914 19.6005 27.5058 19.4148 27.2822 19.2857L1.41823 4.34642C1.34326 4.30266 1.25805 4.27949 1.17124 4.27927C1.08443 4.27905 0.999104 4.30178 0.92391 4.34516C0.848717 4.38854 0.786328 4.45103 0.743067 4.52629C0.699806 4.60155 0.677214 4.68691 0.677574 4.77372V45.925H0.675537Z" fill="black"/>
<path d="M27.3514 19.8412L1.58304 4.96295C1.51443 4.92889 1.43887 4.91116 1.36227 4.91116C1.28567 4.91116 1.21011 4.92889 1.1415 4.96295L0.893259 5.10742C0.830136 5.14885 0.777572 5.20446 0.73977 5.26982C0.701967 5.33518 0.67997 5.40848 0.675537 5.48385V46.747C0.679966 46.8237 0.702345 46.8983 0.740869 46.9647C0.779392 47.0312 0.832983 47.0876 0.897327 47.1296L26.6657 62.0058C26.734 62.0409 26.8097 62.0593 26.8865 62.0593C26.9633 62.0593 27.039 62.0409 27.1072 62.0058L27.3555 61.8633C27.4196 61.8213 27.4728 61.7648 27.511 61.6983C27.5492 61.6319 27.5712 61.5574 27.5752 61.4808V20.2237C27.5707 20.1469 27.5481 20.0721 27.5092 20.0056C27.4703 19.9391 27.4162 19.8828 27.3514 19.8412Z" fill="#F5F5F5"/>
<path d="M26.7206 62.0302C26.7467 62.041 26.7741 62.0485 26.802 62.0526H26.8448C26.8894 62.0566 26.9344 62.0566 26.9791 62.0526C27.007 62.0482 27.0343 62.0407 27.0605 62.0302L27.1093 62.0078L27.3575 61.8633C27.4216 61.8217 27.4749 61.7656 27.513 61.6994C27.5512 61.6333 27.5732 61.5591 27.5773 61.4828V20.2237C27.5752 20.1473 27.5527 20.0729 27.5122 20.0081L26.8244 20.415C26.863 20.4813 26.8846 20.5561 26.8875 20.6327V61.8796C26.8814 61.9997 26.8102 62.0505 26.7206 62.0302Z" fill="#E0E0E0"/>
<path d="M0.893259 5.10742L1.1415 4.96295C1.21011 4.92889 1.28567 4.91116 1.36227 4.91116C1.43887 4.91116 1.51443 4.92889 1.58304 4.96295L27.3514 19.8412C27.4155 19.8833 27.4688 19.9398 27.5069 20.0062C27.5451 20.0727 27.5671 20.1472 27.5712 20.2237V23.0053L26.8814 23.4122L0.675537 8.27353V5.48385C0.67997 5.40848 0.701967 5.33518 0.73977 5.26982C0.777572 5.20446 0.830136 5.14885 0.893259 5.10742Z" fill="#1678BF"/>
<path opacity="0.4" d="M0.893259 5.10742L1.1415 4.96295C1.21011 4.92889 1.28567 4.91116 1.36227 4.91116C1.43887 4.91116 1.51443 4.92889 1.58304 4.96295L27.3514 19.8412C27.4155 19.8833 27.4688 19.9398 27.5069 20.0062C27.5451 20.0727 27.5671 20.1472 27.5712 20.2237V23.0053L26.8814 23.4122L0.675537 8.27353V5.48385C0.67997 5.40848 0.701967 5.33518 0.73977 5.26982C0.777572 5.20446 0.830136 5.14885 0.893259 5.10742Z" fill="white"/>
<path d="M0.675537 5.4228C0.704024 5.33327 0.787447 5.30275 0.889186 5.36176L26.6576 20.24C26.7234 20.2802 26.7774 20.337 26.8142 20.4048L27.502 19.9979C27.4659 19.9302 27.4126 19.8734 27.3473 19.8331L1.58101 4.96294C1.51309 4.9278 1.43773 4.90945 1.36125 4.90945C1.28478 4.90945 1.20942 4.9278 1.1415 4.96294L0.893259 5.10741C0.837654 5.14267 0.789719 5.18877 0.752313 5.24296C0.714907 5.29714 0.688795 5.35831 0.675537 5.4228Z" fill="#1678BF"/>
<path opacity="0.6" d="M0.675537 5.4228C0.704024 5.33327 0.787447 5.30275 0.889186 5.36176L26.6576 20.24C26.7234 20.2802 26.7774 20.337 26.8142 20.4048L27.502 19.9979C27.4659 19.9302 27.4126 19.8734 27.3473 19.8331L1.58101 4.96294C1.51309 4.9278 1.43773 4.90945 1.36125 4.90945C1.28478 4.90945 1.20942 4.9278 1.1415 4.96294L0.893259 5.10741C0.837654 5.14267 0.789719 5.18877 0.752313 5.24296C0.714907 5.29714 0.688795 5.35831 0.675537 5.4228Z" fill="white"/>
<path d="M27.5712 20.2237V23.0073L26.8814 23.4142V20.6205C26.8785 20.5445 26.8568 20.4704 26.8183 20.4048L27.506 19.9979C27.5478 20.0659 27.5703 20.1439 27.5712 20.2237Z" fill="#1678BF"/>
<path d="M25.8071 24.1529L20.2888 20.9664V21.4975L25.8071 24.684V24.1529Z" fill="#1678BF"/>
<path d="M25.8071 25.215L17.5276 20.4354V20.9664L25.8071 25.7461V25.215Z" fill="#1678BF"/>
<path d="M25.807 26.2772L18.4493 22.0286V22.5597L25.807 26.8083V26.2772Z" fill="#1678BF"/>
<path d="M4.71459 11.9361C4.75007 11.9589 4.7783 11.9914 4.79597 12.0297C4.8173 12.0692 4.82915 12.1131 4.83057 12.1579V12.7683C4.83227 12.7849 4.83002 12.8017 4.82401 12.8172C4.81799 12.8328 4.80839 12.8467 4.79597 12.8579C4.78428 12.8668 4.76998 12.8716 4.75528 12.8716C4.74057 12.8716 4.72628 12.8668 4.71459 12.8579L3.95358 12.4204V15.3708C3.95511 15.3874 3.9528 15.4041 3.94679 15.4196C3.94079 15.4352 3.93127 15.4491 3.91899 15.4603C3.90705 15.4687 3.89284 15.4731 3.87829 15.4731C3.86374 15.4731 3.84954 15.4687 3.8376 15.4603L3.27193 15.1348C3.23572 15.1128 3.20726 15.0801 3.19054 15.0412C3.16804 15.0014 3.15614 14.9566 3.15595 14.911V11.9565L2.39494 11.519C2.35946 11.4962 2.33123 11.4637 2.31355 11.4254C2.29199 11.3853 2.28014 11.3407 2.27896 11.2952V10.6847C2.27743 10.6685 2.27976 10.652 2.28577 10.6368C2.29178 10.6216 2.3013 10.6081 2.31355 10.5972C2.32524 10.5883 2.33954 10.5835 2.35425 10.5835C2.36895 10.5835 2.38325 10.5883 2.39494 10.5972L4.71459 11.9361Z" fill="#1678BF"/>
<path d="M6.51333 12.9759C6.56998 13.0081 6.61596 13.0562 6.64559 13.1142C6.67282 13.1659 6.69399 13.2205 6.70866 13.277L7.64873 17.4463C7.65842 17.4774 7.66456 17.5094 7.66704 17.5419C7.66833 17.5555 7.66643 17.5692 7.66149 17.5819C7.65654 17.5946 7.64869 17.606 7.63856 17.6152C7.62881 17.6223 7.61705 17.6261 7.60498 17.6261C7.59291 17.6261 7.58116 17.6223 7.57141 17.6152L7.02812 17.2998C6.9757 17.273 6.93247 17.2312 6.904 17.1797C6.88283 17.1423 6.86773 17.1018 6.85924 17.0597L6.73918 16.5123L5.58954 15.849L5.46949 16.2559C5.4624 16.2832 5.4458 16.307 5.42269 16.3231C5.39827 16.3414 5.35758 16.3353 5.3006 16.3027L4.75732 15.9873C4.72803 15.9694 4.70468 15.9432 4.69017 15.9121C4.67251 15.8795 4.66275 15.8433 4.66168 15.8062C4.66345 15.7796 4.66964 15.7535 4.67999 15.7289L5.62006 12.6462C5.63251 12.6112 5.65432 12.5802 5.68314 12.5567C5.71366 12.5323 5.75639 12.5364 5.81336 12.5689L6.51333 12.9759ZM5.81336 15.0859L6.51333 15.4929L6.16945 13.9078L5.81336 15.0859Z" fill="#1678BF"/>
<path d="M9.24193 17.4117L8.68848 18.1279C8.67325 18.1509 8.65394 18.1709 8.6315 18.1869C8.60912 18.2012 8.57046 18.1869 8.51145 18.1584L7.85625 17.78C7.82697 17.7611 7.80368 17.7343 7.7891 17.7027C7.77122 17.6702 7.76145 17.6339 7.76062 17.5968C7.76062 17.5968 7.76062 17.5826 7.76062 17.5724C7.76361 17.5619 7.7677 17.5516 7.77283 17.5419L8.76987 16.258L7.81556 13.918C7.80768 13.895 7.80289 13.871 7.80131 13.8468C7.80002 13.8332 7.80192 13.8195 7.80687 13.8068C7.81182 13.794 7.81967 13.7826 7.8298 13.7735C7.83942 13.7661 7.85123 13.7621 7.86338 13.7621C7.87553 13.7621 7.88733 13.7661 7.89695 13.7735L8.54808 14.1499C8.60301 14.1787 8.64724 14.2243 8.67423 14.2802L8.7312 14.3982L9.25211 15.672L9.75673 14.9903C9.76894 14.9781 9.78725 14.9598 9.8137 14.9374C9.84016 14.915 9.88085 14.9191 9.93986 14.9516L10.5991 15.3342C10.6288 15.3516 10.6523 15.378 10.6663 15.4095C10.6839 15.442 10.6937 15.4783 10.6948 15.5153C10.6949 15.5345 10.69 15.5535 10.6805 15.5702L9.72214 16.8297L10.711 19.2369C10.7159 19.2509 10.72 19.2651 10.7232 19.2796C10.7232 19.2918 10.7232 19.3 10.7232 19.3081C10.7245 19.3217 10.7226 19.3354 10.7177 19.3481C10.7127 19.3608 10.7049 19.3722 10.6948 19.3813C10.6849 19.3882 10.6732 19.3918 10.6612 19.3918C10.6492 19.3918 10.6375 19.3882 10.6276 19.3813L9.97038 19.0029C9.92166 18.9778 9.88082 18.9398 9.85237 18.893C9.83056 18.853 9.81152 18.8115 9.79539 18.7689L9.24193 17.4117Z" fill="#1678BF"/>
<path d="M25.8071 46.1386L2.15485 32.4832V33.8486L25.8071 47.5039V46.1386Z" fill="#1678BF"/>
<path opacity="0.4" d="M25.8071 46.1386L2.15485 32.4832V33.8486L25.8071 47.5039V46.1386Z" fill="white"/>
<path d="M2.30339 34.0582L25.6646 47.5467V49.3515L2.30339 35.865V34.0582ZM2.15892 33.8547V35.9139L25.8111 49.5692V47.5039L2.15485 33.8486L2.15892 33.8547Z" fill="#1678BF"/>
<path d="M17.8654 44.9483L18.0119 44.9686V43.0498L17.8654 43.0295V44.9483Z" fill="#1678BF"/>
<path d="M10.066 40.4433L10.2105 40.4657V38.5367L10.066 38.5164V40.4433Z" fill="#1678BF"/>
<path d="M2.30339 35.9912L25.6646 49.4797V51.2846L2.30339 37.7981V35.9912ZM2.15892 35.7877V37.8367L25.8111 51.4921V49.4349L2.15485 35.7816L2.15892 35.7877Z" fill="#1678BF"/>
<path d="M17.8654 46.8813L18.0119 46.9017V44.9829L17.8654 44.9625V46.8813Z" fill="#1678BF"/>
<path d="M10.066 42.3763L10.2105 42.3966V40.4697L10.066 40.4494V42.3763Z" fill="#1678BF"/>
<path d="M2.30339 37.9242L25.6646 51.4127V53.2176L2.30339 39.7311V37.9242ZM2.15892 37.7208V39.782L25.8111 53.4373V51.37L2.15485 37.7126L2.15892 37.7208Z" fill="#1678BF"/>
<path d="M17.8654 48.8123L18.0119 48.8347V46.9159L17.8654 46.8956V48.8123Z" fill="#1678BF"/>
<path d="M10.066 44.3094L10.2105 44.3297V42.4028L10.066 42.3804V44.3094Z" fill="#1678BF"/>
<path d="M2.30339 39.8573L25.6646 53.3458V55.1506L2.30339 41.6621V39.8573ZM2.15892 39.6538V41.7028L25.8111 55.3602V53.301L2.15485 39.6457L2.15892 39.6538Z" fill="#1678BF"/>
<path d="M17.8654 50.7453L18.0119 50.7677V48.8489L17.8654 48.8286V50.7453Z" fill="#1678BF"/>
<path d="M10.066 46.2424L10.2105 46.2627V44.3338L10.066 44.3134V46.2424Z" fill="#1678BF"/>
<path d="M2.30339 43.3591L10.0701 47.8356V50.2306L2.30339 45.7541V43.3591ZM2.15892 43.1068V45.8375L10.2146 50.4869V47.7542L2.15485 43.1068H2.15892Z" fill="#1678BF"/>
<path d="M25.8071 58.2577L13.8589 51.3578V52.5095L25.8071 59.4074V58.2577Z" fill="#1678BF"/>
<path d="M12.6156 29.8747L2.15485 23.8355V25.2008L12.6156 31.24V29.8747Z" fill="#1678BF"/>
<path opacity="0.4" d="M12.6156 29.8747L2.15485 23.8355V25.2008L12.6156 31.24V29.8747Z" fill="white"/>
<path d="M3.41643 27.9213L2.58624 27.4431V26.3525L3.41643 26.8327V27.9213ZM2.68594 27.3861L3.31876 27.7504V26.8897L2.68594 26.5234V27.3861Z" fill="#1678BF"/>
<path d="M3.41643 29.954L2.58624 29.4738V28.3852L3.41643 28.8634V29.954ZM2.68594 29.4168L3.31876 29.7831V28.9204L2.68594 28.5561V29.4168Z" fill="#1678BF"/>
<path d="M3.41643 31.9868L2.58624 31.5066V30.4159L3.41643 30.8961V31.9868ZM2.68594 31.4496L3.31876 31.8159V30.9531L2.68594 30.5868V31.4496Z" fill="#1678BF"/>
<path d="M12.2046 32.2655C12.1916 32.2663 12.1787 32.2627 12.168 32.2554L3.90678 27.4879C3.89662 27.4839 3.88745 27.4778 3.87989 27.47C3.87233 27.4621 3.86656 27.4527 3.86298 27.4424C3.85941 27.4321 3.85812 27.4212 3.85919 27.4103C3.86026 27.3995 3.86368 27.389 3.86919 27.3796C3.87471 27.3702 3.8822 27.3621 3.89115 27.3559C3.9001 27.3497 3.91029 27.3455 3.92103 27.3436C3.93176 27.3417 3.94278 27.3421 3.95332 27.3449C3.96385 27.3477 3.97366 27.3527 3.98206 27.3597L12.2412 32.1394C12.2579 32.1491 12.27 32.1651 12.275 32.1838C12.2799 32.2024 12.2773 32.2223 12.2677 32.2391C12.2603 32.2486 12.2507 32.256 12.2396 32.2606C12.2286 32.2653 12.2165 32.267 12.2046 32.2655Z" fill="#E0E0E0"/>
<path d="M12.2046 32.7824C12.1926 32.7854 12.18 32.7854 12.168 32.7824L3.90681 28.0129C3.89014 28.0031 3.87801 27.9871 3.87305 27.9684C3.8681 27.9498 3.87073 27.9299 3.88036 27.9131C3.88498 27.9044 3.89137 27.8967 3.89912 27.8906C3.90688 27.8844 3.91582 27.88 3.9254 27.8775C3.93497 27.875 3.94496 27.8745 3.95472 27.8761C3.96448 27.8777 3.9738 27.8813 3.9821 27.8867L12.2412 32.6542C12.2546 32.6628 12.2648 32.6754 12.2706 32.6902C12.2763 32.705 12.2772 32.7213 12.2731 32.7366C12.269 32.752 12.2602 32.7657 12.2479 32.7757C12.2356 32.7857 12.2205 32.7916 12.2046 32.7925V32.7824Z" fill="#E0E0E0"/>
<path d="M12.2046 34.2983C12.1917 34.2981 12.1791 34.2946 12.168 34.2881L3.90681 29.5186C3.89014 29.5088 3.87801 29.4928 3.87305 29.4742C3.8681 29.4555 3.87073 29.4356 3.88036 29.4189C3.88502 29.4102 3.89139 29.4025 3.89909 29.3963C3.90679 29.3902 3.91566 29.3856 3.92516 29.383C3.93466 29.3803 3.9446 29.3796 3.95438 29.3809C3.96417 29.3821 3.97359 29.3854 3.9821 29.3904L12.2412 34.1599C12.2546 34.1685 12.2648 34.1811 12.2706 34.196C12.2763 34.2108 12.2772 34.227 12.2731 34.2424C12.269 34.2577 12.2602 34.2714 12.2479 34.2814C12.2356 34.2915 12.2205 34.2974 12.2046 34.2983Z" fill="#E0E0E0"/>
<path d="M12.2046 34.8151C12.1917 34.8149 12.1791 34.8114 12.168 34.8049L3.90678 30.0354C3.89662 30.0315 3.88745 30.0253 3.87989 30.0175C3.87233 30.0096 3.86656 30.0003 3.86298 29.99C3.85941 29.9797 3.85812 29.9687 3.85919 29.9579C3.86026 29.947 3.86368 29.9365 3.86919 29.9271C3.87471 29.9177 3.8822 29.9097 3.89115 29.9034C3.9001 29.8972 3.91029 29.893 3.92103 29.8911C3.93176 29.8892 3.94278 29.8897 3.95332 29.8925C3.96385 29.8953 3.97366 29.9003 3.98206 29.9072L12.2412 34.6767C12.2579 34.6865 12.27 34.7025 12.275 34.7211C12.2799 34.7398 12.2773 34.7597 12.2677 34.7764C12.2617 34.788 12.2527 34.7978 12.2415 34.8046C12.2304 34.8114 12.2176 34.815 12.2046 34.8151Z" fill="#E0E0E0"/>
<path d="M12.2046 36.331C12.1926 36.334 12.18 36.334 12.168 36.331L3.90679 31.5615C3.893 31.5501 3.88371 31.5342 3.8806 31.5165C3.87749 31.4989 3.88076 31.4808 3.88982 31.4653C3.89889 31.4499 3.91315 31.4382 3.93005 31.4323C3.94696 31.4265 3.96541 31.4268 3.98208 31.4333L12.2412 36.2028C12.2579 36.2126 12.27 36.2285 12.275 36.2472C12.2799 36.2659 12.2773 36.2858 12.2677 36.3025C12.2605 36.3122 12.2509 36.32 12.2398 36.3249C12.2288 36.3299 12.2167 36.332 12.2046 36.331Z" fill="#E0E0E0"/>
<path d="M12.2046 36.8458C12.1927 36.8497 12.1799 36.8497 12.168 36.8458L3.90678 32.0783C3.89662 32.0744 3.88745 32.0683 3.87989 32.0604C3.87233 32.0526 3.86656 32.0432 3.86298 32.0329C3.85941 32.0226 3.85812 32.0116 3.85919 32.0008C3.86026 31.9899 3.86368 31.9794 3.86919 31.9701C3.87471 31.9607 3.8822 31.9526 3.89115 31.9463C3.9001 31.9401 3.91029 31.9359 3.92103 31.934C3.93176 31.9321 3.94278 31.9326 3.95332 31.9354C3.96385 31.9382 3.97366 31.9432 3.98206 31.9501L12.2412 36.7176C12.258 36.7278 12.2702 36.7441 12.2751 36.7631C12.2801 36.7821 12.2774 36.8023 12.2677 36.8193C12.2603 36.8288 12.2507 36.8363 12.2396 36.8409C12.2286 36.8455 12.2165 36.8472 12.2046 36.8458Z" fill="#E0E0E0"/>
<path d="M25.807 37.4908L15.3463 31.4516V32.817L25.807 38.8562V37.4908Z" fill="#1678BF"/>
<path opacity="0.4" d="M25.807 37.4908L15.3463 31.4516V32.817L25.807 38.8562V37.4908Z" fill="white"/>
<path d="M16.6099 35.5395L15.7797 35.0593V33.9707L16.6099 34.4509V35.5395ZM15.8774 35.0023L16.5102 35.3686V34.5058L15.8774 34.1396V35.0023Z" fill="#1678BF"/>
<path d="M16.6099 37.5702L15.7797 37.092V36.0054L16.6099 36.4856V37.5702ZM15.8774 37.035L16.5102 37.3993V36.5385L15.8774 36.1723V37.035Z" fill="#1678BF"/>
<path d="M16.6099 39.6029L15.7797 39.1227V38.0402L16.6099 38.5184V39.6029ZM15.8774 39.0657L16.5102 39.432V38.5693L15.8774 38.203V39.0657Z" fill="#1678BF"/>
<path d="M25.396 39.8817C25.384 39.8845 25.3715 39.8845 25.3594 39.8817L17.1003 35.1122C17.0916 35.1075 17.0839 35.1011 17.0777 35.0934C17.0716 35.0857 17.067 35.0769 17.0644 35.0674C17.0617 35.0579 17.061 35.0479 17.0623 35.0381C17.0635 35.0284 17.0668 35.0189 17.0718 35.0104C17.0819 34.9936 17.0983 34.9815 17.1173 34.9765C17.1363 34.9716 17.1565 34.9743 17.1735 34.984L25.4347 39.7535C25.4486 39.7617 25.4595 39.7743 25.4655 39.7894C25.4715 39.8044 25.4724 39.821 25.468 39.8366C25.4635 39.8521 25.4541 39.8658 25.4411 39.8755C25.4281 39.8851 25.4122 39.8901 25.396 39.8898V39.8817Z" fill="#E0E0E0"/>
<path d="M25.396 40.3985C25.3831 40.399 25.3703 40.3954 25.3594 40.3883L17.1003 35.6209C17.0831 35.611 17.0705 35.5949 17.0652 35.5758C17.0598 35.5568 17.0622 35.5364 17.0718 35.5191C17.0819 35.5023 17.0982 35.4902 17.1173 35.4852C17.1363 35.4803 17.1564 35.4829 17.1735 35.4927L25.4347 40.2602C25.4515 40.2703 25.4637 40.2866 25.4686 40.3056C25.4735 40.3246 25.4709 40.3448 25.4611 40.3619C25.4546 40.3733 25.4451 40.3827 25.4336 40.3891C25.4221 40.3956 25.4092 40.3988 25.396 40.3985Z" fill="#E0E0E0"/>
<path d="M25.396 41.9063C25.3841 41.9099 25.3713 41.9099 25.3594 41.9063L17.1003 37.1388C17.0831 37.129 17.0705 37.1128 17.0652 37.0938C17.0598 37.0747 17.0622 37.0544 17.0718 37.0371C17.0819 37.0203 17.0982 37.0081 17.1173 37.0032C17.1363 36.9982 17.1564 37.0009 17.1735 37.0106L25.4347 41.7781C25.4515 41.7883 25.4637 41.8046 25.4686 41.8236C25.4735 41.8426 25.4709 41.8628 25.4611 41.8798C25.4534 41.8893 25.4433 41.8968 25.432 41.9014C25.4206 41.906 25.4082 41.9077 25.396 41.9063Z" fill="#E0E0E0"/>
<path d="M25.3961 42.4313C25.3832 42.4307 25.3707 42.4273 25.3594 42.4211L17.1003 37.6516C17.0917 37.6471 17.084 37.6409 17.0779 37.6334C17.0717 37.6259 17.0672 37.6172 17.0645 37.6079C17.0618 37.5985 17.0611 37.5888 17.0624 37.5791C17.0636 37.5695 17.0668 37.5602 17.0718 37.5519C17.0816 37.5347 17.0978 37.5221 17.1168 37.5168C17.1359 37.5115 17.1562 37.5138 17.1735 37.5234L25.4347 42.2929C25.4515 42.3031 25.4637 42.3194 25.4686 42.3384C25.4736 42.3574 25.4709 42.3776 25.4612 42.3946C25.4543 42.4057 25.4447 42.4149 25.4333 42.4213C25.4219 42.4277 25.4091 42.4312 25.3961 42.4313Z" fill="#E0E0E0"/>
<path d="M25.3961 43.9411C25.3832 43.9405 25.3707 43.9371 25.3594 43.9309L17.1003 39.1614C17.0917 39.1569 17.084 39.1507 17.0779 39.1432C17.0717 39.1357 17.0672 39.127 17.0645 39.1177C17.0618 39.1083 17.0611 39.0986 17.0624 39.0889C17.0636 39.0793 17.0668 39.07 17.0718 39.0617C17.0816 39.0445 17.0978 39.0319 17.1168 39.0266C17.1359 39.0213 17.1562 39.0236 17.1735 39.0332L25.4347 43.8027C25.4515 43.8129 25.4637 43.8292 25.4686 43.8482C25.4736 43.8672 25.4709 43.8874 25.4612 43.9044C25.4543 43.9155 25.4447 43.9247 25.4333 43.9311C25.4219 43.9375 25.4091 43.941 25.3961 43.9411Z" fill="#E0E0E0"/>
<path d="M25.396 44.462C25.384 44.4648 25.3715 44.4648 25.3594 44.462L17.1003 39.6925C17.0916 39.6878 17.0839 39.6814 17.0777 39.6737C17.0716 39.666 17.067 39.6572 17.0644 39.6477C17.0617 39.6382 17.061 39.6282 17.0623 39.6184C17.0635 39.6087 17.0668 39.5992 17.0718 39.5907C17.0819 39.5739 17.0983 39.5617 17.1173 39.5568C17.1363 39.5519 17.1565 39.5545 17.1735 39.5643L25.4347 44.3338C25.4486 44.342 25.4595 44.3546 25.4655 44.3696C25.4715 44.3847 25.4724 44.4013 25.468 44.4169C25.4635 44.4324 25.4541 44.4461 25.4411 44.4557C25.4281 44.4654 25.4122 44.4704 25.396 44.4701V44.462Z" fill="#E0E0E0"/>
<path d="M25.8071 32.4283L2.15485 18.7729V20.1383L25.8071 33.7936V32.4283Z" fill="#1678BF"/>
<path opacity="0.4" d="M25.8071 32.4283L2.15485 18.7729V20.1383L25.8071 33.7936V32.4283Z" fill="white"/>
<path d="M13.8589 27.9803C13.8453 27.9801 13.8321 27.9766 13.8202 27.9701L2.59843 21.4914C2.58827 21.4875 2.5791 21.4813 2.57154 21.4735C2.56398 21.4656 2.55821 21.4562 2.55464 21.446C2.55106 21.4357 2.54977 21.4247 2.55084 21.4139C2.55191 21.403 2.55533 21.3925 2.56085 21.3831C2.56636 21.3737 2.57385 21.3657 2.5828 21.3594C2.59175 21.3532 2.60194 21.349 2.61268 21.3471C2.62341 21.3452 2.63442 21.3457 2.64496 21.3485C2.6555 21.3512 2.66531 21.3563 2.67371 21.3632L13.9016 27.8419C13.9184 27.8521 13.9306 27.8684 13.9355 27.8874C13.9405 27.9064 13.9378 27.9266 13.928 27.9437C13.9208 27.9554 13.9106 27.965 13.8984 27.9714C13.8863 27.9778 13.8726 27.9809 13.8589 27.9803Z" fill="#E0E0E0"/>
<path d="M25.2475 35.3543C25.2354 35.3572 25.2229 35.3572 25.2108 35.3543L2.59843 22.2911C2.58827 22.2871 2.5791 22.281 2.57154 22.2731C2.56398 22.2653 2.55821 22.2559 2.55464 22.2456C2.55106 22.2353 2.54977 22.2244 2.55084 22.2135C2.55191 22.2027 2.55533 22.1922 2.56085 22.1828C2.56636 22.1734 2.57385 22.1653 2.5828 22.1591C2.59175 22.1529 2.60194 22.1487 2.61268 22.1468C2.62341 22.1449 2.63442 22.1453 2.64496 22.1481C2.6555 22.1509 2.66531 22.1559 2.67371 22.1629L25.2841 35.218C25.2928 35.2224 25.3004 35.2286 25.3066 35.2362C25.3127 35.2437 25.3171 35.2525 25.3196 35.2619C25.3221 35.2713 25.3226 35.2812 25.321 35.2908C25.3195 35.3004 25.3159 35.3095 25.3106 35.3177C25.3047 35.3292 25.2956 35.3388 25.2844 35.3453C25.2732 35.3518 25.2604 35.3549 25.2475 35.3543Z" fill="#E0E0E0"/>
<path d="M25.2475 36.1072C25.2345 36.1076 25.2217 36.1041 25.2108 36.097L2.59842 23.0439C2.58161 23.0338 2.56944 23.0175 2.5645 22.9984C2.55955 22.9794 2.56223 22.9593 2.57197 22.9422C2.58212 22.9254 2.59844 22.9132 2.61745 22.9083C2.63646 22.9033 2.65665 22.906 2.6737 22.9157L25.2841 35.9709C25.2928 35.9753 25.3004 35.9815 25.3066 35.989C25.3127 35.9966 25.3171 36.0054 25.3196 36.0148C25.3221 36.0242 25.3226 36.034 25.321 36.0436C25.3195 36.0533 25.3159 36.0624 25.3106 36.0706C25.3047 36.0821 25.2956 36.0917 25.2844 36.0982C25.2732 36.1047 25.2604 36.1078 25.2475 36.1072Z" fill="#E0E0E0"/>
<path d="M13.8589 22.7245C13.8461 22.7275 13.8329 22.7275 13.8202 22.7245L2.59843 16.2356C2.58827 16.2316 2.5791 16.2255 2.57154 16.2177C2.56398 16.2098 2.55821 16.2004 2.55464 16.1901C2.55106 16.1798 2.54977 16.1689 2.55084 16.158C2.55191 16.1472 2.55533 16.1367 2.56085 16.1273C2.56636 16.1179 2.57385 16.1098 2.5828 16.1036C2.59175 16.0974 2.60194 16.0932 2.61268 16.0913C2.62341 16.0894 2.63442 16.0899 2.64496 16.0926C2.6555 16.0954 2.66531 16.1005 2.67371 16.1074L13.9016 22.5861C13.9184 22.5963 13.9306 22.6126 13.9355 22.6316C13.9405 22.6506 13.9378 22.6708 13.928 22.6878C13.9208 22.6996 13.9106 22.7091 13.8984 22.7156C13.8863 22.722 13.8726 22.7251 13.8589 22.7245Z" fill="#E0E0E0"/>
<path d="M25.2475 30.1046C25.2354 30.1075 25.2229 30.1075 25.2108 30.1046L2.59843 17.0353C2.58827 17.0313 2.5791 17.0252 2.57154 17.0173C2.56398 17.0095 2.55821 17.0001 2.55464 16.9898C2.55106 16.9795 2.54977 16.9686 2.55084 16.9577C2.55191 16.9469 2.55533 16.9364 2.56085 16.927C2.56636 16.9176 2.57385 16.9095 2.5828 16.9033C2.59175 16.8971 2.60194 16.8929 2.61268 16.891C2.62341 16.8891 2.63442 16.8895 2.64496 16.8923C2.6555 16.8951 2.66531 16.9001 2.67371 16.9071L25.2841 29.9622C25.2928 29.9666 25.3004 29.9728 25.3066 29.9804C25.3127 29.9879 25.3171 29.9967 25.3196 30.0061C25.3221 30.0155 25.3226 30.0254 25.321 30.035C25.3195 30.0446 25.3159 30.0537 25.3106 30.0619C25.3056 30.0746 25.2969 30.0854 25.2857 30.0931C25.2744 30.1007 25.2611 30.1047 25.2475 30.1046Z" fill="#E0E0E0"/>
<path d="M25.2475 30.8514C25.2355 30.855 25.2228 30.855 25.2108 30.8514L2.59842 17.7881C2.58161 17.778 2.56944 17.7616 2.5645 17.7426C2.55955 17.7236 2.56223 17.7034 2.57197 17.6864C2.58212 17.6696 2.59844 17.6574 2.61745 17.6524C2.63646 17.6475 2.65665 17.6502 2.6737 17.6599L25.2841 30.715C25.2928 30.7194 25.3004 30.7256 25.3066 30.7332C25.3127 30.7408 25.3171 30.7495 25.3196 30.759C25.3221 30.7684 25.3226 30.7782 25.321 30.7878C25.3195 30.7974 25.3159 30.8066 25.3106 30.8147C25.3047 30.8263 25.2956 30.8359 25.2844 30.8424C25.2732 30.8489 25.2604 30.852 25.2475 30.8514Z" fill="#E0E0E0"/>
<g opacity="0.25">
<path opacity="0.25" d="M6.63949 6.82884V9.0447C6.65408 9.34643 6.74054 9.6403 6.89166 9.90185C7.04279 10.1634 7.25422 10.3851 7.50833 10.5484L11.7956 13.0227C12.0056 13.1825 12.1653 13.3993 12.2555 13.6474C12.3417 13.8416 12.4532 14.0236 12.5871 14.1886C12.9208 14.5671 13.6472 14.9598 14.16 15.1246C14.3271 15.1789 14.4987 15.2184 14.6728 15.2426L14.8762 15.2711C15.3442 15.3342 15.9262 15.4135 16.268 15.6109L21.2939 18.5064C21.4259 18.5872 21.5767 18.6321 21.7314 18.6366C21.834 18.6381 21.9352 18.6121 22.0244 18.5613C22.1322 18.4901 22.2188 18.391 22.275 18.2746C22.3313 18.1582 22.355 18.0288 22.3439 17.9V15.6882C22.3293 15.3865 22.2428 15.0926 22.0917 14.8311C21.9406 14.5695 21.7291 14.3479 21.475 14.1845L19.7902 13.216H19.7658C19.7258 13.1988 19.6808 13.197 19.6395 13.2109C19.5982 13.2247 19.5635 13.2534 19.542 13.2913C19.5208 13.3288 19.5139 13.3727 19.5225 13.415C19.5311 13.4572 19.5546 13.4949 19.5888 13.5212C19.5945 13.5273 19.6014 13.5321 19.6091 13.5354L21.2939 14.5101C21.4928 14.6425 21.6585 14.8189 21.7781 15.0257C21.8977 15.2325 21.9681 15.4641 21.9837 15.7025V17.896C22.0023 17.9609 21.9987 18.0302 21.9735 18.0928C21.9483 18.1555 21.9028 18.2079 21.8444 18.2418C21.786 18.2757 21.7179 18.2891 21.651 18.2799C21.5841 18.2707 21.5221 18.2394 21.475 18.191L16.4573 15.2976C16.0503 15.0656 15.4399 14.9822 14.9332 14.915L14.7297 14.8865C14.5751 14.864 14.4227 14.8286 14.274 14.7807C13.7489 14.6103 13.2676 14.3269 12.8639 13.9505C12.7514 13.8085 12.6577 13.6526 12.5851 13.4866C12.4648 13.1724 12.2519 12.902 11.9747 12.7114L7.68739 10.2371C7.48879 10.1046 7.32343 9.92808 7.20415 9.72128C7.08486 9.51448 7.01488 9.28295 6.99964 9.0447V6.82884C6.99091 6.76414 6.99906 6.69829 7.02331 6.63768C7.04755 6.57706 7.08707 6.52375 7.13801 6.48292C7.19913 6.45949 7.26523 6.45206 7.33003 6.46131C7.39484 6.47057 7.45621 6.49622 7.50833 6.53583L8.9693 7.38026C9.01672 7.26968 9.07828 7.16572 9.15243 7.07097L7.68739 6.22451C7.58505 6.142 7.46006 6.09252 7.32898 6.0826C7.19789 6.07268 7.06689 6.1028 6.9533 6.16897C6.8397 6.23514 6.74888 6.33424 6.69284 6.45316C6.63681 6.57208 6.6182 6.70521 6.63949 6.83494V6.82884Z" fill="black"/>
</g>
<path d="M9.76696 6.86955C9.69459 6.83473 9.61409 6.82031 9.53414 6.82784C9.45419 6.83537 9.37781 6.86456 9.31321 6.91228C9.12775 7.03301 8.97341 7.19582 8.86274 7.38746C8.75207 7.57909 8.6882 7.79415 8.67632 8.01512C8.66883 8.09366 8.68241 8.17277 8.71567 8.2443C8.74894 8.31583 8.80068 8.3772 8.86556 8.42208L19.0394 14.2965L19.9408 12.7338L9.76696 6.86955Z" fill="#37474F"/>
<path d="M19.487 13.5293L8.86145 7.39246C8.96762 7.1947 9.12326 7.02784 9.31317 6.90819C9.33555 6.89598 9.3559 6.88987 9.37625 6.8797L19.835 12.9189L19.487 13.5293Z" fill="#455A64"/>
<path d="M19.487 12.7887C19.8391 12.5852 20.126 12.75 20.126 13.157C20.1134 13.378 20.049 13.593 19.938 13.7846C19.827 13.9762 19.6725 14.139 19.487 14.2598C19.135 14.4633 18.8502 14.2985 18.8502 13.8915C18.8622 13.6706 18.9261 13.4556 19.0368 13.264C19.1474 13.0724 19.3017 12.9095 19.487 12.7887Z" fill="#263238"/>
<path d="M6.4584 6.98756V9.20139C6.47299 9.50312 6.55945 9.79699 6.71057 10.0585C6.8617 10.3201 7.07313 10.5418 7.32724 10.7051L11.6145 13.1814C11.8229 13.3411 11.9811 13.5572 12.0703 13.804C12.1558 13.9988 12.2667 14.1815 12.3999 14.3473C12.8473 14.773 13.3849 15.0923 13.9728 15.2813C14.1406 15.3362 14.3128 15.3764 14.4876 15.4013L14.6911 15.4298C15.1591 15.4929 15.741 15.5723 16.0829 15.7696L21.1027 18.6651C21.2337 18.7467 21.3839 18.7923 21.5381 18.7974C21.6415 18.7981 21.7433 18.7714 21.8331 18.7201C21.9401 18.6485 22.026 18.5497 22.0818 18.4337C22.1376 18.3178 22.1614 18.189 22.1506 18.0608V15.8449C22.1365 15.5431 22.0502 15.249 21.899 14.9874C21.7479 14.7258 21.5362 14.5042 21.2817 14.3412L19.5969 13.3686C19.5889 13.3666 19.5805 13.3666 19.5725 13.3686C19.5331 13.3532 19.4894 13.3524 19.4494 13.3664C19.4094 13.3804 19.3758 13.4083 19.3547 13.445C19.3335 13.4816 19.3262 13.5247 19.334 13.5663C19.3419 13.6079 19.3644 13.6454 19.3975 13.6718C19.4021 13.6787 19.4084 13.6844 19.4158 13.6881L21.1027 14.6607C21.3013 14.7932 21.4666 14.9697 21.5859 15.1765C21.7052 15.3833 21.7752 15.6148 21.7904 15.8531V18.0689C21.8104 18.1341 21.8076 18.2041 21.7826 18.2676C21.7576 18.331 21.7118 18.384 21.6528 18.418C21.5937 18.4521 21.5248 18.465 21.4574 18.4549C21.39 18.4447 21.3281 18.4119 21.2817 18.3619L16.2762 15.4543C15.8692 15.2223 15.2588 15.1368 14.7521 15.0717L14.5486 15.0432C14.394 15.0199 14.2416 14.9839 14.0929 14.9354C13.5674 14.7666 13.0854 14.4846 12.6807 14.1093C12.5683 13.9672 12.4746 13.8113 12.402 13.6453C12.2822 13.3308 12.0692 13.0603 11.7915 12.8701L7.5063 10.3938C7.30749 10.2615 7.14195 10.0851 7.02265 9.8782C6.90334 9.67136 6.83348 9.43971 6.81855 9.20139V6.98756C6.81005 6.92258 6.81831 6.8565 6.84252 6.79561C6.86674 6.73471 6.90611 6.68101 6.95691 6.63961C7.01814 6.61607 7.08441 6.60876 7.1493 6.61838C7.21418 6.62801 7.27548 6.65425 7.32724 6.69455L8.78821 7.53695C8.83641 7.42677 8.89791 7.32291 8.97133 7.22766L7.5063 6.38323C7.40396 6.30072 7.27897 6.25124 7.14789 6.24132C7.0168 6.2314 6.88579 6.26152 6.7722 6.32769C6.65861 6.39386 6.56778 6.49297 6.51175 6.61189C6.45571 6.73081 6.43711 6.86394 6.4584 6.99366V6.98756Z" fill="#455A64"/>
</svg>
