<svg width="52" height="64" viewBox="0 0 52 64" fill="none" xmlns="http://www.w3.org/2000/svg">
<path d="M44.5481 51.2963L45.8409 50.5495C45.8838 50.5349 45.9212 50.5073 45.9476 50.4704C45.974 50.4335 45.9882 50.3893 45.9882 50.3439C45.9882 50.2986 45.974 50.2543 45.9476 50.2175C45.9212 50.1806 45.8838 50.1529 45.8409 50.1383L32.5181 42.449C32.4077 42.393 32.2857 42.3639 32.162 42.3639C32.0383 42.3639 31.9163 42.393 31.8059 42.449L30.5131 43.1957C30.4701 43.2103 30.4328 43.2379 30.4064 43.2748C30.3799 43.3117 30.3657 43.3559 30.3657 43.4013C30.3657 43.4467 30.3799 43.4909 30.4064 43.5278C30.4328 43.5646 30.4701 43.5923 30.5131 43.6069L43.8359 51.2963C43.9462 51.3522 44.0682 51.3813 44.192 51.3813C44.3157 51.3813 44.4377 51.3522 44.5481 51.2963Z" fill="#E0E0E0"/>
<path d="M18.3894 51.9016C25.2786 51.9016 30.8634 48.6776 30.8634 44.7007C30.8634 40.7237 25.2786 37.4998 18.3894 37.4998C11.5001 37.4998 5.9153 40.7237 5.9153 44.7007C5.9153 48.6776 11.5001 51.9016 18.3894 51.9016Z" fill="#E0E0E0"/>
<path d="M30.0805 59.8459C33.8131 59.8459 36.839 58.0991 36.839 55.9444C36.839 53.7897 33.8131 52.043 30.0805 52.043C26.3479 52.043 23.3221 53.7897 23.3221 55.9444C23.3221 58.0991 26.3479 59.8459 30.0805 59.8459Z" fill="#E0E0E0"/>
<path d="M13.0882 59.6419C11.7724 58.8804 9.63417 58.8804 8.30848 59.6419C7.78708 59.9446 7.47457 60.3196 7.36601 60.7094C6.10446 61.4742 6.12255 62.6831 7.42194 63.4332C8.72132 64.1832 10.876 64.1947 12.2 63.4332C12.7231 63.1322 13.0339 62.7571 13.1442 62.3657C14.4041 61.6009 14.3876 60.3936 13.0882 59.6419Z" fill="#E0E0E0"/>
<path d="M23.4027 61.392L22.2217 60.711L20.595 59.7719C20.2462 59.5946 19.8605 59.5022 19.4692 59.5022C19.0779 59.5022 18.6921 59.5946 18.3433 59.7719C17.7232 60.1304 17.7265 60.7127 18.3433 61.0712L19.9733 62.0088L21.1526 62.6914C21.5014 62.8686 21.8872 62.961 22.2785 62.961C22.6698 62.961 23.0555 62.8686 23.4043 62.6914C24.0293 62.3312 24.0261 61.7489 23.4027 61.392Z" fill="#E0E0E0"/>
<path d="M38.0775 57.0053L39.2601 56.3244L40.8868 55.3836C41.2359 55.2072 41.6215 55.1153 42.0126 55.1153C42.4038 55.1153 42.7894 55.2072 43.1385 55.3836C43.7586 55.7438 43.7553 56.326 43.1385 56.6846L41.5085 57.6221L40.3243 58.3113C39.9754 58.4885 39.5897 58.5809 39.1984 58.5809C38.8071 58.5809 38.4214 58.4885 38.0725 58.3113C37.4525 57.9445 37.4541 57.3622 38.0775 57.0053Z" fill="#E0E0E0"/>
<path d="M30.7203 4.97905L31.7977 5.60078C31.7925 5.55325 31.7897 5.50549 31.7895 5.45768V5.14682C31.7895 4.59088 32.1793 4.36554 32.6612 4.64351C32.8671 4.76915 33.0438 4.93739 33.1793 5.13695C33.2583 4.43956 33.806 4.17804 34.4721 4.56292C34.8535 4.81063 35.1709 5.14515 35.3982 5.5391C35.6255 5.93305 35.7562 6.37523 35.7797 6.82944V7.29656C35.7846 7.48296 35.7469 7.66803 35.6695 7.83769L36.5659 8.35415C36.7066 8.44579 36.8236 8.56942 36.9074 8.71492C36.9911 8.86043 37.0393 9.02368 37.0478 9.19135C37.0478 9.49893 36.8324 9.62393 36.5659 9.46932L30.7203 6.09422C30.5797 6.00282 30.4626 5.87952 30.3785 5.73433C30.2945 5.58914 30.2459 5.42616 30.2368 5.25866C30.2417 4.94944 30.4588 4.82444 30.7203 4.97905Z" fill="#EBEBEB"/>
<path d="M37.8489 2.11711L38.4508 2.34573V1.0299C38.4508 -0.00795982 39.2732 -0.256323 40.1779 0.261785C41.0759 0.781538 41.8046 2.04474 41.8046 3.0826V3.27668C41.9313 3.23778 42.0652 3.22808 42.1963 3.2483C42.3273 3.26852 42.452 3.31815 42.5612 3.39346C42.902 3.61605 43.1857 3.91579 43.3891 4.26841C43.5926 4.62104 43.7101 5.01662 43.7323 5.42313V5.51359L44.5546 5.99223C44.7785 6.13811 44.9649 6.33453 45.0988 6.56566C45.2328 6.79678 45.3107 7.05615 45.326 7.32286C45.326 7.8163 44.9806 8.01367 44.5546 7.76695L37.8489 3.89841C37.6244 3.75168 37.4376 3.55418 37.3036 3.32187C37.1695 3.08957 37.0921 2.82899 37.0774 2.5612C37.0774 2.06941 37.4229 1.87039 37.8489 2.11711Z" fill="#EBEBEB"/>
<path d="M45.4478 47.9491C44.9543 45.2435 45.7373 42.4457 46.6501 40.8848C47.563 39.3239 49.1683 38.0459 50.4775 38.2893C51.698 38.5163 51.7934 40.0591 50.5335 41.2746C49.2736 42.4901 47.0449 44.8175 46.4379 46.4063C46.0333 47.4639 45.8031 48.1547 45.8031 48.1547L45.4478 47.9491Z" fill="#16BF78"/>
<path opacity="0.15" d="M45.4478 47.9491C44.9543 45.2435 45.7373 42.4457 46.6501 40.8848C47.563 39.3239 49.1683 38.0459 50.4775 38.2893C51.698 38.5163 51.7934 40.0591 50.5335 41.2746C49.2736 42.4901 47.0449 44.8175 46.4379 46.4063C46.0333 47.4639 45.8031 48.1547 45.8031 48.1547L45.4478 47.9491Z" fill="black"/>
<path d="M45.5794 47.3406C45.5964 47.3367 45.6117 47.3274 45.623 47.314C45.6343 47.3007 45.6409 47.284 45.6419 47.2666C45.8244 43.4835 48.3591 40.0673 50.04 39.1462C50.0569 39.1354 50.069 39.1187 50.0739 39.0993C50.0789 39.0799 50.0763 39.0594 50.0667 39.0418C50.0571 39.0243 50.0412 39.0111 50.0222 39.0048C50.0032 38.9985 49.9825 38.9997 49.9644 39.0081C48.2505 39.9456 45.6682 43.4227 45.4823 47.2583C45.4814 47.2794 45.4888 47.3001 45.503 47.3158C45.5171 47.3314 45.5369 47.3409 45.558 47.3422L45.5794 47.3406Z" fill="white"/>
<path d="M45.5004 49.7962C45.5843 49.1663 46.3228 48.436 47.3936 47.436C48.5827 46.3307 50.1897 45.6662 50.4759 44.8997C50.8131 43.9786 49.9825 43.2779 48.6436 43.6464C47.3048 44.0148 45.1896 46.2155 45.2208 49.061L45.5004 49.7962Z" fill="#16BF78"/>
<path d="M45.2866 49.5758C45.3018 49.5726 45.3156 49.5649 45.3264 49.5538C45.3373 49.5426 45.3446 49.5286 45.3475 49.5133C46.0054 46.2024 48.2521 44.7434 49.3426 44.4392C49.3629 44.4335 49.3801 44.42 49.3905 44.4016C49.4008 44.3833 49.4034 44.3616 49.3977 44.3413C49.3921 44.321 49.3786 44.3038 49.3602 44.2935C49.3419 44.2831 49.3202 44.2805 49.2999 44.2862C48.0926 44.625 45.8705 46.0955 45.1879 49.4821C45.184 49.5028 45.1884 49.5242 45.2001 49.5417C45.2117 49.5592 45.2298 49.5715 45.2504 49.5758C45.2623 49.5788 45.2747 49.5788 45.2866 49.5758Z" fill="white"/>
<path d="M7.74371 40.4805C7.74371 40.4805 7.47397 38.1663 6.31768 36.3685C5.1614 34.5708 3.57418 33.4622 2.10538 33.3487C0.636585 33.2352 -0.559176 34.5987 1.02311 35.5264C2.6054 36.4541 5.40647 37.3998 6.71079 40.8851L7.74371 40.4805Z" fill="#16BF78"/>
<path opacity="0.15" d="M7.74371 40.4805C7.74371 40.4805 7.47397 38.1663 6.31768 36.3685C5.1614 34.5708 3.57418 33.4622 2.10538 33.3487C0.636585 33.2352 -0.559176 34.5987 1.02311 35.5264C2.6054 36.4541 5.40647 37.3998 6.71079 40.8851L7.74371 40.4805Z" fill="black"/>
<path d="M7.30948 39.8801H7.32429C7.33407 39.8763 7.343 39.8706 7.35055 39.8633C7.3581 39.856 7.36411 39.8473 7.36825 39.8376C7.37238 39.828 7.37455 39.8176 7.37463 39.8071C7.37471 39.7966 7.37269 39.7862 7.3687 39.7765C5.79957 35.9441 2.82744 34.3487 1.47542 34.0428C1.46491 34.0391 1.45373 34.0376 1.44262 34.0385C1.43151 34.0395 1.42073 34.0427 1.41097 34.0481C1.40121 34.0535 1.39271 34.0609 1.38601 34.0698C1.37932 34.0787 1.37459 34.089 1.37214 34.0998C1.36968 34.1107 1.36956 34.122 1.37177 34.1329C1.37398 34.1438 1.37849 34.1542 1.38498 34.1632C1.39147 34.1723 1.39981 34.1799 1.40945 34.1855C1.41908 34.1911 1.4298 34.1946 1.44088 34.1957C2.75671 34.4967 5.67785 36.0642 7.22231 39.8357C7.22949 39.852 7.24209 39.8654 7.25798 39.8735C7.27387 39.8815 7.29206 39.8839 7.30948 39.8801Z" fill="white"/>
<path d="M5.45416 45.2405C5.5725 45.5641 5.78885 45.8428 6.07306 46.0377C6.35727 46.2326 6.69518 46.3339 7.03973 46.3277C7.30219 46.3388 7.55891 46.2488 7.75686 46.076C8.11213 45.7339 8.05621 45.1599 8.2322 44.6994C8.46905 44.0793 9.10394 43.6648 9.18453 42.9789C9.20216 42.8393 9.19143 42.6976 9.153 42.5622C9.11456 42.4268 9.0492 42.3006 8.96084 42.1911C8.8646 42.089 8.76127 41.994 8.65162 41.9065C8.53155 41.7996 8.39833 41.7091 8.27332 41.6104C8.09346 41.4852 7.94945 41.3151 7.85555 41.117C7.73877 40.8325 7.80291 40.5117 7.76837 40.2074C7.73038 39.9017 7.5929 39.6169 7.37712 39.397C7.16134 39.177 6.87924 39.0341 6.57426 38.9903C6.26725 38.9429 5.95723 38.9176 5.6466 38.9146C5.18606 38.9146 4.70413 39.0939 4.24524 38.9952C3.78634 38.8965 3.37843 38.7058 2.91296 38.6663C2.66855 38.6328 2.41973 38.6552 2.18525 38.7318C1.95077 38.8085 1.73674 38.9374 1.5593 39.1087C1.45769 39.2073 1.3819 39.3294 1.33859 39.4642C1.29528 39.599 1.28578 39.7424 1.31094 39.8818C1.38824 40.1828 1.67114 40.3752 1.93596 40.5397C2.20077 40.7042 2.49025 40.8769 2.59387 41.168C2.81427 41.7552 2.17938 42.423 2.42939 43.0003C2.48947 43.1184 2.57294 43.223 2.67474 43.3079C2.77653 43.3927 2.89451 43.4559 3.02151 43.4937C3.22711 43.5677 3.44258 43.6039 3.65476 43.6582C3.7578 43.6731 3.86158 43.6824 3.96562 43.6862C4.27429 43.6694 4.57994 43.7543 4.83572 43.928C5.23046 44.2224 5.26501 44.7816 5.45416 45.2405Z" fill="#16BF78"/>
<path d="M6.6154 41.5184C6.60942 41.5077 6.60095 41.4987 6.59073 41.492C5.07917 39.913 2.99851 39.367 2.31428 39.3176C2.29561 39.3167 2.27731 39.323 2.26321 39.3353C2.24911 39.3476 2.24029 39.3648 2.23862 39.3834C2.23771 39.4019 2.2441 39.42 2.2564 39.4339C2.2687 39.4477 2.28594 39.4562 2.30441 39.4574C2.95081 39.5035 4.8785 40.0051 6.34401 41.441C5.82133 41.3484 5.28513 41.3648 4.76911 41.4894C4.2531 41.6139 3.76843 41.8439 3.34556 42.1648C3.339 42.1712 3.33378 42.1789 3.33022 42.1873C3.32666 42.1958 3.32483 42.2049 3.32483 42.2141C3.32483 42.2233 3.32666 42.2324 3.33022 42.2409C3.33378 42.2493 3.339 42.257 3.34556 42.2634C3.35295 42.2722 3.36235 42.279 3.37295 42.2833C3.38355 42.2876 3.39503 42.2892 3.40642 42.2881C3.42051 42.2859 3.43364 42.2796 3.44425 42.27C3.87827 41.9421 4.37886 41.7133 4.91081 41.5996C5.44277 41.486 5.99316 41.4902 6.52329 41.6121C7.4076 42.5452 7.96018 43.7434 8.09571 45.0218C8.09813 45.039 8.10687 45.0548 8.12023 45.0661C8.13359 45.0773 8.15063 45.0832 8.16808 45.0826C8.18657 45.0805 8.2035 45.0713 8.2152 45.0568C8.2269 45.0423 8.23243 45.0238 8.23058 45.0053C8.09009 43.697 7.52243 42.4715 6.6154 41.5184Z" fill="white"/>
<path d="M45.5596 49.4294V24.8974C45.5378 24.502 45.4233 24.1174 45.2253 23.7745C45.0272 23.4316 44.7513 23.1401 44.4198 22.9237L32.7961 16.2047C32.1661 15.8412 31.6546 16.1356 31.6546 16.8626V41.4078C31.6764 41.8033 31.7912 42.1881 31.9895 42.531C32.1878 42.874 32.4641 43.1653 32.7961 43.3815L44.4198 50.0873C45.0497 50.4574 45.5596 50.163 45.5596 49.4294Z" fill="#E0E0E0"/>
<path d="M45.03 49.7452V25.2066C45.0087 24.8111 44.8944 24.4263 44.6963 24.0833C44.4983 23.7403 44.222 23.449 43.8901 23.2329L32.2664 16.5205C31.6365 16.157 31.1249 16.4514 31.1249 17.1784V41.717C31.1468 42.1125 31.2615 42.4973 31.4599 42.8403C31.6582 43.1832 31.9345 43.4745 32.2664 43.6907L43.8786 50.4031C44.5152 50.7666 45.03 50.4722 45.03 49.7452Z" fill="#F5F5F5"/>
<path d="M43.8786 23.2329L33.3964 17.1801C36.51 19.1916 42.7717 22.8135 43.5546 23.4302C44.3375 24.047 44.7421 24.45 44.7421 26.4402C44.7421 28.4304 45.03 48.3932 45.03 48.3932V25.2017C45.0067 24.806 44.8902 24.4215 44.6902 24.0794C44.4901 23.7372 44.212 23.4472 43.8786 23.2329Z" fill="#FAFAFA"/>
<path d="M37.6712 20.82C37.7123 20.8478 37.7463 20.8849 37.7703 20.9284C37.7943 20.9718 37.8077 21.0204 37.8094 21.07V45.5296C37.8094 45.6234 37.7485 45.6629 37.6712 45.6201C37.6305 45.5919 37.597 45.5547 37.5733 45.5113C37.5496 45.4678 37.5364 45.4195 37.5347 45.3701V20.9104C37.5347 20.8101 37.5955 20.7772 37.6712 20.82Z" fill="#E0E0E0"/>
<g style="mix-blend-mode:hard-light" opacity="0.7">
<path d="M36.4771 41.2285C36.4772 41.1508 36.4706 41.0732 36.4574 40.9966C36.4574 40.9785 36.4458 40.9209 36.4426 40.9094C36.2967 40.2588 35.8985 39.6927 35.3356 39.3354L33.3388 38.184L33.3207 38.1758C33.1054 38.0379 32.857 37.9605 32.6014 37.9518C32.3459 37.943 32.0927 38.0032 31.8685 38.126C31.6442 38.2488 31.4571 38.4297 31.3269 38.6497C31.1966 38.8698 31.128 39.1208 31.1282 39.3765C31.1287 39.4543 31.1358 39.5318 31.1496 39.6084C31.1536 39.6377 31.1591 39.6668 31.1661 39.6956C31.3106 40.3454 31.7069 40.9115 32.2681 41.2696L34.2665 42.421L34.2829 42.4292C34.4983 42.5675 34.7469 42.6452 35.0027 42.6542C35.2585 42.6632 35.512 42.6031 35.7365 42.4803C35.961 42.3574 36.1483 42.1763 36.2786 41.956C36.4089 41.7358 36.4775 41.4844 36.4771 41.2285Z" fill="#FAFAFA"/>
</g>
<path d="M32.1891 38.758C32.1891 39.4406 32.7007 40.2877 33.3306 40.6512L35.3274 41.8025C35.9573 42.166 36.4689 41.9078 36.4689 41.2252C36.4689 40.5426 35.9573 39.6956 35.3274 39.3321L33.3306 38.1807C32.6941 37.8189 32.1891 38.0804 32.1891 38.758Z" fill="#E0E0E0"/>
<path d="M32.4868 37.9521C32.1194 37.9669 31.772 38.1233 31.5172 38.3885C31.2625 38.6537 31.1201 39.0071 31.12 39.3748C31.1205 39.4526 31.1276 39.5302 31.1414 39.6067C31.1454 39.6361 31.1509 39.6652 31.1579 39.6939C31.2851 40.2514 31.594 40.7508 32.0362 41.1134C31.4852 40.3502 31.1743 39.8633 31.3075 39.1067C31.3626 38.8168 31.5051 38.5508 31.716 38.3443C31.9268 38.1379 32.1959 38.001 32.4868 37.9521Z" fill="white"/>
<path d="M33.4359 41.5098C33.3512 41.4491 33.284 41.367 33.2413 41.272C33.1985 41.1769 33.1817 41.0723 33.1924 40.9686C33.2081 40.6793 33.2917 40.3977 33.4366 40.1468C33.5815 39.8959 33.7836 39.6827 34.0264 39.5245C34.1107 39.4631 34.2098 39.4252 34.3136 39.4148C34.4173 39.4044 34.522 39.4218 34.6168 39.4653L35.6892 40.087C35.9606 40.2443 36.1583 40.5029 36.239 40.8059C36.3196 41.109 36.2766 41.4317 36.1193 41.703C35.9621 41.9743 35.7035 42.1721 35.4004 42.2528C35.0974 42.3334 34.7747 42.2904 34.5033 42.1331L33.4359 41.5098Z" fill="#F5F5F5"/>
<path d="M31.9572 40.6545C31.6924 40.4943 31.501 40.2367 31.424 39.9369C31.347 39.6372 31.3905 39.3192 31.5453 39.0512C31.7001 38.7832 31.9537 38.5866 32.2518 38.5035C32.5499 38.4204 32.8687 38.4575 33.1398 38.6067L34.6201 39.4653C34.5253 39.4218 34.4206 39.4044 34.3169 39.4148C34.2131 39.4252 34.1139 39.4631 34.0297 39.5245C33.7869 39.6827 33.5848 39.8959 33.4399 40.1468C33.295 40.3977 33.2114 40.6793 33.1957 40.9686C33.185 41.0723 33.2018 41.177 33.2446 41.272C33.2873 41.367 33.3545 41.4491 33.4392 41.5098L31.9572 40.6545Z" fill="#FBDB35"/>
<path opacity="0.4" d="M32.2237 38.9209C32.1639 39.0245 32.1477 39.1476 32.1785 39.2632C32.2094 39.3788 32.2847 39.4775 32.3882 39.5377L34.1744 40.5739C34.325 40.3252 34.4093 40.0421 34.4195 39.7515C34.4195 39.7219 34.4195 39.6956 34.4195 39.6693L32.8438 38.7548C32.7922 38.7245 32.7352 38.7048 32.676 38.6968C32.6168 38.6888 32.5567 38.6926 32.499 38.7081C32.4413 38.7235 32.3872 38.7503 32.34 38.7868C32.2927 38.8234 32.2532 38.8689 32.2237 38.9209Z" fill="white"/>
<path d="M33.4359 41.5098C33.3512 41.4491 33.284 41.367 33.2413 41.272C33.1985 41.1769 33.1817 41.0723 33.1924 40.9686C33.2081 40.6793 33.2917 40.3977 33.4366 40.1468C33.5815 39.8959 33.7836 39.6827 34.0264 39.5245C34.1107 39.4631 34.2098 39.4252 34.3136 39.4148C34.4173 39.4044 34.522 39.4218 34.6168 39.4653L35.6892 40.087C35.9606 40.2443 36.1583 40.5029 36.239 40.8059C36.3196 41.109 36.2766 41.4317 36.1193 41.703C35.9621 41.9743 35.7035 42.1721 35.4004 42.2528C35.0974 42.3334 34.7747 42.2904 34.5033 42.1331L33.4359 41.5098Z" fill="#F5F5F5"/>
<path opacity="0.1" d="M34.0264 39.5245C33.7836 39.6827 33.5815 39.8959 33.4366 40.1468C33.2917 40.3977 33.2081 40.6793 33.1925 40.9686C33.1817 41.0723 33.1985 41.177 33.2413 41.272C33.284 41.367 33.3512 41.4491 33.4359 41.5098L33.352 41.4604L33.2878 41.4242C33.2029 41.3638 33.1355 41.2818 33.0928 41.1867C33.05 41.0916 33.0333 40.9868 33.0444 40.8831C33.0601 40.5938 33.1437 40.3122 33.2886 40.0613C33.4335 39.8103 33.6356 39.5971 33.8783 39.439C33.9626 39.3776 34.0618 39.3397 34.1655 39.3293C34.2693 39.3189 34.374 39.3363 34.4688 39.3798L34.6168 39.4653C34.522 39.4218 34.4173 39.4044 34.3136 39.4148C34.2098 39.4252 34.1107 39.4631 34.0264 39.5245Z" fill="black"/>
<path d="M36.2715 40.9851C36.2959 41.2022 36.2596 41.422 36.1664 41.6197C36.0733 41.8174 35.927 41.9853 35.7439 42.1047C35.5609 42.2241 35.3483 42.2903 35.1298 42.2959C34.9113 42.3015 34.6956 42.2463 34.5066 42.1364L33.4359 41.513C33.3512 41.4523 33.284 41.3703 33.2413 41.2753C33.1985 41.1802 33.1817 41.0756 33.1924 40.9719C33.1936 40.8501 33.2107 40.729 33.2434 40.6117L35.0346 41.6479C35.6235 41.9834 36.2649 41.3699 36.2715 40.9851Z" fill="#E0E0E0"/>
<path d="M35.8636 41.0295C35.834 41.0808 35.7945 41.1259 35.7474 41.1619C35.7004 41.198 35.6466 41.2245 35.5893 41.2397C35.532 41.255 35.4723 41.2588 35.4135 41.251C35.3547 41.2431 35.2981 41.2237 35.2468 41.1939L33.4375 40.1462C33.5783 39.8917 33.7815 39.6772 34.028 39.5228C34.0514 39.509 34.0756 39.4963 34.1004 39.485L35.7008 40.411C35.8043 40.4715 35.8797 40.5706 35.9102 40.6865C35.9408 40.8025 35.924 40.9259 35.8636 41.0295Z" fill="white"/>
<path opacity="0.1" d="M31.6085 38.9159C31.6217 38.8978 31.6365 38.8814 31.6513 38.8633L31.6825 38.8271C31.694 38.814 31.7072 38.8024 31.7204 38.7893L31.7598 38.7498L31.7829 38.7317C31.8451 38.6785 31.9129 38.6321 31.9852 38.5936L32.0658 38.5541C31.7368 38.7547 31.5246 39.615 32.1135 39.9554C32.3141 40.0722 32.6151 40.2515 33.2385 40.6133C33.2058 40.7307 33.1887 40.8518 33.1875 40.9736C33.1767 41.0772 33.1936 41.1819 33.2363 41.2769C33.2791 41.372 33.3462 41.454 33.4309 41.5147L31.9506 40.6594C31.6795 40.5022 31.4817 40.244 31.4006 39.9412C31.3195 39.6384 31.3617 39.3159 31.5181 39.0442C31.5378 39.013 31.5575 38.9817 31.5789 38.9521L31.6085 38.9159Z" fill="black"/>
<g style="mix-blend-mode:hard-light" opacity="0.7">
<path d="M43.9543 45.5115C43.9541 45.4339 43.9481 45.3563 43.9362 45.2796C43.9362 45.2615 43.923 45.2039 43.9198 45.1924C43.7746 44.5419 43.377 43.9758 42.8145 43.6184L40.816 42.467L40.7979 42.4588C40.5826 42.3209 40.3342 42.2435 40.0786 42.2348C39.8231 42.226 39.5699 42.2862 39.3457 42.409C39.1214 42.5318 38.9343 42.7127 38.8041 42.9328C38.6739 43.1528 38.6052 43.4038 38.6054 43.6595C38.6059 43.7373 38.613 43.8149 38.6268 43.8914C38.6268 43.9079 38.6383 43.9523 38.6433 43.9786C38.7875 44.6286 39.1838 45.1948 39.7453 45.5526L41.7437 46.704H41.7602C41.9755 46.8423 42.2241 46.92 42.4799 46.929C42.7357 46.938 42.9892 46.8779 43.2137 46.7551C43.4382 46.6322 43.6255 46.4511 43.7558 46.2308C43.8861 46.0106 43.9547 45.7592 43.9543 45.5033V45.5115Z" fill="#FAFAFA"/>
</g>
<path d="M39.6762 43.0411C39.6762 43.7236 40.1861 44.5724 40.816 44.9359L42.8145 46.0872C43.4428 46.4507 43.9543 46.1925 43.9543 45.5099C43.9543 44.8273 43.4428 43.9802 42.8145 43.6167L40.816 42.4654C40.1861 42.1019 39.6762 42.3568 39.6762 43.0411Z" fill="#E0E0E0"/>
<path d="M39.9723 42.2351C39.605 42.2504 39.2578 42.4069 39.0031 42.672C38.7484 42.9371 38.606 43.2902 38.6054 43.6578C38.6059 43.7356 38.613 43.8132 38.6268 43.8898C38.6268 43.9062 38.6383 43.9506 38.6433 43.9769C38.7705 44.5344 39.0795 45.0338 39.5216 45.3964C38.9722 44.6332 38.6597 44.1464 38.7929 43.3914C38.8482 43.1014 38.9907 42.8352 39.2015 42.6285C39.4123 42.4219 39.6812 42.2846 39.9723 42.2351Z" fill="white"/>
<path d="M40.918 45.7928C40.8334 45.7324 40.7663 45.6506 40.7236 45.5559C40.6808 45.4611 40.6639 45.3567 40.6746 45.2533C40.6902 44.9637 40.7739 44.682 40.9188 44.4308C41.0636 44.1796 41.2657 43.9661 41.5085 43.8075C41.5928 43.7461 41.6919 43.7083 41.7957 43.6978C41.8995 43.6874 42.0042 43.7049 42.099 43.7483L43.1714 44.3701C43.3057 44.4477 43.4235 44.5511 43.5179 44.6742C43.6123 44.7974 43.6815 44.9379 43.7216 45.0878C43.7617 45.2377 43.7719 45.3941 43.7515 45.5479C43.7312 45.7017 43.6808 45.8501 43.6031 45.9844C43.5255 46.1188 43.4221 46.2365 43.299 46.3309C43.1758 46.4253 43.0353 46.4945 42.8854 46.5346C42.7355 46.5747 42.5791 46.5849 42.4253 46.5646C42.2714 46.5442 42.1231 46.4938 41.9888 46.4162L40.918 45.7928Z" fill="#F5F5F5"/>
<path d="M39.4377 44.9375C39.1664 44.7807 38.9684 44.5225 38.8875 44.2197C38.8065 43.917 38.8491 43.5945 39.0059 43.3231C39.1628 43.0518 39.4209 42.8539 39.7237 42.7729C40.0264 42.6919 40.349 42.7346 40.6203 42.8914L42.1006 43.7483C42.0058 43.7048 41.9011 43.6874 41.7973 43.6978C41.6935 43.7082 41.5944 43.7461 41.5101 43.8075C41.2673 43.966 41.0653 44.1796 40.9204 44.4308C40.7755 44.6819 40.6919 44.9637 40.6762 45.2533C40.6656 45.3567 40.6825 45.4611 40.7252 45.5558C40.768 45.6506 40.8351 45.7324 40.9196 45.7928L39.4377 44.9375Z" fill="#FBDB35"/>
<path opacity="0.4" d="M39.7091 43.2039C39.6793 43.2552 39.6599 43.3118 39.6521 43.3706C39.6442 43.4294 39.648 43.4891 39.6633 43.5464C39.6786 43.6037 39.705 43.6574 39.7411 43.7045C39.7772 43.7516 39.8222 43.791 39.8736 43.8207L41.6598 44.8585C41.8099 44.6096 41.8943 44.3266 41.9049 44.0361C41.9049 44.0082 41.9049 43.9802 41.9049 43.9539L40.3292 43.0394C40.2778 43.0091 40.2208 42.9893 40.1617 42.9812C40.1026 42.973 40.0424 42.9767 39.9848 42.992C39.9271 43.0073 39.873 43.0339 39.8257 43.0703C39.7783 43.1067 39.7387 43.1521 39.7091 43.2039Z" fill="white"/>
<path d="M40.918 45.7928C40.8334 45.7324 40.7663 45.6506 40.7236 45.5559C40.6808 45.4611 40.6639 45.3567 40.6746 45.2533C40.6902 44.9637 40.7739 44.682 40.9188 44.4308C41.0636 44.1796 41.2657 43.9661 41.5085 43.8075C41.5928 43.7461 41.6919 43.7083 41.7957 43.6978C41.8995 43.6874 42.0042 43.7049 42.099 43.7483L43.1714 44.3701C43.3057 44.4477 43.4235 44.5511 43.5179 44.6742C43.6123 44.7974 43.6815 44.9379 43.7216 45.0878C43.7617 45.2377 43.7719 45.3941 43.7515 45.5479C43.7312 45.7017 43.6808 45.8501 43.6031 45.9844C43.5255 46.1188 43.4221 46.2365 43.299 46.3309C43.1758 46.4253 43.0353 46.4945 42.8854 46.5346C42.7355 46.5747 42.5791 46.5849 42.4253 46.5646C42.2714 46.5442 42.1231 46.4938 41.9888 46.4162L40.918 45.7928Z" fill="#F5F5F5"/>
<path opacity="0.1" d="M41.5118 43.8075C41.269 43.966 41.0669 44.1796 40.9221 44.4308C40.7772 44.6819 40.6935 44.9637 40.6779 45.2533C40.6672 45.3567 40.6841 45.4611 40.7269 45.5559C40.7696 45.6506 40.8367 45.7324 40.9213 45.7928L40.8374 45.7451L40.7733 45.7073C40.6884 45.6471 40.6212 45.5654 40.5784 45.4705C40.5356 45.3757 40.5188 45.2712 40.5299 45.1678C40.5455 44.8782 40.6291 44.5964 40.774 44.3452C40.9189 44.094 41.1209 43.8805 41.3638 43.722C41.4481 43.6606 41.5472 43.6227 41.651 43.6123C41.7547 43.6019 41.8594 43.6193 41.9542 43.6628L42.1023 43.7483C42.0075 43.7048 41.9028 43.6874 41.799 43.6978C41.6952 43.7082 41.5961 43.7461 41.5118 43.8075Z" fill="black"/>
<path d="M43.7569 45.2681C43.7814 45.4853 43.745 45.705 43.6518 45.9027C43.5587 46.1004 43.4124 46.2683 43.2294 46.3878C43.0463 46.5072 42.8337 46.5734 42.6152 46.579C42.3967 46.5846 42.181 46.5293 41.9921 46.4195L40.918 45.7928C40.8334 45.7324 40.7663 45.6506 40.7236 45.5559C40.6808 45.4611 40.6639 45.3567 40.6746 45.2533C40.6757 45.131 40.6929 45.0093 40.7256 44.8914C41.3522 45.2517 42.1171 45.6957 42.5167 45.9277C43.1089 46.2681 43.7503 45.6546 43.7569 45.2681Z" fill="#E0E0E0"/>
<path d="M43.349 45.3175C43.3194 45.3688 43.2799 45.4138 43.2328 45.4499C43.1858 45.486 43.1321 45.5124 43.0748 45.5277C43.0175 45.543 42.9577 45.5468 42.8989 45.539C42.8401 45.5311 42.7835 45.5117 42.7322 45.4819L40.923 44.4342C41.0637 44.1797 41.2669 43.9652 41.5134 43.8108C41.5381 43.796 41.5628 43.7845 41.5858 43.773L43.1862 44.699C43.2894 44.7598 43.3645 44.8589 43.395 44.9747C43.4255 45.0905 43.409 45.2137 43.349 45.3175Z" fill="white"/>
<path opacity="0.1" d="M39.094 43.2006C39.1073 43.1823 39.1216 43.1648 39.1367 43.148C39.1462 43.1352 39.1567 43.1231 39.168 43.1118L39.2058 43.0723C39.2187 43.0588 39.2324 43.0462 39.2469 43.0345C39.2547 43.0266 39.2636 43.02 39.2732 43.0147C39.3354 42.961 39.4033 42.9141 39.4755 42.8749C39.5002 42.8618 39.5265 42.8486 39.5545 42.8371C39.2255 43.0361 39.0134 43.898 39.6022 44.2368C39.8029 44.3536 40.1055 44.5329 40.7272 44.8947C40.6945 45.0126 40.6774 45.1343 40.6762 45.2566C40.6656 45.36 40.6825 45.4644 40.7252 45.5591C40.768 45.6539 40.8351 45.7356 40.9197 45.7961L39.4394 44.9408C39.1681 44.7836 38.9704 44.5252 38.8896 44.2224C38.8088 43.9195 38.8515 43.597 39.0084 43.3256C39.0266 43.2939 39.0464 43.2632 39.0676 43.2335L39.094 43.2006Z" fill="black"/>
<g style="mix-blend-mode:hard-light" opacity="0.7">
<path d="M36.4771 35.054C36.4772 34.9757 36.4706 34.8975 36.4574 34.8204C36.4574 34.804 36.4458 34.7447 36.4426 34.7349C36.3706 34.4124 36.2358 34.1072 36.0459 33.8369C35.8559 33.5665 35.6146 33.3362 35.3356 33.1592L33.3388 32.0078H33.3207C33.1054 31.8699 32.857 31.7926 32.6014 31.7838C32.3459 31.775 32.0927 31.8352 31.8685 31.958C31.6442 32.0808 31.4571 32.2618 31.3269 32.4818C31.1966 32.7018 31.128 32.9528 31.1282 33.2085C31.1287 33.2863 31.1358 33.3639 31.1496 33.4404C31.1533 33.4698 31.1588 33.4989 31.1661 33.5276C31.3105 34.1779 31.7068 34.7445 32.2681 35.1033L34.2665 36.2547H34.2829C34.4983 36.393 34.7469 36.4707 35.0027 36.4797C35.2585 36.4887 35.512 36.4286 35.7365 36.3057C35.961 36.1829 36.1483 36.0018 36.2786 35.7815C36.4089 35.5612 36.4775 35.3099 36.4771 35.054Z" fill="#FAFAFA"/>
</g>
<path d="M32.1891 32.5835C32.1891 33.2645 32.7007 34.1132 33.3306 34.4767L35.3274 35.628C35.9573 35.9915 36.4689 35.7333 36.4689 35.0523C36.4689 34.3714 35.9573 33.5227 35.3274 33.1575L33.3306 32.0062C32.6941 31.6427 32.1891 31.9009 32.1891 32.5835Z" fill="#E0E0E0"/>
<path d="M32.4868 31.7759C32.1196 31.7912 31.7724 31.9477 31.5177 32.2128C31.263 32.4779 31.1206 32.8311 31.12 33.1987C31.1205 33.2764 31.1276 33.354 31.1414 33.4306C31.1451 33.4599 31.1506 33.4891 31.1579 33.5177C31.2851 34.0752 31.594 34.5746 32.0362 34.9372C31.4852 34.174 31.1743 33.6872 31.3075 32.9322C31.3627 32.6422 31.5053 32.376 31.7161 32.1693C31.9269 31.9627 32.1958 31.8254 32.4868 31.7759Z" fill="white"/>
<path d="M33.4359 35.3336C33.3497 35.2736 33.2812 35.1915 33.2376 35.0961C33.1939 35.0006 33.1766 34.8952 33.1875 34.7908C33.2031 34.5012 33.2868 34.2194 33.4317 33.9682C33.5766 33.7171 33.7786 33.5035 34.0214 33.345C34.1058 33.2837 34.205 33.246 34.3088 33.2359C34.4126 33.2258 34.5173 33.2436 34.6119 33.2875L35.6843 33.9075C35.819 33.9851 35.937 34.0884 36.0318 34.2116C36.1265 34.3347 36.1961 34.4754 36.2365 34.6254C36.2769 34.7755 36.2873 34.932 36.2672 35.0861C36.2471 35.2402 36.1969 35.3889 36.1193 35.5235C36.0418 35.6582 35.9385 35.7763 35.8153 35.871C35.6921 35.9658 35.5515 36.0353 35.4014 36.0757C35.2514 36.1161 35.0948 36.1266 34.9407 36.1065C34.7866 36.0864 34.638 36.0361 34.5033 35.9586L33.4359 35.3336Z" fill="#F5F5F5"/>
<path d="M31.9572 34.4783C31.8229 34.4006 31.7051 34.2973 31.6107 34.1741C31.5163 34.051 31.4471 33.9104 31.407 33.7605C31.3669 33.6106 31.3567 33.4543 31.377 33.3005C31.3974 33.1466 31.4478 32.9983 31.5255 32.8639C31.6031 32.7296 31.7065 32.6118 31.8296 32.5174C31.9528 32.423 32.0933 32.3538 32.2432 32.3137C32.3931 32.2736 32.5495 32.2634 32.7033 32.2838C32.8571 32.3041 33.0055 32.3545 33.1398 32.4322L34.6201 33.2908C34.5255 33.2469 34.4209 33.2291 34.317 33.2392C34.2132 33.2493 34.114 33.287 34.0296 33.3483C33.7857 33.5056 33.5824 33.7182 33.436 33.9688C33.2897 34.2195 33.2046 34.5011 33.1875 34.7908C33.1767 34.8942 33.1935 34.9987 33.2363 35.0935C33.279 35.1882 33.3462 35.27 33.4309 35.3303L31.9572 34.4783Z" fill="#FBDB35"/>
<path opacity="0.4" d="M32.2237 32.7447C32.1639 32.8486 32.1476 32.9719 32.1784 33.0878C32.2092 33.2037 32.2846 33.3026 32.3881 33.3631L34.1744 34.3993C34.3248 34.1505 34.4091 33.8675 34.4195 33.5769C34.4195 33.549 34.4195 33.5227 34.4195 33.4963L32.8438 32.5818C32.7924 32.5515 32.7356 32.5316 32.6765 32.5233C32.6175 32.5151 32.5574 32.5186 32.4997 32.5338C32.442 32.5489 32.3879 32.5753 32.3405 32.6116C32.2932 32.6478 32.2534 32.693 32.2237 32.7447Z" fill="white"/>
<path d="M33.4359 35.3336C33.3497 35.2736 33.2812 35.1915 33.2376 35.0961C33.1939 35.0006 33.1766 34.8952 33.1875 34.7908C33.2031 34.5012 33.2868 34.2194 33.4317 33.9682C33.5766 33.7171 33.7786 33.5035 34.0214 33.345C34.1058 33.2837 34.205 33.246 34.3088 33.2359C34.4126 33.2258 34.5173 33.2436 34.6119 33.2875L35.6843 33.9075C35.819 33.9851 35.937 34.0884 36.0318 34.2116C36.1265 34.3347 36.1961 34.4754 36.2365 34.6254C36.2769 34.7755 36.2873 34.932 36.2672 35.0861C36.2471 35.2402 36.1969 35.3889 36.1193 35.5235C36.0418 35.6582 35.9385 35.7763 35.8153 35.871C35.6921 35.9658 35.5515 36.0353 35.4014 36.0757C35.2514 36.1161 35.0948 36.1266 34.9407 36.1065C34.7866 36.0864 34.638 36.0361 34.5033 35.9586L33.4359 35.3336Z" fill="#F5F5F5"/>
<path opacity="0.1" d="M34.0264 33.3483C33.7831 33.506 33.5803 33.7187 33.4346 33.9693C33.2889 34.22 33.2042 34.5014 33.1875 34.7908C33.1767 34.8942 33.1935 34.9987 33.2363 35.0935C33.2791 35.1883 33.3462 35.27 33.431 35.3303L33.352 35.2842L33.2879 35.2464C33.2029 35.1863 33.1355 35.1046 33.0927 35.0098C33.0499 34.9149 33.0333 34.8104 33.0444 34.7069C33.0601 34.4174 33.1437 34.1356 33.2886 33.8844C33.4335 33.6332 33.6355 33.4197 33.8783 33.2612C33.9627 33.1998 34.0619 33.1622 34.1657 33.1521C34.2695 33.1419 34.3742 33.1597 34.4688 33.2036L34.6168 33.2891C34.5221 33.2455 34.4174 33.228 34.3135 33.2384C34.2097 33.2488 34.1106 33.2868 34.0264 33.3483Z" fill="black"/>
<path d="M36.2715 34.8089C36.2959 35.0261 36.2596 35.2458 36.1664 35.4435C36.0733 35.6412 35.927 35.8091 35.7439 35.9286C35.5609 36.048 35.3483 36.1142 35.1298 36.1198C34.9113 36.1254 34.6956 36.0701 34.5066 35.9602L33.4359 35.3352C33.3495 35.2751 33.2808 35.1928 33.2371 35.097C33.1935 35.0013 33.1763 34.8955 33.1875 34.7908C33.1888 34.6685 33.2059 34.5469 33.2385 34.429L35.0297 35.4652C35.6234 35.8089 36.2649 35.1971 36.2715 34.8089Z" fill="#E0E0E0"/>
<path d="M35.8636 34.8549C35.8034 34.9584 35.7048 35.0337 35.5892 35.0645C35.4736 35.0954 35.3505 35.0791 35.2468 35.0194L33.4375 33.9717C33.5777 33.7163 33.781 33.5012 34.028 33.3467L34.1004 33.3088L35.7008 34.2349C35.8044 34.2956 35.8798 34.395 35.9103 34.5112C35.9409 34.6275 35.924 34.7511 35.8636 34.8549Z" fill="white"/>
<path opacity="0.1" d="M31.6085 32.7414C31.6218 32.7231 31.6361 32.7056 31.6513 32.6888C31.6608 32.676 31.6712 32.6639 31.6825 32.6526C31.6943 32.6392 31.7069 32.6265 31.7204 32.6148L31.7598 32.5753L31.7829 32.5572C31.845 32.5034 31.9129 32.4565 31.9852 32.4174L32.0658 32.3795C31.7368 32.5786 31.5246 33.4404 32.1135 33.7809C32.3141 33.896 32.6151 34.0753 33.2385 34.4388C33.2067 34.5535 33.1896 34.6718 33.1875 34.7908C33.1767 34.8942 33.1935 34.9987 33.2363 35.0935C33.279 35.1882 33.3462 35.27 33.4309 35.3303L31.9506 34.475C31.6796 34.3181 31.4818 34.0602 31.4007 33.7577C31.3196 33.4552 31.3618 33.1329 31.518 32.8615C31.5378 32.8286 31.5575 32.799 31.5789 32.7694C31.5879 32.7591 31.5978 32.7498 31.6085 32.7414Z" fill="black"/>
<g style="mix-blend-mode:hard-light" opacity="0.7">
<path d="M43.9543 39.337C43.9541 39.2588 43.9481 39.1807 43.9362 39.1035C43.9362 39.087 43.9231 39.0294 43.9198 39.0179C43.8481 38.6958 43.7135 38.3909 43.5239 38.1208C43.3342 37.8507 43.0931 37.6207 42.8145 37.4439L40.816 36.2925L40.798 36.2843C40.5824 36.1469 40.3339 36.07 40.0784 36.0616C39.823 36.0531 39.5699 36.1136 39.3458 36.2365C39.1217 36.3594 38.9347 36.5403 38.8045 36.7602C38.6742 36.9801 38.6055 37.231 38.6054 37.4866C38.6059 37.5639 38.613 37.6409 38.6268 37.7169C38.6268 37.735 38.6383 37.7794 38.6433 37.8041C38.7874 38.4545 39.1837 39.0212 39.7453 39.3798L41.7437 40.5311L41.7602 40.5394C41.9755 40.6777 42.2241 40.7554 42.4799 40.7644C42.7357 40.7734 42.9892 40.7133 43.2137 40.5904C43.4382 40.4675 43.6255 40.2865 43.7558 40.0662C43.8861 39.8459 43.9547 39.5946 43.9543 39.3387V39.337Z" fill="#FAFAFA"/>
</g>
<path d="M39.6762 36.8665C39.6762 37.5491 40.1861 38.3962 40.816 38.7597L42.8145 39.911C43.4428 40.2745 43.9543 40.0163 43.9543 39.3354C43.9543 38.6544 43.4428 37.8057 42.8145 37.4422L40.816 36.2909C40.1861 35.9257 39.6762 36.1839 39.6762 36.8665Z" fill="#E0E0E0"/>
<path d="M39.9723 36.0606C39.6048 36.0754 39.2574 36.2318 39.0027 36.497C38.7479 36.7622 38.6056 37.1156 38.6054 37.4833C38.6059 37.5605 38.613 37.6376 38.6268 37.7136C38.6268 37.7317 38.6383 37.7761 38.6433 37.8008C38.77 38.3584 39.0791 38.8579 39.5216 39.2202C38.9722 38.457 38.6597 37.9718 38.7929 37.2152C38.848 36.9253 38.9906 36.6593 39.2014 36.4528C39.4123 36.2464 39.6813 36.1095 39.9723 36.0606Z" fill="white"/>
<path d="M40.918 39.6182C40.8333 39.5575 40.7662 39.4755 40.7234 39.3805C40.6807 39.2854 40.6638 39.1808 40.6746 39.0771C40.6904 38.7876 40.7741 38.5058 40.9189 38.2547C41.0638 38.0035 41.2658 37.79 41.5085 37.6313C41.5929 37.57 41.6921 37.5324 41.7959 37.5222C41.8997 37.5121 42.0044 37.5299 42.099 37.5738L43.1714 38.1939C43.3092 38.2697 43.4305 38.3724 43.5282 38.4957C43.6258 38.6191 43.6979 38.7607 43.7401 38.9122C43.7824 39.0638 43.7939 39.2222 43.7742 39.3783C43.7544 39.5344 43.7037 39.685 43.625 39.8212C43.5464 39.9574 43.4413 40.0766 43.316 40.1717C43.1907 40.2669 43.0476 40.336 42.8952 40.3752C42.7429 40.4143 42.5842 40.4227 42.4286 40.3997C42.2729 40.3768 42.1234 40.3231 41.9888 40.2416L40.918 39.6182Z" fill="#F5F5F5"/>
<path d="M39.4377 38.7613C39.1664 38.6045 38.9684 38.3463 38.8875 38.0436C38.8065 37.7408 38.8491 37.4183 39.0059 37.147C39.1628 36.8756 39.4209 36.6777 39.7237 36.5967C40.0264 36.5158 40.349 36.5584 40.6203 36.7152L42.1006 37.5738C42.006 37.5299 41.9013 37.5121 41.7975 37.5222C41.6937 37.5324 41.5945 37.57 41.5101 37.6313C41.2674 37.79 41.0654 38.0035 40.9206 38.2547C40.7757 38.5058 40.692 38.7876 40.6762 39.0771C40.6654 39.1808 40.6823 39.2854 40.725 39.3805C40.7678 39.4755 40.8349 39.5576 40.9196 39.6182L39.4377 38.7613Z" fill="#FBDB35"/>
<path opacity="0.4" d="M39.7091 37.0277C39.6493 37.1316 39.633 37.255 39.6638 37.3709C39.6946 37.4867 39.77 37.5857 39.8736 37.6462L41.6598 38.6824C41.8102 38.4336 41.8945 38.1505 41.9049 37.86C41.9049 37.832 41.9049 37.8057 41.9049 37.7794L40.3292 36.8649C40.2778 36.8347 40.221 36.815 40.162 36.8069C40.1029 36.7987 40.0429 36.8023 39.9853 36.8175C39.9277 36.8326 39.8736 36.859 39.8262 36.895C39.7788 36.9311 39.739 36.9762 39.7091 37.0277Z" fill="white"/>
<path d="M40.918 39.6182C40.8333 39.5575 40.7662 39.4755 40.7234 39.3805C40.6807 39.2854 40.6638 39.1808 40.6746 39.0771C40.6904 38.7876 40.7741 38.5058 40.9189 38.2547C41.0638 38.0035 41.2658 37.79 41.5085 37.6313C41.5929 37.57 41.6921 37.5324 41.7959 37.5222C41.8997 37.5121 42.0044 37.5299 42.099 37.5738L43.1714 38.1939C43.3092 38.2697 43.4305 38.3724 43.5282 38.4957C43.6258 38.6191 43.6979 38.7607 43.7401 38.9122C43.7824 39.0638 43.7939 39.2222 43.7742 39.3783C43.7544 39.5344 43.7037 39.685 43.625 39.8212C43.5464 39.9574 43.4413 40.0766 43.316 40.1717C43.1907 40.2669 43.0476 40.336 42.8952 40.3752C42.7429 40.4143 42.5842 40.4227 42.4286 40.3997C42.2729 40.3768 42.1234 40.3231 41.9888 40.2416L40.918 39.6182Z" fill="#F5F5F5"/>
<path opacity="0.1" d="M41.5118 37.6314C41.2691 37.79 41.0671 38.0035 40.9222 38.2547C40.7773 38.5059 40.6936 38.7876 40.6779 39.0771C40.6671 39.1808 40.6839 39.2855 40.7267 39.3805C40.7694 39.4755 40.8366 39.5576 40.9213 39.6183L40.8374 39.5689L40.7733 39.5311C40.6882 39.4711 40.6207 39.3895 40.5779 39.2946C40.5351 39.1997 40.5185 39.0951 40.5298 38.9916C40.5456 38.7021 40.6293 38.4203 40.7742 38.1692C40.9191 37.918 41.121 37.7044 41.3637 37.5458C41.4481 37.4845 41.5473 37.4468 41.6512 37.4367C41.755 37.4266 41.8596 37.4444 41.9542 37.4883L42.1023 37.5738C42.0076 37.5299 41.903 37.5121 41.7992 37.5223C41.6954 37.5324 41.5962 37.57 41.5118 37.6314Z" fill="black"/>
<path d="M43.7569 39.0936C43.7847 39.3419 43.7322 39.5926 43.6073 39.8091C43.4504 40.0806 43.1921 40.2786 42.8892 40.3598C42.5863 40.4409 42.2636 40.3984 41.9921 40.2416L40.918 39.6183C40.8333 39.5576 40.7662 39.4755 40.7234 39.3805C40.6807 39.2855 40.6638 39.1808 40.6746 39.0771C40.6758 38.9548 40.693 38.8332 40.7256 38.7153L42.5168 39.7515C43.1089 40.092 43.7504 39.4801 43.7569 39.0936Z" fill="#E0E0E0"/>
<path d="M43.349 39.138C43.3194 39.1894 43.2799 39.2344 43.2328 39.2705C43.1858 39.3065 43.1321 39.333 43.0748 39.3483C43.0175 39.3635 42.9577 39.3674 42.8989 39.3595C42.8401 39.3516 42.7835 39.3323 42.7322 39.3025L40.923 38.2547C41.0636 37.9997 41.2668 37.7847 41.5134 37.6297L41.5858 37.5935L43.1862 38.5196C43.2376 38.5493 43.2827 38.589 43.3187 38.6362C43.3548 38.6835 43.3812 38.7374 43.3963 38.7949C43.4114 38.8524 43.4151 38.9123 43.4069 38.9712C43.3988 39.03 43.3791 39.0867 43.349 39.138Z" fill="white"/>
<path opacity="0.1" d="M39.0939 37.0244C39.1073 37.0062 39.1216 36.9886 39.1367 36.9718C39.1466 36.9603 39.1564 36.9471 39.168 36.9356L39.2058 36.8978L39.2469 36.8583L39.2683 36.8402C39.3305 36.7869 39.3984 36.7406 39.4706 36.702C39.4959 36.6869 39.5223 36.6737 39.5495 36.6626C39.2206 36.8616 39.0084 37.7235 39.5972 38.0639C39.7979 38.1807 40.1006 38.36 40.7223 38.7218C40.6897 38.8397 40.6725 38.9614 40.6713 39.0837C40.6605 39.1874 40.6773 39.292 40.7201 39.3871C40.7629 39.4821 40.83 39.5641 40.9147 39.6248L39.4344 38.7679C39.3 38.6904 39.1822 38.5871 39.0878 38.4641C38.9934 38.341 38.9242 38.2004 38.8841 38.0505C38.8441 37.9007 38.834 37.7443 38.8545 37.5906C38.875 37.4368 38.9256 37.2885 39.0035 37.1544C39.0217 37.1227 39.0414 37.0919 39.0627 37.0622L39.0939 37.0244Z" fill="black"/>
<g style="mix-blend-mode:hard-light" opacity="0.7">
<path d="M36.4771 28.8778C36.4772 28.8001 36.4706 28.7225 36.4574 28.6459C36.4574 28.6278 36.4458 28.5702 36.4426 28.5587C36.2967 27.9081 35.8985 27.342 35.3356 26.9846L33.3388 25.8333L33.3207 25.8251C33.1054 25.6872 32.857 25.6098 32.6014 25.6011C32.3459 25.5923 32.0927 25.6525 31.8685 25.7753C31.6442 25.8981 31.4571 26.079 31.3269 26.299C31.1966 26.5191 31.128 26.7701 31.1282 27.0258C31.1287 27.1035 31.1358 27.1811 31.1496 27.2577C31.1536 27.287 31.1591 27.3161 31.1661 27.3449C31.3106 27.9947 31.7069 28.5608 32.2681 28.9189L34.2665 30.0703H34.2829C34.4983 30.2086 34.7469 30.2863 35.0027 30.2953C35.2585 30.3043 35.512 30.2442 35.7365 30.1213C35.961 29.9985 36.1483 29.8174 36.2786 29.5971C36.4089 29.3768 36.4775 29.1255 36.4771 28.8696V28.8778Z" fill="#FAFAFA"/>
</g>
<path d="M32.1891 26.4024C32.1891 27.085 32.7007 27.932 33.3306 28.2955L35.3274 29.4469C35.9573 29.8104 36.4689 29.5521 36.4689 28.8696C36.4689 28.187 35.9573 27.3399 35.3274 26.9764L33.3306 25.8251C32.6941 25.4681 32.1891 25.7264 32.1891 26.4024Z" fill="#E0E0E0"/>
<path d="M32.4868 25.6014C32.1194 25.6162 31.772 25.7726 31.5172 26.0378C31.2625 26.303 31.1201 26.6564 31.12 27.0241C31.1205 27.1019 31.1276 27.1795 31.1414 27.256C31.1454 27.2854 31.1509 27.3145 31.1579 27.3432C31.2851 27.9007 31.594 28.4 32.0362 28.7627C31.4852 27.9995 31.1743 27.5126 31.3075 26.756C31.3626 26.4661 31.5051 26.2001 31.716 25.9936C31.9268 25.7872 32.1959 25.6503 32.4868 25.6014Z" fill="white"/>
<path d="M33.4359 29.159C33.3512 29.0983 33.284 29.0163 33.2413 28.9213C33.1985 28.8262 33.1817 28.7216 33.1924 28.6179C33.2081 28.3286 33.2917 28.047 33.4366 27.7961C33.5815 27.5452 33.7836 27.3319 34.0264 27.1738C34.1107 27.1124 34.2098 27.0745 34.3136 27.0641C34.4173 27.0537 34.522 27.0711 34.6168 27.1146L35.6892 27.7363C35.8236 27.8142 35.9413 27.9177 36.0356 28.0411C36.1299 28.1644 36.199 28.3052 36.239 28.4552C36.2789 28.6053 36.2889 28.7617 36.2684 28.9157C36.2479 29.0696 36.1972 29.2179 36.1194 29.3523C36.0415 29.4866 35.9379 29.6043 35.8146 29.6987C35.6912 29.793 35.5505 29.8621 35.4004 29.902C35.2504 29.942 35.0939 29.952 34.94 29.9314C34.7861 29.9109 34.6377 29.8603 34.5033 29.7824L33.4359 29.159Z" fill="#F5F5F5"/>
<path d="M31.9572 28.3038C31.6924 28.1436 31.501 27.8859 31.424 27.5862C31.347 27.2865 31.3905 26.9685 31.5453 26.7005C31.7001 26.4325 31.9537 26.2359 32.2518 26.1528C32.5499 26.0696 32.8687 26.1067 33.1398 26.256L34.6201 27.1146C34.5253 27.0711 34.4206 27.0537 34.3169 27.0641C34.2131 27.0745 34.1139 27.1124 34.0297 27.1738C33.7869 27.332 33.5848 27.5452 33.4399 27.7961C33.295 28.047 33.2114 28.3286 33.1957 28.6179C33.185 28.7216 33.2018 28.8262 33.2446 28.9213C33.2873 29.0163 33.3545 29.0983 33.4392 29.159L31.9572 28.3038Z" fill="#FBDB35"/>
<path opacity="0.4" d="M32.2237 26.5669C32.1639 26.6705 32.1477 26.7936 32.1785 26.9092C32.2094 27.0248 32.2847 27.1235 32.3882 27.1836L34.1744 28.2199C34.325 27.9712 34.4093 27.688 34.4195 27.3975C34.4195 27.3679 34.4195 27.3415 34.4195 27.3152L32.8405 26.4024C32.7892 26.3726 32.7325 26.3532 32.6738 26.3453C32.615 26.3375 32.5552 26.3413 32.4979 26.3566C32.4406 26.3719 32.3869 26.3983 32.3398 26.4344C32.2928 26.4705 32.2533 26.5155 32.2237 26.5669Z" fill="white"/>
<path d="M33.4359 29.159C33.3512 29.0983 33.284 29.0163 33.2413 28.9213C33.1985 28.8262 33.1817 28.7216 33.1924 28.6179C33.2081 28.3286 33.2917 28.047 33.4366 27.7961C33.5815 27.5452 33.7836 27.3319 34.0264 27.1738C34.1107 27.1124 34.2098 27.0745 34.3136 27.0641C34.4173 27.0537 34.522 27.0711 34.6168 27.1146L35.6892 27.7363C35.8236 27.8142 35.9413 27.9177 36.0356 28.0411C36.1299 28.1644 36.199 28.3052 36.239 28.4552C36.2789 28.6053 36.2889 28.7617 36.2684 28.9157C36.2479 29.0696 36.1972 29.2179 36.1194 29.3523C36.0415 29.4866 35.9379 29.6043 35.8146 29.6987C35.6912 29.793 35.5505 29.8621 35.4004 29.902C35.2504 29.942 35.0939 29.952 34.94 29.9314C34.7861 29.9109 34.6377 29.8603 34.5033 29.7824L33.4359 29.159Z" fill="#F5F5F5"/>
<path opacity="0.1" d="M34.0264 27.1738C33.7836 27.332 33.5815 27.5452 33.4366 27.7961C33.2917 28.047 33.2081 28.3286 33.1925 28.6179C33.1817 28.7216 33.1985 28.8262 33.2413 28.9213C33.284 29.0163 33.3512 29.0984 33.4359 29.1591L33.352 29.1097L33.2878 29.0735C33.2029 29.0131 33.1355 28.9311 33.0928 28.836C33.05 28.7409 33.0333 28.6361 33.0444 28.5324C33.0601 28.2431 33.1437 27.9615 33.2886 27.7106C33.4335 27.4596 33.6356 27.2464 33.8783 27.0883C33.9626 27.0268 34.0618 26.989 34.1655 26.9786C34.2693 26.9682 34.374 26.9856 34.4688 27.0291L34.6168 27.1146C34.522 27.0711 34.4173 27.0537 34.3136 27.0641C34.2098 27.0745 34.1107 27.1124 34.0264 27.1738Z" fill="black"/>
<path d="M36.2715 28.6344C36.2959 28.8515 36.2596 29.0712 36.1664 29.2689C36.0733 29.4667 35.927 29.6346 35.7439 29.754C35.5609 29.8734 35.3483 29.9396 35.1298 29.9452C34.9113 29.9508 34.6956 29.8956 34.5066 29.7857L33.4359 29.1623C33.3512 29.1016 33.284 29.0196 33.2413 28.9246C33.1985 28.8295 33.1817 28.7249 33.1924 28.6212C33.1936 28.4994 33.2107 28.3783 33.2434 28.261L35.0346 29.2972C35.6235 29.6327 36.2649 29.0209 36.2715 28.6344Z" fill="#E0E0E0"/>
<path d="M35.8636 28.6788C35.834 28.7301 35.7945 28.7752 35.7474 28.8112C35.7004 28.8473 35.6466 28.8738 35.5893 28.889C35.532 28.9043 35.4723 28.9081 35.4135 28.9003C35.3547 28.8924 35.2981 28.873 35.2468 28.8432L33.4375 27.7955C33.5783 27.541 33.7815 27.3265 34.028 27.1721C34.0514 27.1582 34.0756 27.1456 34.1004 27.1343L35.7008 28.0603C35.8043 28.1208 35.8797 28.2199 35.9102 28.3358C35.9408 28.4518 35.924 28.5752 35.8636 28.6788Z" fill="white"/>
<path opacity="0.1" d="M31.6085 26.5669L31.6513 26.5142L31.6825 26.4781L31.7204 26.4402L31.7598 26.4007L31.7829 26.3827C31.8455 26.3299 31.9133 26.2836 31.9852 26.2445L32.0658 26.205C31.7368 26.4057 31.5246 27.2659 32.1135 27.6064C32.3141 27.7232 32.6151 27.9024 33.2385 28.2643C33.2058 28.3816 33.1887 28.5027 33.1875 28.6245C33.1767 28.7282 33.1936 28.8328 33.2363 28.9279C33.2791 29.0229 33.3462 29.1049 33.4309 29.1656L31.9506 28.3103C31.6795 28.1532 31.4817 27.8949 31.4006 27.5921C31.3195 27.2894 31.3617 26.9668 31.5181 26.6952C31.5378 26.6639 31.5575 26.6327 31.5789 26.6031L31.6085 26.5669Z" fill="black"/>
<g style="mix-blend-mode:hard-light" opacity="0.7">
<path d="M43.9543 33.1608C43.9541 33.0832 43.9481 33.0056 43.9362 32.9289C43.9362 32.9108 43.923 32.8532 43.9198 32.8417C43.7746 32.1912 43.377 31.625 42.8145 31.2677L40.816 30.1163H40.7979C40.5826 29.9784 40.3342 29.901 40.0786 29.8923C39.8231 29.8835 39.5699 29.9437 39.3457 30.0665C39.1214 30.1893 38.9343 30.3702 38.8041 30.5903C38.6739 30.8103 38.6052 31.0613 38.6054 31.317C38.6059 31.3948 38.613 31.4724 38.6268 31.5489C38.6268 31.5654 38.6383 31.6098 38.6433 31.6361C38.7875 32.2861 39.1838 32.8523 39.7453 33.2102L41.7437 34.3615H41.7602C41.9755 34.4998 42.2241 34.5775 42.4799 34.5865C42.7357 34.5955 42.9892 34.5354 43.2137 34.4126C43.4382 34.2897 43.6255 34.1086 43.7558 33.8883C43.8861 33.6681 43.9547 33.4167 43.9543 33.1608Z" fill="#FAFAFA"/>
</g>
<path d="M39.6762 30.692C39.6762 31.3729 40.1861 32.2217 40.816 32.5852L42.8145 33.7365C43.4428 34.1 43.9543 33.8418 43.9543 33.1592C43.9543 32.4766 43.4428 31.6295 42.8145 31.266L40.816 30.1147C40.1861 29.7512 39.6762 30.0094 39.6762 30.692Z" fill="#E0E0E0"/>
<path d="M39.9723 29.8844C39.605 29.8997 39.2578 30.0562 39.0031 30.3213C38.7484 30.5863 38.606 30.9395 38.6054 31.3071C38.6059 31.3849 38.613 31.4625 38.6268 31.5391C38.6268 31.5555 38.6383 31.5999 38.6433 31.6262C38.7705 32.1837 39.0795 32.6831 39.5216 33.0457C38.9722 32.2825 38.6597 31.7956 38.7929 31.0407C38.8482 30.7507 38.9907 30.4845 39.2015 30.2778C39.4123 30.0712 39.6812 29.9339 39.9723 29.8844Z" fill="white"/>
<path d="M40.918 33.4421C40.8334 33.3816 40.7663 33.2999 40.7236 33.2051C40.6808 33.1104 40.6639 33.006 40.6746 32.9026C40.6902 32.613 40.7739 32.3312 40.9188 32.0801C41.0636 31.8289 41.2657 31.6154 41.5085 31.4568C41.5928 31.3954 41.6919 31.3575 41.7957 31.3471C41.8995 31.3367 42.0042 31.3542 42.099 31.3976L43.1714 32.0193C43.4427 32.1762 43.6406 32.4344 43.7216 32.7371C43.8026 33.0399 43.7599 33.3624 43.6031 33.6337C43.4463 33.905 43.1881 34.103 42.8854 34.1839C42.5826 34.2649 42.2601 34.2223 41.9888 34.0655L40.918 33.4421Z" fill="#F5F5F5"/>
<path d="M39.4377 32.5868C39.1664 32.43 38.9684 32.1718 38.8875 31.869C38.8065 31.5663 38.8491 31.2438 39.0059 30.9724C39.1628 30.7011 39.4209 30.5032 39.7237 30.4222C40.0264 30.3412 40.349 30.3838 40.6203 30.5407L42.1006 31.3976C42.0058 31.3541 41.9011 31.3367 41.7973 31.3471C41.6935 31.3575 41.5944 31.3954 41.5101 31.4568C41.2673 31.6153 41.0653 31.8289 40.9204 32.08C40.7755 32.3312 40.6919 32.613 40.6762 32.9026C40.6654 33.0058 40.682 33.1101 40.7245 33.2049C40.767 33.2996 40.8337 33.3814 40.918 33.4421L39.4377 32.5868Z" fill="#FBDB35"/>
<path opacity="0.4" d="M39.7091 30.8532C39.6493 30.9571 39.633 31.0804 39.6638 31.1963C39.6946 31.3122 39.77 31.4111 39.8736 31.4716L41.6598 32.5078C41.8099 32.2589 41.8943 31.9759 41.9049 31.6854C41.9049 31.6575 41.9049 31.6295 41.9049 31.6032L40.3292 30.6887C40.2778 30.6584 40.2208 30.6386 40.1617 30.6305C40.1026 30.6223 40.0424 30.626 39.9847 30.6413C39.9271 30.6566 39.873 30.6832 39.8257 30.7196C39.7783 30.756 39.7387 30.8014 39.7091 30.8532Z" fill="white"/>
<path d="M40.918 33.4421C40.8334 33.3816 40.7663 33.2999 40.7236 33.2051C40.6808 33.1104 40.6639 33.006 40.6746 32.9026C40.6902 32.613 40.7739 32.3312 40.9188 32.0801C41.0636 31.8289 41.2657 31.6154 41.5085 31.4568C41.5928 31.3954 41.6919 31.3575 41.7957 31.3471C41.8995 31.3367 42.0042 31.3542 42.099 31.3976L43.1714 32.0193C43.4427 32.1762 43.6406 32.4344 43.7216 32.7371C43.8026 33.0399 43.7599 33.3624 43.6031 33.6337C43.4463 33.905 43.1881 34.103 42.8854 34.1839C42.5826 34.2649 42.2601 34.2223 41.9888 34.0655L40.918 33.4421Z" fill="#F5F5F5"/>
<path opacity="0.1" d="M41.5118 31.4568C41.269 31.6153 41.0669 31.8289 40.9221 32.08C40.7772 32.3312 40.6935 32.613 40.6779 32.9026C40.6669 33.0057 40.6833 33.1099 40.7254 33.2046C40.7676 33.2993 40.834 33.3813 40.918 33.4421L40.8341 33.3944L40.77 33.3566C40.6851 33.2964 40.6179 33.2146 40.5751 33.1198C40.5323 33.025 40.5156 32.9205 40.5266 32.8171C40.5422 32.5275 40.6258 32.2457 40.7707 31.9945C40.9156 31.7433 41.1176 31.5298 41.3605 31.3713C41.4448 31.3099 41.5439 31.272 41.6477 31.2616C41.7515 31.2512 41.8561 31.2686 41.9509 31.3121L42.099 31.3976C42.0046 31.3548 41.9005 31.3377 41.7974 31.3481C41.6943 31.3585 41.5957 31.396 41.5118 31.4568Z" fill="black"/>
<path d="M43.7569 32.9174C43.7814 33.1346 43.745 33.3543 43.6518 33.552C43.5587 33.7497 43.4124 33.9176 43.2294 34.0371C43.0463 34.1565 42.8337 34.2227 42.6152 34.2283C42.3967 34.2339 42.181 34.1786 41.9921 34.0687L40.918 33.4421C40.8334 33.3817 40.7663 33.2999 40.7236 33.2051C40.6808 33.1104 40.6639 33.006 40.6746 32.9026C40.6757 32.7803 40.6929 32.6586 40.7256 32.5407C41.3522 32.901 42.1171 33.3467 42.5167 33.577C43.1089 33.9174 43.7503 33.3105 43.7569 32.9174Z" fill="#E0E0E0"/>
<path d="M43.349 32.9634C43.3194 33.0148 43.2799 33.0598 43.2328 33.0959C43.1858 33.132 43.1321 33.1584 43.0748 33.1737C43.0175 33.189 42.9577 33.1928 42.8989 33.1849C42.8401 33.1771 42.7835 33.1577 42.7322 33.1279L40.923 32.0802C41.0637 31.8257 41.2669 31.6111 41.5134 31.4568C41.5381 31.442 41.5628 31.4305 41.5858 31.419L43.1862 32.345C43.2894 32.4057 43.3645 32.5048 43.395 32.6207C43.4255 32.7365 43.409 32.8597 43.349 32.9634Z" fill="white"/>
<path opacity="0.1" d="M39.0939 30.8433C39.1073 30.825 39.1216 30.8075 39.1367 30.7907C39.1462 30.7779 39.1567 30.7658 39.168 30.7545L39.2058 30.715C39.2187 30.7016 39.2324 30.6889 39.2469 30.6772C39.2533 30.6703 39.2604 30.6642 39.2683 30.6591C39.3305 30.6053 39.3983 30.5584 39.4706 30.5193C39.4953 30.5061 39.5216 30.493 39.5495 30.4814C39.2206 30.6805 39.0084 31.5423 39.5972 31.8812C39.7979 31.9979 40.1005 32.1772 40.7223 32.5391C40.6896 32.657 40.6724 32.7786 40.6713 32.9009C40.6607 33.0049 40.6779 33.1098 40.7213 33.2049C40.7647 33.3 40.8326 33.3819 40.918 33.4421L39.4377 32.5868C39.1666 32.4299 38.9689 32.1718 38.8881 31.8693C38.8073 31.5667 38.85 31.2444 39.0068 30.9732C39.0246 30.9408 39.0443 30.9095 39.066 30.8795L39.0939 30.8433Z" fill="black"/>
<g style="mix-blend-mode:hard-light" opacity="0.7">
<path d="M36.4771 22.7032C36.4772 22.625 36.4706 22.5468 36.4574 22.4697C36.4574 22.4532 36.4458 22.394 36.4426 22.3842C36.3692 22.0612 36.2328 21.7558 36.0412 21.4857C35.8495 21.2156 35.6064 20.986 35.3257 20.8101L33.329 19.6587H33.3109C33.0954 19.5214 32.8471 19.4445 32.5918 19.436C32.3364 19.4275 32.0835 19.4878 31.8594 19.6105C31.6354 19.7332 31.4484 19.9139 31.318 20.1336C31.1876 20.3533 31.1187 20.604 31.1184 20.8594C31.1188 20.9372 31.126 21.0148 31.1398 21.0914C31.1434 21.1207 31.1489 21.1498 31.1562 21.1785C31.3007 21.8289 31.6969 22.3954 32.2582 22.7542L34.2566 23.9056L34.2731 23.9138C34.4884 24.0521 34.7371 24.1299 34.9928 24.1388C35.2486 24.1478 35.5021 24.0877 35.7266 23.9649C35.9511 23.842 36.1384 23.6609 36.2687 23.4406C36.3991 23.2204 36.4676 22.9691 36.4672 22.7131L36.4771 22.7032Z" fill="#FAFAFA"/>
</g>
<path d="M32.1891 20.2328C32.1891 20.9154 32.7007 21.7624 33.3306 22.1259L35.3257 23.2773C35.9557 23.6408 36.4672 23.3825 36.4672 22.7016C36.4672 22.0207 35.9557 21.172 35.3257 20.8085L33.329 19.6571C32.6941 19.292 32.1891 19.5502 32.1891 20.2328Z" fill="#E0E0E0"/>
<path d="M32.4868 19.4252C32.1196 19.4405 31.7724 19.597 31.5177 19.8621C31.263 20.1272 31.1206 20.4803 31.12 20.8479C31.1205 20.9257 31.1276 21.0033 31.1414 21.0799C31.1451 21.1092 31.1506 21.1383 31.1579 21.167C31.2846 21.7247 31.5937 22.2242 32.0362 22.5865C31.4852 21.8233 31.1743 21.3364 31.3075 20.5815C31.3627 20.2915 31.5053 20.0253 31.7161 19.8186C31.9269 19.612 32.1958 19.4747 32.4868 19.4252Z" fill="white"/>
<path d="M33.4359 22.9829C33.3512 22.9226 33.284 22.8408 33.2412 22.746C33.1984 22.6512 33.1816 22.5468 33.1924 22.4434C33.2081 22.1538 33.2917 21.872 33.4366 21.6208C33.5815 21.3696 33.7835 21.1561 34.0264 20.9976C34.1107 20.9363 34.2099 20.8986 34.3138 20.8885C34.4176 20.8784 34.5222 20.8962 34.6168 20.94L35.6892 21.5601C35.8261 21.6367 35.9463 21.7397 36.0429 21.8632C36.1396 21.9867 36.2107 22.1281 36.2522 22.2793C36.2936 22.4306 36.3046 22.5885 36.2845 22.744C36.2643 22.8995 36.2135 23.0495 36.1348 23.1851C36.0562 23.3208 35.9514 23.4394 35.8265 23.5342C35.7016 23.629 35.5591 23.698 35.4072 23.7372C35.2554 23.7764 35.0973 23.785 34.9421 23.7625C34.787 23.74 34.6378 23.6869 34.5033 23.6062L33.4359 22.9829Z" fill="#F5F5F5"/>
<path d="M31.9572 22.1259C31.8229 22.0483 31.7051 21.9449 31.6107 21.8218C31.5163 21.6986 31.4471 21.5581 31.407 21.4082C31.3669 21.2583 31.3567 21.1019 31.377 20.9481C31.3974 20.7943 31.4478 20.6459 31.5255 20.5116C31.6031 20.3772 31.7065 20.2595 31.8296 20.1651C31.9528 20.0707 32.0933 20.0014 32.2432 19.9614C32.3931 19.9213 32.5495 19.9111 32.7033 19.9314C32.8571 19.9517 33.0055 20.0022 33.1398 20.0798L34.6201 20.9384C34.5255 20.8945 34.4209 20.8767 34.317 20.8869C34.2132 20.897 34.114 20.9347 34.0296 20.996C33.7868 21.1545 33.5848 21.368 33.4399 21.6192C33.295 21.8704 33.2114 22.1522 33.1957 22.4417C33.1849 22.5452 33.2017 22.6496 33.2445 22.7444C33.2873 22.8392 33.3544 22.9209 33.4392 22.9812L31.9572 22.1259Z" fill="#FBDB35"/>
<path opacity="0.4" d="M32.2237 20.394C32.1639 20.4979 32.1476 20.6212 32.1784 20.7371C32.2092 20.853 32.2846 20.9519 32.3881 21.0124L34.1744 22.0486C34.3248 21.7998 34.4091 21.5168 34.4195 21.2262C34.4195 21.1983 34.4195 21.172 34.4195 21.1456L32.8438 20.2311C32.7924 20.2008 32.7356 20.1809 32.6765 20.1726C32.6175 20.1644 32.5574 20.1679 32.4997 20.1831C32.442 20.1982 32.3879 20.2246 32.3405 20.2608C32.2932 20.2971 32.2534 20.3423 32.2237 20.394Z" fill="white"/>
<path d="M33.4359 22.9829C33.3512 22.9226 33.284 22.8408 33.2412 22.746C33.1984 22.6512 33.1816 22.5468 33.1924 22.4434C33.2081 22.1538 33.2917 21.872 33.4366 21.6208C33.5815 21.3696 33.7835 21.1561 34.0264 20.9976C34.1107 20.9363 34.2099 20.8986 34.3138 20.8885C34.4176 20.8784 34.5222 20.8962 34.6168 20.94L35.6892 21.5601C35.8261 21.6367 35.9463 21.7397 36.0429 21.8632C36.1396 21.9867 36.2107 22.1281 36.2522 22.2793C36.2936 22.4306 36.3046 22.5885 36.2845 22.744C36.2643 22.8995 36.2135 23.0495 36.1348 23.1851C36.0562 23.3208 35.9514 23.4394 35.8265 23.5342C35.7016 23.629 35.5591 23.698 35.4072 23.7372C35.2554 23.7764 35.0973 23.785 34.9421 23.7625C34.787 23.74 34.6378 23.6869 34.5033 23.6062L33.4359 22.9829Z" fill="#F5F5F5"/>
<path opacity="0.1" d="M34.0264 20.9976C33.7836 21.1561 33.5815 21.3696 33.4366 21.6208C33.2917 21.872 33.2081 22.1538 33.1925 22.4434C33.1816 22.5468 33.1985 22.6512 33.2412 22.746C33.284 22.8408 33.3512 22.9226 33.4359 22.9829L33.352 22.9352L33.2879 22.8973C33.2029 22.8373 33.1355 22.7556 33.0927 22.6607C33.0499 22.5659 33.0333 22.4613 33.0444 22.3578C33.0601 22.0683 33.1437 21.7865 33.2886 21.5353C33.4335 21.2841 33.6355 21.0706 33.8783 20.9121C33.9627 20.8508 34.0619 20.8131 34.1657 20.803C34.2695 20.7928 34.3742 20.8106 34.4688 20.8545L34.6168 20.94C34.5222 20.8962 34.4176 20.8784 34.3138 20.8885C34.21 20.8986 34.1107 20.9363 34.0264 20.9976Z" fill="black"/>
<path d="M36.2715 22.4549C36.2992 22.7032 36.2468 22.9539 36.1218 23.1704C36.0442 23.3053 35.9408 23.4237 35.8175 23.5187C35.6941 23.6137 35.5533 23.6834 35.4029 23.7239C35.2526 23.7644 35.0958 23.7748 34.9414 23.7546C34.7871 23.7344 34.6382 23.684 34.5033 23.6062L33.4326 22.9812C33.3479 22.9209 33.2807 22.8392 33.2379 22.7444C33.1951 22.6496 33.1783 22.5451 33.1891 22.4417C33.1904 22.3194 33.2075 22.1978 33.2401 22.0799L35.0313 23.1161C35.6234 23.4582 36.2649 22.8463 36.2715 22.4549Z" fill="#E0E0E0"/>
<path d="M35.8636 22.5042C35.8034 22.6076 35.7048 22.683 35.5892 22.7138C35.4736 22.7447 35.3505 22.7284 35.2468 22.6687L33.4375 21.621C33.5777 21.3656 33.781 21.1505 34.028 20.996L34.1004 20.9581L35.7008 21.8841C35.8044 21.9449 35.8798 22.0443 35.9103 22.1605C35.9409 22.2768 35.924 22.4004 35.8636 22.5042Z" fill="white"/>
<path opacity="0.1" d="M31.6085 20.3907C31.6218 20.3724 31.6361 20.3549 31.6513 20.3381C31.6608 20.3253 31.6712 20.3132 31.6825 20.3019L31.7204 20.264L31.7598 20.2246L31.7829 20.2065C31.845 20.1527 31.9129 20.1058 31.9852 20.0667C32.0112 20.0519 32.0381 20.0387 32.0658 20.0272C31.7368 20.2262 31.5246 21.0881 32.1135 21.4285C32.3141 21.5437 32.6151 21.7246 33.2385 22.0865C33.2059 22.2044 33.1887 22.326 33.1875 22.4483C33.1767 22.5517 33.1935 22.6562 33.2363 22.751C33.279 22.8458 33.3462 22.9275 33.4309 22.9878L31.9506 22.1325C31.6796 21.9757 31.4818 21.7177 31.4007 21.4152C31.3196 21.1127 31.3618 20.7904 31.518 20.519C31.5378 20.4861 31.5575 20.4565 31.5789 20.4269C31.5874 20.4138 31.5974 20.4017 31.6085 20.3907Z" fill="black"/>
<g style="mix-blend-mode:hard-light" opacity="0.7">
<path d="M43.9543 26.9863C43.9541 26.9081 43.9481 26.83 43.9362 26.7527C43.9362 26.7363 43.9231 26.6787 43.9198 26.6672C43.8481 26.345 43.7135 26.0402 43.5239 25.7701C43.3342 25.5 43.0931 25.2699 42.8145 25.0931L40.816 23.9418L40.798 23.9336C40.5824 23.7962 40.3339 23.7192 40.0784 23.7108C39.823 23.7024 39.5699 23.7628 39.3458 23.8857C39.1217 24.0086 38.9347 24.1895 38.8045 24.4094C38.6742 24.6294 38.6055 24.8803 38.6054 25.1359C38.6059 25.2131 38.613 25.2902 38.6268 25.3662C38.6268 25.3842 38.6383 25.4287 38.6433 25.4533C38.7874 26.1038 39.1837 26.6705 39.7453 27.029L41.7437 28.1804H41.7602C41.9755 28.3187 42.2241 28.3964 42.4799 28.4054C42.7357 28.4144 42.9892 28.3543 43.2137 28.2314C43.4382 28.1086 43.6255 27.9275 43.7558 27.7072C43.8861 27.4869 43.9547 27.2356 43.9543 26.9797V26.9863Z" fill="#FAFAFA"/>
</g>
<path d="M39.6762 24.5158C39.6762 25.1984 40.1861 26.0455 40.816 26.409L42.8145 27.5603C43.4428 27.9238 43.9543 27.6656 43.9543 26.983C43.9543 26.3004 43.4428 25.4534 42.8145 25.0899L40.816 23.9385C40.1861 23.575 39.6762 23.8332 39.6762 24.5158Z" fill="#E0E0E0"/>
<path d="M39.9723 23.7099C39.6048 23.7247 39.2574 23.8811 39.0027 24.1463C38.7479 24.4115 38.6056 24.7649 38.6054 25.1326C38.6059 25.2098 38.613 25.2869 38.6268 25.3629C38.6268 25.381 38.6383 25.4254 38.6433 25.4501C38.77 26.0077 39.0791 26.5072 39.5216 26.8695C38.9722 26.1063 38.6597 25.6211 38.7929 24.8645C38.848 24.5746 38.9906 24.3086 39.2014 24.1021C39.4123 23.8957 39.6813 23.7588 39.9723 23.7099Z" fill="white"/>
<path d="M40.918 27.2675C40.8333 27.2068 40.7662 27.1248 40.7234 27.0298C40.6807 26.9347 40.6638 26.8301 40.6746 26.7264C40.6904 26.4369 40.7741 26.1551 40.9189 25.904C41.0638 25.6528 41.2658 25.4393 41.5085 25.2806C41.5931 25.2198 41.6923 25.1824 41.796 25.1723C41.8997 25.1622 42.0042 25.1797 42.099 25.2231L43.1714 25.8448C43.3057 25.9225 43.4235 26.0258 43.5179 26.149C43.6123 26.2721 43.6815 26.4127 43.7216 26.5626C43.7617 26.7125 43.7719 26.8688 43.7516 27.0226C43.7312 27.1765 43.6808 27.3248 43.6032 27.4592C43.5255 27.5935 43.4221 27.7112 43.299 27.8057C43.1758 27.9001 43.0353 27.9693 42.8854 28.0094C42.7355 28.0495 42.5791 28.0596 42.4253 28.0393C42.2715 28.019 42.1231 27.9686 41.9888 27.8909L40.918 27.2675Z" fill="#F5F5F5"/>
<path d="M39.4377 26.4106C39.1664 26.2538 38.9684 25.9956 38.8875 25.6928C38.8065 25.3901 38.8491 25.0676 39.0059 24.7962C39.1628 24.5249 39.4209 24.327 39.7237 24.246C40.0264 24.1651 40.349 24.2077 40.6203 24.3645L42.1006 25.2231C42.0059 25.1797 41.9013 25.1622 41.7976 25.1723C41.6939 25.1824 41.5947 25.2198 41.5101 25.2806C41.2674 25.4393 41.0654 25.6528 40.9206 25.904C40.7757 26.1551 40.692 26.4369 40.6762 26.7264C40.6654 26.8301 40.6823 26.9347 40.725 27.0298C40.7678 27.1248 40.8349 27.2068 40.9196 27.2675L39.4377 26.4106Z" fill="#FBDB35"/>
<path opacity="0.4" d="M39.7091 24.677C39.6493 24.7809 39.633 24.9043 39.6638 25.0201C39.6946 25.136 39.77 25.235 39.8736 25.2955L41.6598 26.3317C41.8102 26.0829 41.8945 25.7998 41.9049 25.5093C41.9049 25.4813 41.9049 25.455 41.9049 25.4287L40.3292 24.5142C40.2778 24.484 40.221 24.4643 40.162 24.4562C40.1029 24.448 40.0429 24.4516 39.9853 24.4668C39.9277 24.4819 39.8736 24.5083 39.8262 24.5443C39.7788 24.5804 39.739 24.6255 39.7091 24.677Z" fill="white"/>
<path d="M40.918 27.2675C40.8333 27.2068 40.7662 27.1248 40.7234 27.0298C40.6807 26.9347 40.6638 26.8301 40.6746 26.7264C40.6904 26.4369 40.7741 26.1551 40.9189 25.904C41.0638 25.6528 41.2658 25.4393 41.5085 25.2806C41.5931 25.2198 41.6923 25.1824 41.796 25.1723C41.8997 25.1622 42.0042 25.1797 42.099 25.2231L43.1714 25.8448C43.3057 25.9225 43.4235 26.0258 43.5179 26.149C43.6123 26.2721 43.6815 26.4127 43.7216 26.5626C43.7617 26.7125 43.7719 26.8688 43.7516 27.0226C43.7312 27.1765 43.6808 27.3248 43.6032 27.4592C43.5255 27.5935 43.4221 27.7112 43.299 27.8057C43.1758 27.9001 43.0353 27.9693 42.8854 28.0094C42.7355 28.0495 42.5791 28.0596 42.4253 28.0393C42.2715 28.019 42.1231 27.9686 41.9888 27.8909L40.918 27.2675Z" fill="#F5F5F5"/>
<path opacity="0.1" d="M41.5118 25.2806C41.2691 25.4393 41.0671 25.6528 40.9222 25.904C40.7773 26.1551 40.6936 26.4369 40.6779 26.7264C40.6671 26.8301 40.6839 26.9347 40.7267 27.0298C40.7694 27.1248 40.8366 27.2069 40.9213 27.2675L40.8374 27.2182L40.7733 27.182C40.6883 27.1216 40.621 27.0396 40.5782 26.9445C40.5354 26.8494 40.5187 26.7446 40.5298 26.6409C40.5456 26.3514 40.6293 26.0696 40.7742 25.8184C40.9191 25.5673 41.121 25.3537 41.3637 25.1951C41.4481 25.1338 41.5474 25.0961 41.6512 25.086C41.755 25.0759 41.8596 25.0937 41.9542 25.1376L42.1023 25.2231C42.0075 25.1797 41.903 25.1622 41.7993 25.1723C41.6956 25.1824 41.5964 25.2198 41.5118 25.2806Z" fill="black"/>
<path d="M43.7569 26.7429C43.7847 26.9912 43.7322 27.2419 43.6073 27.4583C43.4504 27.7298 43.1921 27.9279 42.8892 28.0091C42.5863 28.0902 42.2636 28.0477 41.9921 27.8909L40.918 27.2676C40.8333 27.2069 40.7662 27.1248 40.7234 27.0298C40.6807 26.9347 40.6638 26.8301 40.6746 26.7264C40.6758 26.6041 40.693 26.4825 40.7256 26.3646L42.5168 27.4008C43.1089 27.7413 43.7504 27.1294 43.7569 26.7429Z" fill="#E0E0E0"/>
<path d="M43.349 26.7873C43.3194 26.8386 43.2799 26.8836 43.2329 26.9197C43.1858 26.9558 43.1321 26.9822 43.0748 26.9975C43.0175 27.0128 42.9577 27.0166 42.8989 27.0088C42.8402 27.0009 42.7835 26.9815 42.7322 26.9517L40.918 25.9089C41.0587 25.6539 41.2619 25.4389 41.5085 25.2839L41.5809 25.2477L43.1813 26.1738C43.2843 26.2334 43.3598 26.3312 43.3912 26.446C43.4226 26.5609 43.4074 26.6835 43.349 26.7873Z" fill="white"/>
<path opacity="0.1" d="M39.0939 24.6737C39.1073 24.6554 39.1216 24.6379 39.1367 24.6211C39.1466 24.6096 39.1564 24.5964 39.168 24.5849L39.2058 24.5471L39.2469 24.5076L39.2683 24.4895C39.3305 24.4362 39.3984 24.3899 39.4706 24.3513C39.4959 24.3362 39.5223 24.323 39.5495 24.3119C39.2206 24.5125 39.0084 25.3727 39.5972 25.7132C39.7979 25.83 40.1006 26.0093 40.7223 26.3711C40.6897 26.489 40.6725 26.6107 40.6713 26.733C40.6605 26.8366 40.6773 26.9413 40.7201 27.0364C40.7629 27.1314 40.83 27.2134 40.9147 27.2741L39.4344 26.4172C39.3 26.3397 39.1822 26.2364 39.0878 26.1133C38.9934 25.9902 38.9242 25.8497 38.8841 25.6998C38.8441 25.55 38.834 25.3936 38.8545 25.2399C38.875 25.0861 38.9256 24.9378 39.0035 24.8037C39.0217 24.772 39.0414 24.7412 39.0627 24.7115L39.0939 24.6737Z" fill="black"/>
<path d="M26.1232 17.7344C25.6475 17.4616 25.1528 17.2236 24.6428 17.0222C24.1715 16.8403 23.7657 16.521 23.478 16.1057C23.1903 15.6904 23.034 15.1983 23.0293 14.6931V11.851H13.7494V14.6931C13.7461 15.1995 13.5901 15.693 13.302 16.1094C13.0139 16.5257 12.6069 16.8455 12.1342 17.0271C11.6243 17.2286 11.1296 17.4666 10.6539 17.7393C8.51571 18.9729 7.45153 20.5897 7.45153 22.2049V43.6365C7.45153 45.2517 8.519 46.8685 10.6539 48.1021C14.9304 50.5693 21.85 50.5693 26.1149 48.1021C28.2532 46.8685 29.319 45.2533 29.319 43.6365V22.2C29.3272 20.5831 28.2532 18.968 26.1232 17.7344Z" fill="#16BF78"/>
<path opacity="0.7" d="M26.1232 17.7344C25.6475 17.4616 25.1528 17.2236 24.6428 17.0222C24.1715 16.8403 23.7657 16.521 23.478 16.1057C23.1903 15.6904 23.034 15.1983 23.0293 14.6931V11.851H13.7494V14.6931C13.7461 15.1995 13.5901 15.693 13.302 16.1094C13.0139 16.5257 12.6069 16.8455 12.1342 17.0271C11.6243 17.2286 11.1296 17.4666 10.6539 17.7393C8.51571 18.9729 7.45153 20.5897 7.45153 22.2049V43.6365C7.45153 45.2517 8.519 46.8685 10.6539 48.1021C14.9304 50.5693 21.85 50.5693 26.1149 48.1021C28.2532 46.8685 29.319 45.2533 29.319 43.6365V22.2C29.3272 20.5831 28.2532 18.968 26.1232 17.7344Z" fill="white"/>
<path d="M18.3959 49.9475C24.4322 49.9475 29.3256 47.15 29.3256 43.699C29.3256 40.248 24.4322 37.4504 18.3959 37.4504C12.3597 37.4504 7.46632 40.248 7.46632 43.699C7.46632 47.15 12.3597 49.9475 18.3959 49.9475Z" fill="#16BF78"/>
<path opacity="0.5" d="M18.3959 49.9475C24.4322 49.9475 29.3256 47.15 29.3256 43.699C29.3256 40.248 24.4322 37.4504 18.3959 37.4504C12.3597 37.4504 7.46632 40.248 7.46632 43.699C7.46632 47.15 12.3597 49.9475 18.3959 49.9475Z" fill="white"/>
<path opacity="0.4" d="M23.9159 14.8395C21.9043 13.6783 19.0621 13.2836 16.4831 13.6602V11.851H13.7494V14.6915C13.7466 15.1982 13.5909 15.6922 13.3027 16.1089C13.0146 16.5256 12.6073 16.8456 12.1342 17.0271C11.625 17.2301 11.1304 17.4681 10.6539 17.7393C10.6358 17.7393 10.621 17.7607 10.6013 17.7689C8.49926 18.9992 7.45153 20.6012 7.45153 22.2098V43.6299C7.45153 45.2484 8.519 46.8619 10.6539 48.0955C13.7264 49.8702 18.1706 50.3604 22.0128 49.584C13.1211 50.1943 10.9829 46.4244 10.9829 43.6973V22.8595C10.9829 21.8973 11.1276 21.1029 11.8053 20.4335C12.1345 20.7347 12.4971 20.9974 12.8859 21.2164C15.937 22.9763 20.8796 22.9763 23.9274 21.2164C26.9752 19.4565 26.9669 16.6027 23.9159 14.8395Z" fill="white"/>
<path opacity="0.4" d="M26.1232 17.7344C25.6475 17.4616 25.1528 17.2236 24.6429 17.0222C24.1715 16.8403 23.7657 16.521 23.478 16.1057C23.1903 15.6904 23.034 15.1983 23.0293 14.6931V11.851H22.0161V15.6553C22.0161 16.532 22.7711 17.3659 23.6445 17.8429C24.5179 18.3199 27.2943 19.5255 27.967 20.8447C28.6084 22.0996 28.3996 24.5948 28.3996 27.5554V42.6874C28.3996 44.6086 27.5985 47.3882 24.031 49.0593C24.7562 48.8117 25.4571 48.4979 26.1248 48.1218C28.263 46.8882 29.3272 45.3372 29.3272 43.6365V22.2C29.3272 20.5831 28.2532 18.968 26.1232 17.7344Z" fill="white"/>
<path d="M26.2054 15.8396V16.6488C26.2054 17.8002 25.4472 18.9614 23.9159 19.8479C20.8681 21.6062 15.9271 21.6062 12.8711 19.8479C12.1985 19.4807 11.6141 18.971 11.1589 18.3544C10.797 17.8642 10.598 17.2729 10.5898 16.6636V15.8231C10.5873 15.6469 10.6077 15.471 10.6507 15.3001C10.8398 14.3231 11.5832 13.3757 12.8711 12.6322C12.9079 12.6091 12.9464 12.5887 12.9863 12.5714C16.0472 10.874 20.9059 10.897 23.9159 12.6322C25.2037 13.3757 25.9554 14.3231 26.1446 15.2935C26.1876 15.4723 26.208 15.6557 26.2054 15.8396Z" fill="#F0F0F0"/>
<path d="M19.0424 20.3266V17.4531C19.0424 16.3166 19.3302 17.8544 17.3367 17.8544C15.608 17.8544 14.0702 13.8675 12.9945 12.5714C12.9546 12.5887 12.9161 12.6091 12.8793 12.6322C11.5915 13.3757 10.848 14.3231 10.6589 15.3001C10.616 15.471 10.5955 15.6469 10.598 15.8231V16.6636C10.6062 17.2729 10.8052 17.8642 11.1671 18.3545C11.6223 18.971 12.2067 19.4807 12.8793 19.8479C15.9353 21.6062 20.8763 21.6062 23.9241 19.8479C21.7628 20.6966 19.0424 21.4105 19.0424 20.3266Z" fill="#E0E0E0"/>
<path d="M18.396 20.3298C22.7081 20.3298 26.2038 18.3114 26.2038 15.8215C26.2038 13.3316 22.7081 11.3131 18.396 11.3131C14.0838 11.3131 10.5882 13.3316 10.5882 15.8215C10.5882 18.3114 14.0838 20.3298 18.396 20.3298Z" fill="#455A64"/>
<path d="M26.2054 13.1322V14.7474C26.2079 14.9313 26.1875 15.1147 26.1445 15.2935C25.9554 16.2639 25.2037 17.2113 23.9159 17.9531C22.5507 18.7426 20.8089 19.1735 19.0341 19.2509C16.8285 19.3561 14.5619 18.9219 12.8711 17.9465C12.2014 17.5808 11.6176 17.076 11.1589 16.4662C10.9081 16.1186 10.7359 15.7208 10.6539 15.3001C10.611 15.1269 10.5905 14.9489 10.5931 14.7704V13.1174C10.5931 11.9661 11.3513 10.8147 12.8744 9.92655C13.0109 9.85089 13.1474 9.77523 13.2922 9.70615C16.3613 8.16827 21.0079 8.24393 23.9191 9.92655C25.4472 10.8131 26.212 11.9727 26.2054 13.1322Z" fill="#F0F0F0"/>
<path d="M18.396 17.5863C22.7081 17.5863 26.2038 15.5679 26.2038 13.078C26.2038 10.5881 22.7081 8.56961 18.396 8.56961C14.0838 8.56961 10.5882 10.5881 10.5882 13.078C10.5882 15.5679 14.0838 17.5863 18.396 17.5863Z" fill="#FAFAFA"/>
<path d="M11.1589 16.4613C11.6176 17.0711 12.2014 17.5758 12.8711 17.9416C14.5619 18.9186 16.8285 19.3512 19.0341 19.2459C19.0555 18.6785 19.3729 18.2443 17.3285 17.8495C15.631 17.5205 13.1211 16.8166 11.95 14.9613C10.8743 13.2556 11.4928 11.0138 13.2889 9.69794C13.1441 9.76702 13.0076 9.84268 12.8711 9.91834C11.348 10.7983 10.5898 11.9497 10.5898 13.1092V14.7622C10.5873 14.9407 10.6077 15.1187 10.6506 15.2919C10.7331 15.714 10.9065 16.113 11.1589 16.4613Z" fill="#E0E0E0"/>
<path d="M26.161 29.9436C21.8698 32.3977 14.9123 32.3977 10.6211 29.9436C8.4746 28.7183 7.4022 27.1097 7.4022 25.5027V36.1149C7.4022 37.7218 8.4746 39.3304 10.6211 40.5558C14.9123 43.0098 21.8698 43.0098 26.161 40.5558C28.3075 39.3304 29.3799 37.7218 29.3799 36.1149V25.5027C29.3799 27.1097 28.3075 28.7183 26.161 29.9436Z" fill="#16BF78"/>
<path d="M26.161 28.9272C21.8698 31.3795 14.9123 31.3795 10.6211 28.9272C8.4746 27.7002 7.4022 26.0932 7.4022 24.4862V35.0984C7.4022 36.707 8.4746 38.314 10.6211 39.5393C14.9123 41.9917 21.8698 41.9917 26.161 39.5393C28.3075 38.3123 29.3799 36.7054 29.3799 35.0984V24.4846C29.3799 26.0932 28.3075 27.7002 26.161 28.9272Z" fill="#FAFAFA"/>
<path d="M14.8267 35.1839C14.8173 34.5199 14.6753 33.8645 14.409 33.2562V33.2431C14.1047 32.549 13.6639 31.9667 13.1737 31.6838C12.4583 31.2726 11.8579 31.9486 11.6194 32.8944C11.5964 32.9898 11.4845 32.9947 11.4697 32.8944C11.2526 31.6608 10.6276 30.215 9.89074 29.7939C9.3973 29.5127 8.95979 29.5883 8.65715 29.9354C8.39892 30.238 8.24102 30.7364 8.24266 31.3861C8.24266 33.3993 9.45816 35.2069 10.4746 37.11L11.5717 38.9472L12.6145 38.3386C13.6145 37.6133 14.83 37.1971 14.8267 35.1839Z" fill="#16BF78"/>
<path d="M10.0338 34.526L10.5026 33.2973C10.514 33.2583 10.5378 33.224 10.5705 33.1996C10.6031 33.1753 10.6428 33.1623 10.6835 33.1625C10.7246 33.1628 10.7643 33.1771 10.796 33.2032C10.8277 33.2292 10.8496 33.2654 10.8578 33.3056L11.5832 36.1264L12.1605 34.5474C12.1739 34.5113 12.1982 34.4804 12.2301 34.4588C12.2619 34.4373 12.2997 34.4263 12.3382 34.4273C12.376 34.4297 12.4122 34.4438 12.4417 34.4677C12.4712 34.4915 12.4925 34.524 12.5026 34.5605L12.9319 36.0869L14.4237 36.9471L14.3892 36.9998C14.338 37.0711 14.2831 37.1397 14.2247 37.2054L14.1935 37.2415L12.6786 36.3665C12.6374 36.3429 12.6072 36.3038 12.5947 36.258L12.2987 35.2069L11.6983 36.8517C11.6846 36.8889 11.6593 36.9206 11.6261 36.9423C11.5929 36.9639 11.5537 36.9743 11.5141 36.9718C11.475 36.9688 11.4378 36.9533 11.4082 36.9275C11.3785 36.9017 11.358 36.8671 11.3496 36.8287L10.6539 34.1148L10.3249 34.8533C10.3176 34.8802 10.3041 34.9051 10.2856 34.9259C10.267 34.9467 10.2439 34.963 10.218 34.9734C10.1917 34.9845 10.1632 34.9894 10.1346 34.9877C10.1061 34.986 10.0784 34.9777 10.0535 34.9635L8.86108 34.2744L8.85285 34.2579C8.79528 34.128 8.73936 33.9997 8.68837 33.8697L8.62587 33.7151L10.0338 34.526Z" fill="#FAFAFA"/>
<path d="M18.4733 34.5063C18.0538 34.5063 17.6311 34.4931 17.2018 34.4668C17.1585 34.4638 17.1181 34.4439 17.0894 34.4112C17.0607 34.3785 17.0462 34.3358 17.0489 34.2925C17.0518 34.2491 17.0718 34.2087 17.1045 34.18C17.1372 34.1514 17.1798 34.1368 17.2232 34.1395C20.1131 34.3155 22.8155 33.8813 25.0458 32.8812C25.0656 32.8724 25.0869 32.8675 25.1086 32.8669C25.1302 32.8663 25.1518 32.8699 25.172 32.8776C25.1922 32.8853 25.2108 32.897 25.2265 32.9118C25.2423 32.9267 25.2549 32.9445 25.2638 32.9643C25.2726 32.9841 25.2775 33.0054 25.2781 33.027C25.2787 33.0487 25.2751 33.0702 25.2674 33.0905C25.2597 33.1107 25.248 33.1292 25.2332 33.145C25.2183 33.1607 25.2005 33.1734 25.1807 33.1822C23.2366 34.0556 20.9372 34.5063 18.4733 34.5063Z" fill="#E0E0E0"/>
<path d="M18.4733 36.2925C18.0538 36.2925 17.6311 36.2794 17.2018 36.253C17.1585 36.2501 17.1181 36.2301 17.0894 36.1974C17.0607 36.1648 17.0462 36.1221 17.0489 36.0787C17.0518 36.0353 17.0718 35.9949 17.1045 35.9663C17.1372 35.9376 17.1798 35.923 17.2232 35.9257C20.1131 36.1017 22.8155 35.6675 25.0458 34.6675C25.0857 34.6496 25.1311 34.6483 25.172 34.6639C25.2129 34.6794 25.2459 34.7106 25.2638 34.7505C25.2817 34.7904 25.283 34.8358 25.2674 34.8767C25.2518 34.9176 25.2206 34.9506 25.1807 34.9685C23.2366 35.8418 20.9372 36.2925 18.4733 36.2925Z" fill="#E0E0E0"/>
<path d="M18.4733 38.0804C18.0538 38.0804 17.6311 38.0672 17.2018 38.0409C17.1582 38.0381 17.1175 38.018 17.0887 37.9852C17.0598 37.9523 17.0452 37.9094 17.0481 37.8658C17.0509 37.8221 17.0709 37.7814 17.1038 37.7526C17.1366 37.7237 17.1796 37.7091 17.2232 37.712C20.1131 37.8896 22.8155 37.4554 25.0458 36.4553C25.0855 36.4375 25.1307 36.4362 25.1714 36.4516C25.2121 36.467 25.245 36.4979 25.2629 36.5376C25.272 36.5573 25.2771 36.5787 25.2778 36.6004C25.2786 36.6221 25.2751 36.6438 25.2674 36.6641C25.2598 36.6844 25.2482 36.7031 25.2333 36.7189C25.2184 36.7347 25.2005 36.7475 25.1807 36.7563C23.2366 37.6264 20.9372 38.0804 18.4733 38.0804Z" fill="#E0E0E0"/>
<path d="M12.5224 60.6979C12.505 60.6471 12.4842 60.5976 12.4599 60.5498C12.4393 60.509 12.4162 60.4694 12.3908 60.4314C12.2722 60.2596 12.1227 60.1112 11.95 59.9939V60.4495L11.5602 60.2225V59.7702C10.4746 59.2554 8.86928 59.2932 7.8561 59.8771C7.51247 60.0509 7.24319 60.3429 7.09785 60.6995C7.09785 60.7258 7.08304 60.7505 7.07646 60.7768C7.05692 60.8515 7.04697 60.9283 7.04686 61.0054V61.9084C7.0503 62.1247 7.12101 62.3345 7.24917 62.5088C7.41136 62.7262 7.61833 62.9062 7.8561 63.0368C8.93672 63.6601 10.6868 63.6601 11.7641 63.0368C12.3036 62.7242 12.575 62.3163 12.575 61.9084V61.0054C12.5747 60.9007 12.5569 60.7968 12.5224 60.6979Z" fill="#F0F0F0"/>
<path d="M10.6769 59.4889C9.71801 59.3064 8.6193 59.4347 7.85611 59.8755C7.51249 60.0492 7.24321 60.3413 7.09787 60.6979C7.09787 60.7242 7.08306 60.7489 7.07648 60.7752C7.05694 60.8498 7.04699 60.9266 7.04688 61.0038V61.9068C7.05032 62.123 7.12103 62.3329 7.24919 62.5071C7.41137 62.7245 7.61835 62.9046 7.85611 63.0351C8.6193 63.4759 9.71801 63.6026 10.6769 63.42V59.4889Z" fill="#EBEBEB"/>
<path d="M7.85777 59.8755C6.84458 60.461 6.78207 61.387 7.6719 62.0137L11.5602 59.7685C10.4746 59.2554 8.87095 59.2981 7.85777 59.8755Z" fill="#FAFAFA"/>
<path d="M7.67026 61.7768C7.67026 61.7768 6.59621 60.9545 7.79033 59.9166C6.84293 60.5021 6.80346 61.3969 7.67191 62.0137L11.5602 59.7686L7.67026 61.7768Z" fill="white"/>
<path d="M11.95 59.9939L8.06168 62.239C9.14724 62.7522 10.7526 62.7177 11.7657 62.1321C12.7789 61.5466 12.8398 60.614 11.95 59.9939Z" fill="#FAFAFA"/>
<path d="M8.06168 62.239C9.14724 62.7522 10.7526 62.7177 11.7657 62.1321C11.8785 62.0678 11.9853 61.9934 12.0848 61.9101C10.0963 62.9068 8.49755 62.2045 8.49755 62.2045L11.9516 59.9939L8.06168 62.239Z" fill="white"/>
<path d="M11.5602 60.2209L7.67189 62.4759V62.0137L11.5602 59.7686V60.2209Z" fill="#E0E0E0"/>
<path opacity="0.2" d="M8.06171 62.239L8.06336 62.7012L7.67189 62.4759L8.06171 62.239Z" fill="black"/>
<path d="M13.6145 59.2505C13.5975 59.1991 13.5766 59.149 13.552 59.1008C13.5306 59.0606 13.507 59.0216 13.4813 58.984C13.3633 58.8122 13.2144 58.6638 13.0421 58.5465V58.9988L12.6507 58.7718V58.3195C11.5651 57.8063 9.96144 57.8425 8.94825 58.4281C8.6038 58.6007 8.33419 58.8932 8.19 59.2505C8.18178 59.2768 8.17355 59.3015 8.16697 59.3261C8.14876 59.401 8.13938 59.4777 8.13901 59.5548V60.4594C8.14245 60.6757 8.21316 60.8855 8.34132 61.0597C8.50319 61.277 8.71026 61.4566 8.94825 61.5861C10.0272 62.2094 11.7773 62.2094 12.8563 61.5861C13.3958 61.2752 13.6655 60.8673 13.6655 60.4594V59.5548C13.6655 59.4512 13.6483 59.3484 13.6145 59.2505Z" fill="#F0F0F0"/>
<path d="M11.7612 58.0399C10.8006 57.8573 9.70356 57.9873 8.94038 58.4281C8.59593 58.6007 8.32632 58.8932 8.18213 59.2505C8.17391 59.2768 8.16568 59.3015 8.1591 59.3261C8.14089 59.401 8.13151 59.4777 8.13114 59.5548V60.4594C8.13458 60.6757 8.20529 60.8855 8.33345 61.0597C8.49532 61.277 8.70239 61.4566 8.94038 61.5861C9.70356 62.0269 10.8006 62.1552 11.7612 61.9726V58.0399Z" fill="#EBEBEB"/>
<path d="M8.94004 58.4283C7.92685 59.0122 7.86435 59.9382 8.75418 60.5666L12.6425 58.323C11.5569 57.8066 9.95323 57.8428 8.94004 58.4283Z" fill="#FAFAFA"/>
<path d="M8.75417 60.3294C8.75417 60.3294 7.68012 59.507 8.87424 58.4675C7.92519 59.0547 7.88736 59.9478 8.75417 60.5646L12.6424 58.3211L8.75417 60.3294Z" fill="white"/>
<path d="M13.0339 58.5465L9.14563 60.7916C10.2312 61.3048 11.8349 61.2686 12.8481 60.6831C13.8612 60.0975 13.9221 59.1731 13.0339 58.5465Z" fill="#FAFAFA"/>
<path d="M9.14563 60.7916C10.2312 61.3048 11.8349 61.2686 12.848 60.6831C12.9607 60.6191 13.0674 60.5453 13.1671 60.4627C11.1802 61.4578 9.57986 60.7554 9.57986 60.7554L13.0339 58.5465L9.14563 60.7916Z" fill="white"/>
<path d="M12.6424 58.7718L8.75415 61.0285V60.5646L12.6424 58.3211V58.7718Z" fill="#E0E0E0"/>
<path opacity="0.2" d="M9.14561 60.7916V61.2538L8.75415 61.0285L9.14561 60.7916Z" fill="black"/>
<path d="M20.4503 61.6634C20.2858 61.568 20.1822 61.3624 20.1822 61.0696C20.1995 60.751 20.2916 60.441 20.4511 60.1647C20.6105 59.8884 20.8328 59.6535 21.1 59.4791C21.1926 59.4118 21.3014 59.3705 21.4153 59.3592C21.5292 59.3479 21.644 59.3672 21.748 59.4149L22.929 60.0992C23.2273 60.2717 23.445 60.5557 23.534 60.8887C23.6229 61.2216 23.576 61.5763 23.4035 61.8747C23.231 62.1731 22.947 62.3907 22.614 62.4797C22.281 62.5687 21.9263 62.5218 21.6279 62.3492L20.4503 61.6634Z" fill="#F5F5F5"/>
<path d="M18.8236 60.7225C18.6638 60.6437 18.5219 60.5329 18.4067 60.397C18.2915 60.2612 18.2055 60.1031 18.1539 59.9325C18.1023 59.762 18.0863 59.5827 18.1068 59.4058C18.1273 59.2288 18.184 59.058 18.2733 58.9038C18.3625 58.7496 18.4825 58.6154 18.6258 58.5095C18.769 58.4037 18.9325 58.3283 19.1061 58.2882C19.2797 58.248 19.4596 58.244 19.6348 58.2763C19.81 58.3085 19.9767 58.3764 20.1246 58.4758L21.748 59.4199C21.644 59.3721 21.5292 59.3528 21.4153 59.3641C21.3014 59.3754 21.1926 59.4168 21.1 59.484C20.8328 59.6584 20.6105 59.8933 20.4511 60.1696C20.2916 60.446 20.1995 60.756 20.1822 61.0745C20.1822 61.3673 20.2842 61.568 20.4503 61.6683L18.8236 60.7225Z" fill="#16BF78"/>
<path opacity="0.4" d="M19.1163 58.8162C19.0831 58.8726 19.0615 58.935 19.0526 58.9998C19.0437 59.0646 19.0478 59.1305 19.0646 59.1937C19.0815 59.2569 19.1107 59.3162 19.1507 59.368C19.1906 59.4198 19.2404 59.4632 19.2973 59.4955L21.2628 60.6354C21.4283 60.3611 21.5212 60.0492 21.5325 59.7291C21.5325 59.6978 21.5325 59.6682 21.5325 59.6403L19.7956 58.6402C19.7396 58.6068 19.6774 58.5849 19.6128 58.5756C19.5482 58.5664 19.4824 58.57 19.4193 58.5864C19.3561 58.6028 19.2968 58.6315 19.2448 58.671C19.1928 58.7104 19.1491 58.7598 19.1163 58.8162Z" fill="white"/>
<path d="M20.4503 61.6634C20.2858 61.568 20.1822 61.3624 20.1822 61.0696C20.1995 60.751 20.2916 60.441 20.4511 60.1647C20.6105 59.8884 20.8328 59.6535 21.1 59.4791C21.1926 59.4118 21.3014 59.3705 21.4153 59.3592C21.5292 59.3479 21.644 59.3672 21.748 59.4149L22.929 60.0992C23.2273 60.2717 23.445 60.5557 23.534 60.8887C23.6229 61.2216 23.576 61.5763 23.4035 61.8747C23.231 62.1731 22.947 62.3907 22.614 62.4797C22.281 62.5687 21.9263 62.5218 21.6279 62.3492L20.4503 61.6634Z" fill="#F5F5F5"/>
<path opacity="0.1" d="M21.1 59.4791C20.8328 59.6535 20.6105 59.8884 20.4511 60.1647C20.2916 60.441 20.1995 60.751 20.1822 61.0696C20.1822 61.3623 20.2841 61.563 20.4503 61.6633L20.3582 61.6107L20.2874 61.5696C20.123 61.4742 20.0193 61.2686 20.0193 60.9758C20.0363 60.6572 20.1282 60.347 20.2877 60.0706C20.4472 59.7942 20.6697 59.5594 20.9371 59.3853C21.0297 59.3181 21.1386 59.2767 21.2525 59.2654C21.3663 59.2541 21.4812 59.2734 21.5852 59.3212L21.7497 59.4149C21.6455 59.3668 21.5303 59.3474 21.4161 59.3587C21.3019 59.37 21.1927 59.4115 21.1 59.4791Z" fill="black"/>
<path d="M23.5688 61.086C23.5998 61.3595 23.5421 61.6357 23.4043 61.8739C23.319 62.0218 23.2053 62.1515 23.0698 62.2555C22.9343 62.3594 22.7797 62.4357 22.6147 62.4798C22.4497 62.524 22.2776 62.5352 22.1083 62.5128C21.939 62.4903 21.7758 62.4348 21.6279 62.3492L20.4503 61.6634C20.2858 61.568 20.1822 61.3624 20.1822 61.0696C20.1834 60.935 20.2022 60.8012 20.2381 60.6715L22.2118 61.8114C22.8566 62.1864 23.5622 61.512 23.5688 61.086Z" fill="#EBEBEB"/>
<path d="M23.1214 61.137C23.089 61.1939 23.0457 61.2437 22.9939 61.2836C22.9421 61.3236 22.8828 61.3528 22.8196 61.3697C22.7564 61.3865 22.6905 61.3906 22.6257 61.3817C22.5609 61.3728 22.4985 61.3512 22.4421 61.318L20.4503 60.1666C20.604 59.8853 20.8278 59.6484 21.1 59.4791L21.1789 59.438L22.9388 60.4561C22.996 60.4883 23.0462 60.5316 23.0865 60.5835C23.1267 60.6354 23.1562 60.6948 23.1732 60.7582C23.1902 60.8216 23.1944 60.8878 23.1855 60.9528C23.1766 61.0179 23.1548 61.0805 23.1214 61.137Z" fill="white"/>
<path opacity="0.1" d="M18.4403 58.8047C18.4552 58.785 18.47 58.7652 18.4864 58.7471L18.5209 58.7077L18.5621 58.6649C18.5766 58.6498 18.592 58.6355 18.6081 58.6221L18.6311 58.6024C18.6998 58.544 18.7742 58.4928 18.8532 58.4494L18.9404 58.4067C18.5769 58.6254 18.3466 59.5728 18.993 59.9478C19.215 60.0761 19.5473 60.2768 20.2315 60.6683C20.1957 60.7979 20.1769 60.9318 20.1756 61.0663C20.1756 61.3591 20.2776 61.5597 20.4437 61.6601L18.817 60.7193C18.5186 60.5466 18.3009 60.2625 18.2117 59.9294C18.1226 59.5964 18.1693 59.2415 18.3417 58.9429C18.3614 58.9083 18.3844 58.8754 18.4075 58.8425L18.4403 58.8047Z" fill="black"/>
<path d="M41.1664 57.2635C41.2601 57.1971 41.3344 57.107 41.3818 57.0023C41.4292 56.8977 41.448 56.7824 41.4361 56.6681C41.4187 56.3498 41.3265 56.0401 41.167 55.7641C41.0076 55.488 40.7853 55.2534 40.5183 55.0793C40.265 54.9329 40.0348 54.9148 39.8686 55.0151L38.6893 55.6977C38.3907 55.87 38.1728 56.1539 38.0835 56.4869C37.9942 56.8198 38.0409 57.1747 38.2132 57.4733C38.3855 57.7719 38.6693 57.9898 39.0023 58.0791C39.3353 58.1684 39.6901 58.1217 39.9887 57.9494L41.1664 57.2635Z" fill="#F5F5F5"/>
<path d="M42.7931 56.3227C43.0917 56.1504 43.3096 55.8666 43.3989 55.5336C43.4882 55.2006 43.4416 54.8458 43.2692 54.5472C43.0969 54.2486 42.8131 54.0307 42.4801 53.9414C42.1471 53.8521 41.7923 53.8987 41.4937 54.071L39.8686 55.0217C40.0331 54.9247 40.265 54.9395 40.5183 55.0859C40.7853 55.26 41.0076 55.4946 41.167 55.7706C41.3265 56.0467 41.4187 56.3564 41.4361 56.6747C41.448 56.789 41.4292 56.9043 41.3818 57.0089C41.3344 57.1135 41.2601 57.2037 41.1664 57.2701L42.7931 56.3227Z" fill="#16BF78"/>
<path opacity="0.4" d="M42.502 54.4148C42.5351 54.4712 42.5567 54.5337 42.5654 54.5986C42.5742 54.6635 42.57 54.7295 42.553 54.7927C42.536 54.8559 42.5066 54.9151 42.4665 54.9669C42.4264 55.0186 42.3764 55.0619 42.3194 55.0941L40.3555 56.2339C40.1898 55.9598 40.0969 55.6478 40.0858 55.3276C40.0858 55.298 40.0858 55.2684 40.0858 55.2388L41.8194 54.2322C41.876 54.1985 41.9387 54.1765 42.004 54.1675C42.0692 54.1585 42.1355 54.1626 42.1992 54.1796C42.2628 54.1966 42.3223 54.2262 42.3743 54.2666C42.4263 54.307 42.4697 54.3574 42.502 54.4148Z" fill="white"/>
<path d="M41.1664 57.2635C41.2601 57.1971 41.3344 57.107 41.3818 57.0023C41.4292 56.8977 41.448 56.7824 41.4361 56.6681C41.4187 56.3498 41.3265 56.0401 41.167 55.7641C41.0076 55.488 40.7853 55.2534 40.5183 55.0793C40.265 54.9329 40.0348 54.9148 39.8686 55.0151L38.6893 55.6977C38.3907 55.87 38.1728 56.1539 38.0835 56.4869C37.9942 56.8198 38.0409 57.1747 38.2132 57.4733C38.3855 57.7719 38.6693 57.9898 39.0023 58.0791C39.3353 58.1684 39.6901 58.1217 39.9887 57.9494L41.1664 57.2635Z" fill="#F5F5F5"/>
<path opacity="0.1" d="M40.5183 55.0793C40.7854 55.2534 41.0076 55.488 41.167 55.7641C41.3265 56.0401 41.4187 56.3498 41.4361 56.6681C41.448 56.7824 41.4292 56.8977 41.3818 57.0023C41.3344 57.107 41.2601 57.1971 41.1664 57.2635L41.2601 57.2093L41.3292 57.1681C41.423 57.1022 41.4975 57.0124 41.5449 56.908C41.5924 56.8036 41.611 56.6884 41.599 56.5744C41.5816 56.256 41.4895 55.9463 41.33 55.6702C41.1706 55.3942 40.9483 55.1596 40.6812 54.9855C40.5884 54.918 40.4794 54.8764 40.3652 54.8648C40.2511 54.8532 40.1359 54.8722 40.0315 54.9197L39.867 55.0151C40.0348 54.9181 40.2601 54.9329 40.5183 55.0793Z" fill="black"/>
<path d="M38.0479 56.6862C38.0219 56.9248 38.0626 57.1658 38.1653 57.3826C38.2681 57.5994 38.429 57.7834 38.6301 57.9143C38.8312 58.0452 39.0646 58.1177 39.3044 58.1239C39.5443 58.1301 39.7811 58.0697 39.9887 57.9494L41.1664 57.2636C41.2601 57.1971 41.3344 57.107 41.3818 57.0024C41.4292 56.8977 41.448 56.7824 41.4361 56.6682C41.4343 56.5341 41.4149 56.4008 41.3786 56.2718L39.4048 57.4116C38.76 57.785 38.0561 57.1122 38.0479 56.6862Z" fill="#EBEBEB"/>
<path d="M38.4969 56.7356C38.5291 56.7925 38.5724 56.8425 38.6241 56.8826C38.6759 56.9227 38.7351 56.9521 38.7983 56.9691C38.8615 56.9861 38.9275 56.9904 38.9924 56.9816C39.0573 56.9728 39.1197 56.9513 39.1762 56.9181L41.168 55.7668C41.0133 55.4866 40.7897 55.2506 40.5183 55.0809C40.4923 55.0656 40.4654 55.0519 40.4377 55.0398L38.6778 56.0579C38.6212 56.0903 38.5716 56.1336 38.5318 56.1852C38.492 56.2369 38.4628 56.296 38.446 56.359C38.4292 56.422 38.425 56.4877 38.4337 56.5524C38.4425 56.617 38.4639 56.6793 38.4969 56.7356Z" fill="white"/>
<path opacity="0.1" d="M43.178 54.4115L43.1319 54.3523L43.0957 54.3128L43.0546 54.2717L43.0102 54.2289L42.9872 54.2092C42.9184 54.1503 42.8434 54.099 42.7635 54.0562L42.6763 54.0135C43.0414 54.2339 43.2717 55.1813 42.6237 55.5546C42.4016 55.6829 42.071 55.8836 41.3851 56.2767C41.4215 56.4057 41.4409 56.539 41.4427 56.6731C41.4545 56.7873 41.4358 56.9027 41.3884 57.0073C41.341 57.1119 41.2667 57.202 41.173 57.2685L42.7997 56.3277C42.9476 56.2423 43.0773 56.1287 43.1812 55.9932C43.2852 55.8577 43.3614 55.703 43.4056 55.538C43.4497 55.373 43.4609 55.201 43.4385 55.0317C43.4161 54.8624 43.3606 54.6991 43.275 54.5513C43.2553 54.5168 43.2339 54.4822 43.2109 54.4493L43.178 54.4115Z" fill="black"/>
<path d="M35.3932 42.0065C35.3932 41.222 34.8751 40.4358 33.8372 39.837C31.7631 38.6396 28.3996 38.6396 26.3255 39.837C25.2876 40.4358 24.7695 41.222 24.7695 42.0065V55.6435C24.7695 56.428 25.2876 57.2126 26.3255 57.8113C28.3996 59.0103 31.7631 59.0103 33.8372 57.8113C34.8751 57.2126 35.3932 56.428 35.3932 55.6435V42.0065Z" fill="#16BF78"/>
<path opacity="0.4" d="M33.352 39.5919V58.058C33.5206 57.9868 33.6853 57.9066 33.8454 57.8179C34.1542 57.6434 34.438 57.4282 34.6892 57.178V40.4785C34.4377 40.2282 34.1539 40.0124 33.8454 39.837C33.681 39.7482 33.5165 39.6676 33.352 39.5919Z" fill="white"/>
<path opacity="0.4" d="M31.9589 58.5103C32.2171 58.4535 32.4724 58.3838 32.7237 58.3014V39.3485C32.4726 39.2654 32.2173 39.1957 31.9589 39.1396V58.5103Z" fill="white"/>
<path opacity="0.1" d="M35.3011 41.4407C34.9716 40.9978 34.5503 40.6314 34.0658 40.3667C32.0181 39.1841 28.7877 39.1035 26.5755 40.1216V39.7071C26.4916 39.7499 26.411 39.791 26.3255 39.837C25.2876 40.4357 24.7695 41.222 24.7695 42.0065V44.0822V52.6697V55.6434C24.7695 56.428 25.2876 57.2126 26.3255 57.8113C28.3996 59.0103 31.7631 59.0103 33.8372 57.8113C34.1891 57.6146 34.5086 57.3649 34.7846 57.0711C33.7977 57.9938 31.3306 58.5021 29.5098 58.1419C27.689 57.7817 26.5755 56.6172 26.5755 55.7882V53.0874C27.6002 53.6417 28.9407 53.9098 30.2499 53.9098V48.3932C28.9341 48.3932 27.6002 48.1909 26.5755 47.6399V45.2122C28.7877 46.2303 32.0181 46.1497 34.0658 44.9671C34.6048 44.6775 35.0615 44.2559 35.3932 43.7418V42.0065C35.3926 41.8142 35.3615 41.6233 35.3011 41.4407Z" fill="black"/>
<path opacity="0.1" d="M25.6659 56.0234V40.3009C25.0689 40.8157 24.7695 41.4111 24.7695 42.0065V55.6435C24.7695 56.428 25.2876 57.2126 26.3255 57.8113C26.954 58.1609 27.635 58.4064 28.342 58.5383C26.3469 57.9971 25.6659 56.6336 25.6659 56.0234Z" fill="black"/>
<path d="M35.7156 39.5804C35.7156 38.7482 35.1662 37.9143 34.0708 37.2777C31.87 36.008 28.3025 36.008 26.1018 37.2777C25.0014 37.9126 24.457 38.7465 24.457 39.5804V42.0772C24.457 42.9095 25.0064 43.7434 26.1018 44.3799C28.3025 45.6497 31.87 45.6497 34.0708 44.3799C35.1711 43.745 35.7156 42.9111 35.7156 42.0772V39.5804Z" fill="#E0E0E0"/>
<g opacity="0.2">
<path opacity="0.2" d="M35.8504 39.3485H35.5807V43.2335H35.8504V39.3485Z" fill="black"/>
<path opacity="0.2" d="M35.2287 40.3979H34.959V44.3043H35.2287V40.3979Z" fill="black"/>
<path opacity="0.2" d="M34.2879 41.12H34.0181V45.0461H34.2879V41.12Z" fill="black"/>
<path opacity="0.2" d="M33.2155 41.569H32.9457V45.5165H33.2155V41.569Z" fill="black"/>
<path opacity="0.2" d="M32.0362 41.8683H31.7664V45.8372H32.0362V41.8683Z" fill="black"/>
<path opacity="0.2" d="M30.7878 42.018H30.518V46.0083H30.7878V42.018Z" fill="black"/>
<path opacity="0.2" d="M29.5197 42.0131H29.2499V46.0231H29.5197V42.0131Z" fill="black"/>
<path opacity="0.2" d="M28.2828 41.8486H28.013V45.88H28.2828V41.8486Z" fill="black"/>
<path opacity="0.2" d="M27.1232 41.5147H26.8534V45.5675H27.1232V41.5147Z" fill="black"/>
<path opacity="0.2" d="M26.0722 40.9983H25.8024V45.0724H26.0722V40.9983Z" fill="black"/>
<path opacity="0.2" d="M25.2383 40.2795H24.9685V44.3733H25.2383V40.2795Z" fill="black"/>
<path opacity="0.2" d="M24.582 39.1183H24.3123V43.2335H24.582V39.1183Z" fill="black"/>
</g>
<path opacity="0.1" d="M31.4293 45.2319C28.6413 45.2484 27.1693 44.3421 26.7235 43.6036C26.383 43.0411 26.3255 42.0049 26.3255 40.9719C26.3255 40.9719 26.0113 38.6298 26.0722 38.6232C26.133 38.6166 25.4027 38.4587 24.8616 38.3502C24.5987 38.7052 24.4537 39.1338 24.4471 39.5755V42.0772C24.4471 42.9095 24.9965 43.7434 26.0919 44.3799C27.5426 45.2122 29.5789 45.4951 31.4293 45.2319Z" fill="black"/>
<path d="M30.0805 42.8338C33.1927 42.8338 35.7156 41.3772 35.7156 39.5805C35.7156 37.7837 33.1927 36.3271 30.0805 36.3271C26.9684 36.3271 24.4455 37.7837 24.4455 39.5805C24.4455 41.3772 26.9684 42.8338 30.0805 42.8338Z" fill="#EBEBEB"/>
<path d="M34.3685 41.6874C36.2567 40.4094 36.158 38.4883 34.0658 37.2794C32.9934 36.661 31.5986 36.3452 30.1891 36.3304C29.4682 36.4424 28.7724 36.6795 28.1331 37.031C26.2317 38.1182 26.2317 40.2894 28.1331 41.3766C29.8305 42.347 32.4687 42.449 34.3685 41.6874Z" fill="#F5F5F5"/>
<path opacity="0.1" d="M26.6314 57.5695C28.5361 58.5268 31.6266 58.5268 33.5313 57.5695C35.436 56.6122 35.4376 55.0596 33.5313 54.1023C31.625 53.145 28.5361 53.145 26.6314 54.1023C24.7267 55.0596 24.7251 56.6122 26.6314 57.5695Z" fill="black"/>
<path d="M24.7695 45.5905C24.7695 46.375 25.2876 47.1596 26.3255 47.7583C27.3633 48.357 28.7219 48.6564 30.0805 48.6564V54.0628C28.7219 54.0628 27.3617 53.7634 26.3255 53.1647C25.2893 52.566 24.7695 51.7815 24.7695 50.9969V45.5905Z" fill="white"/>
<path d="M24.8781 40.8289C24.8781 40.8289 26.7104 42.6743 30.2499 42.5773C33.7895 42.4802 35.2073 40.5476 35.3932 39.9456C35.4885 39.5927 35.4948 39.2217 35.4116 38.8658C35.3283 38.5098 35.1581 38.1801 34.9162 37.9061C35.1558 38.1159 35.3502 38.3722 35.4876 38.6595C35.625 38.9468 35.7026 39.259 35.7156 39.5772V42.0772C35.7156 42.2878 35.8241 43.0148 34.681 43.9556C34.681 43.9556 35.3521 43.1941 35.3521 42.4621V40.7351C35.3521 40.7351 34.0987 42.8306 30.2532 42.8306C26.4077 42.8306 25.0721 41.143 24.8781 40.8289Z" fill="white"/>
</svg>
