<svg width="26" height="64" viewBox="0 0 26 64" fill="none" xmlns="http://www.w3.org/2000/svg">
<path d="M2.10296 0.124261L29.8634 16.1318C30.0145 16.2304 30.1402 16.3632 30.2303 16.5195C30.3205 16.6757 30.3725 16.851 30.3822 17.0312V62.9194C30.3725 63.0993 30.3205 63.2743 30.2303 63.4302C30.1401 63.5862 30.0144 63.7186 29.8634 63.8167L29.7576 63.8757C29.5964 63.9574 29.4183 64 29.2377 64C29.057 64 28.8789 63.9574 28.7178 63.8757L0.957383 47.8458C0.806518 47.747 0.68097 47.6141 0.590847 47.4579C0.500724 47.3017 0.448548 47.1265 0.438519 46.9464V1.0806C0.449305 0.902382 0.501898 0.729202 0.592039 0.575078C0.68218 0.420954 0.807335 0.290216 0.957383 0.193443L1.0632 0.1324C1.22382 0.0499123 1.40154 0.00620959 1.58211 0.00479616C1.76268 0.00338273 1.94106 0.0442977 2.10296 0.124261Z" fill="#16BF78"/>
<path opacity="0.45" d="M2.10296 0.124261L29.8634 16.1318C30.0145 16.2304 30.1402 16.3632 30.2303 16.5195C30.3205 16.6757 30.3725 16.851 30.3822 17.0312V62.9194C30.3725 63.0993 30.3205 63.2743 30.2303 63.4302C30.1401 63.5862 30.0144 63.7186 29.8634 63.8167L29.7576 63.8757C29.5964 63.9574 29.4183 64 29.2377 64C29.057 64 28.8789 63.9574 28.7178 63.8757L0.957383 47.8458C0.806518 47.747 0.68097 47.6141 0.590847 47.4579C0.500724 47.3017 0.448548 47.1265 0.438519 46.9464V1.0806C0.449305 0.902382 0.501898 0.729202 0.592039 0.575078C0.68218 0.420954 0.807335 0.290216 0.957383 0.193443L1.0632 0.1324C1.22382 0.0499123 1.40154 0.00620959 1.58211 0.00479616C1.76268 0.00338273 1.94106 0.0442977 2.10296 0.124261Z" fill="black"/>
<path d="M0.438519 46.9932C0.438519 47.449 0.757976 47.74 1.15476 47.9679L28.5204 63.7557C28.9152 63.9856 29.2367 63.8004 29.2367 63.3487V17.9122C29.2371 17.6614 29.1713 17.4149 29.0459 17.1977C28.9205 16.9804 28.7399 16.8002 28.5225 16.6751L1.15679 0.871013C1.0846 0.829085 1.00269 0.806788 0.9192 0.806342C0.835715 0.805896 0.753568 0.827316 0.68093 0.86847C0.608292 0.909625 0.547695 0.96908 0.505167 1.04092C0.462638 1.11276 0.43966 1.19449 0.438519 1.27797V46.9932Z" fill="#16BF78"/>
<path opacity="0.3" d="M0.438519 46.9932C0.438519 47.449 0.757976 47.74 1.15476 47.9679L28.5204 63.7557C28.9152 63.9856 29.2367 63.8004 29.2367 63.3487V17.9122C29.2371 17.6614 29.1713 17.4149 29.0459 17.1977C28.9205 16.9804 28.7399 16.8002 28.5225 16.6751L1.15679 0.871013C1.0846 0.829085 1.00269 0.806788 0.9192 0.806342C0.835715 0.805896 0.753568 0.827316 0.68093 0.86847C0.608292 0.909625 0.547695 0.96908 0.505167 1.04092C0.462638 1.11276 0.43966 1.19449 0.438519 1.27797V46.9932Z" fill="black"/>
<path d="M0.436493 1.08061V1.28409C0.438036 1.20055 0.461351 1.11886 0.504128 1.04709C0.546905 0.975325 0.607664 0.915958 0.680407 0.874861C0.753151 0.833763 0.835358 0.812355 0.918907 0.812753C1.00246 0.813152 1.08446 0.835342 1.1568 0.877131L28.5225 16.6751C28.7404 16.7995 28.921 16.9801 29.0454 17.198C29.0461 17.2028 29.0461 17.2076 29.0454 17.2123L30.2296 16.5286C30.1406 16.3672 30.0117 16.2313 29.8552 16.1339L2.10297 0.124265C1.94185 0.0425722 1.76374 0 1.58309 0C1.40244 0 1.22433 0.0425722 1.06321 0.124265L0.959431 0.185308C0.807556 0.282423 0.680935 0.414245 0.590014 0.569908C0.499093 0.72557 0.446474 0.900614 0.436493 1.08061Z" fill="#16BF78"/>
<path opacity="0.2" d="M0.436493 1.08061V1.28409C0.438036 1.20055 0.461351 1.11886 0.504128 1.04709C0.546905 0.975325 0.607664 0.915958 0.680407 0.874861C0.753151 0.833763 0.835358 0.812355 0.918907 0.812753C1.00246 0.813152 1.08446 0.835342 1.1568 0.877131L28.5225 16.6751C28.7404 16.7995 28.921 16.9801 29.0454 17.198C29.0461 17.2028 29.0461 17.2076 29.0454 17.2123L30.2296 16.5286C30.1406 16.3672 30.0117 16.2313 29.8552 16.1339L2.10297 0.124265C1.94185 0.0425722 1.76374 0 1.58309 0C1.40244 0 1.22433 0.0425722 1.06321 0.124265L0.959431 0.185308C0.807556 0.282423 0.680935 0.414245 0.590014 0.569908C0.499093 0.72557 0.446474 0.900614 0.436493 1.08061Z" fill="black"/>
<path opacity="0.25" d="M1.11203 45.925C1.11203 46.395 1.44166 46.6941 1.85065 46.9302L27.7146 61.8613C28.1216 62.0974 28.4533 61.9061 28.4533 61.434V20.5595C28.4535 20.3014 28.3858 20.0477 28.2568 19.8241C28.1279 19.6005 27.9423 19.4148 27.7187 19.2857L1.85472 4.34642C1.77975 4.30266 1.69454 4.27949 1.60773 4.27927C1.52092 4.27905 1.4356 4.30178 1.3604 4.34516C1.28521 4.38854 1.22282 4.45103 1.17956 4.52629C1.1363 4.60155 1.11371 4.68691 1.11407 4.77372V45.925H1.11203Z" fill="black"/>
<path d="M27.7879 19.8412L2.01953 4.96295C1.95092 4.92889 1.87536 4.91116 1.79876 4.91116C1.72216 4.91116 1.6466 4.92889 1.57799 4.96295L1.32974 5.10742C1.26662 5.14885 1.21406 5.20446 1.17625 5.26982C1.13845 5.33518 1.11646 5.40848 1.11202 5.48385V46.747C1.11645 46.8237 1.13883 46.8983 1.17735 46.9647C1.21588 47.0312 1.26947 47.0876 1.33381 47.1296L27.1022 62.0058C27.1705 62.0409 27.2461 62.0593 27.323 62.0593C27.3998 62.0593 27.4754 62.0409 27.5437 62.0058L27.792 61.8633C27.856 61.8213 27.9093 61.7648 27.9475 61.6983C27.9857 61.6319 28.0077 61.5574 28.0117 61.4808V20.2237C28.0072 20.1469 27.9846 20.0721 27.9457 20.0056C27.9068 19.9391 27.8527 19.8828 27.7879 19.8412Z" fill="#F5F5F5"/>
<path d="M1.32974 5.10742L1.57799 4.96295C1.6466 4.92889 1.72216 4.91116 1.79876 4.91116C1.87536 4.91116 1.95092 4.92889 2.01953 4.96295L27.7879 19.8412C27.852 19.8833 27.9053 19.9398 27.9434 20.0062C27.9816 20.0727 28.0036 20.1472 28.0077 20.2237V23.0053L27.3179 23.4122L1.11202 8.27353V5.48385C1.11646 5.40848 1.13845 5.33518 1.17625 5.26982C1.21406 5.20446 1.26662 5.14885 1.32974 5.10742Z" fill="#1678BF"/>
<path opacity="0.4" d="M1.32974 5.10742L1.57799 4.96295C1.6466 4.92889 1.72216 4.91116 1.79876 4.91116C1.87536 4.91116 1.95092 4.92889 2.01953 4.96295L27.7879 19.8412C27.852 19.8833 27.9053 19.9398 27.9434 20.0062C27.9816 20.0727 28.0036 20.1472 28.0077 20.2237V23.0053L27.3179 23.4122L1.11202 8.27353V5.48385C1.11646 5.40848 1.13845 5.33518 1.17625 5.26982C1.21406 5.20446 1.26662 5.14885 1.32974 5.10742Z" fill="white"/>
<path d="M1.11203 5.4228C1.14052 5.33327 1.22394 5.30275 1.32568 5.36176L27.094 20.24C27.1599 20.2802 27.2139 20.337 27.2507 20.4048L27.9385 19.9979C27.9024 19.9302 27.849 19.8734 27.7838 19.8331L2.01751 4.96294C1.94959 4.9278 1.87422 4.90945 1.79775 4.90945C1.72127 4.90945 1.64592 4.9278 1.57799 4.96294L1.32975 5.10741C1.27415 5.14267 1.22621 5.18877 1.18881 5.24296C1.1514 5.29714 1.12529 5.35831 1.11203 5.4228Z" fill="#1678BF"/>
<path opacity="0.6" d="M1.11203 5.4228C1.14052 5.33327 1.22394 5.30275 1.32568 5.36176L27.094 20.24C27.1599 20.2802 27.2139 20.337 27.2507 20.4048L27.9385 19.9979C27.9024 19.9302 27.849 19.8734 27.7838 19.8331L2.01751 4.96294C1.94959 4.9278 1.87422 4.90945 1.79775 4.90945C1.72127 4.90945 1.64592 4.9278 1.57799 4.96294L1.32975 5.10741C1.27415 5.14267 1.22621 5.18877 1.18881 5.24296C1.1514 5.29714 1.12529 5.35831 1.11203 5.4228Z" fill="white"/>
<path d="M26.2435 24.1529L20.7252 20.9664V21.4975L26.2435 24.684V24.1529Z" fill="#1678BF"/>
<path d="M26.2435 25.215L17.964 20.4354V20.9664L26.2435 25.7461V25.215Z" fill="#1678BF"/>
<path d="M26.2435 26.2772L18.8858 22.0286V22.5597L26.2435 26.8083V26.2772Z" fill="#1678BF"/>
<path d="M5.15106 11.9361C5.18654 11.9589 5.21477 11.9914 5.23245 12.0297C5.25377 12.0692 5.26562 12.1131 5.26704 12.1579V12.7683C5.26874 12.7849 5.26649 12.8017 5.26048 12.8172C5.25447 12.8328 5.24486 12.8467 5.23245 12.8579C5.22075 12.8668 5.20645 12.8716 5.19175 12.8716C5.17705 12.8716 5.16275 12.8668 5.15106 12.8579L4.39005 12.4204V15.3708C4.39159 15.3874 4.38927 15.4041 4.38327 15.4196C4.37727 15.4352 4.36775 15.4491 4.35546 15.4603C4.34352 15.4687 4.32932 15.4731 4.31476 15.4731C4.30021 15.4731 4.28601 15.4687 4.27407 15.4603L3.70841 15.1348C3.6722 15.1128 3.64374 15.0801 3.62701 15.0412C3.60452 15.0014 3.59261 14.9566 3.59242 14.911V11.9565L2.83142 11.519C2.79594 11.4962 2.7677 11.4637 2.75002 11.4254C2.72846 11.3853 2.71662 11.3407 2.71544 11.2952V10.6847C2.7139 10.6685 2.71624 10.652 2.72225 10.6368C2.72826 10.6216 2.73777 10.6081 2.75002 10.5972C2.76172 10.5883 2.77602 10.5835 2.79072 10.5835C2.80542 10.5835 2.81972 10.5883 2.83142 10.5972L5.15106 11.9361Z" fill="#1678BF"/>
<path d="M6.94981 12.9759C7.00646 13.0081 7.05244 13.0562 7.08207 13.1142C7.1093 13.1659 7.13047 13.2205 7.14515 13.277L8.08521 17.4463C8.09491 17.4774 8.10105 17.5094 8.10352 17.5419C8.10482 17.5555 8.10292 17.5692 8.09797 17.5819C8.09303 17.5946 8.08517 17.606 8.07504 17.6152C8.06529 17.6223 8.05353 17.6261 8.04147 17.6261C8.0294 17.6261 8.01765 17.6223 8.0079 17.6152L7.46461 17.2998C7.41219 17.273 7.36896 17.2312 7.34048 17.1797C7.31932 17.1423 7.30421 17.1018 7.29573 17.0597L7.17567 16.5123L6.02602 15.849L5.90597 16.2559C5.89888 16.2832 5.88228 16.307 5.85917 16.3231C5.83475 16.3414 5.79406 16.3353 5.73709 16.3027L5.1938 15.9873C5.16451 15.9694 5.14116 15.9432 5.12666 15.9121C5.10899 15.8795 5.09923 15.8433 5.09817 15.8062C5.09993 15.7796 5.10612 15.7535 5.11648 15.7289L6.05654 12.6462C6.06899 12.6112 6.09081 12.5802 6.11962 12.5567C6.15014 12.5323 6.19288 12.5364 6.24985 12.5689L6.94981 12.9759ZM6.24985 15.0859L6.94981 15.4929L6.60593 13.9078L6.24985 15.0859Z" fill="#1678BF"/>
<path d="M9.67843 17.4117L9.12497 18.1279C9.10974 18.1509 9.09043 18.1709 9.068 18.1869C9.04562 18.2012 9.00696 18.1869 8.94795 18.1584L8.29275 17.78C8.26347 17.7611 8.24017 17.7343 8.2256 17.7027C8.20772 17.6702 8.19795 17.6339 8.19712 17.5968C8.19712 17.5968 8.19712 17.5826 8.19712 17.5724C8.2001 17.5619 8.2042 17.5516 8.20932 17.5419L9.20636 16.258L8.25205 13.918C8.24417 13.895 8.23938 13.871 8.23781 13.8468C8.23652 13.8332 8.23842 13.8195 8.24337 13.8068C8.24831 13.794 8.25617 13.7826 8.2663 13.7735C8.27592 13.7661 8.28772 13.7621 8.29987 13.7621C8.31202 13.7621 8.32383 13.7661 8.33344 13.7735L8.98457 14.1499C9.03951 14.1787 9.08374 14.2243 9.11073 14.2802L9.1677 14.3982L9.6886 15.672L10.1932 14.9903C10.2054 14.9781 10.2237 14.9598 10.2502 14.9374C10.2767 14.915 10.3173 14.9191 10.3764 14.9516L11.0356 15.3342C11.0653 15.3516 11.0888 15.378 11.1028 15.4095C11.1204 15.442 11.1302 15.4783 11.1313 15.5153C11.1314 15.5345 11.1265 15.5535 11.117 15.5702L10.1586 16.8297L11.1475 19.2369C11.1524 19.2509 11.1565 19.2651 11.1597 19.2796C11.1597 19.2918 11.1597 19.3 11.1597 19.3081C11.161 19.3217 11.1591 19.3354 11.1542 19.3481C11.1492 19.3608 11.1414 19.3722 11.1313 19.3813C11.1214 19.3882 11.1097 19.3918 11.0977 19.3918C11.0857 19.3918 11.074 19.3882 11.0641 19.3813L10.4069 19.0029C10.3582 18.9778 10.3173 18.9398 10.2889 18.893C10.2671 18.853 10.248 18.8115 10.2319 18.7689L9.67843 17.4117Z" fill="#1678BF"/>
<path d="M26.2435 46.1386L2.59132 32.4832V33.8486L26.2435 47.5039V46.1386Z" fill="#1678BF"/>
<path opacity="0.4" d="M26.2435 46.1386L2.59132 32.4832V33.8486L26.2435 47.5039V46.1386Z" fill="white"/>
<path d="M2.73986 34.0582L26.1011 47.5467V49.3515L2.73986 35.865V34.0582ZM2.5954 33.8547V35.9139L26.2476 49.5692V47.5039L2.59132 33.8486L2.5954 33.8547Z" fill="#1678BF"/>
<path d="M18.3018 44.9483L18.4483 44.9686V43.0498L18.3018 43.0295V44.9483Z" fill="#1678BF"/>
<path d="M10.5025 40.4433L10.647 40.4657V38.5367L10.5025 38.5164V40.4433Z" fill="#1678BF"/>
<path d="M2.73986 35.9912L26.1011 49.4797V51.2846L2.73986 37.7981V35.9912ZM2.5954 35.7877V37.8367L26.2476 51.4921V49.4349L2.59132 35.7816L2.5954 35.7877Z" fill="#1678BF"/>
<path d="M18.3018 46.8813L18.4483 46.9017V44.9829L18.3018 44.9625V46.8813Z" fill="#1678BF"/>
<path d="M10.5025 42.3763L10.647 42.3966V40.4697L10.5025 40.4494V42.3763Z" fill="#1678BF"/>
<path d="M2.73986 37.9242L26.1011 51.4127V53.2176L2.73986 39.7311V37.9242ZM2.5954 37.7208V39.782L26.2476 53.4373V51.37L2.59132 37.7126L2.5954 37.7208Z" fill="#1678BF"/>
<path d="M18.3018 48.8123L18.4483 48.8347V46.9159L18.3018 46.8956V48.8123Z" fill="#1678BF"/>
<path d="M10.5025 44.3094L10.647 44.3297V42.4028L10.5025 42.3804V44.3094Z" fill="#1678BF"/>
<path d="M2.73986 39.8573L26.1011 53.3458V55.1506L2.73986 41.6621V39.8573ZM2.5954 39.6538V41.7028L26.2476 55.3602V53.301L2.59132 39.6457L2.5954 39.6538Z" fill="#1678BF"/>
<path d="M18.3018 50.7453L18.4483 50.7677V48.8489L18.3018 48.8286V50.7453Z" fill="#1678BF"/>
<path d="M10.5025 46.2424L10.647 46.2627V44.3338L10.5025 44.3134V46.2424Z" fill="#1678BF"/>
<path d="M2.73986 43.3591L10.5066 47.8356V50.2306L2.73986 45.7541V43.3591ZM2.5954 43.1068V45.8375L10.6511 50.4869V47.7542L2.59132 43.1068H2.5954Z" fill="#1678BF"/>
<path d="M26.2435 58.2577L14.2953 51.3578V52.5095L26.2435 59.4074V58.2577Z" fill="#1678BF"/>
<path d="M13.0521 29.8747L2.59132 23.8355V25.2008L13.0521 31.24V29.8747Z" fill="#1678BF"/>
<path opacity="0.4" d="M13.0521 29.8747L2.59132 23.8355V25.2008L13.0521 31.24V29.8747Z" fill="white"/>
<path d="M3.85287 27.9213L3.02269 27.4431V26.3525L3.85287 26.8327V27.9213ZM3.12239 27.3861L3.7552 27.7504V26.8897L3.12239 26.5234V27.3861Z" fill="#1678BF"/>
<path d="M3.85287 29.954L3.02269 29.4738V28.3852L3.85287 28.8634V29.954ZM3.12239 29.4168L3.7552 29.7831V28.9204L3.12239 28.5561V29.4168Z" fill="#1678BF"/>
<path d="M3.85287 31.9868L3.02269 31.5066V30.4159L3.85287 30.8961V31.9868ZM3.12239 31.4496L3.7552 31.8159V30.9531L3.12239 30.5868V31.4496Z" fill="#1678BF"/>
<path d="M12.6411 32.2655C12.6281 32.2663 12.6152 32.2627 12.6044 32.2554L4.34325 27.4879C4.3331 27.4839 4.32393 27.4778 4.31637 27.47C4.30881 27.4621 4.30304 27.4527 4.29946 27.4424C4.29589 27.4321 4.2946 27.4212 4.29567 27.4103C4.29674 27.3995 4.30015 27.389 4.30567 27.3796C4.31119 27.3702 4.31868 27.3621 4.32763 27.3559C4.33658 27.3497 4.34677 27.3455 4.3575 27.3436C4.36824 27.3417 4.37926 27.3421 4.38979 27.3449C4.40033 27.3477 4.41014 27.3527 4.41854 27.3597L12.6777 32.1394C12.6943 32.1491 12.7065 32.1651 12.7114 32.1838C12.7164 32.2024 12.7138 32.2223 12.7041 32.2391C12.6968 32.2486 12.6872 32.256 12.6761 32.2606C12.665 32.2653 12.653 32.267 12.6411 32.2655Z" fill="#E0E0E0"/>
<path d="M12.6411 32.7824C12.6291 32.7854 12.6165 32.7854 12.6044 32.7824L4.34327 28.0129C4.3266 28.0031 4.31447 27.9871 4.30951 27.9684C4.30456 27.9498 4.30719 27.9299 4.31682 27.9131C4.32144 27.9044 4.32783 27.8967 4.33558 27.8906C4.34334 27.8844 4.35228 27.88 4.36185 27.8775C4.37142 27.875 4.38141 27.8745 4.39118 27.8761C4.40094 27.8777 4.41026 27.8813 4.41855 27.8867L12.6777 32.6542C12.691 32.6628 12.7013 32.6754 12.707 32.6902C12.7127 32.705 12.7136 32.7213 12.7096 32.7366C12.7055 32.752 12.6967 32.7657 12.6844 32.7757C12.6721 32.7857 12.6569 32.7916 12.6411 32.7925V32.7824Z" fill="#E0E0E0"/>
<path d="M12.6411 34.2983C12.6282 34.2981 12.6156 34.2946 12.6044 34.2881L4.34327 29.5186C4.3266 29.5088 4.31447 29.4928 4.30951 29.4742C4.30456 29.4555 4.30719 29.4356 4.31682 29.4189C4.32148 29.4102 4.32785 29.4025 4.33555 29.3963C4.34325 29.3902 4.35212 29.3856 4.36162 29.383C4.37112 29.3803 4.38106 29.3796 4.39084 29.3809C4.40062 29.3821 4.41005 29.3854 4.41855 29.3904L12.6777 34.1599C12.691 34.1685 12.7013 34.1811 12.707 34.196C12.7127 34.2108 12.7136 34.227 12.7096 34.2424C12.7055 34.2577 12.6967 34.2714 12.6844 34.2814C12.6721 34.2915 12.6569 34.2974 12.6411 34.2983Z" fill="#E0E0E0"/>
<path d="M12.6411 34.8151C12.6282 34.8149 12.6156 34.8114 12.6044 34.8049L4.34325 30.0354C4.3331 30.0315 4.32393 30.0253 4.31637 30.0175C4.30881 30.0096 4.30304 30.0003 4.29946 29.99C4.29589 29.9797 4.2946 29.9687 4.29567 29.9579C4.29674 29.947 4.30015 29.9365 4.30567 29.9271C4.31119 29.9177 4.31868 29.9097 4.32763 29.9034C4.33658 29.8972 4.34677 29.893 4.3575 29.8911C4.36824 29.8892 4.37926 29.8897 4.38979 29.8925C4.40033 29.8953 4.41014 29.9003 4.41854 29.9072L12.6777 34.6767C12.6943 34.6865 12.7065 34.7025 12.7114 34.7211C12.7164 34.7398 12.7138 34.7597 12.7041 34.7764C12.6982 34.788 12.6891 34.7978 12.678 34.8046C12.6669 34.8114 12.6541 34.815 12.6411 34.8151Z" fill="#E0E0E0"/>
<path d="M12.6411 36.331C12.629 36.334 12.6165 36.334 12.6044 36.331L4.34327 31.5615C4.32947 31.5501 4.32018 31.5342 4.31708 31.5165C4.31397 31.4989 4.31723 31.4808 4.3263 31.4653C4.33536 31.4499 4.34962 31.4382 4.36653 31.4323C4.38343 31.4265 4.40188 31.4268 4.41855 31.4333L12.6777 36.2028C12.6944 36.2126 12.7065 36.2285 12.7114 36.2472C12.7164 36.2659 12.7138 36.2858 12.7041 36.3025C12.6969 36.3122 12.6873 36.32 12.6763 36.3249C12.6653 36.3299 12.6531 36.332 12.6411 36.331Z" fill="#E0E0E0"/>
<path d="M12.6411 36.8458C12.6292 36.8497 12.6163 36.8497 12.6044 36.8458L4.34325 32.0783C4.3331 32.0744 4.32393 32.0683 4.31637 32.0604C4.30881 32.0526 4.30304 32.0432 4.29946 32.0329C4.29589 32.0226 4.2946 32.0116 4.29567 32.0008C4.29674 31.9899 4.30015 31.9794 4.30567 31.9701C4.31119 31.9607 4.31868 31.9526 4.32763 31.9463C4.33658 31.9401 4.34677 31.9359 4.3575 31.934C4.36824 31.9321 4.37926 31.9326 4.38979 31.9354C4.40033 31.9382 4.41014 31.9432 4.41854 31.9501L12.6777 36.7176C12.6945 36.7278 12.7067 36.7441 12.7116 36.7631C12.7165 36.7821 12.7139 36.8023 12.7041 36.8193C12.6968 36.8288 12.6872 36.8363 12.6761 36.8409C12.665 36.8455 12.653 36.8472 12.6411 36.8458Z" fill="#E0E0E0"/>
<path d="M26.2435 37.4908L15.7827 31.4516V32.817L26.2435 38.8562V37.4908Z" fill="#1678BF"/>
<path opacity="0.4" d="M26.2435 37.4908L15.7827 31.4516V32.817L26.2435 38.8562V37.4908Z" fill="white"/>
<path d="M17.0464 35.5395L16.2162 35.0593V33.9707L17.0464 34.4509V35.5395ZM16.3138 35.0023L16.9466 35.3686V34.5058L16.3138 34.1396V35.0023Z" fill="#1678BF"/>
<path d="M17.0464 37.5702L16.2162 37.092V36.0054L17.0464 36.4856V37.5702ZM16.3138 37.035L16.9466 37.3993V36.5385L16.3138 36.1723V37.035Z" fill="#1678BF"/>
<path d="M17.0464 39.6029L16.2162 39.1227V38.0402L17.0464 38.5184V39.6029ZM16.3138 39.0657L16.9466 39.432V38.5693L16.3138 38.203V39.0657Z" fill="#1678BF"/>
<path d="M25.8325 39.8817C25.8204 39.8845 25.8079 39.8845 25.7959 39.8817L17.5367 35.1122C17.528 35.1075 17.5204 35.1011 17.5142 35.0934C17.508 35.0857 17.5035 35.0769 17.5008 35.0674C17.4981 35.0579 17.4974 35.0479 17.4987 35.0381C17.5 35.0284 17.5032 35.0189 17.5082 35.0104C17.5184 34.9936 17.5347 34.9815 17.5537 34.9765C17.5727 34.9716 17.5929 34.9743 17.61 34.984L25.8711 39.7535C25.8851 39.7617 25.8959 39.7743 25.9019 39.7894C25.908 39.8044 25.9088 39.821 25.9044 39.8366C25.9 39.8521 25.8905 39.8658 25.8775 39.8755C25.8645 39.8851 25.8487 39.8901 25.8325 39.8898V39.8817Z" fill="#E0E0E0"/>
<path d="M25.8325 40.3985C25.8195 40.399 25.8067 40.3954 25.7959 40.3883L17.5367 35.6209C17.5196 35.611 17.507 35.5949 17.5016 35.5758C17.4963 35.5568 17.4987 35.5364 17.5082 35.5191C17.5184 35.5023 17.5347 35.4902 17.5537 35.4852C17.5727 35.4803 17.5929 35.4829 17.61 35.4927L25.8712 40.2602C25.888 40.2703 25.9001 40.2866 25.9051 40.3056C25.91 40.3246 25.9073 40.3448 25.8976 40.3619C25.891 40.3733 25.8815 40.3827 25.8701 40.3891C25.8586 40.3956 25.8456 40.3988 25.8325 40.3985Z" fill="#E0E0E0"/>
<path d="M25.8325 41.9063C25.8205 41.9099 25.8078 41.9099 25.7959 41.9063L17.5367 37.1388C17.5196 37.129 17.507 37.1128 17.5016 37.0938C17.4963 37.0747 17.4987 37.0544 17.5082 37.0371C17.5184 37.0203 17.5347 37.0081 17.5537 37.0032C17.5727 36.9982 17.5929 37.0009 17.61 37.0106L25.8712 41.7781C25.888 41.7883 25.9001 41.8046 25.9051 41.8236C25.91 41.8426 25.9073 41.8628 25.8976 41.8798C25.8898 41.8893 25.8798 41.8968 25.8684 41.9014C25.857 41.906 25.8447 41.9077 25.8325 41.9063Z" fill="#E0E0E0"/>
<path d="M25.8325 42.4313C25.8197 42.4307 25.8071 42.4273 25.7959 42.4211L17.5367 37.6516C17.5281 37.6471 17.5205 37.6409 17.5143 37.6334C17.5082 37.6259 17.5036 37.6172 17.501 37.6079C17.4983 37.5985 17.4975 37.5888 17.4988 37.5791C17.5001 37.5695 17.5033 37.5602 17.5082 37.5519C17.5181 37.5347 17.5342 37.5221 17.5533 37.5168C17.5723 37.5115 17.5927 37.5138 17.61 37.5234L25.8712 42.2929C25.888 42.3031 25.9001 42.3194 25.9051 42.3384C25.91 42.3574 25.9073 42.3776 25.8976 42.3946C25.8907 42.4057 25.8812 42.4149 25.8698 42.4213C25.8584 42.4277 25.8456 42.4312 25.8325 42.4313Z" fill="#E0E0E0"/>
<path d="M25.8325 43.9411C25.8197 43.9405 25.8071 43.9371 25.7959 43.9309L17.5367 39.1614C17.5281 39.1569 17.5205 39.1507 17.5143 39.1432C17.5082 39.1357 17.5036 39.127 17.501 39.1177C17.4983 39.1083 17.4975 39.0986 17.4988 39.0889C17.5001 39.0793 17.5033 39.07 17.5082 39.0617C17.5181 39.0445 17.5342 39.0319 17.5533 39.0266C17.5723 39.0213 17.5927 39.0236 17.61 39.0332L25.8712 43.8027C25.888 43.8129 25.9001 43.8292 25.9051 43.8482C25.91 43.8672 25.9073 43.8874 25.8976 43.9044C25.8907 43.9155 25.8812 43.9247 25.8698 43.9311C25.8584 43.9375 25.8456 43.941 25.8325 43.9411Z" fill="#E0E0E0"/>
<path d="M25.8325 44.462C25.8204 44.4648 25.8079 44.4648 25.7959 44.462L17.5367 39.6925C17.528 39.6878 17.5204 39.6814 17.5142 39.6737C17.508 39.666 17.5035 39.6572 17.5008 39.6477C17.4981 39.6382 17.4974 39.6282 17.4987 39.6184C17.5 39.6087 17.5032 39.5992 17.5082 39.5907C17.5184 39.5739 17.5347 39.5617 17.5537 39.5568C17.5727 39.5519 17.5929 39.5545 17.61 39.5643L25.8711 44.3338C25.8851 44.342 25.8959 44.3546 25.9019 44.3696C25.908 44.3847 25.9088 44.4013 25.9044 44.4169C25.9 44.4324 25.8905 44.4461 25.8775 44.4557C25.8645 44.4654 25.8487 44.4704 25.8325 44.4701V44.462Z" fill="#E0E0E0"/>
<path d="M26.2435 32.4283L2.59132 18.7729V20.1383L26.2435 33.7936V32.4283Z" fill="#1678BF"/>
<path opacity="0.4" d="M26.2435 32.4283L2.59132 18.7729V20.1383L26.2435 33.7936V32.4283Z" fill="white"/>
<path d="M14.2953 27.9803C14.2818 27.9801 14.2685 27.9766 14.2567 27.9701L3.03491 21.4914C3.02475 21.4875 3.01558 21.4813 3.00802 21.4735C3.00046 21.4656 2.99469 21.4562 2.99112 21.446C2.98754 21.4357 2.98625 21.4247 2.98732 21.4139C2.98839 21.403 2.99181 21.3925 2.99733 21.3831C3.00285 21.3737 3.01033 21.3657 3.01928 21.3594C3.02823 21.3532 3.03843 21.349 3.04916 21.3471C3.05989 21.3452 3.0709 21.3457 3.08144 21.3485C3.09198 21.3512 3.10179 21.3563 3.11019 21.3632L14.3381 27.8419C14.3549 27.8521 14.367 27.8684 14.372 27.8874C14.3769 27.9064 14.3743 27.9266 14.3645 27.9437C14.3573 27.9554 14.3471 27.965 14.3349 27.9714C14.3227 27.9778 14.3091 27.9809 14.2953 27.9803Z" fill="#E0E0E0"/>
<path d="M25.684 35.3543C25.6719 35.3572 25.6594 35.3572 25.6473 35.3543L3.03491 22.2911C3.02475 22.2871 3.01558 22.281 3.00802 22.2731C3.00046 22.2653 2.99469 22.2559 2.99112 22.2456C2.98754 22.2353 2.98625 22.2244 2.98732 22.2135C2.98839 22.2027 2.99181 22.1922 2.99733 22.1828C3.00285 22.1734 3.01033 22.1653 3.01928 22.1591C3.02823 22.1529 3.03843 22.1487 3.04916 22.1468C3.05989 22.1449 3.0709 22.1453 3.08144 22.1481C3.09198 22.1509 3.10179 22.1559 3.11019 22.1629L25.7206 35.218C25.7293 35.2224 25.7369 35.2286 25.743 35.2362C25.7492 35.2437 25.7536 35.2525 25.7561 35.2619C25.7586 35.2713 25.7591 35.2812 25.7575 35.2908C25.756 35.3004 25.7524 35.3095 25.747 35.3177C25.7412 35.3292 25.7321 35.3388 25.7209 35.3453C25.7097 35.3518 25.6969 35.3549 25.684 35.3543Z" fill="#E0E0E0"/>
<path d="M25.684 36.1072C25.671 36.1076 25.6582 36.1041 25.6473 36.097L3.03491 23.0439C3.0181 23.0338 3.00593 23.0175 3.00098 22.9984C2.99604 22.9794 2.99872 22.9593 3.00845 22.9422C3.01861 22.9254 3.03493 22.9132 3.05394 22.9083C3.07295 22.9033 3.09314 22.906 3.11019 22.9157L25.7206 35.9709C25.7293 35.9753 25.7369 35.9815 25.743 35.989C25.7492 35.9966 25.7536 36.0054 25.7561 36.0148C25.7586 36.0242 25.7591 36.034 25.7575 36.0436C25.756 36.0533 25.7524 36.0624 25.747 36.0706C25.7412 36.0821 25.7321 36.0917 25.7209 36.0982C25.7097 36.1047 25.6969 36.1078 25.684 36.1072Z" fill="#E0E0E0"/>
<path d="M14.2953 22.7245C14.2826 22.7275 14.2694 22.7275 14.2567 22.7245L3.03491 16.2356C3.02475 16.2316 3.01558 16.2255 3.00802 16.2177C3.00046 16.2098 2.99469 16.2004 2.99112 16.1901C2.98754 16.1798 2.98625 16.1689 2.98732 16.158C2.98839 16.1472 2.99181 16.1367 2.99733 16.1273C3.00285 16.1179 3.01033 16.1098 3.01928 16.1036C3.02823 16.0974 3.03843 16.0932 3.04916 16.0913C3.05989 16.0894 3.0709 16.0899 3.08144 16.0926C3.09198 16.0954 3.10179 16.1005 3.11019 16.1074L14.3381 22.5861C14.3549 22.5963 14.367 22.6126 14.372 22.6316C14.3769 22.6506 14.3743 22.6708 14.3645 22.6878C14.3573 22.6996 14.3471 22.7091 14.3349 22.7156C14.3227 22.722 14.3091 22.7251 14.2953 22.7245Z" fill="#E0E0E0"/>
<path d="M25.684 30.1046C25.6719 30.1075 25.6594 30.1075 25.6473 30.1046L3.03491 17.0353C3.02475 17.0313 3.01558 17.0252 3.00802 17.0173C3.00046 17.0095 2.99469 17.0001 2.99112 16.9898C2.98754 16.9795 2.98625 16.9686 2.98732 16.9577C2.98839 16.9469 2.99181 16.9364 2.99733 16.927C3.00285 16.9176 3.01033 16.9095 3.01928 16.9033C3.02823 16.8971 3.03843 16.8929 3.04916 16.891C3.05989 16.8891 3.0709 16.8895 3.08144 16.8923C3.09198 16.8951 3.10179 16.9001 3.11019 16.9071L25.7206 29.9622C25.7293 29.9666 25.7369 29.9728 25.743 29.9804C25.7492 29.9879 25.7536 29.9967 25.7561 30.0061C25.7586 30.0155 25.7591 30.0254 25.7575 30.035C25.756 30.0446 25.7524 30.0537 25.747 30.0619C25.7421 30.0746 25.7334 30.0854 25.7221 30.0931C25.7109 30.1007 25.6976 30.1047 25.684 30.1046Z" fill="#E0E0E0"/>
<path d="M25.684 30.8514C25.672 30.855 25.6593 30.855 25.6473 30.8514L3.03491 17.7881C3.0181 17.778 3.00593 17.7616 3.00098 17.7426C2.99604 17.7236 2.99872 17.7034 3.00845 17.6864C3.01861 17.6696 3.03493 17.6574 3.05394 17.6524C3.07295 17.6475 3.09314 17.6502 3.11019 17.6599L25.7206 30.715C25.7293 30.7194 25.7369 30.7256 25.743 30.7332C25.7492 30.7408 25.7536 30.7495 25.7561 30.759C25.7586 30.7684 25.7591 30.7782 25.7575 30.7878C25.756 30.7974 25.7524 30.8066 25.747 30.8147C25.7412 30.8263 25.7321 30.8359 25.7209 30.8424C25.7097 30.8489 25.6969 30.852 25.684 30.8514Z" fill="#E0E0E0"/>
<g opacity="0.25">
<path opacity="0.25" d="M7.07598 6.82884V9.0447C7.09058 9.34643 7.17703 9.6403 7.32816 9.90185C7.47929 10.1634 7.69071 10.3851 7.94483 10.5484L12.2321 13.0227C12.4421 13.1825 12.6018 13.3993 12.692 13.6474C12.7782 13.8416 12.8897 14.0236 13.0236 14.1886C13.3573 14.5671 14.0837 14.9598 14.5965 15.1246C14.7636 15.1789 14.9352 15.2184 15.1093 15.2426L15.3127 15.2711C15.7807 15.3342 16.3627 15.4135 16.7045 15.6109L21.7304 18.5064C21.8624 18.5872 22.0132 18.6321 22.1679 18.6366C22.2705 18.6381 22.3717 18.6121 22.4609 18.5613C22.5687 18.4901 22.6553 18.391 22.7115 18.2746C22.7678 18.1582 22.7915 18.0288 22.7804 17.9V15.6882C22.7658 15.3865 22.6793 15.0926 22.5282 14.8311C22.377 14.5695 22.1656 14.3479 21.9115 14.1845L20.2267 13.216H20.2023C20.1623 13.1988 20.1173 13.197 20.076 13.2109C20.0347 13.2247 20 13.2534 19.9785 13.2913C19.9573 13.3288 19.9504 13.3727 19.959 13.415C19.9676 13.4572 19.9911 13.4949 20.0253 13.5212C20.031 13.5273 20.0379 13.5321 20.0456 13.5354L21.7304 14.5101C21.9293 14.6425 22.095 14.8189 22.2146 15.0257C22.3342 15.2325 22.4046 15.4641 22.4202 15.7025V17.896C22.4388 17.9609 22.4352 18.0302 22.41 18.0928C22.3847 18.1555 22.3393 18.2079 22.2809 18.2418C22.2225 18.2757 22.1544 18.2891 22.0875 18.2799C22.0206 18.2707 21.9586 18.2394 21.9115 18.191L16.8938 15.2976C16.4868 15.0656 15.8764 14.9822 15.3697 14.915L15.1662 14.8865C15.0116 14.864 14.8592 14.8286 14.7104 14.7807C14.1854 14.6103 13.7041 14.3269 13.3004 13.9505C13.1879 13.8085 13.0942 13.6526 13.0216 13.4866C12.9013 13.1724 12.6884 12.902 12.4112 12.7114L8.12389 10.2371C7.92529 10.1046 7.75992 9.92808 7.64064 9.72128C7.52136 9.51448 7.45138 9.28295 7.43613 9.0447V6.82884C7.42741 6.76414 7.43556 6.69829 7.45981 6.63768C7.48405 6.57706 7.52357 6.52375 7.5745 6.48292C7.63563 6.45949 7.70172 6.45206 7.76653 6.46131C7.83134 6.47057 7.89271 6.49622 7.94483 6.53583L9.4058 7.38026C9.45322 7.26968 9.51477 7.16572 9.58893 7.07097L8.12389 6.22451C8.02154 6.142 7.89656 6.09252 7.76547 6.0826C7.63439 6.07268 7.50338 6.1028 7.38979 6.16897C7.2762 6.23514 7.18538 6.33424 7.12934 6.45316C7.07331 6.57208 7.0547 6.70521 7.07598 6.83494V6.82884Z" fill="black"/>
</g>
<path d="M10.2034 6.86955C10.1311 6.83473 10.0506 6.82031 9.97061 6.82784C9.89066 6.83537 9.81428 6.86456 9.74968 6.91228C9.56422 7.03301 9.40988 7.19582 9.29921 7.38746C9.18854 7.57909 9.12467 7.79415 9.11279 8.01512C9.1053 8.09366 9.11888 8.17277 9.15214 8.2443C9.18541 8.31583 9.23715 8.3772 9.30203 8.42208L19.4759 14.2965L20.3773 12.7338L10.2034 6.86955Z" fill="#37474F"/>
<path d="M19.9236 13.5293L9.29797 7.39246C9.40415 7.1947 9.55979 7.02784 9.74969 6.90819C9.77208 6.89598 9.79242 6.88987 9.81277 6.8797L20.2715 12.9189L19.9236 13.5293Z" fill="#455A64"/>
<path d="M19.9235 12.7887C20.2756 12.5852 20.5625 12.75 20.5625 13.157C20.5499 13.378 20.4855 13.593 20.3745 13.7846C20.2635 13.9762 20.109 14.139 19.9235 14.2598C19.5715 14.4633 19.2867 14.2985 19.2867 13.8915C19.2987 13.6706 19.3626 13.4556 19.4733 13.264C19.5839 13.0724 19.7382 12.9095 19.9235 12.7887Z" fill="#263238"/>
<path d="M6.89489 6.98756V9.20139C6.90949 9.50312 6.99594 9.79699 7.14707 10.0585C7.2982 10.3201 7.50962 10.5418 7.76374 10.7051L12.051 13.1814C12.2594 13.3411 12.4176 13.5572 12.5068 13.804C12.5923 13.9988 12.7032 14.1815 12.8364 14.3473C13.2838 14.773 13.8214 15.0923 14.4093 15.2813C14.5771 15.3362 14.7493 15.3764 14.9241 15.4013L15.1276 15.4298C15.5956 15.4929 16.1775 15.5723 16.5194 15.7696L21.5392 18.6651C21.6702 18.7467 21.8204 18.7923 21.9746 18.7974C22.078 18.7981 22.1798 18.7714 22.2696 18.7201C22.3766 18.6485 22.4625 18.5497 22.5183 18.4337C22.5741 18.3178 22.5979 18.189 22.5871 18.0608V15.8449C22.573 15.5431 22.4867 15.249 22.3355 14.9874C22.1844 14.7258 21.9727 14.5042 21.7182 14.3412L20.0334 13.3686C20.0254 13.3666 20.017 13.3666 20.009 13.3686C19.9696 13.3532 19.9259 13.3524 19.8859 13.3664C19.8459 13.3804 19.8123 13.4083 19.7911 13.445C19.77 13.4816 19.7627 13.5247 19.7705 13.5663C19.7784 13.6079 19.8009 13.6454 19.834 13.6718C19.8386 13.6787 19.8449 13.6844 19.8523 13.6881L21.5392 14.6607C21.7378 14.7932 21.9031 14.9697 22.0224 15.1765C22.1417 15.3833 22.2117 15.6148 22.2269 15.8531V18.0689C22.2469 18.1341 22.2441 18.2041 22.2191 18.2676C22.1941 18.331 22.1483 18.384 22.0893 18.418C22.0302 18.4521 21.9613 18.465 21.8939 18.4549C21.8265 18.4447 21.7646 18.4119 21.7182 18.3619L16.7127 15.4543C16.3057 15.2223 15.6953 15.1368 15.1886 15.0717L14.9851 15.0432C14.8305 15.0199 14.678 14.9839 14.5294 14.9354C14.0039 14.7666 13.5219 14.4846 13.1172 14.1093C13.0048 13.9672 12.9111 13.8113 12.8385 13.6453C12.7187 13.3308 12.5057 13.0603 12.228 12.8701L7.9428 10.3938C7.74398 10.2615 7.57845 10.0851 7.45914 9.8782C7.33983 9.67136 7.26998 9.43971 7.25504 9.20139V6.98756C7.24655 6.92258 7.2548 6.8565 7.27902 6.79561C7.30324 6.73471 7.34261 6.68101 7.39341 6.63961C7.45464 6.61607 7.52091 6.60876 7.58579 6.61838C7.65068 6.62801 7.71198 6.65425 7.76374 6.69455L9.2247 7.53695C9.27291 7.42677 9.33441 7.32291 9.40783 7.22766L7.9428 6.38323C7.84045 6.30072 7.71547 6.25124 7.58438 6.24132C7.4533 6.2314 7.32229 6.26152 7.2087 6.32769C7.0951 6.39386 7.00428 6.49297 6.94825 6.61189C6.89221 6.73081 6.87361 6.86394 6.89489 6.99366V6.98756Z" fill="#455A64"/>
</svg>
