<svg width="35" height="64" viewBox="0 0 35 64" fill="none" xmlns="http://www.w3.org/2000/svg">
<path d="M19.3531 22.3033C10.9945 32.0341 4.37389 41.6178 4.37389 49.5828C4.37389 57.5477 11.0794 63.9967 19.3531 63.9967C27.6267 63.9967 34.3355 57.5379 34.3355 49.5779C34.3355 41.6178 27.71 32.0341 19.3531 22.3033Z" fill="#1678BF"/>
<path opacity="0.6" d="M19.3531 22.3033C10.9945 32.0341 4.37389 41.6178 4.37389 49.5828C4.37389 57.5477 11.0794 63.9967 19.3531 63.9967C27.6267 63.9967 34.3355 57.5379 34.3355 49.5779C34.3355 41.6178 27.71 32.0341 19.3531 22.3033Z" fill="white"/>
<path opacity="0.1" d="M34.3351 49.5778C34.3351 43.3607 30.2971 36.1538 24.5472 28.6691C23.859 29.1758 23.0482 29.4899 22.1982 29.5789C19.3805 29.8468 18.3661 28.0663 16.1314 26.1747C9.35731 34.5578 4.37024 42.6828 4.37024 49.586C4.37024 57.546 11.0757 64 19.3494 64C27.6231 64 34.3351 57.5379 34.3351 49.5778Z" fill="#1678BF"/>
<path d="M34.3351 49.5778C34.3351 43.3607 30.2971 36.1538 24.5472 28.6691C23.859 29.1758 23.0482 29.4899 22.1982 29.5789C19.3805 29.8468 18.3661 28.0663 16.1314 26.1747C9.35731 34.5578 4.37024 42.6828 4.37024 49.586C4.37024 57.546 11.0757 64 19.3494 64C27.6231 64 34.3351 57.5379 34.3351 49.5778Z" fill="#1678BF"/>
<path opacity="0.45" d="M34.3351 49.5778C34.3351 43.3607 30.2971 36.1538 24.5472 28.6691C23.859 29.1758 23.0482 29.4899 22.1982 29.5789C19.3805 29.8468 18.3661 28.0663 16.1314 26.1747C9.35731 34.5578 4.37024 42.6828 4.37024 49.586C4.37024 57.546 11.0757 64 19.3494 64C27.6231 64 34.3351 57.5379 34.3351 49.5778Z" fill="white"/>
<path opacity="0.1" d="M34.3351 49.5779C34.3351 44.1203 31.2315 37.9016 26.5727 31.3938C23.7174 30.987 21.4484 33.4569 18.4216 34.437C15.741 35.2945 13.1045 34.5317 10.9434 33.1122C6.96095 38.9928 4.37349 44.6088 4.37349 49.586C4.37349 57.5461 11.079 64 19.3527 64C27.6263 64 34.3351 57.5379 34.3351 49.5779Z" fill="#1678BF"/>
<path d="M34.3351 49.5779C34.3351 44.1203 31.2315 37.9016 26.5727 31.3938C23.7174 30.987 21.4484 33.4569 18.4216 34.437C15.741 35.2945 13.1045 34.5317 10.9434 33.1122C6.96095 38.9928 4.37349 44.6088 4.37349 49.586C4.37349 57.5461 11.079 64 19.3527 64C27.6263 64 34.3351 57.5379 34.3351 49.5779Z" fill="#1678BF"/>
<path opacity="0.3" d="M34.3351 49.5779C34.3351 44.1203 31.2315 37.9016 26.5727 31.3938C23.7174 30.987 21.4484 33.4569 18.4216 34.437C15.741 35.2945 13.1045 34.5317 10.9434 33.1122C6.96095 38.9928 4.37349 44.6088 4.37349 49.586C4.37349 57.5461 11.079 64 19.3527 64C27.6263 64 34.3351 57.5379 34.3351 49.5779Z" fill="white"/>
<path d="M32.8764 42.5326C27.7325 43.2088 24.5603 47.3155 18.8495 46.2896C14.2447 45.4631 11.0365 41.3793 7.57841 38.671C5.56758 42.5244 4.37349 46.1981 4.37349 49.5779C4.37349 57.5379 11.079 63.9918 19.3527 63.9918C27.6263 63.9918 34.3351 57.5379 34.3351 49.5779C34.3351 47.3416 33.8108 44.9861 32.8764 42.5326Z" fill="#1678BF"/>
<path opacity="0.15" d="M32.8764 42.5326C27.7325 43.2088 24.5603 47.3155 18.8495 46.2896C14.2447 45.4631 11.0365 41.3793 7.57841 38.671C5.56758 42.5244 4.37349 46.1981 4.37349 49.5779C4.37349 57.5379 11.079 63.9918 19.3527 63.9918C27.6263 63.9918 34.3351 57.5379 34.3351 49.5779C34.3351 47.3416 33.8108 44.9861 32.8764 42.5326Z" fill="white"/>
<path d="M18.8169 55.9844C10.277 52.688 10.8748 46.105 5.58554 43.2007C4.80637 45.4157 4.37349 47.5491 4.37349 49.5713C4.37349 57.5314 11.079 63.9853 19.3527 63.9853C25.934 63.9853 31.5206 59.9016 33.5298 54.2203C30.0014 56.7375 24.6191 58.2256 18.8169 55.9844Z" fill="#1678BF"/>
<path opacity="0.3" d="M20.4504 32.8034C21.2671 34.3651 22.8337 35.9071 24.5946 35.8826C25.0471 35.8744 25.5175 35.7372 25.8017 35.3844C26.1856 34.9074 26.3261 34.2409 25.9651 33.2788C25.2545 31.3725 23.8987 29.5855 22.9317 28.4355C21.7997 27.0895 20.9486 26.7807 20.4553 26.8346C19.5732 26.9327 19.4883 28.1872 19.4997 29.1117C19.5295 30.3989 19.8547 31.662 20.4504 32.8034Z" fill="white"/>
<path d="M8.15665 1.08584C7.45588 0.679098 6.48885 0.73627 5.42217 1.35373C3.28229 2.58376 1.54915 5.58776 1.54915 8.05597C1.54915 9.29253 1.98529 10.1616 2.6926 10.5634L3.54528 11.0534C4.24442 11.4585 5.21308 11.4014 6.28139 10.7839C8.41801 9.55062 10.1511 6.54989 10.1511 4.08657C10.1511 2.85328 9.71827 1.98753 9.01913 1.58406C8.87212 1.49748 8.29876 1.16751 8.15665 1.08584Z" fill="#37474F"/>
<path d="M1.58672 7.45483C1.56378 7.65442 1.55124 7.85507 1.54915 8.05596C1.54915 9.29252 1.98529 10.1615 2.6926 10.5634L3.54528 11.0534C4.24442 11.4585 5.21308 11.4014 6.28139 10.7839C6.45474 10.6839 6.62268 10.5749 6.78451 10.4572L1.58672 7.45483Z" fill="#263238"/>
<path d="M9.01421 7.89825C10.5253 5.28093 10.5254 2.45197 9.01438 1.57958C7.50337 0.707197 5.05345 2.12175 3.54234 4.73907C2.03123 7.35639 2.03115 10.1854 3.54216 11.0577C5.05318 11.9301 7.50309 10.5156 9.01421 7.89825Z" fill="#455A64"/>
<path d="M9.45042 10.7153C9.73465 10.8787 10.1283 10.8558 10.5612 10.6059C11.4302 10.1044 12.1326 8.88579 12.1326 7.88445C12.1326 7.3846 11.9578 7.0334 11.6752 6.86842L7.48369 4.44757C7.19946 4.28422 6.80579 4.30709 6.37291 4.55865C5.50552 5.0585 4.80148 6.27709 4.80148 7.28006C4.80148 7.77991 4.9779 8.13765 5.25886 8.301L9.45042 10.7153Z" fill="#455A64"/>
<path opacity="0.1" d="M12.0885 7.48424L6.74042 4.39856C6.61179 4.43804 6.48839 4.49289 6.37289 4.56191C6.24853 4.63386 6.13098 4.71696 6.02168 4.8102L12.0215 8.27158L12.1048 8.23891C12.1229 8.12161 12.1322 8.00313 12.1326 7.88444C12.1331 7.7498 12.1183 7.61554 12.0885 7.48424Z" fill="white"/>
<path d="M10.5612 10.6059C10.765 10.4847 10.9518 10.3369 11.1166 10.1665L7.83162 8.27159C6.63917 7.58226 5.79628 7.23759 5.62967 6.3114C5.57369 5.95693 5.62683 5.59383 5.78204 5.27028C5.93726 4.94673 6.1872 4.67803 6.49869 4.49985C6.45622 4.51945 6.41538 4.54068 6.37291 4.56519C5.50552 5.06504 4.80148 6.28363 4.80148 7.28659C4.80148 7.77991 4.9779 8.13765 5.25886 8.301L9.44715 10.7202C9.73465 10.8787 10.1283 10.8558 10.5612 10.6059Z" fill="#37474F"/>
<path d="M18.58 11.5876C18.5966 11.2818 18.5014 10.9805 18.3121 10.7398C18.2864 10.7111 18.2586 10.6843 18.2288 10.6597C18.2056 10.641 18.1811 10.6241 18.1553 10.6091L18.1292 10.5895H18.1406C17.5836 10.2628 15.8815 8.10006 14.2627 7.15916C12.7386 6.2787 12.2225 7.15916 11.6834 6.8537C11.3992 6.69035 11.0022 6.71812 10.5694 6.96967C9.70196 7.46952 8.99792 8.68811 8.99792 9.69108C8.99792 10.1909 9.17434 10.5438 9.45857 10.7071C9.99763 11.0191 10.504 12.504 12.0281 13.3763C13.6452 14.309 15.349 14.0983 15.906 14.4201C16.1902 14.5834 16.5823 14.5605 17.0168 14.309C17.8842 13.8091 18.5898 12.5905 18.5882 11.5892C18.5817 11.5941 18.58 11.5908 18.58 11.5876Z" fill="#455A64"/>
<path opacity="0.1" d="M17.4954 11.6202C17.7322 11.7477 18.0214 11.6448 18.3121 11.4569C18.2806 11.2719 18.2012 11.0985 18.0818 10.9538C18.0561 10.925 18.0282 10.8983 17.9985 10.8737C17.9754 10.8548 17.9508 10.8379 17.925 10.8231L17.8988 10.8035H17.9103C17.3533 10.4768 15.7018 8.49537 14.0324 7.37315C13.6349 7.08324 13.1788 6.88366 12.6962 6.78836C12.4381 6.82756 12.2322 6.90271 12.0428 6.92558C12.5655 6.8782 14.0062 7.63778 14.7331 8.79103C15.4698 9.97695 16.7652 11.2266 17.4954 11.6202Z" fill="white"/>
<path d="M16.8795 14.3172C16.3193 13.8418 15.3163 13.801 13.8968 13.2358C12.4773 12.6706 11.2962 11.1122 11.0855 9.66332C10.8748 8.21441 11.1852 6.93702 11.9774 6.93048C11.8726 6.93815 11.7679 6.91425 11.6768 6.86187C11.3926 6.69852 10.9957 6.72629 10.5628 6.97785C9.69542 7.4777 8.99138 8.69629 8.99138 9.69926C8.99138 10.1991 9.1678 10.5519 9.45203 10.7153C9.99108 11.0273 10.4975 12.5121 12.0215 13.3844C13.6387 14.3172 15.3424 14.1064 15.8994 14.4282C16.1624 14.5801 16.5218 14.5687 16.9187 14.3662C16.9086 14.3477 16.8953 14.3311 16.8795 14.3172Z" fill="#37474F"/>
<path d="M16.708 19.2667C16.708 19.6571 16.9645 20.0491 17.479 20.348C18.513 20.9459 20.1906 20.9443 21.2246 20.348C21.7408 20.0491 21.9989 19.6571 21.9989 19.2667V17.1431C21.9989 16.7527 21.7408 16.3607 21.2246 16.0634C20.1906 15.4655 18.513 15.4639 17.479 16.0634C16.9645 16.3607 16.708 16.7527 16.708 17.1431V19.2667Z" fill="#37474F"/>
<path d="M21.9989 17.1415C21.9989 16.7511 21.7408 16.359 21.2246 16.0617C20.1906 15.4639 18.513 15.4622 17.479 16.0617C16.445 16.6612 16.4499 17.6266 17.479 18.2229C18.5081 18.8191 20.1906 18.8191 21.2246 18.2229C21.7408 17.9239 21.9989 17.5335 21.9989 17.1415Z" fill="#455A64"/>
<path d="M21.5742 16.9765V15.6174C21.5742 14.693 21.3307 13.7849 20.8682 12.9845C20.4056 12.1842 19.7404 11.5198 18.9394 11.0583L18.1488 10.6026C17.8629 10.418 17.4594 10.4392 17.0053 10.6892C16.1363 11.189 15.4339 12.4092 15.4339 13.4106C15.4339 13.912 15.6103 14.2632 15.8945 14.4282L16.4646 14.7549C16.6654 14.871 16.8323 15.0377 16.9486 15.2383C17.065 15.4389 17.1268 15.6665 17.1278 15.8984V16.9683C17.1278 17.295 17.3435 17.6217 17.7812 17.8749C18.6486 18.378 20.0551 18.3764 20.9224 17.8749C21.357 17.6331 21.5742 17.3048 21.5742 16.9765Z" fill="#455A64"/>
<path opacity="0.1" d="M21.3341 15.6811C21.334 14.7752 21.0957 13.8851 20.6429 13.1004C20.1902 12.3157 19.5391 11.6638 18.7548 11.2102L17.5215 10.4964L16.6508 10.9995L18.1749 11.8816C18.8704 12.2849 19.4478 12.8638 19.8492 13.5605C20.2505 14.2571 20.4618 15.047 20.4618 15.851V18.0824C20.623 18.0323 20.7784 17.9655 20.9257 17.8831C21.0797 17.7971 21.2187 17.6868 21.3374 17.5564L21.3341 15.6811Z" fill="white"/>
<path d="M18.1488 10.6026C17.8123 10.4196 17.417 10.5176 17.1082 10.6924C16.7928 10.8766 16.5155 11.1194 16.2915 11.4079C16.0583 11.6915 15.8663 12.0066 15.7214 12.3439C15.569 12.6813 15.474 13.0418 15.4404 13.4106C15.4252 13.0334 15.4892 12.6572 15.6283 12.3063C15.765 11.9528 15.955 11.6222 16.1918 11.3262C16.4297 11.0284 16.7267 10.7831 17.0641 10.6059C17.2345 10.5157 17.4211 10.4602 17.613 10.4425C17.8047 10.4328 17.9938 10.4893 18.1488 10.6026Z" fill="#37474F"/>
<path d="M18.3056 15.6975C18.3056 14.4364 17.9413 14.1065 17.2585 13.7128C16.5757 13.3191 15.7279 12.5693 15.9174 11.831C15.6242 12.3074 15.4593 12.8516 15.4388 13.4106C15.4388 13.9121 15.6152 14.2633 15.8994 14.4283L16.4695 14.755C16.6703 14.8711 16.8372 15.0377 16.9535 15.2383C17.0699 15.4389 17.1317 15.6665 17.1327 15.8984V16.9683C17.1327 17.295 17.3484 17.6217 17.7861 17.8749C18.6535 18.3781 20.06 18.3764 20.9273 17.8749C20.5769 17.969 20.2092 17.9795 19.854 17.9054C19.4987 17.8314 19.1659 17.6749 18.8822 17.4486C18.4167 17.0664 18.3056 16.5159 18.3056 15.6975Z" fill="#37474F"/>
<path d="M17.7812 17.8831C18.1143 18.0383 18.4709 18.1366 18.8365 18.1738C19.1985 18.2163 19.5647 18.208 19.9244 18.1493C20.2841 18.1013 20.6315 17.986 20.9486 17.8096C21.2557 17.6348 21.5432 17.3538 21.5742 16.9765C21.5809 17.1668 21.5234 17.3538 21.4109 17.5074C21.2984 17.661 21.1582 17.7923 20.9976 17.8945C20.6745 18.0915 20.3151 18.2215 19.9407 18.2767C19.5694 18.3347 19.1914 18.3347 18.8201 18.2767C18.4502 18.2194 18.0963 18.0853 17.7812 17.8831Z" fill="#37474F"/>
<path d="M19.1632 1.33576C19.161 1.05947 19.0498 0.795239 18.8536 0.600638C18.6575 0.406037 18.3924 0.296843 18.1161 0.296851C17.9382 0.296221 17.7631 0.341814 17.6081 0.429164C16.6688 0.969852 15.0925 2.38936 14.6809 2.64419C14.6413 2.67528 14.6101 2.71577 14.5901 2.76199C14.5701 2.8082 14.562 2.85867 14.5665 2.90881C14.5746 3.05419 14.6168 3.19563 14.6897 3.32165C14.7627 3.44766 14.8643 3.5547 14.9863 3.63409C15.029 3.66538 15.0794 3.68436 15.1321 3.68897C15.1849 3.69358 15.2378 3.68364 15.2853 3.66022C15.7492 3.42173 17.7355 2.77323 18.6356 2.25215C18.797 2.16009 18.931 2.02665 19.0238 1.86558C19.1165 1.7045 19.1646 1.52162 19.1632 1.33576Z" fill="#16BF78"/>
<path opacity="0.25" d="M17.1981 0.914295C17.1775 0.935492 17.1635 0.962179 17.1577 0.991154C17.1519 1.02013 17.1546 1.05016 17.1654 1.07764C17.1981 1.13155 17.2732 1.15279 17.4219 1.15115C17.6228 1.15115 17.8074 1.12012 18.0083 1.11358C18.1788 1.11987 18.3489 1.09153 18.5081 1.03027C18.8904 0.850589 18.5702 0.474884 18.2206 0.452015C18.0259 0.443883 17.832 0.481459 17.6545 0.561735C17.4769 0.64201 17.3206 0.762754 17.1981 0.914295Z" fill="white"/>
<path opacity="0.2" d="M17.8204 2.20313C16.7764 2.54758 15.7588 2.9674 14.7756 3.45929C14.831 3.52904 14.8985 3.58825 14.9749 3.63407C15.0176 3.66536 15.068 3.68434 15.1207 3.68895C15.1734 3.69356 15.2264 3.68362 15.2738 3.66021C15.7377 3.42171 17.7241 2.77322 18.6241 2.25213C18.7486 2.18345 18.8577 2.09008 18.9448 1.97773C19.0319 1.86538 19.0951 1.73643 19.1306 1.59877C19.1661 1.46112 19.1731 1.31767 19.1512 1.17722C19.1292 1.03676 19.0789 0.90227 19.0031 0.781982C19.1436 1.17075 18.9802 1.85192 17.8204 2.20313Z" fill="black"/>
<path d="M14.5551 2.91044C14.5631 3.05582 14.6053 3.19726 14.6783 3.32327C14.7512 3.44929 14.8528 3.55633 14.9749 3.63571C15.2052 3.76966 15.3931 3.66022 15.3931 3.39396C15.3853 3.24869 15.3434 3.1073 15.2708 2.98128C15.1981 2.85525 15.0967 2.74815 14.9749 2.66868C14.7429 2.5331 14.5551 2.64091 14.5551 2.91044Z" fill="#16BF78"/>
<path opacity="0.3" d="M14.5551 2.91044C14.5631 3.05582 14.6053 3.19726 14.6783 3.32327C14.7512 3.44929 14.8528 3.55633 14.9749 3.63571C15.2052 3.76966 15.3931 3.66022 15.3931 3.39396C15.3853 3.24869 15.3434 3.1073 15.2708 2.98128C15.1981 2.85525 15.0967 2.74815 14.9749 2.66868C14.7429 2.5331 14.5551 2.64091 14.5551 2.91044Z" fill="black"/>
<path d="M11.9774 8.68814C11.9774 9.00504 12.1849 9.32194 12.6014 9.56207C13.4361 10.0521 14.7919 10.0521 15.6283 9.56207C16.0465 9.32194 16.2555 9.00504 16.2555 8.68814V5.5845C16.2555 5.26923 16.0465 4.95233 15.6283 4.71058C14.7919 4.21726 13.4361 4.21726 12.6096 4.70731C12.193 4.94907 11.9856 5.26597 11.9856 5.58123L11.9774 8.68814Z" fill="#37474F"/>
<path d="M13.0686 4.50803C12.9093 4.55889 12.7555 4.62566 12.6096 4.70731C12.193 4.94907 11.9856 5.26597 11.9856 5.58123V8.68488C11.9856 9.00178 12.193 9.31868 12.6096 9.5588C12.7581 9.64093 12.9147 9.70771 13.0768 9.75809L13.0686 4.50803Z" fill="#263238"/>
<path d="M16.2555 5.5796C16.2555 5.26433 16.0465 4.94743 15.6283 4.70568C14.7919 4.21726 13.4361 4.21726 12.6096 4.70731C11.783 5.19736 11.7781 5.97327 12.6096 6.45515C13.441 6.93703 14.8001 6.9452 15.6364 6.45515C16.0546 6.2134 16.2637 5.89813 16.2637 5.58123" fill="#455A64"/>
<path d="M12.7158 5.36068C12.7158 5.56814 12.853 5.77559 13.1241 5.93404C13.4311 6.08987 13.7706 6.17108 14.1148 6.17108C14.4591 6.17108 14.7986 6.08987 15.1056 5.93404C15.38 5.77069 15.5172 5.56814 15.5172 5.36068V2.899C15.5172 2.69318 15.38 2.48573 15.1056 2.32728C14.7986 2.17145 14.4591 2.09024 14.1148 2.09024C13.7706 2.09024 13.4311 2.17145 13.1241 2.32728C12.853 2.49063 12.7158 2.69318 12.7158 2.899V5.36068Z" fill="#37474F"/>
<path d="M13.0686 2.36813C12.9703 2.42034 12.8866 2.49622 12.825 2.58891C12.7634 2.6816 12.7258 2.78818 12.7158 2.89902V5.3607C12.7253 5.47191 12.7626 5.57895 12.8242 5.67199C12.8859 5.76503 12.9699 5.8411 13.0686 5.89322V2.36813Z" fill="#263238"/>
<path d="M15.5172 2.899C15.5172 2.69318 15.38 2.48573 15.1056 2.32728C14.7986 2.17145 14.4591 2.09024 14.1148 2.09024C13.7706 2.09024 13.4311 2.17145 13.1241 2.32728C12.5802 2.64418 12.5802 3.15546 13.1241 3.47073C13.4311 3.62656 13.7706 3.70777 14.1148 3.70777C14.4591 3.70777 14.7986 3.62656 15.1056 3.47073C15.38 3.30738 15.5172 3.10482 15.5172 2.89737" fill="#455A64"/>
<path d="M13.4884 4.49167C13.4805 4.34626 13.4383 4.20478 13.3654 4.07874C13.2924 3.95271 13.1907 3.84569 13.0686 3.7664C13.0258 3.73462 12.9751 3.71535 12.922 3.71074C12.8689 3.70612 12.8156 3.71634 12.768 3.74026C12.3058 3.97875 10.3178 4.62725 9.41936 5.1467C9.29902 5.21342 9.193 5.30318 9.10734 5.41087C9.02169 5.51856 8.95809 5.64206 8.92017 5.77433C8.88225 5.9066 8.87075 6.04504 8.88633 6.18176C8.90192 6.31847 8.94427 6.45077 9.01099 6.57112C9.0777 6.69146 9.16746 6.79748 9.27515 6.88313C9.38284 6.96878 9.50635 7.03239 9.63861 7.07031C9.77088 7.10823 9.90933 7.11973 10.046 7.10414C10.1828 7.08856 10.3151 7.0462 10.4354 6.97949C11.3747 6.4388 12.9493 5.01929 13.361 4.76447H13.3724C13.4137 4.7329 13.4461 4.69117 13.4664 4.64336C13.4867 4.59555 13.4943 4.54329 13.4884 4.49167Z" fill="#16BF78"/>
<path opacity="0.25" d="M9.14004 5.80336C9.12638 5.8987 9.13299 5.99585 9.15945 6.08846C9.18591 6.18107 9.23162 6.26705 9.29358 6.34078C9.36091 6.41332 9.4463 6.46667 9.54102 6.49537C9.63573 6.52407 9.73637 6.52709 9.83264 6.50413C9.86862 6.49714 9.90234 6.48142 9.93082 6.45835C9.9593 6.43528 9.98168 6.40557 9.99599 6.37182C10.0026 6.34394 10.0032 6.31499 9.99785 6.28684C9.99251 6.2587 9.9813 6.232 9.96495 6.20847C9.93262 6.16206 9.89657 6.11835 9.85714 6.07779C9.74755 5.94344 9.68197 5.77862 9.66929 5.60571C9.67136 5.539 9.66083 5.4725 9.63825 5.40969C9.49124 5.11893 9.16781 5.52403 9.14004 5.80336Z" fill="white"/>
<path opacity="0.2" d="M13.3724 4.75794C13.4121 4.72694 13.4434 4.68647 13.4634 4.64023C13.4834 4.59399 13.4914 4.54347 13.4868 4.49331C13.4859 4.42402 13.4749 4.35522 13.4541 4.28912C12.532 4.88209 11.6537 5.54044 10.8258 6.25912C9.94208 7.0628 9.27398 6.87332 9.00935 6.55805C9.07406 6.68058 9.16262 6.78892 9.26982 6.87671C9.37703 6.96449 9.50071 7.02995 9.63359 7.06922C9.76646 7.10849 9.90586 7.12078 10.0436 7.10537C10.1813 7.08996 10.3145 7.04716 10.4354 6.9795C11.3747 6.43881 12.9493 5.0193 13.361 4.76447L13.3724 4.75794Z" fill="black"/>
<path d="M14.8393 2.57394C14.6527 2.41954 14.4212 2.32947 14.1793 2.31711C13.9374 2.30475 13.698 2.37076 13.4966 2.50534L13.4835 2.51514C13.4541 2.53474 13.4247 2.55271 13.3986 2.57394C13.1617 2.7716 13.1944 3.04439 13.4982 3.22734C13.691 3.32559 13.9042 3.3768 14.1206 3.3768C14.3369 3.3768 14.5502 3.32559 14.7429 3.22734C14.814 3.19576 14.8754 3.14582 14.9207 3.08266C14.9661 3.0195 14.9938 2.9454 15.001 2.86797C14.9982 2.80989 14.9822 2.75322 14.9542 2.70226C14.9261 2.65131 14.8869 2.60742 14.8393 2.57394Z" fill="#16BF78"/>
<path opacity="0.25" d="M14.3738 2.49391L14.5763 2.55271H14.5992C14.5992 2.55271 14.6155 2.55271 14.6155 2.53801C14.6155 2.52331 14.6155 2.52004 14.6025 2.51351C14.5347 2.45972 14.457 2.41977 14.3738 2.3959C14.3476 2.3861 14.3003 2.37793 14.2921 2.4155C14.2839 2.45307 14.3427 2.48411 14.3738 2.49391Z" fill="white"/>
<path opacity="0.2" d="M14.5371 2.60987C14.4299 2.58447 14.3205 2.56916 14.2104 2.56413V2.38281H14.0258V2.56413C13.9156 2.56901 13.8062 2.58488 13.6991 2.6115V2.74708C13.8063 2.72125 13.9157 2.70539 14.0258 2.69971V2.97087H14.2104V2.69808C14.3205 2.70311 14.4299 2.71842 14.5371 2.74382V2.60987Z" fill="black"/>
<path opacity="0.2" d="M13.6958 2.6115C13.8031 2.58538 13.9124 2.56898 14.0225 2.5625V2.61967C13.9124 2.62615 13.8031 2.64255 13.6958 2.66868V2.6115Z" fill="black"/>
<path opacity="0.2" d="M14.5371 2.60987V2.66541C14.4299 2.64001 14.3205 2.6247 14.2104 2.61967V2.5625C14.3205 2.56885 14.4298 2.5847 14.5371 2.60987Z" fill="black"/>
<path opacity="0.2" d="M14.2088 2.38281H14.0242V2.45305H14.2088V2.38281Z" fill="black"/>
</svg>
