<svg width="42" height="64" viewBox="0 0 42 64" fill="none" xmlns="http://www.w3.org/2000/svg">
<path d="M13.2642 62.1294L16.1478 63.8042C16.3674 63.9324 16.617 64 16.8713 64C17.1256 64 17.3752 63.9324 17.5948 63.8042L41.0356 50.1759C41.1081 50.1337 41.1683 50.0732 41.2102 50.0004C41.252 49.9276 41.274 49.8451 41.274 49.7612C41.274 49.6772 41.252 49.5947 41.2102 49.5219C41.1683 49.4491 41.1081 49.3886 41.0356 49.3464L38.1537 47.6698C37.9339 47.5424 37.6843 47.4754 37.4303 47.4754C37.1762 47.4754 36.9266 47.5424 36.7067 47.6698L13.2642 61.2998C13.1917 61.342 13.1315 61.4026 13.0896 61.4754C13.0478 61.5482 13.0258 61.6306 13.0258 61.7146C13.0258 61.7985 13.0478 61.881 13.0896 61.9538C13.1315 62.0266 13.1917 62.0871 13.2642 62.1294Z" fill="#E6E6E6"/>
<path d="M10.8224 49.7099C10.3633 49.2698 9.83802 48.7898 9.80497 48.155C9.77541 47.5898 10.1911 47.0593 10.7198 46.8541C10.9884 46.7636 11.2725 46.728 11.5552 46.7495C11.8378 46.771 12.1132 46.8492 12.3651 46.9793C12.8679 47.2437 13.3155 47.6021 13.6834 48.035C14.7949 49.2694 15.5995 50.7485 16.0319 52.3522C16.4644 53.956 16.5124 55.6391 16.1721 57.2649C16.1269 57.4788 16.0539 57.7153 15.8608 57.818C15.5547 57.9797 15.2052 57.6945 14.9912 57.4179C14.5345 56.8113 14.1893 56.1281 13.9721 55.4005C13.7895 54.7866 13.8712 54.1065 13.6399 53.5274C13.0764 52.1047 11.9163 50.7534 10.8224 49.7099Z" fill="#16BF78"/>
<path d="M15.5947 56.9936C15.5625 56.9936 15.5315 56.9808 15.5087 56.9579C15.4858 56.9351 15.473 56.9041 15.473 56.8718C15.4591 55.09 15.0486 53.3336 14.2713 51.7301C13.4939 50.1267 12.3693 48.7165 10.9789 47.602C10.9641 47.5929 10.9513 47.5808 10.9414 47.5664C10.9316 47.552 10.9249 47.5357 10.9218 47.5186C10.9187 47.5014 10.9192 47.4838 10.9234 47.4669C10.9276 47.4499 10.9353 47.4341 10.9461 47.4204C10.9568 47.4067 10.9704 47.3954 10.9858 47.3873C11.0012 47.3792 11.0182 47.3744 11.0356 47.3733C11.053 47.3722 11.0704 47.3748 11.0867 47.381C11.103 47.3871 11.1179 47.3966 11.1303 47.4089C12.5484 48.5465 13.6956 49.9853 14.4889 51.6211C15.2821 53.2569 15.7015 55.0487 15.7165 56.8666C15.7172 56.883 15.7146 56.8994 15.7088 56.9148C15.703 56.9302 15.6941 56.9442 15.6827 56.9561C15.6714 56.968 15.6577 56.9774 15.6426 56.9838C15.6275 56.9903 15.6112 56.9936 15.5947 56.9936Z" fill="white"/>
<path d="M14.0904 61.8633C13.3164 62.112 12.3512 61.9503 11.899 61.272C11.3772 60.4755 11.7024 59.2476 10.9963 58.6041C10.6033 58.2441 10.0224 58.2093 9.50063 58.0997C8.97888 57.9901 8.39625 57.7032 8.31798 57.1745C8.21537 56.4788 9.07627 55.8927 8.95453 55.1953C8.83278 54.4979 7.88493 54.2926 7.60492 53.6544C7.34926 53.0717 7.80145 52.3656 8.39973 52.15C8.99801 51.9343 9.66412 52.0821 10.2607 52.303C10.8572 52.5239 11.4381 52.8161 12.0694 52.8943C12.7268 52.9743 13.4851 52.8456 13.9686 53.2978C14.6138 53.9013 14.2451 55.0527 14.7443 55.7814C15.0782 56.2684 15.7078 56.4388 16.1896 56.7814C16.4895 56.9986 16.733 57.2846 16.8994 57.6153C17.0659 57.9461 17.1505 58.3121 17.1461 58.6823C17.1305 59.4841 16.7078 60.0633 16.1026 60.5241C15.4608 61.0076 14.8852 61.599 14.0904 61.8633Z" fill="#16BF78"/>
<path opacity="0.2" d="M14.0904 61.8633C13.3164 62.112 12.3512 61.9503 11.899 61.272C11.3772 60.4755 11.7024 59.2476 10.9963 58.6041C10.6033 58.2441 10.0224 58.2093 9.50063 58.0997C8.97888 57.9901 8.39625 57.7032 8.31798 57.1745C8.21537 56.4788 9.07627 55.8927 8.95453 55.1953C8.83278 54.4979 7.88493 54.2926 7.60492 53.6544C7.34926 53.0717 7.80145 52.3656 8.39973 52.15C8.99801 51.9343 9.66412 52.0821 10.2607 52.303C10.8572 52.5239 11.4381 52.8161 12.0694 52.8943C12.7268 52.9743 13.4851 52.8456 13.9686 53.2978C14.6138 53.9013 14.2451 55.0527 14.7443 55.7814C15.0782 56.2684 15.7078 56.4388 16.1896 56.7814C16.4895 56.9986 16.733 57.2846 16.8994 57.6153C17.0659 57.9461 17.1505 58.3121 17.1461 58.6823C17.1305 59.4841 16.7078 60.0633 16.1026 60.5241C15.4608 61.0076 14.8852 61.599 14.0904 61.8633Z" fill="black"/>
<path d="M13.7425 56.3745L13.7321 56.3623C13.6173 56.1884 13.4973 56.0301 13.3703 55.8718C12.2278 54.4534 10.6763 53.4211 8.92671 52.9152C8.89557 52.9062 8.86214 52.9099 8.83377 52.9256C8.80539 52.9413 8.78439 52.9675 8.7754 52.9987C8.76641 53.0298 8.77015 53.0633 8.7858 53.0916C8.80146 53.12 8.82775 53.141 8.85888 53.15C10.5596 53.6427 12.0678 54.6463 13.179 56.0249C13.2138 56.0666 13.2434 56.1136 13.2782 56.1571C11.8868 55.6492 10.4798 55.9379 9.72674 56.5449C9.71403 56.555 9.70346 56.5676 9.69562 56.5818C9.68778 56.5961 9.68283 56.6117 9.68105 56.6279C9.67927 56.644 9.68071 56.6604 9.68526 56.676C9.68982 56.6916 9.69741 56.7061 9.70761 56.7188C9.71928 56.7329 9.7339 56.7442 9.75042 56.752C9.76695 56.7598 9.78498 56.7639 9.80326 56.764C9.83131 56.7644 9.85853 56.7545 9.87978 56.7362C10.6259 56.1362 12.1651 55.8666 13.5616 56.5449C14.4354 57.8256 14.9485 59.3178 15.0469 60.865C15.0483 60.8963 15.0617 60.9257 15.0845 60.9471C15.1072 60.9686 15.1374 60.9803 15.1687 60.9798C15.1847 60.9789 15.2003 60.9749 15.2147 60.9679C15.2292 60.961 15.2421 60.9513 15.2528 60.9393C15.2634 60.9273 15.2716 60.9134 15.2769 60.8983C15.2822 60.8831 15.2844 60.8671 15.2834 60.8511C15.1833 59.2472 14.6508 57.7002 13.7425 56.3745Z" fill="white"/>
<path d="M8.46232 7.01279C7.66925 7.4702 6.98749 8.39023 6.65878 9.3433C6.45006 9.36859 6.24909 9.43795 6.0692 9.54679C6.02746 9.57114 5.98572 9.59723 5.94224 9.62679C5.22736 10.1501 4.74153 10.9287 4.58567 11.8008C4.54721 12.0241 4.54721 12.2523 4.58567 12.4756C4.58753 12.4972 4.5833 12.5189 4.57346 12.5383C4.56363 12.5577 4.54858 12.5739 4.53002 12.5852L3.71434 13.0565C3.52726 13.1783 3.37162 13.3427 3.2601 13.5361C3.14857 13.7295 3.08432 13.9466 3.07258 14.1696C3.07258 14.58 3.36302 14.7452 3.71956 14.5383L11.6955 9.93289C11.8832 9.81152 12.0394 9.64733 12.1512 9.45383C12.2631 9.26032 12.3275 9.04303 12.339 8.81981C12.339 8.4111 12.0485 8.24588 11.692 8.4511L10.3859 9.20591C10.3459 9.22852 10.318 9.20591 10.3337 9.14678C10.4534 8.76704 10.5024 8.36852 10.478 7.97108C10.3928 6.89105 9.5928 6.44756 8.61015 6.92757L8.46232 7.01279Z" fill="#E6E6E6"/>
<path d="M4.05522 3.18656C3.46953 3.56588 3.03037 4.13324 2.80996 4.79531C2.66581 4.81269 2.52704 4.86073 2.40299 4.93619L2.31603 4.9901C1.82288 5.35237 1.48788 5.89037 1.38035 6.49276C1.35414 6.64702 1.35414 6.8046 1.38035 6.95886C1.38171 6.97348 1.37902 6.98819 1.37258 7.00138C1.36614 7.01457 1.35619 7.02573 1.34383 7.03365L0.785548 7.35888C0.655608 7.44164 0.547071 7.55394 0.468789 7.68662C0.390507 7.81931 0.344698 7.96862 0.335098 8.12238C0.335098 8.40413 0.535105 8.51891 0.78207 8.3763L6.2866 5.20402C6.41607 5.11996 6.52386 5.00653 6.60123 4.87295C6.67859 4.73938 6.72334 4.58943 6.73184 4.4353C6.73184 4.15181 6.53009 4.03876 6.28486 4.17964L5.38222 4.70139C5.35614 4.71879 5.33701 4.70139 5.34744 4.66139C5.4294 4.39949 5.46299 4.12486 5.44658 3.85093C5.38744 3.10482 4.83612 2.80742 4.15784 3.13439C4.12305 3.15004 4.09001 3.16743 4.05522 3.18656Z" fill="#E6E6E6"/>
<path d="M39.7016 1.58128C39.5451 1.02822 38.4251 -0.0205102 37.3102 0.00209923C37.2032 0.00492356 37.0974 0.0254935 36.9972 0.0629706L15.3443 12.3816C14.9825 12.5876 14.6919 12.8988 14.5112 13.2738C14.3719 13.5563 14.2988 13.8668 14.2973 14.1817V61.0233C14.2973 62.2164 15.673 63.3555 16.9635 62.8077C16.9922 62.7992 17.0202 62.7882 17.047 62.7746L38.7033 50.4264C39.0202 50.2451 39.2836 49.9833 39.4668 49.6675C39.6501 49.3517 39.7467 48.9932 39.7468 48.6281V1.80564C39.7494 1.72835 39.7339 1.65154 39.7016 1.58128Z" fill="#37474F"/>
<path d="M17.3165 19.1332C17.317 18.9505 17.3655 18.7711 17.457 18.613C17.5486 18.4549 17.6801 18.3236 17.8383 18.2323L37.9433 6.79362C38.023 6.74881 38.1131 6.72574 38.2045 6.72671C38.296 6.72769 38.3856 6.75268 38.4643 6.79919C38.5431 6.84569 38.6082 6.91207 38.6532 6.99168C38.6982 7.07129 38.7215 7.16133 38.7207 7.25277V45.014C38.7202 45.1967 38.6718 45.3761 38.5802 45.5342C38.4886 45.6923 38.3572 45.8236 38.199 45.9149L18.0922 57.3727C18.0132 57.4167 17.9241 57.4395 17.8336 57.4387C17.7432 57.4379 17.6545 57.4136 17.5762 57.3681C17.498 57.3227 17.4329 57.2577 17.3874 57.1795C17.3419 57.1014 17.3174 57.0127 17.3165 56.9223V19.1332Z" fill="#16BF78"/>
<path opacity="0.5" d="M17.3165 19.1332C17.317 18.9505 17.3655 18.7711 17.457 18.613C17.5486 18.4549 17.6801 18.3236 17.8383 18.2323L37.9433 6.79362C38.023 6.74881 38.1131 6.72574 38.2045 6.72671C38.296 6.72769 38.3856 6.75268 38.4643 6.79919C38.5431 6.84569 38.6082 6.91207 38.6532 6.99168C38.6982 7.07129 38.7215 7.16133 38.7207 7.25277V45.014C38.7202 45.1967 38.6718 45.3761 38.5802 45.5342C38.4886 45.6923 38.3572 45.8236 38.199 45.9149L18.0922 57.3727C18.0132 57.4167 17.9241 57.4395 17.8336 57.4387C17.7432 57.4379 17.6545 57.4136 17.5762 57.3681C17.498 57.3227 17.4329 57.2577 17.3874 57.1795C17.3419 57.1014 17.3174 57.0127 17.3165 56.9223V19.1332Z" fill="white"/>
<path d="M14.2973 14.1817V61.0233C14.2973 62.2164 15.673 63.3555 16.9635 62.8077C16.8855 62.8353 16.802 62.8439 16.72 62.8329C16.6379 62.8219 16.5597 62.7915 16.4917 62.7442C16.4238 62.697 16.368 62.6343 16.3291 62.5612C16.2901 62.4882 16.2691 62.407 16.2678 62.3242V15.4774C16.268 15.0699 16.389 14.6717 16.6157 14.333L14.4956 13.2739C14.3617 13.5576 14.2939 13.868 14.2973 14.1817Z" fill="#263238"/>
<path d="M37.3085 0.000359721C37.2015 0.00318405 37.0957 0.0237547 36.9955 0.0612317L15.3443 12.3816C14.9825 12.5876 14.6919 12.8988 14.5112 13.2739L16.6313 14.333C16.8082 14.0622 17.0466 13.837 17.327 13.6756L38.9834 1.35693C39.0449 1.32307 39.1127 1.302 39.1827 1.29499C39.2526 1.28797 39.3232 1.29516 39.3903 1.31611C39.4574 1.33706 39.5195 1.37135 39.573 1.41692C39.6265 1.46249 39.6703 1.51839 39.7017 1.58128C39.5469 1.02648 38.4268 -0.0222497 37.3085 0.000359721Z" fill="#455A64"/>
<path d="M30.6891 9.09108C30.8405 9.00239 30.9657 9.07195 30.9674 9.24587C30.9627 9.3411 30.9361 9.43397 30.8897 9.51723C30.8432 9.60049 30.7782 9.6719 30.6996 9.72589L26.4507 12.1781C26.2977 12.2668 26.1759 12.1921 26.1742 12.0181C26.1792 11.9229 26.2068 11.8302 26.2545 11.7477C26.3023 11.6652 26.3689 11.5951 26.449 11.5433L30.6891 9.09108Z" fill="#263238"/>
<path d="M25.3481 12.1747C25.5012 12.086 25.6229 12.1556 25.6246 12.3312C25.6197 12.4267 25.5923 12.5197 25.5445 12.6025C25.4967 12.6853 25.43 12.7557 25.3498 12.8078C25.1985 12.8965 25.0716 12.8234 25.0716 12.6495C25.0772 12.5542 25.1052 12.4616 25.1532 12.3791C25.2013 12.2966 25.268 12.2266 25.3481 12.1747Z" fill="#263238"/>
<path d="M28.0682 8.73455C28.3726 8.56063 28.6178 8.69803 28.6178 9.04761C28.6081 9.23845 28.5536 9.42433 28.4587 9.59021C28.3638 9.75608 28.2313 9.8973 28.0717 10.0024C27.7673 10.1763 27.5169 10.0337 27.5151 9.68415C27.5264 9.49359 27.5824 9.30836 27.6784 9.1434C27.7745 8.97844 27.908 8.83839 28.0682 8.73455Z" fill="#263238"/>
<path d="M28.0699 52.8317C28.6891 52.4734 29.1882 52.7586 29.19 53.47C29.1705 53.8585 29.0595 54.237 28.8661 54.5746C28.6726 54.9122 28.4023 55.1993 28.0769 55.4126C27.4577 55.7605 26.9447 55.477 26.9429 54.7657C26.9655 54.3774 27.0793 53.9999 27.2751 53.6639C27.4709 53.3278 27.7433 53.0427 28.0699 52.8317Z" fill="#263238"/>
<path d="M22.4665 25.0708C22.6405 24.9682 22.7935 25.0517 22.7935 25.2569V26.8796C22.7873 26.9922 22.7547 27.1018 22.6982 27.1994C22.6416 27.297 22.5629 27.3799 22.4683 27.4414L21.0056 28.2849C20.8317 28.3892 20.6804 28.3057 20.6804 28.0988V26.4761C20.6866 26.3635 20.7192 26.2539 20.7757 26.1563C20.8323 26.0587 20.911 25.9758 21.0056 25.9143L22.4665 25.0708Z" fill="white"/>
<path d="M36.3435 16.4758C36.6913 16.2792 36.9592 16.4375 36.9609 16.8236V18.9437C36.9503 19.1566 36.8893 19.364 36.7829 19.5488C36.6764 19.7335 36.5276 19.8903 36.3487 20.0063L20.783 28.9945C20.4351 29.1892 20.1656 29.0327 20.1656 28.6466V26.5265C20.1765 26.3132 20.2379 26.1056 20.3446 25.9205C20.4513 25.7355 20.6003 25.5784 20.7795 25.4622L36.3435 16.4758ZM22.7987 26.8796V25.2569C22.7987 25.0517 22.6509 24.9682 22.4717 25.0708L21.0056 25.9178C20.911 25.9793 20.8322 26.0622 20.7757 26.1598C20.7192 26.2574 20.6865 26.367 20.6804 26.4796V28.1023C20.6804 28.3092 20.8265 28.3927 21.0056 28.2883L22.4735 27.4414C22.5681 27.3799 22.6468 27.297 22.7034 27.1994C22.7599 27.1018 22.7925 26.9922 22.7987 26.8796ZM30.2772 22.5055V21.0203L29.9937 21.1838L29.8616 22.3177L29.7068 21.3507L29.425 21.5125V22.9977L29.5989 22.8951V21.8516L29.7485 22.8169L29.9398 22.7055L30.0737 21.5612V22.6255L30.265 22.5142L30.2772 22.5055ZM28.5363 23.5125V22.0273L28.3293 22.1473V22.7838L28.098 22.916V22.2794L27.8945 22.3977V23.883L28.098 23.7647V23.1195L28.3276 22.9873V23.6238L28.5346 23.5038L28.5363 23.5125ZM27.4945 23.763V22.9908C27.4945 22.7542 27.3849 22.6812 27.1849 22.796C27.0886 22.8513 27.0091 22.9319 26.9552 23.0291C26.9012 23.1262 26.8749 23.2363 26.8788 23.3473V24.1108C26.8788 24.3491 26.9884 24.4204 27.1884 24.3056C27.2849 24.2502 27.3644 24.1697 27.4187 24.0725C27.4729 23.9754 27.4997 23.8654 27.4963 23.7543L27.4945 23.763ZM29.2998 22.7195V21.9473C29.2998 21.7107 29.1902 21.6377 28.9902 21.7525C28.8936 21.8075 28.8139 21.888 28.76 21.9853C28.706 22.0825 28.6797 22.1927 28.6841 22.3038V23.0673C28.6841 23.3056 28.7937 23.3769 28.9937 23.2621C29.0885 23.2072 29.1669 23.1279 29.2207 23.0325C29.2745 22.9371 29.3018 22.829 29.2998 22.7195ZM26.7623 23.556V23.4151C26.7623 23.1786 26.658 23.1021 26.458 23.2169C26.3626 23.272 26.2841 23.3522 26.2311 23.4488C26.178 23.5454 26.1524 23.6546 26.1571 23.7647V24.5369C26.1571 24.7752 26.2614 24.85 26.4614 24.7352C26.5571 24.6803 26.636 24.6001 26.6893 24.5036C26.7427 24.407 26.7685 24.2976 26.7641 24.1873V23.716L26.4788 23.8812V24.0934L26.571 24.0395V24.3126C26.5748 24.3531 26.567 24.3939 26.5485 24.4303C26.53 24.4666 26.5017 24.4969 26.4667 24.5178C26.4023 24.5543 26.3606 24.5404 26.3606 24.4343V23.6325C26.357 23.5916 26.3651 23.5504 26.3839 23.5138C26.4027 23.4772 26.4313 23.4466 26.4667 23.4256C26.531 23.389 26.571 23.4047 26.571 23.5125V23.6708L26.7641 23.5595L26.7623 23.556ZM30.9816 20.8342V20.615L30.4285 20.935V22.4203L30.9816 22.1003V21.8881L30.6338 22.0899V21.6568L30.912 21.4951V21.2829L30.6338 21.4446V21.0307L30.9816 20.8272" fill="#16BF78"/>
<path d="M27.4945 23.763V22.9908C27.4945 22.7542 27.3849 22.6812 27.1849 22.796C27.0886 22.8513 27.0091 22.9319 26.9552 23.0291C26.9012 23.1262 26.8749 23.2363 26.8788 23.3473V24.1108C26.8788 24.3491 26.9884 24.4204 27.1884 24.3056C27.2849 24.2502 27.3644 24.1697 27.4187 24.0725C27.4729 23.9754 27.4997 23.8654 27.4963 23.7543L27.4945 23.763Z" fill="#16BF78"/>
<path d="M26.7623 23.556V23.4151C26.7623 23.1786 26.658 23.1021 26.458 23.2169C26.3626 23.272 26.2841 23.3522 26.2311 23.4488C26.178 23.5454 26.1524 23.6546 26.1571 23.7647V24.5369C26.1571 24.7752 26.2614 24.85 26.4614 24.7352C26.5571 24.6803 26.636 24.6001 26.6893 24.5036C26.7427 24.407 26.7685 24.2976 26.7641 24.1873V23.716L26.4788 23.8812V24.0934L26.571 24.0395V24.3126C26.5748 24.3531 26.567 24.3939 26.5485 24.4303C26.53 24.4666 26.5017 24.4969 26.4667 24.5178C26.4023 24.5543 26.3606 24.5404 26.3606 24.4343V23.6325C26.357 23.5916 26.3651 23.5504 26.3839 23.5138C26.4027 23.4772 26.4313 23.4466 26.4667 23.4256C26.531 23.389 26.571 23.4047 26.571 23.5125V23.6708L26.7641 23.5595L26.7623 23.556Z" fill="#16BF78"/>
<path d="M28.5363 23.5125V22.0273L28.3293 22.1473V22.7838L28.098 22.916V22.2794L27.8945 22.3977V23.883L28.098 23.7647V23.1195L28.3276 22.9873V23.6238L28.5346 23.5038L28.5363 23.5125Z" fill="#16BF78"/>
<path d="M29.2998 22.7195V21.9473C29.2998 21.7107 29.1902 21.6377 28.9902 21.7525C28.8936 21.8075 28.8139 21.888 28.76 21.9853C28.706 22.0825 28.6797 22.1927 28.6841 22.3038V23.0673C28.6841 23.3056 28.7937 23.3769 28.9937 23.2621C29.0885 23.2072 29.1669 23.1279 29.2207 23.0325C29.2745 22.9371 29.3018 22.829 29.2998 22.7195Z" fill="#16BF78"/>
<path d="M30.2772 22.5055V21.0203L29.9937 21.1838L29.8616 22.3177L29.7068 21.3507L29.425 21.5125V22.9977L29.5989 22.8951V21.8516L29.7485 22.8169L29.9398 22.7055L30.0737 21.5612V22.6255L30.265 22.5142L30.2772 22.5055Z" fill="#16BF78"/>
<path d="M30.9816 20.8272V20.615L30.4285 20.935V22.4203L30.9816 22.1003V21.8881L30.6338 22.0899V21.6568L30.912 21.4951V21.2829L30.6338 21.4446V21.0307L30.9816 20.8272Z" fill="#16BF78"/>
<path d="M22.4665 32.0566C22.6405 31.954 22.7935 32.0375 22.7935 32.2427V33.8653C22.7873 33.978 22.7547 34.0875 22.6982 34.1852C22.6416 34.2828 22.5629 34.3657 22.4683 34.4271L21.0056 35.2706C20.8317 35.375 20.6804 35.2915 20.6804 35.0845V33.4618C20.6866 33.3492 20.7192 33.2396 20.7757 33.142C20.8323 33.0444 20.911 32.9615 21.0056 32.9001L22.4665 32.0566Z" fill="white"/>
<path d="M36.3435 23.4615C36.6913 23.265 36.9592 23.4233 36.9609 23.8094V25.9294C36.9503 26.1424 36.8893 26.3498 36.7829 26.5345C36.6764 26.7193 36.5276 26.8761 36.3487 26.9921L20.783 35.9802C20.4351 36.175 20.1656 36.0185 20.1656 35.6324V33.5123C20.1765 33.299 20.2379 33.0913 20.3446 32.9063C20.4513 32.7213 20.6003 32.5642 20.7795 32.4479L36.3435 23.4615ZM22.7987 33.8653V32.2427C22.7987 32.0375 22.6509 31.954 22.4717 32.0566L21.0056 32.9036C20.911 32.965 20.8322 33.0479 20.7757 33.1455C20.7192 33.2431 20.6865 33.3527 20.6804 33.4653V35.088C20.6804 35.295 20.8265 35.3784 21.0056 35.2741L22.4735 34.4271C22.5681 34.3657 22.6468 34.2828 22.7034 34.1852C22.7599 34.0875 22.7925 33.978 22.7987 33.8653ZM30.2772 29.4913V28.006L29.9937 28.1695L29.8616 29.3035L29.7068 28.3365L29.425 28.4982V29.9835L29.5989 29.8809V28.8374L29.7485 29.8026L29.9398 29.6913L30.0737 28.5469V29.6113L30.265 29.5L30.2772 29.4913ZM28.5363 30.4983V29.013L28.3293 29.133V29.7696L28.098 29.9017V29.2652L27.8945 29.3835V30.8687L28.098 30.7505V30.1052L28.3276 29.973V30.6096L28.5346 30.4896L28.5363 30.4983ZM27.4945 30.7487V29.9765C27.4945 29.74 27.3849 29.6669 27.1849 29.7817C27.0886 29.8371 27.0091 29.9177 26.9552 30.0148C26.9012 30.112 26.8749 30.222 26.8788 30.333V31.0966C26.8788 31.3348 26.9884 31.4061 27.1884 31.2913C27.2849 31.2359 27.3644 31.1554 27.4187 31.0583C27.4729 30.9612 27.4997 30.8512 27.4963 30.74L27.4945 30.7487ZM29.2998 29.7052V28.933C29.2998 28.6965 29.1902 28.6234 28.9902 28.7382C28.8936 28.7933 28.8139 28.8738 28.76 28.971C28.706 29.0682 28.6797 29.1784 28.6841 29.2895V30.053C28.6841 30.2913 28.7937 30.3626 28.9937 30.2478C29.0885 30.1929 29.1669 30.1136 29.2207 30.0182C29.2745 29.9228 29.3018 29.8147 29.2998 29.7052ZM26.7623 30.5418V30.4009C26.7623 30.1644 26.658 30.0878 26.458 30.2026C26.3626 30.2578 26.2841 30.338 26.2311 30.4346C26.178 30.5311 26.1524 30.6404 26.1571 30.7505V31.5227C26.1571 31.7609 26.2614 31.8357 26.4614 31.7209C26.5571 31.666 26.636 31.5859 26.6893 31.4893C26.7427 31.3927 26.7685 31.2833 26.7641 31.1731V30.7018L26.4788 30.867V31.0792L26.571 31.0252V31.2983C26.5748 31.3389 26.567 31.3797 26.5485 31.416C26.53 31.4523 26.5017 31.4827 26.4667 31.5035C26.4023 31.54 26.3606 31.5261 26.3606 31.42V30.6183C26.357 30.5773 26.3651 30.5362 26.3839 30.4996C26.4027 30.463 26.4313 30.4324 26.4667 30.4113C26.531 30.3748 26.571 30.3904 26.571 30.4983V30.6565L26.7641 30.5452L26.7623 30.5418ZM30.9816 27.8199V27.6008L30.4285 27.9208V29.4061L30.9816 29.0861V28.8739L30.6338 29.0756V28.6426L30.912 28.4808V28.2686L30.6338 28.4304V28.0165L30.9816 27.813" fill="#16BF78"/>
<path d="M27.4945 30.7487V29.9765C27.4945 29.74 27.3849 29.6669 27.1849 29.7817C27.0886 29.8371 27.0091 29.9177 26.9552 30.0148C26.9012 30.112 26.8749 30.222 26.8788 30.333V31.0966C26.8788 31.3348 26.9884 31.4061 27.1884 31.2913C27.2849 31.2359 27.3644 31.1554 27.4187 31.0583C27.4729 30.9612 27.4997 30.8512 27.4963 30.74L27.4945 30.7487Z" fill="#16BF78"/>
<path d="M26.7623 30.5418V30.4009C26.7623 30.1644 26.658 30.0878 26.458 30.2026C26.3626 30.2578 26.2841 30.338 26.2311 30.4346C26.178 30.5311 26.1524 30.6404 26.1571 30.7505V31.5227C26.1571 31.7609 26.2614 31.8357 26.4614 31.7209C26.5571 31.666 26.636 31.5859 26.6893 31.4893C26.7427 31.3927 26.7685 31.2833 26.7641 31.1731V30.7018L26.4788 30.867V31.0792L26.571 31.0252V31.2983C26.5748 31.3389 26.567 31.3797 26.5485 31.416C26.53 31.4523 26.5017 31.4827 26.4667 31.5035C26.4023 31.54 26.3606 31.5261 26.3606 31.42V30.6183C26.357 30.5773 26.3651 30.5362 26.3839 30.4996C26.4027 30.463 26.4313 30.4324 26.4667 30.4113C26.531 30.3748 26.571 30.3904 26.571 30.4983V30.6565L26.7641 30.5452L26.7623 30.5418Z" fill="#16BF78"/>
<path d="M28.5363 30.4983V29.013L28.3293 29.133V29.7696L28.098 29.9017V29.2652L27.8945 29.3835V30.8687L28.098 30.7505V30.1052L28.3276 29.973V30.6096L28.5346 30.4896L28.5363 30.4983Z" fill="#16BF78"/>
<path d="M29.2998 29.7052V28.933C29.2998 28.6965 29.1902 28.6234 28.9902 28.7382C28.8936 28.7933 28.8139 28.8738 28.76 28.971C28.706 29.0682 28.6797 29.1784 28.6841 29.2895V30.053C28.6841 30.2913 28.7937 30.3626 28.9937 30.2478C29.0885 30.1929 29.1669 30.1136 29.2207 30.0182C29.2745 29.9228 29.3018 29.8147 29.2998 29.7052Z" fill="#16BF78"/>
<path d="M30.2772 29.4913V28.006L29.9937 28.1695L29.8616 29.3035L29.7068 28.3365L29.425 28.4982V29.9835L29.5989 29.8809V28.8374L29.7485 29.8026L29.9398 29.6913L30.0737 28.5469V29.6113L30.265 29.5L30.2772 29.4913Z" fill="#16BF78"/>
<path d="M30.9816 27.813V27.6008L30.4285 27.9208V29.4061L30.9816 29.0861V28.8739L30.6338 29.0756V28.6426L30.912 28.4808V28.2686L30.6338 28.4304V28.0165L30.9816 27.813Z" fill="#16BF78"/>
<path d="M22.4665 39.0424C22.6405 38.9398 22.7935 39.0232 22.7935 39.2285V40.8511C22.7873 40.9637 22.7547 41.0733 22.6982 41.1709C22.6416 41.2686 22.5629 41.3514 22.4683 41.4129L21.0056 42.2564C20.8317 42.3607 20.6804 42.2773 20.6804 42.0703V40.4476C20.6866 40.335 20.7192 40.2254 20.7757 40.1278C20.8323 40.0302 20.911 39.9473 21.0056 39.8859L22.4665 39.0424Z" fill="white"/>
<path d="M36.3435 30.4473C36.6913 30.2508 36.9592 30.409 36.9609 30.7951V32.9152C36.9503 33.1282 36.8893 33.3355 36.7829 33.5203C36.6764 33.705 36.5276 33.8619 36.3487 33.9778L20.783 42.966C20.4351 43.1608 20.1656 43.0042 20.1656 42.6181V40.4981C20.1765 40.2848 20.2379 40.0771 20.3446 39.8921C20.4513 39.707 20.6003 39.55 20.7795 39.4337L36.3435 30.4473ZM22.7987 40.8511V39.2285C22.7987 39.0232 22.6509 38.9398 22.4717 39.0424L21.0056 39.8894C20.911 39.9508 20.8322 40.0337 20.7757 40.1313C20.7192 40.2289 20.6865 40.3385 20.6804 40.4511V42.0738C20.6804 42.2807 20.8265 42.3642 21.0056 42.2599L22.4735 41.4129C22.5681 41.3514 22.6468 41.2686 22.7034 41.1709C22.7599 41.0733 22.7925 40.9637 22.7987 40.8511ZM30.2772 36.4771V34.9918L29.9937 35.1553L29.8616 36.2892L29.7068 35.3222L29.425 35.484V36.9693L29.5989 36.8666V35.8231L29.7485 36.7884L29.9398 36.6771L30.0737 35.5327V36.5971L30.265 36.4858L30.2772 36.4771ZM28.5363 37.4841V35.9988L28.3293 36.1188V36.7553L28.098 36.8875V36.251L27.8945 36.3692V37.8545L28.098 37.7362V37.091L28.3276 36.9588V37.5954L28.5346 37.4754L28.5363 37.4841ZM27.4945 37.7345V36.9623C27.4945 36.7258 27.3849 36.6527 27.1849 36.7675C27.0886 36.8228 27.0091 36.9034 26.9552 37.0006C26.9012 37.0977 26.8749 37.2078 26.8788 37.3188V38.0823C26.8788 38.3206 26.9884 38.3919 27.1884 38.2771C27.2849 38.2217 27.3644 38.1412 27.4187 38.0441C27.4729 37.947 27.4997 37.837 27.4963 37.7258L27.4945 37.7345ZM29.2998 36.691V35.9188C29.2998 35.6823 29.1902 35.6092 28.9902 35.724C28.8936 35.779 28.8139 35.8596 28.76 35.9568C28.706 36.054 28.6797 36.1642 28.6841 36.2753V37.0388C28.6841 37.2771 28.7937 37.3484 28.9937 37.2336C29.0885 37.1787 29.1669 37.0994 29.2207 37.004C29.2745 36.9086 29.3018 36.8005 29.2998 36.691ZM26.7623 37.5275V37.3867C26.7623 37.1501 26.658 37.0736 26.458 37.1884C26.3626 37.2435 26.2841 37.3238 26.2311 37.4203C26.178 37.5169 26.1524 37.6262 26.1571 37.7362V38.5084C26.1571 38.7467 26.2614 38.8215 26.4614 38.7067C26.5571 38.6518 26.636 38.5717 26.6893 38.4751C26.7427 38.3785 26.7685 38.2691 26.7641 38.1589V37.6875L26.4788 37.8528V38.0649L26.571 38.011V38.2841C26.5748 38.3247 26.567 38.3655 26.5485 38.4018C26.53 38.4381 26.5017 38.4684 26.4667 38.4893C26.4023 38.5258 26.3606 38.5119 26.3606 38.4058V37.6041C26.357 37.5631 26.3651 37.5219 26.3839 37.4853C26.4027 37.4487 26.4313 37.4182 26.4667 37.3971C26.531 37.3606 26.571 37.3762 26.571 37.4841V37.6423L26.7641 37.531L26.7623 37.5275ZM30.9816 34.8057V34.5866L30.4285 34.9066V36.3918L30.9816 36.0718V35.8597L30.6338 36.0614V35.6283L30.912 35.4666V35.2544L30.6338 35.4162V35.0022L30.9816 34.7987" fill="#16BF78"/>
<path d="M27.4945 37.7345V36.9623C27.4945 36.7258 27.3849 36.6527 27.1849 36.7675C27.0886 36.8228 27.0091 36.9034 26.9552 37.0006C26.9012 37.0977 26.8749 37.2078 26.8788 37.3188V38.0823C26.8788 38.3206 26.9884 38.3919 27.1884 38.2771C27.2849 38.2217 27.3644 38.1412 27.4187 38.0441C27.4729 37.947 27.4997 37.837 27.4963 37.7258L27.4945 37.7345Z" fill="#16BF78"/>
<path d="M26.7623 37.5275V37.3867C26.7623 37.1501 26.658 37.0736 26.458 37.1884C26.3626 37.2435 26.2841 37.3238 26.2311 37.4203C26.178 37.5169 26.1524 37.6262 26.1571 37.7362V38.5084C26.1571 38.7467 26.2614 38.8215 26.4614 38.7067C26.5571 38.6518 26.636 38.5717 26.6893 38.4751C26.7427 38.3785 26.7685 38.2691 26.7641 38.1589V37.6875L26.4788 37.8528V38.0649L26.571 38.011V38.2841C26.5748 38.3247 26.567 38.3655 26.5485 38.4018C26.53 38.4381 26.5017 38.4684 26.4667 38.4893C26.4023 38.5258 26.3606 38.5119 26.3606 38.4058V37.6041C26.357 37.5631 26.3651 37.5219 26.3839 37.4853C26.4027 37.4487 26.4313 37.4182 26.4667 37.3971C26.531 37.3606 26.571 37.3762 26.571 37.4841V37.6423L26.7641 37.531L26.7623 37.5275Z" fill="#16BF78"/>
<path d="M28.5363 37.4841V35.9988L28.3293 36.1188V36.7553L28.098 36.8875V36.251L27.8945 36.3692V37.8545L28.098 37.7362V37.091L28.3276 36.9588V37.5954L28.5346 37.4754L28.5363 37.4841Z" fill="#16BF78"/>
<path d="M29.2998 36.691V35.9188C29.2998 35.6823 29.1902 35.6092 28.9902 35.724C28.8936 35.779 28.8139 35.8596 28.76 35.9568C28.706 36.054 28.6797 36.1642 28.6841 36.2753V37.0388C28.6841 37.2771 28.7937 37.3484 28.9937 37.2336C29.0885 37.1787 29.1669 37.0994 29.2207 37.004C29.2745 36.9086 29.3018 36.8005 29.2998 36.691Z" fill="#16BF78"/>
<path d="M30.2772 36.4771V34.9918L29.9937 35.1553L29.8616 36.2892L29.7068 35.3222L29.425 35.484V36.9693L29.5989 36.8666V35.8231L29.7485 36.7884L29.9398 36.6771L30.0737 35.5327V36.5971L30.265 36.4858L30.2772 36.4771Z" fill="#16BF78"/>
<path d="M30.9816 34.7987V34.5866L30.4285 34.9066V36.3918L30.9816 36.0718V35.8597L30.6338 36.0614V35.6283L30.912 35.4666V35.2544L30.6338 35.4162V35.0022L30.9816 34.7987Z" fill="#16BF78"/>
<path d="M22.4665 46.0281C22.6405 45.9255 22.7935 46.009 22.7935 46.2142V47.8369C22.7873 47.9495 22.7547 48.0591 22.6982 48.1567C22.6416 48.2543 22.5629 48.3372 22.4683 48.3986L21.0056 49.2421C20.8317 49.3465 20.6804 49.263 20.6804 49.0561V47.4334C20.6866 47.3208 20.7192 47.2112 20.7757 47.1136C20.8323 47.0159 20.911 46.9331 21.0056 46.8716L22.4665 46.0281Z" fill="white"/>
<path d="M36.3435 37.433C36.6913 37.2365 36.9592 37.3948 36.9609 37.7809V39.901C36.9503 40.1139 36.8893 40.3213 36.7829 40.506C36.6764 40.6908 36.5276 40.8476 36.3487 40.9636L20.783 49.9517C20.4351 50.1465 20.1656 49.99 20.1656 49.6039V47.4838C20.1765 47.2705 20.2379 47.0628 20.3446 46.8778C20.4513 46.6928 20.6003 46.5357 20.7795 46.4194L36.3435 37.433ZM22.7987 47.8369V46.2142C22.7987 46.009 22.6509 45.9255 22.4717 46.0281L21.0056 46.8751C20.911 46.9365 20.8322 47.0194 20.7757 47.117C20.7192 47.2147 20.6865 47.3242 20.6804 47.4369V49.0595C20.6804 49.2665 20.8265 49.35 21.0056 49.2456L22.4735 48.3986C22.5681 48.3372 22.6468 48.2543 22.7034 48.1567C22.7599 48.0591 22.7925 47.9495 22.7987 47.8369ZM30.2772 43.4628V41.9775L29.9937 42.141L29.8616 43.275L29.7068 42.308L29.425 42.4697V43.955L29.5989 43.8524V42.8089L29.7485 43.7741L29.9398 43.6628L30.0737 42.5184V43.5828L30.265 43.4715L30.2772 43.4628ZM28.5363 44.4698V42.9845L28.3293 43.1045V43.7411L28.098 43.8733V43.2367L27.8945 43.355V44.8403L28.098 44.722V44.0767L28.3276 43.9446V44.5811L28.5346 44.4611L28.5363 44.4698ZM27.4945 44.7202V43.948C27.4945 43.7115 27.3849 43.6385 27.1849 43.7533C27.0886 43.8086 27.0091 43.8892 26.9552 43.9863C26.9012 44.0835 26.8749 44.1935 26.8788 44.3046V45.0681C26.8788 45.3064 26.9884 45.3777 27.1884 45.2629C27.2849 45.2075 27.3644 45.1269 27.4187 45.0298C27.4729 44.9327 27.4997 44.8227 27.4963 44.7116L27.4945 44.7202ZM29.2998 43.6767V42.9045C29.2998 42.668 29.1902 42.595 28.9902 42.7097C28.8936 42.7648 28.8139 42.8453 28.76 42.9425C28.706 43.0398 28.6797 43.1499 28.6841 43.2611V44.0246C28.6841 44.2628 28.7937 44.3341 28.9937 44.2194C29.0885 44.1645 29.1669 44.0852 29.2207 43.9898C29.2745 43.8943 29.3018 43.7863 29.2998 43.6767ZM26.7623 44.5133V44.3724C26.7623 44.1359 26.658 44.0594 26.458 44.1741C26.3626 44.2293 26.2841 44.3095 26.2311 44.4061C26.178 44.5027 26.1524 44.6119 26.1571 44.722V45.4942C26.1571 45.7325 26.2614 45.8072 26.4614 45.6925C26.5571 45.6375 26.636 45.5574 26.6893 45.4608C26.7427 45.3642 26.7685 45.2549 26.7641 45.1446V44.6733L26.4788 44.8385V45.0507L26.571 44.9968V45.2698C26.5748 45.3104 26.567 45.3512 26.5485 45.3875C26.53 45.4239 26.5017 45.4542 26.4667 45.4751C26.4023 45.5116 26.3606 45.4977 26.3606 45.3916V44.5898C26.357 44.5488 26.3651 44.5077 26.3839 44.4711C26.4027 44.4345 26.4313 44.4039 26.4667 44.3828C26.531 44.3463 26.571 44.362 26.571 44.4698V44.6281L26.7641 44.5168L26.7623 44.5133ZM30.9816 41.7915V41.5723L30.4285 41.8923V43.3776L30.9816 43.0576V42.8454L30.6338 43.0471V42.6141L30.912 42.4523V42.2402L30.6338 42.4019V41.988L30.9816 41.7845" fill="#16BF78"/>
<path d="M27.4945 44.7202V43.948C27.4945 43.7115 27.3849 43.6385 27.1849 43.7533C27.0886 43.8086 27.0091 43.8892 26.9552 43.9863C26.9012 44.0835 26.8749 44.1935 26.8788 44.3046V45.0681C26.8788 45.3064 26.9884 45.3777 27.1884 45.2629C27.2849 45.2075 27.3644 45.1269 27.4187 45.0298C27.4729 44.9327 27.4997 44.8227 27.4963 44.7116L27.4945 44.7202Z" fill="#16BF78"/>
<path d="M26.7623 44.5133V44.3724C26.7623 44.1359 26.658 44.0594 26.458 44.1741C26.3626 44.2293 26.2841 44.3095 26.2311 44.4061C26.178 44.5027 26.1524 44.6119 26.1571 44.722V45.4942C26.1571 45.7325 26.2614 45.8072 26.4614 45.6925C26.5571 45.6375 26.636 45.5574 26.6893 45.4608C26.7427 45.3642 26.7685 45.2549 26.7641 45.1446V44.6733L26.4788 44.8385V45.0507L26.571 44.9968V45.2698C26.5748 45.3104 26.567 45.3512 26.5485 45.3875C26.53 45.4239 26.5017 45.4542 26.4667 45.4751C26.4023 45.5116 26.3606 45.4977 26.3606 45.3916V44.5898C26.357 44.5488 26.3651 44.5077 26.3839 44.4711C26.4027 44.4345 26.4313 44.4039 26.4667 44.3828C26.531 44.3463 26.571 44.362 26.571 44.4698V44.6281L26.7641 44.5168L26.7623 44.5133Z" fill="#16BF78"/>
<path d="M28.5363 44.4698V42.9845L28.3293 43.1045V43.7411L28.098 43.8733V43.2367L27.8945 43.355V44.8403L28.098 44.722V44.0767L28.3276 43.9446V44.5811L28.5346 44.4611L28.5363 44.4698Z" fill="#16BF78"/>
<path d="M29.2998 43.6767V42.9045C29.2998 42.668 29.1902 42.595 28.9902 42.7097C28.8936 42.7648 28.8139 42.8453 28.76 42.9425C28.706 43.0398 28.6797 43.1499 28.6841 43.2611V44.0246C28.6841 44.2628 28.7937 44.3341 28.9937 44.2194C29.0885 44.1645 29.1669 44.0852 29.2207 43.9898C29.2745 43.8943 29.3018 43.7863 29.2998 43.6767Z" fill="#16BF78"/>
<path d="M30.2772 43.4628V41.9775L29.9937 42.141L29.8616 43.275L29.7068 42.308L29.425 42.4697V43.955L29.5989 43.8524V42.8089L29.7485 43.7741L29.9398 43.6628L30.0737 42.5184V43.5828L30.265 43.4715L30.2772 43.4628Z" fill="#16BF78"/>
<path d="M30.9816 41.7845V41.5723L30.4285 41.8923V43.3776L30.9816 43.0576V42.8454L30.6338 43.0471V42.6141L30.912 42.4523V42.2402L30.6338 42.4019V41.988L30.9816 41.7845Z" fill="#16BF78"/>
</svg>
