<svg width="375" height="126" viewBox="0 0 375 126" fill="none" xmlns="http://www.w3.org/2000/svg">
<g filter="url(#filter0_d_54_2333)">
<g clip-path="url(#clip0_54_2333)">
<rect x="1" y="11" width="373" height="96" rx="20" fill="white"/>
<rect x="1" y="11" width="373" height="96" rx="20" fill="url(#paint0_linear_54_2333)"/>
<g opacity="0.25">
<path opacity="0.0344828" d="M265.413 164.334L240.24 101.7L197.94 72.2748L170.893 5.56283L132.648 -27.0206L111.386 -72.5071" stroke="#EDCC76"/>
<path opacity="0.0689655" d="M264.547 164.489L237.203 102.771L193.902 74.8402L164.544 9.1128L125.185 -22.116L102.348 -66.8328" stroke="#EDCC76"/>
<path opacity="0.103448" d="M263.582 164.503L234.101 103.777L189.852 77.3742L158.218 12.7114L117.792 -17.1248L93.4092 -61.0173" stroke="#EDCC76"/>
<path opacity="0.137931" d="M262.514 164.379L230.932 104.719L185.788 79.8767L151.916 16.3573L110.474 -12.0499L84.5741 -55.0647" stroke="#EDCC76"/>
<path opacity="0.172414" d="M261.338 164.122L227.692 105.601L181.709 82.3486L145.641 20.05L103.233 -6.89353L75.8474 -48.9783" stroke="#EDCC76"/>
<path opacity="0.206897" d="M260.048 163.735L224.381 106.423L177.614 84.7904L139.394 23.7885L96.0713 -1.6586L67.2336 -42.762" stroke="#EDCC76"/>
<path opacity="0.241379" d="M258.641 163.222L220.995 107.19L173.502 87.2023L133.176 27.5714L88.9919 3.65174L58.7373 -36.4202" stroke="#EDCC76"/>
<path opacity="0.275862" d="M257.112 162.587L217.534 107.903L169.372 89.5854L126.99 31.3982L81.9975 9.03508L50.3629 -29.9565" stroke="#EDCC76"/>
<path opacity="0.310345" d="M255.457 161.835L213.995 108.566L165.223 91.9403L120.836 35.2676L75.0904 14.4883L42.1143 -23.3755" stroke="#EDCC76"/>
<path opacity="0.344828" d="M253.672 160.971L210.376 109.181L161.054 94.2674L114.716 39.1784L68.2731 20.0083L33.9956 -16.6816" stroke="#EDCC76"/>
<path opacity="0.37931" d="M251.754 159.998L206.677 109.751L156.864 96.5673L108.631 43.129L61.548 25.5914L26.0109 -9.87988" stroke="#EDCC76"/>
<path opacity="0.413793" d="M249.698 158.922L202.894 110.278L152.652 98.8413L102.584 47.1189L54.9171 31.2351L18.1637 -2.97437" stroke="#EDCC76"/>
<path opacity="0.448276" d="M247.5 157.747L199.028 110.766L148.417 101.09L96.5741 51.1463L48.3822 36.9357L10.4573 4.02979" stroke="#EDCC76"/>
<path opacity="0.482759" d="M245.159 156.478L195.076 111.218L144.158 103.314L90.6042 55.2098L41.9457 42.6898L2.89557 11.1274" stroke="#EDCC76"/>
<path opacity="0.517241" d="M242.67 155.121L191.038 111.636L139.875 105.514L84.6751 59.308L35.6093 48.4938L-4.51862 18.3135" stroke="#EDCC76"/>
<path opacity="0.551724" d="M240.03 153.68L186.912 112.024L135.567 107.691L78.7877 63.44L29.3744 54.3447L-11.7823 25.5833" stroke="#EDCC76"/>
<path opacity="0.586207" d="M237.237 152.162L182.698 112.385L131.232 109.846L72.9435 67.6035L23.2429 60.2383L-18.8925 32.9307" stroke="#EDCC76"/>
<path opacity="0.62069" d="M234.288 150.571L178.393 112.721L126.871 111.98L67.1433 71.7978L17.2159 66.1715L-25.8468 40.3511" stroke="#EDCC76"/>
<path opacity="0.655172" d="M231.18 148.912L173.999 113.037L122.482 114.094L61.3885 76.0206L11.2951 72.1402L-32.6425 47.8384" stroke="#EDCC76"/>
<path opacity="0.689655" d="M227.912 147.192L169.514 113.334L118.065 116.189L55.6797 80.2709L5.48151 78.1411L-39.2775 55.3875" stroke="#EDCC76"/>
<path opacity="0.724138" d="M224.481 145.417L164.936 113.617L113.619 118.266L50.018 84.5467L-0.223985 84.1702L-45.7498 62.9924" stroke="#EDCC76"/>
<path opacity="0.758621" d="M220.885 143.591L160.267 113.889L109.143 120.325L44.4042 88.8464L-5.82027 90.2235L-52.0575 70.6475" stroke="#EDCC76"/>
<path opacity="0.793103" d="M217.123 141.72L155.505 114.152L104.637 122.369L38.8391 93.1683L-11.3068 96.2973L-58.199 78.3469" stroke="#EDCC76"/>
<path opacity="0.827586" d="M213.193 139.811L150.651 114.41L100.1 124.397L33.3237 97.5107L-16.6824 102.388L-64.1725 86.085" stroke="#EDCC76"/>
<path opacity="0.862069" d="M209.094 137.869L145.704 114.666L95.5326 126.412L27.8583 101.872L-21.9472 108.492L-69.9773 93.856" stroke="#EDCC76"/>
<path opacity="0.896552" d="M204.826 135.901L140.664 114.924L90.9333 128.413L22.4438 106.25L-27.1003 114.604L-75.612 101.654" stroke="#EDCC76"/>
<path opacity="0.931035" d="M200.386 133.911L135.532 115.187L86.3019 130.403L17.0806 110.644L-32.1418 120.722L-81.0759 109.472" stroke="#EDCC76"/>
<path opacity="0.965517" d="M195.775 131.907L130.307 115.457L81.638 132.383L11.7692 115.051L-37.0714 126.841L-86.3683 117.306" stroke="#EDCC76"/>
<path d="M190.993 129.894L124.99 115.739L76.9413 134.352L6.5103 119.47L-41.8892 132.957L-91.4888 125.148" stroke="#EDCC76"/>
</g>
</g>
</g>
<defs>
<filter id="filter0_d_54_2333" x="-12" y="0" width="403" height="126" filterUnits="userSpaceOnUse" color-interpolation-filters="sRGB">
<feFlood flood-opacity="0" result="BackgroundImageFix"/>
<feColorMatrix in="SourceAlpha" type="matrix" values="0 0 0 0 0 0 0 0 0 0 0 0 0 0 0 0 0 0 127 0" result="hardAlpha"/>
<feOffset dx="2" dy="4"/>
<feGaussianBlur stdDeviation="7.5"/>
<feComposite in2="hardAlpha" operator="out"/>
<feColorMatrix type="matrix" values="0 0 0 0 0 0 0 0 0 0 0 0 0 0 0 0 0 0 0.1 0"/>
<feBlend mode="normal" in2="BackgroundImageFix" result="effect1_dropShadow_54_2333"/>
<feBlend mode="normal" in="SourceGraphic" in2="effect1_dropShadow_54_2333" result="shape"/>
</filter>
<linearGradient id="paint0_linear_54_2333" x1="-47.1116" y1="116.882" x2="468.259" y2="-367.48" gradientUnits="userSpaceOnUse">
<stop stop-color="#16BF78"/>
<stop offset="1" stop-color="#007156"/>
</linearGradient>
<clipPath id="clip0_54_2333">
<rect x="1" y="11" width="373" height="96" rx="20" fill="white"/>
</clipPath>
</defs>
</svg>
