<svg width="373" height="126" viewBox="0 0 373 126" fill="none" xmlns="http://www.w3.org/2000/svg">
<g filter="url(#filter0_d_54_2332)">
<g clip-path="url(#clip0_54_2332)">
<rect x="13" y="11" width="345" height="96" rx="20" fill="white"/>
<rect x="13" y="11" width="345" height="96" rx="20" fill="url(#paint0_linear_54_2332)"/>
<g opacity="0.25">
<path opacity="0.0344828" d="M277.413 164.335L252.24 101.7L209.94 72.2751L182.893 5.56307L144.648 -27.0203L123.386 -72.5068" stroke="#EDCC76"/>
<path opacity="0.0689655" d="M276.547 164.489L249.203 102.772L205.902 74.8405L176.544 9.11305L137.185 -22.1157L114.348 -66.8325" stroke="#EDCC76"/>
<path opacity="0.103448" d="M275.582 164.503L246.101 103.777L201.852 77.3744L170.218 12.7116L129.792 -17.1245L105.409 -61.0171" stroke="#EDCC76"/>
<path opacity="0.137931" d="M274.514 164.379L242.932 104.72L197.788 79.8769L163.916 16.3575L122.474 -12.0496L96.5741 -55.0645" stroke="#EDCC76"/>
<path opacity="0.172414" d="M273.338 164.122L239.692 105.601L193.709 82.3489L157.641 20.0503L115.233 -6.89329L87.8474 -48.978" stroke="#EDCC76"/>
<path opacity="0.206897" d="M272.048 163.735L236.381 106.424L189.614 84.7907L151.394 23.7887L108.071 -1.65836L79.2336 -42.7617" stroke="#EDCC76"/>
<path opacity="0.241379" d="M270.641 163.222L232.995 107.19L185.502 87.2025L145.176 27.5717L100.992 3.65198L70.7373 -36.4199" stroke="#EDCC76"/>
<path opacity="0.275862" d="M269.112 162.587L229.534 107.904L181.372 89.5856L138.99 31.3984L93.9975 9.03532L62.3629 -29.9563" stroke="#EDCC76"/>
<path opacity="0.310345" d="M267.457 161.836L225.995 108.567L177.223 91.9405L132.836 35.2679L87.0904 14.4886L54.1143 -23.3752" stroke="#EDCC76"/>
<path opacity="0.344828" d="M265.672 160.971L222.376 109.181L173.054 94.2677L126.716 39.1787L80.2731 20.0085L45.9956 -16.6814" stroke="#EDCC76"/>
<path opacity="0.37931" d="M263.754 159.998L218.677 109.751L168.864 96.5676L120.631 43.1293L73.548 25.5917L38.0109 -9.87964" stroke="#EDCC76"/>
<path opacity="0.413793" d="M261.698 158.922L214.894 110.278L164.652 98.8416L114.584 47.1191L66.9171 31.2353L30.1637 -2.97412" stroke="#EDCC76"/>
<path opacity="0.448276" d="M259.5 157.747L211.028 110.767L160.417 101.09L108.574 51.1465L60.3822 36.936L22.4573 4.03003" stroke="#EDCC76"/>
<path opacity="0.482759" d="M257.159 156.478L207.076 111.218L156.158 103.314L102.604 55.2101L53.9457 42.69L14.8956 11.1277" stroke="#EDCC76"/>
<path opacity="0.517241" d="M254.67 155.121L203.038 111.636L151.875 105.514L96.6751 59.3083L47.6093 48.494L7.48138 18.3137" stroke="#EDCC76"/>
<path opacity="0.551724" d="M252.03 153.681L198.912 112.024L147.567 107.691L90.7877 63.4402L41.3744 54.345L0.217682 25.5835" stroke="#EDCC76"/>
<path opacity="0.586207" d="M249.237 152.162L194.698 112.385L143.232 109.846L84.9435 67.6037L35.2429 60.2385L-6.89252 32.9309" stroke="#EDCC76"/>
<path opacity="0.62069" d="M246.288 150.571L190.393 112.721L138.871 111.98L79.1433 71.798L29.2159 66.1718L-13.8468 40.3513" stroke="#EDCC76"/>
<path opacity="0.655172" d="M243.18 148.912L185.999 113.037L134.482 114.094L73.3885 76.0208L23.2951 72.1405L-20.6425 47.8386" stroke="#EDCC76"/>
<path opacity="0.689655" d="M239.912 147.193L181.514 113.334L130.065 116.189L67.6797 80.2711L17.4815 78.1413L-27.2775 55.3877" stroke="#EDCC76"/>
<path opacity="0.724138" d="M236.481 145.417L176.936 113.617L125.619 118.266L62.018 84.547L11.776 84.1704L-33.7498 62.9927" stroke="#EDCC76"/>
<path opacity="0.758621" d="M232.885 143.591L172.267 113.889L121.143 120.326L56.4042 88.8466L6.17973 90.2237L-40.0575 70.6477" stroke="#EDCC76"/>
<path opacity="0.793103" d="M229.123 141.72L167.505 114.152L116.637 122.369L50.8391 93.1685L0.693241 96.2976L-46.199 78.3472" stroke="#EDCC76"/>
<path opacity="0.827586" d="M225.193 139.811L162.651 114.41L112.1 124.397L45.3237 97.511L-4.68244 102.388L-52.1725 86.0852" stroke="#EDCC76"/>
<path opacity="0.862069" d="M221.094 137.87L157.704 114.666L107.533 126.412L39.8583 101.872L-9.94718 108.492L-57.9773 93.8562" stroke="#EDCC76"/>
<path opacity="0.896552" d="M216.826 135.901L152.664 114.924L102.933 128.414L34.4438 106.251L-15.1003 114.604L-63.612 101.654" stroke="#EDCC76"/>
<path opacity="0.931035" d="M212.386 133.912L147.532 115.187L98.3019 130.403L29.0806 110.644L-20.1418 120.722L-69.0759 109.472" stroke="#EDCC76"/>
<path opacity="0.965517" d="M207.775 131.907L142.307 115.457L93.638 132.383L23.7692 115.052L-25.0714 126.841L-74.3683 117.306" stroke="#EDCC76"/>
<path d="M202.993 129.894L136.99 115.739L88.9413 134.353L18.5103 119.47L-29.8892 132.957L-79.4888 125.148" stroke="#EDCC76"/>
</g>
</g>
</g>
<defs>
<filter id="filter0_d_54_2332" x="0" y="0" width="375" height="126" filterUnits="userSpaceOnUse" color-interpolation-filters="sRGB">
<feFlood flood-opacity="0" result="BackgroundImageFix"/>
<feColorMatrix in="SourceAlpha" type="matrix" values="0 0 0 0 0 0 0 0 0 0 0 0 0 0 0 0 0 0 127 0" result="hardAlpha"/>
<feOffset dx="2" dy="4"/>
<feGaussianBlur stdDeviation="7.5"/>
<feComposite in2="hardAlpha" operator="out"/>
<feColorMatrix type="matrix" values="0 0 0 0 0 0 0 0 0 0 0 0 0 0 0 0 0 0 0.1 0"/>
<feBlend mode="normal" in2="BackgroundImageFix" result="effect1_dropShadow_54_2332"/>
<feBlend mode="normal" in="SourceGraphic" in2="effect1_dropShadow_54_2332" result="shape"/>
</filter>
<linearGradient id="paint0_linear_54_2332" x1="-31.5" y1="116.882" x2="479.837" y2="-327.614" gradientUnits="userSpaceOnUse">
<stop stop-color="#16BF78"/>
<stop offset="1" stop-color="#007156"/>
</linearGradient>
<clipPath id="clip0_54_2332">
<rect x="13" y="11" width="345" height="96" rx="20" fill="white"/>
</clipPath>
</defs>
</svg>
