<svg width="171" height="230" viewBox="0 0 171 230" fill="none" xmlns="http://www.w3.org/2000/svg">
<path d="M78.9221 230C105.457 230 126.968 217.581 126.968 202.262C126.968 186.943 105.457 174.525 78.9221 174.525C52.3871 174.525 30.8762 186.943 30.8762 202.262C30.8762 217.581 52.3871 230 78.9221 230Z" fill="#F0F0F0"/>
<path d="M43.6666 130.378C45.419 134.007 45.1494 138.611 45.5124 142.561C45.9417 146.68 46.7011 150.758 47.7832 154.756C49.9608 163.264 52.7864 171.818 53.5952 180.606C54.0255 185.272 53.4552 189.762 52.9471 194.408C52.9471 194.511 53.1337 194.698 53.1804 194.537C55.6431 186.206 53.8959 177.158 51.9828 168.925C49.9971 160.407 47.0055 152.039 46.1138 143.298C45.8701 140.861 45.7146 138.414 45.4398 135.977C45.2117 133.991 44.9835 131.98 43.8844 130.274C43.7911 130.124 43.5837 130.222 43.6666 130.388V130.378Z" fill="#E0E0E0"/>
<path d="M42.1993 132.13C42.9718 132.467 44.0709 133.608 43.2621 134.505C42.9689 134.747 42.605 134.887 42.2252 134.904C41.9504 134.904 41.9504 134.94 42.2252 135.064L42.303 135.681C41.2194 136.081 40.7476 136.812 40.8772 137.88C40.6356 138.18 40.3403 138.434 40.0062 138.626C39.9077 138.704 40.0062 138.932 40.1254 138.87C41.0275 138.424 42.2407 137.258 41.2557 136.247C40.9498 135.936 40.1254 135.656 39.9336 136.247C39.6381 137.112 41.2764 137.284 41.7586 137.159C42.7955 136.9 42.9873 135.718 42.6451 134.816C42.3548 134.053 41.2868 133.26 40.5091 134.007C39.9906 134.484 40.4054 135.044 40.9809 135.262C41.9815 135.671 43.6717 135.36 43.988 134.193C44.3042 133.027 43.2621 132.12 42.2148 131.881C42.0541 131.845 42.1267 132.104 42.2148 132.146L42.1993 132.13Z" fill="#E0E0E0"/>
<path d="M28.6933 114.803C29.6577 117.53 30.3628 120.345 31.2856 123.098C32.1152 125.52 33.2869 127.806 34.1942 130.201C36.211 135.562 37.1546 141.167 38.2745 146.761C38.7697 149.548 39.4628 152.296 40.3484 154.984C41.2383 157.374 42.2649 159.711 43.4228 161.983C45.7818 166.805 48.1875 171.663 49.9814 176.728C50.9872 179.564 51.6923 182.493 52.4389 185.407C53.3507 188.662 53.9053 192.007 54.0928 195.382C54.0928 195.527 54.3416 195.678 54.352 195.476C54.5283 192.52 53.9839 189.638 53.3151 186.776C52.6774 184.132 52.0397 181.462 51.2412 178.859C49.6496 173.711 47.2906 168.806 44.9575 163.964C43.7806 161.522 42.5415 159.111 41.5253 156.596C40.5449 154.091 39.7868 151.504 39.2596 148.866C38.0619 143.334 37.2946 137.693 35.4904 132.306C34.5053 129.367 33.1003 126.603 32.0322 123.721C30.9642 120.838 30.2228 117.67 28.9215 114.782C28.8541 114.632 28.6363 114.632 28.7037 114.819L28.6933 114.803Z" fill="#E0E0E0"/>
<path d="M32.4988 157.535C33.5357 159.235 34.1216 161.164 35.1585 162.875C35.9173 164.064 36.7852 165.18 37.7508 166.208C40.509 169.288 43.6354 172.103 45.9322 175.541C48.3171 179.139 49.5614 183.318 50.5983 187.465C51.1168 189.539 51.5575 191.613 52.0863 193.635C52.2783 194.518 52.5669 195.377 52.9469 196.196C53.3721 197.031 53.9165 197.783 54.2898 198.643C54.409 198.918 54.943 198.799 54.8082 198.483C54.4401 197.622 53.8906 196.875 53.4706 196.041C53.05 195.105 52.7319 194.126 52.5218 193.122C52.0033 191.084 51.5575 189.026 51.0442 186.988C50.1161 183.302 49.0066 179.611 47.0469 176.324C45.0871 173.037 42.3807 170.413 39.7884 167.665C38.1241 165.897 36.3354 164.145 35.1844 161.962C34.3601 160.407 33.7535 158.81 32.7373 157.369C32.6388 157.229 32.4159 157.327 32.5196 157.493L32.4988 157.535Z" fill="#E0E0E0"/>
<path d="M32.4108 159.214C32.5909 159.472 32.7227 159.76 32.7997 160.065C32.8723 160.407 32.7997 161.988 32.0998 162.076L31.0628 161.558C32.6182 161.931 33.1574 162.699 32.6804 163.86L32.1153 164.43C32.177 164.599 32.2039 164.778 32.1945 164.957C32.1851 165.137 32.1396 165.312 32.0606 165.473C31.9817 165.635 31.871 165.778 31.7352 165.896C31.5994 166.013 31.4412 166.102 31.2702 166.157C31.0888 166.245 31.2702 166.509 31.4569 166.463C34.381 165.566 31.1302 162.356 30.2852 163.72C29.7667 164.549 31.1302 165.052 31.7109 164.99C31.9483 164.964 32.1779 164.89 32.386 164.773C32.5941 164.656 32.7763 164.498 32.9217 164.309C33.067 164.119 33.1725 163.902 33.2317 163.671C33.291 163.44 33.3027 163.199 33.2663 162.963C33.2075 162.486 32.9852 162.045 32.6373 161.714C32.2893 161.383 31.8373 161.183 31.3584 161.148C30.6481 161.148 29.6112 161.708 30.2748 162.476C30.9384 163.243 32.1827 162.662 32.6856 162.107C33.5152 161.19 33.2611 159.951 32.556 159.074C32.4575 158.955 32.3175 159.074 32.3953 159.204L32.4108 159.214Z" fill="#E0E0E0"/>
<path d="M30.031 115.337C29.7562 114.419 27.0965 112.47 26.7336 112.579C26.3707 112.688 25.3959 115.69 25.6967 116.644C25.7705 116.829 25.8925 116.992 26.0501 117.115C26.2078 117.238 26.3954 117.317 26.5936 117.343C27.1425 117.444 27.7076 117.413 28.2421 117.253C28.7767 117.092 29.2655 116.807 29.6681 116.421C29.8208 116.289 29.9354 116.12 30.0002 115.929C30.0649 115.738 30.0774 115.534 30.0362 115.337H30.031Z" fill="#16BF78"/>
<path opacity="0.1" d="M30.031 115.337C29.7562 114.419 27.0965 112.47 26.7336 112.579C26.3707 112.688 25.3959 115.69 25.6967 116.644C25.7705 116.829 25.8925 116.992 26.0501 117.115C26.2078 117.238 26.3954 117.317 26.5936 117.343C27.1425 117.444 27.7076 117.413 28.2421 117.253C28.7767 117.092 29.2655 116.807 29.6681 116.421C29.8208 116.289 29.9354 116.12 30.0002 115.929C30.0649 115.738 30.0774 115.534 30.0362 115.337H30.031Z" fill="black"/>
<path d="M38.8137 85.0225C38.1427 82.8182 36.6604 80.9505 34.666 79.7964H34.6245C33.4467 79.1164 32.1417 78.6858 30.7904 78.5315C29.4392 78.3772 28.0706 78.5025 26.7698 78.8995C23.4517 79.895 21.2689 83.2183 20.512 86.6764C20.4484 86.9579 20.311 87.2174 20.1141 87.4283C19.9172 87.6392 19.6678 87.7941 19.3914 87.8769C19.1149 87.9597 18.8215 87.9676 18.541 87.8996C18.2605 87.8317 18.0032 87.6905 17.7953 87.4904C15.2444 85.0122 11.5737 83.4412 8.2763 84.4419C6.97252 84.8284 5.76217 85.4789 4.72042 86.353C3.67867 87.227 2.8278 88.306 2.22066 89.5228V89.5643C1.20186 91.6259 0.999996 93.9964 1.65554 96.2006C3.78123 103.272 12.7143 108.234 19.8276 111.153L27.3194 114.207L31.887 107.534C36.2214 101.157 40.9187 92.0944 38.8137 85.0225Z" fill="#16BF78"/>
<path opacity="0.2" d="M38.8137 85.0225C38.1427 82.8182 36.6604 80.9505 34.666 79.7964H34.6245C33.4467 79.1164 32.1417 78.6858 30.7904 78.5315C29.4392 78.3772 28.0706 78.5025 26.7698 78.8995C23.4517 79.895 21.2689 83.2183 20.512 86.6764C20.4484 86.9579 20.311 87.2174 20.1141 87.4283C19.9172 87.6392 19.6678 87.7941 19.3914 87.8769C19.1149 87.9597 18.8215 87.9676 18.541 87.8996C18.2605 87.8317 18.0032 87.6905 17.7953 87.4904C15.2444 85.0122 11.5737 83.4412 8.2763 84.4419C6.97252 84.8284 5.76217 85.4789 4.72042 86.353C3.67867 87.227 2.8278 88.306 2.22066 89.5228V89.5643C1.20186 91.6259 0.999996 93.9964 1.65554 96.2006C3.78123 103.272 12.7143 108.234 19.8276 111.153L27.3194 114.207L31.887 107.534C36.2214 101.157 40.9187 92.0944 38.8137 85.0225Z" fill="black"/>
<path opacity="0.1" d="M39.1195 91.4982C38.3885 93.2246 32.3795 104.978 23.6486 105.533C13.2431 106.165 1.55697 97.1857 2.22579 89.5487C1.20699 91.6103 1.00512 93.9809 1.66066 96.185C3.78636 103.257 12.7195 108.219 19.8328 111.137L27.3245 114.191L31.8922 107.519C34.977 102.987 38.2589 97.082 39.1195 91.4982Z" fill="black"/>
<path d="M34.1786 157.26C33.6602 156.446 30.6012 155.243 30.2798 155.44C29.9584 155.637 29.7613 158.769 30.3109 159.64C30.4306 159.797 30.5889 159.921 30.7707 159.999C30.9524 160.077 31.1512 160.107 31.3478 160.085C31.9034 160.041 32.4406 159.865 32.9154 159.573C33.3902 159.281 33.7893 158.881 34.0801 158.406C34.1941 158.239 34.2618 158.045 34.2764 157.844C34.291 157.643 34.2519 157.441 34.1631 157.26H34.1786Z" fill="#16BF78"/>
<path opacity="0.3" d="M34.1786 157.26C33.6602 156.446 30.6012 155.243 30.2798 155.44C29.9584 155.637 29.7613 158.769 30.3109 159.64C30.4306 159.797 30.5889 159.921 30.7707 159.999C30.9524 160.077 31.1512 160.107 31.3478 160.085C31.9034 160.041 32.4406 159.865 32.9154 159.573C33.3902 159.281 33.7893 158.881 34.0801 158.406C34.1941 158.239 34.2618 158.045 34.2764 157.844C34.291 157.643 34.2519 157.441 34.1631 157.26H34.1786Z" fill="white"/>
<path d="M34.8838 125.711C33.6744 123.753 31.7684 122.325 29.5489 121.714H29.5074C28.1942 121.359 26.8218 121.277 25.4758 121.475C24.1298 121.673 22.839 122.146 21.6838 122.865C18.7286 124.675 17.4739 128.444 17.6346 132C17.6456 132.289 17.5794 132.576 17.4429 132.831C17.3065 133.086 17.1046 133.3 16.858 133.451C16.6115 133.602 16.3292 133.684 16.0401 133.69C15.7511 133.696 15.4657 133.624 15.2134 133.483C12.1026 131.741 8.18304 131.161 5.23818 132.965C4.07643 133.672 3.07241 134.61 2.28845 135.721C1.50448 136.833 0.957311 138.093 0.6809 139.425V139.471C0.219964 141.725 0.633288 144.07 1.83707 146.03C5.7048 152.319 15.6126 154.844 23.2392 155.819L31.2598 156.855L33.9661 149.239C36.517 141.981 38.7515 131.995 34.8838 125.711Z" fill="#16BF78"/>
<path opacity="0.5" d="M34.8838 125.711C33.6744 123.753 31.7684 122.325 29.5489 121.714H29.5074C28.1942 121.359 26.8218 121.277 25.4758 121.475C24.1298 121.673 22.839 122.146 21.6838 122.865C18.7286 124.675 17.4739 128.444 17.6346 132C17.6456 132.289 17.5794 132.576 17.4429 132.831C17.3065 133.086 17.1046 133.3 16.858 133.451C16.6115 133.602 16.3292 133.684 16.0401 133.69C15.7511 133.696 15.4657 133.624 15.2134 133.483C12.1026 131.741 8.18304 131.161 5.23818 132.965C4.07643 133.672 3.07241 134.61 2.28845 135.721C1.50448 136.833 0.957311 138.093 0.6809 139.425V139.471C0.219964 141.725 0.633288 144.07 1.83707 146.03C5.7048 152.319 15.6126 154.844 23.2392 155.819L31.2598 156.855L33.9661 149.239C36.517 141.981 38.7515 131.995 34.8838 125.711Z" fill="white"/>
<path opacity="0.05" d="M36.8384 131.892C36.5791 133.742 33.8054 146.662 25.4892 149.421C15.597 152.708 1.99774 147.025 0.686027 139.471C0.225091 141.725 0.638412 144.07 1.8422 146.03C5.70992 152.319 15.6177 154.844 23.2443 155.819L31.2649 156.855L33.9661 149.239C35.7859 144.055 37.4398 137.506 36.8384 131.892Z" fill="black"/>
<path d="M45.901 130.637C45.5744 129.735 42.7902 127.92 42.4636 128.045C42.1369 128.169 41.2815 131.197 41.6289 132.156C41.7128 132.338 41.8433 132.495 42.0071 132.61C42.171 132.726 42.3624 132.796 42.5621 132.814C43.1157 132.885 43.6781 132.824 44.2035 132.635C44.7288 132.447 45.2022 132.137 45.5847 131.731C45.7304 131.592 45.8366 131.417 45.8921 131.224C45.9477 131.031 45.9508 130.826 45.901 130.632V130.637Z" fill="#16BF78"/>
<path opacity="0.1" d="M45.901 130.637C45.5744 129.735 42.7902 127.92 42.4636 128.045C42.1369 128.169 41.2815 131.197 41.6289 132.156C41.7128 132.338 41.8433 132.495 42.0071 132.61C42.171 132.726 42.3624 132.796 42.5621 132.814C43.1157 132.885 43.6781 132.824 44.2035 132.635C44.7288 132.447 45.2022 132.137 45.5847 131.731C45.7304 131.592 45.8366 131.417 45.8921 131.224C45.9477 131.031 45.9508 130.826 45.901 130.632V130.637Z" fill="black"/>
<path d="M53.0975 99.9076C52.3184 97.7436 50.7497 95.9545 48.7061 94.8992L48.6646 94.8733C47.4541 94.2549 46.1292 93.8925 44.7725 93.8086C43.4157 93.7248 42.0563 93.9213 40.7788 94.386C37.5125 95.5473 35.5061 98.9743 34.9254 102.484C34.8771 102.769 34.754 103.036 34.5687 103.257C34.3833 103.479 34.1425 103.647 33.8707 103.744C33.599 103.842 33.3061 103.866 33.0223 103.813C32.7384 103.76 32.4737 103.632 32.2553 103.443C29.5801 101.095 25.8575 99.7157 22.5912 100.887C21.3095 101.34 20.1344 102.051 19.1391 102.977C18.1438 103.903 17.3493 105.023 16.8052 106.269V106.316C15.8942 108.427 15.8145 110.805 16.5822 112.973C19.0708 119.925 28.2476 124.42 35.5009 126.971L43.143 129.636L47.3581 122.735C51.3399 116.156 55.5861 106.86 53.0975 99.9076Z" fill="#16BF78"/>
<path opacity="0.1" d="M53.7403 106.362C53.0974 108.12 47.7157 120.185 39.0159 121.17C28.6467 122.341 16.5199 113.973 16.7947 106.316C15.8837 108.427 15.804 110.805 16.5717 112.973C19.0603 119.925 28.2371 124.42 35.4904 126.971L43.1325 129.636L47.3476 122.735C50.194 118.043 53.1648 111.977 53.7403 106.362Z" fill="black"/>
<path d="M125.309 134.639C124.178 136.304 123.613 138.269 123.116 140.218C122.556 142.38 122.079 144.568 121.648 146.761C120.751 151.572 120.3 156.451 119.621 161.278C119.001 166.088 117.904 170.824 116.345 175.416C114.789 179.756 112.959 183.997 111.932 188.497C110.81 193.731 110.789 199.141 111.87 204.383C111.901 204.528 112.114 204.616 112.109 204.414C111.927 199.634 111.264 194.999 112.109 190.229C112.871 185.998 114.478 181.985 115.971 177.967C117.545 173.867 118.739 169.63 119.538 165.312C120.321 160.873 120.762 156.384 121.379 151.92C121.726 149.415 122.12 146.911 122.659 144.438C123.359 141.198 124.018 137.823 125.563 134.873C125.63 134.738 125.412 134.51 125.309 134.66V134.639Z" fill="#E0E0E0"/>
<path d="M126.931 136.278C125.791 136.49 124.728 137.543 125.272 138.771C125.697 139.725 127.118 139.985 128.041 139.746C128.658 139.58 129.233 138.974 128.647 138.45C127.87 137.755 126.828 138.367 126.501 139.171C126.138 140.078 126.325 141.244 127.362 141.556C127.844 141.696 129.275 141.618 129.202 140.856C129.14 140.176 128.248 140.275 127.865 140.622C126.791 141.602 128.15 142.857 128.99 143.318C129.124 143.396 129.14 143.168 129.052 143.106C128.015 142.37 129.021 142.753 128.015 141.156C127.077 140.913 126.698 140.467 126.885 139.814C126.871 139.725 126.881 139.635 126.913 139.551C126.944 139.468 126.997 139.394 127.066 139.337L126.667 139.295C125.727 139.001 125.409 138.443 125.713 137.62C126.01 137.105 126.489 136.718 127.056 136.537C127.18 136.485 127.056 136.252 126.937 136.278H126.931Z" fill="#E0E0E0"/>
<path d="M144.424 112.076C143.362 115.104 141.666 117.857 140.868 120.983C140.017 124.322 139.499 127.723 138.716 131.093C137.364 137.133 135.455 143.034 133.013 148.721C130.545 154.336 126.916 159.277 124.681 165.006C122.369 170.932 120.741 177.112 117.573 182.675C115.909 185.599 114.084 188.425 113.13 191.686C111.978 195.335 111.576 199.18 111.948 202.988C111.948 203.113 112.212 203.221 112.207 203.04C112.083 199.573 112.471 196.107 113.358 192.754C114.214 189.539 115.795 186.75 117.459 183.898C120.534 178.631 122.333 172.917 124.407 167.214C125.449 164.188 126.765 161.262 128.337 158.473C129.814 155.958 131.338 153.522 132.598 150.883C135.246 145.182 137.313 139.23 138.768 133.115C139.67 129.486 140.266 125.779 141.106 122.129C141.905 118.671 143.771 115.653 144.653 112.237C144.684 112.117 144.487 111.91 144.43 112.076H144.424Z" fill="#E0E0E0"/>
<path d="M136.834 161.428C134.9 164.969 131.421 167.131 128.818 170.118C126.097 173.228 124.199 176.967 122.301 180.622C121.296 182.561 120.29 184.5 119.144 186.361C117.998 188.222 116.681 189.938 115.556 191.8C113.099 195.87 112.046 200.339 111.512 205.026C111.476 205.332 112.031 205.42 112.067 205.109C112.585 200.484 113.622 196.041 116.064 192.012C118.071 188.694 120.31 185.604 122.12 182.162C123.872 178.817 125.526 175.39 127.745 172.311C129.529 169.843 131.815 167.904 133.967 165.799C135.252 164.621 136.306 163.214 137.078 161.651C137.14 161.506 136.906 161.278 136.818 161.439L136.834 161.428Z" fill="#E0E0E0"/>
<path d="M136.061 163.684C135.663 164.084 135.43 164.62 135.408 165.185C135.386 165.749 135.577 166.301 135.942 166.732C136.414 167.251 137.767 167.883 138.348 167.157C138.929 166.431 137.829 165.809 137.161 165.799C136.884 165.816 136.613 165.889 136.366 166.016C136.119 166.142 135.9 166.318 135.725 166.533C135.549 166.747 135.419 166.996 135.344 167.263C135.269 167.531 135.25 167.81 135.289 168.085C135.364 168.531 135.598 168.934 135.948 169.22C136.298 169.506 136.74 169.656 137.192 169.641C137.803 169.61 138.706 169.055 138.203 168.365C137.653 167.598 136.383 168.303 136.061 168.925C135.963 169.134 135.913 169.361 135.914 169.592C135.914 169.822 135.966 170.049 136.065 170.257C136.165 170.465 136.309 170.648 136.487 170.793C136.666 170.939 136.875 171.043 137.098 171.098C137.326 171.17 137.306 170.885 137.145 170.802C136.404 170.424 135.59 168.453 135.714 167.619C135.781 167.411 135.849 167.209 135.921 167.007C136.105 166.44 136.343 166.352 136.637 166.742C137.104 167.1 137.052 167.059 136.487 166.623C136.263 166.515 136.078 166.341 135.955 166.126C135.832 165.91 135.777 165.663 135.797 165.415C135.788 164.873 135.95 164.342 136.258 163.896C136.321 163.792 136.181 163.564 136.082 163.684H136.061Z" fill="#E0E0E0"/>
<path d="M142.345 112.294C142.594 111.366 145.202 109.344 145.565 109.442C145.928 109.541 146.991 112.496 146.721 113.481C146.651 113.668 146.532 113.834 146.377 113.961C146.223 114.089 146.037 114.173 145.84 114.207C145.292 114.323 144.724 114.307 144.183 114.161C143.643 114.015 143.144 113.743 142.729 113.367C142.573 113.239 142.454 113.073 142.384 112.884C142.314 112.696 142.295 112.492 142.33 112.294H142.345Z" fill="#16BF78"/>
<path opacity="0.1" d="M142.345 112.294C142.594 111.366 145.202 109.344 145.565 109.442C145.928 109.541 146.991 112.496 146.721 113.481C146.651 113.668 146.532 113.834 146.377 113.961C146.223 114.089 146.037 114.173 145.84 114.207C145.292 114.323 144.724 114.307 144.183 114.161C143.643 114.015 143.144 113.743 142.729 113.367C142.573 113.239 142.454 113.073 142.384 112.884C142.314 112.696 142.295 112.492 142.33 112.294H142.345Z" fill="black"/>
<path d="M132.754 82.2228C133.36 80.0043 134.785 78.098 136.741 76.8879L136.782 76.8619C137.941 76.1494 139.234 75.6824 140.58 75.4898C141.927 75.2972 143.299 75.383 144.611 75.7421C147.96 76.6442 150.231 79.8898 151.081 83.3635C151.153 83.6431 151.297 83.8989 151.499 84.1045C151.702 84.3101 151.955 84.4582 152.234 84.5337C152.512 84.6091 152.806 84.6092 153.084 84.5338C153.363 84.4585 153.616 84.3104 153.819 84.1048C156.302 81.554 159.906 79.8898 163.25 80.8022C164.564 81.1507 165.793 81.7666 166.859 82.6114C167.925 83.4562 168.806 84.5117 169.445 85.7121V85.7536C170.521 87.787 170.788 90.1523 170.192 92.3743C168.258 99.498 159.465 104.703 152.429 107.814L145.026 111.065L140.277 104.517C135.797 98.2848 130.82 89.3465 132.754 82.2228Z" fill="#16BF78"/>
<path opacity="0.2" d="M132.754 82.2228C133.36 80.0043 134.785 78.098 136.741 76.8879L136.782 76.8619C137.941 76.1494 139.234 75.6824 140.58 75.4898C141.927 75.2972 143.299 75.383 144.611 75.7421C147.96 76.6442 150.231 79.8898 151.081 83.3635C151.153 83.6431 151.297 83.8989 151.499 84.1045C151.702 84.3101 151.955 84.4582 152.234 84.5337C152.512 84.6091 152.806 84.6092 153.084 84.5338C153.363 84.4585 153.616 84.3104 153.819 84.1048C156.302 81.554 159.906 79.8898 163.25 80.8022C164.564 81.1507 165.793 81.7666 166.859 82.6114C167.925 83.4562 168.806 84.5117 169.445 85.7121V85.7536C170.521 87.787 170.788 90.1523 170.192 92.3743C168.258 99.498 159.465 104.703 152.429 107.814L145.026 111.065L140.277 104.517C135.797 98.2848 130.82 89.3465 132.754 82.2228Z" fill="black"/>
<path opacity="0.1" d="M132.624 88.7088C133.397 90.4093 139.711 102.018 148.463 102.313C158.884 102.671 170.321 93.3749 169.445 85.7587C170.521 87.7922 170.788 90.1575 170.192 92.3795C168.258 99.5032 159.465 104.709 152.429 107.819L145.026 111.07L140.277 104.522C137.072 100.079 133.635 94.2822 132.624 88.7088Z" fill="black"/>
<path d="M134.506 161.853C135.025 161.045 138.135 159.904 138.441 160.106C138.747 160.308 138.877 163.445 138.322 164.306C138.2 164.46 138.041 164.58 137.859 164.654C137.678 164.729 137.48 164.755 137.285 164.731C136.73 164.674 136.196 164.488 135.727 164.186C135.257 163.884 134.866 163.476 134.584 162.994C134.474 162.826 134.411 162.632 134.401 162.431C134.391 162.231 134.434 162.031 134.527 161.853H134.506Z" fill="#16BF78"/>
<path opacity="0.1" d="M134.506 161.853C135.025 161.045 138.135 159.904 138.441 160.106C138.747 160.308 138.877 163.445 138.322 164.306C138.2 164.46 138.041 164.58 137.859 164.654C137.678 164.729 137.48 164.755 137.285 164.731C136.73 164.674 136.196 164.488 135.727 164.186C135.257 163.884 134.866 163.476 134.584 162.994C134.474 162.826 134.411 162.632 134.401 162.431C134.391 162.231 134.434 162.031 134.527 161.853H134.506Z" fill="black"/>
<path d="M134.428 130.289C135.68 128.364 137.613 126.984 139.841 126.427H139.888C141.204 126.099 142.574 126.045 143.911 126.269C145.249 126.493 146.527 126.99 147.665 127.728C150.584 129.595 151.766 133.39 151.532 136.941C151.513 137.231 151.571 137.521 151.701 137.781C151.831 138.041 152.027 138.262 152.271 138.42C152.515 138.579 152.796 138.669 153.086 138.683C153.377 138.696 153.665 138.632 153.922 138.497C157.033 136.812 160.999 136.309 163.913 138.186C165.06 138.917 166.043 139.876 166.804 141.004C167.565 142.131 168.086 143.402 168.336 144.739V144.786C168.747 147.05 168.286 149.386 167.045 151.323C163.058 157.545 153.098 159.842 145.456 160.687L137.415 161.558L134.864 153.885C132.474 146.517 130.436 136.501 134.428 130.289Z" fill="#16BF78"/>
<path opacity="0.1" d="M132.349 136.433C132.577 138.289 135.092 151.261 143.351 154.185C153.202 157.664 166.884 152.252 168.351 144.723C168.763 146.988 168.301 149.323 167.06 151.261C163.073 157.483 153.114 159.78 145.471 160.625L137.43 161.496L134.879 153.822C133.163 148.617 131.649 142.033 132.349 136.433Z" fill="black"/>
<path d="M122.125 135.557C122.4 134.634 125.06 132.68 125.423 132.788C125.786 132.897 126.766 135.899 126.46 136.853C126.384 137.039 126.261 137.202 126.103 137.325C125.945 137.448 125.756 137.526 125.558 137.553C125.009 137.656 124.444 137.626 123.909 137.466C123.375 137.307 122.886 137.022 122.483 136.635C122.331 136.505 122.217 136.336 122.151 136.147C122.086 135.957 122.071 135.754 122.11 135.557H122.125Z" fill="#16BF78"/>
<path opacity="0.3" d="M122.125 135.557C122.4 134.634 125.06 132.68 125.423 132.788C125.786 132.897 126.766 135.899 126.46 136.853C126.384 137.039 126.261 137.202 126.103 137.325C125.945 137.448 125.756 137.526 125.558 137.553C125.009 137.656 124.444 137.626 123.909 137.466C123.375 137.307 122.886 137.022 122.483 136.635C122.331 136.505 122.217 136.336 122.151 136.147C122.086 135.957 122.071 135.754 122.11 135.557H122.125Z" fill="white"/>
<path d="M113.301 105.253C113.962 103.05 115.436 101.18 117.423 100.022L117.464 99.9957C118.64 99.3138 119.944 98.8813 121.295 98.7252C122.645 98.5691 124.013 98.6927 125.314 99.0884C128.637 100.073 130.825 103.392 131.587 106.865C131.652 107.147 131.79 107.406 131.987 107.617C132.185 107.828 132.435 107.982 132.711 108.065C132.988 108.148 133.282 108.156 133.562 108.088C133.843 108.02 134.101 107.879 134.309 107.679C136.85 105.191 140.5 103.615 143.818 104.61C145.123 104.994 146.335 105.642 147.379 106.514C148.422 107.386 149.275 108.464 149.884 109.681V109.722C150.906 111.782 151.112 114.153 150.459 116.358C148.344 123.43 139.421 128.413 132.313 131.342L124.827 134.411L120.243 127.733C115.919 121.387 111.186 112.33 113.301 105.253Z" fill="#16BF78"/>
<path opacity="0.5" d="M113.301 105.253C113.962 103.05 115.436 101.18 117.423 100.022L117.464 99.9957C118.64 99.3138 119.944 98.8813 121.295 98.7252C122.645 98.5691 124.013 98.6927 125.314 99.0884C128.637 100.073 130.825 103.392 131.587 106.865C131.652 107.147 131.79 107.406 131.987 107.617C132.185 107.828 132.435 107.982 132.711 108.065C132.988 108.148 133.282 108.156 133.562 108.088C133.843 108.02 134.101 107.879 134.309 107.679C136.85 105.191 140.5 103.615 143.818 104.61C145.123 104.994 146.335 105.642 147.379 106.514C148.422 107.386 149.275 108.464 149.884 109.681V109.722C150.906 111.782 151.112 114.153 150.459 116.358C148.344 123.43 139.421 128.413 132.313 131.342L124.827 134.411L120.243 127.733C115.919 121.387 111.186 112.33 113.301 105.253Z" fill="white"/>
<path opacity="0.05" d="M112.985 111.734C113.716 113.455 119.725 125.214 128.476 125.732C138.882 126.349 150.552 117.349 149.873 109.712C150.895 111.772 151.101 114.142 150.449 116.348C148.333 123.42 139.411 128.402 132.303 131.332L124.816 134.401L120.243 127.733C117.169 123.212 113.876 117.312 112.985 111.734Z" fill="black"/>
<path d="M121.949 19.9608C121.782 20.3356 121.51 20.6542 121.166 20.8785C120.773 21.1172 120.329 21.2609 119.87 21.2984C119.287 21.41 118.684 21.3088 118.17 21.0133C117.935 20.8166 117.746 20.5716 117.616 20.2951C117.485 20.0186 117.416 19.7171 117.413 19.4112C117.387 19.1935 117.371 18.8928 117.366 18.5454L117.397 16.7982L116.433 16.9278L116.122 15.0458L117.423 14.8643V13.9052L119.59 13.5371V14.574L120.808 14.4029L121.27 16.3316L119.569 16.513V18.0269C119.566 18.0943 119.566 18.1618 119.569 18.2291C119.585 18.4477 119.681 18.6527 119.839 18.8046C119.908 18.8692 119.99 18.9183 120.079 18.9487C120.169 18.9791 120.263 18.9901 120.357 18.9809C120.533 18.9498 120.696 18.8709 120.83 18.7529C120.963 18.6349 121.062 18.4824 121.114 18.3121L121.949 19.9608Z" fill="#455A64"/>
<path d="M129.882 19.9348L127.44 20.2304L126.89 17.0781C126.852 16.7957 126.735 16.5298 126.553 16.3108C126.465 16.2119 126.353 16.1374 126.227 16.0947C126.102 16.052 125.968 16.0425 125.838 16.0671C125.288 16.1345 125.044 16.6478 125.101 17.6225L125.47 20.4792L122.996 20.7385L121.731 11.3128H124.287L124.718 14.6154C125.149 14.1581 125.739 13.8819 126.366 13.8429C126.796 13.7936 127.231 13.8524 127.632 14.014C128.084 14.1848 128.482 14.4759 128.782 14.8559C129.081 15.236 129.272 15.6906 129.332 16.1708L129.882 19.9348Z" fill="#455A64"/>
<path d="M135.092 19.3075L135.04 18.8616C134.829 19.1105 134.57 19.3135 134.277 19.4579C133.985 19.6024 133.665 19.6853 133.34 19.7016C132.829 19.7662 132.312 19.6663 131.862 19.4164C131.384 19.159 130.98 18.7821 130.69 18.3224C130.37 17.8419 130.166 17.2934 130.094 16.7204C130.024 16.1532 130.097 15.5774 130.307 15.0458C130.497 14.5309 130.813 14.0714 131.224 13.7081C131.59 13.3687 132.052 13.1513 132.546 13.086C132.852 13.0188 133.169 13.0217 133.473 13.0945C133.778 13.1672 134.062 13.3079 134.304 13.5059L134.252 13.0704L136.274 12.8268L137.311 19.0483L135.092 19.3075ZM134.47 17.0263C134.559 16.9054 134.622 16.7676 134.656 16.6214C134.69 16.4753 134.694 16.3237 134.667 16.176C134.658 16.027 134.616 15.8817 134.545 15.7502C134.475 15.6186 134.376 15.5039 134.257 15.4139C134.137 15.3269 134.001 15.2646 133.857 15.2308C133.713 15.197 133.563 15.1922 133.417 15.2169C133.275 15.2293 133.136 15.2711 133.01 15.3398C132.884 15.4086 132.774 15.5026 132.686 15.6161C132.596 15.7267 132.53 15.8547 132.492 15.992C132.453 16.1294 132.444 16.2732 132.463 16.4145C132.493 16.6066 132.567 16.789 132.681 16.9468C132.794 17.1045 132.944 17.233 133.117 17.3218C133.298 17.416 133.505 17.4522 133.708 17.4255C133.855 17.4155 133.999 17.3753 134.13 17.3076C134.261 17.2398 134.377 17.1458 134.47 17.0315V17.0263Z" fill="#455A64"/>
<path d="M141.614 15.6109C141.602 15.3069 141.501 15.013 141.324 14.7658C141.249 14.6755 141.151 14.6062 141.042 14.5644C140.932 14.5226 140.813 14.5098 140.697 14.5273C140.58 14.5304 140.467 14.5647 140.368 14.6267C140.27 14.6888 140.19 14.7762 140.137 14.8799C140.037 15.1682 140.016 15.4776 140.075 15.7768L140.417 18.6802L137.97 18.9757L137.171 12.6557L139.66 12.2253L139.717 12.692C140.11 12.2755 140.633 12.0034 141.2 11.9195C141.551 11.8567 141.913 11.8858 142.25 12.0039C142.587 12.1219 142.888 12.325 143.123 12.5935C143.656 13.2841 143.97 14.1182 144.025 14.9887L144.419 18.1669L141.915 18.4676L141.614 15.6109Z" fill="#455A64"/>
<path d="M152.03 17.27L149.578 17.7106L147.577 15.4761L147.851 17.7677L145.384 18.0891L144.243 8.60128L146.721 8.18132L147.333 13.3659L148.334 11.261L150.822 11.1417L149.381 14.1436L152.03 17.27Z" fill="#455A64"/>
<path d="M140.406 20.7903L139.369 27.1829C139.257 28.1026 138.899 28.975 138.332 29.7079C137.869 30.2704 137.206 30.6311 136.482 30.7137C136.149 30.7568 135.813 30.7568 135.481 30.7137C135.111 30.6595 134.745 30.578 134.387 30.47L135.014 28.054C135.168 28.1962 135.355 28.2978 135.559 28.3495C135.76 28.4345 135.978 28.4769 136.196 28.4739C136.422 28.4557 136.634 28.3562 136.793 28.1939C136.946 28.0137 137.056 27.8009 137.114 27.5718L133.485 21.8687L136.01 21.5369L137.565 24.5232L137.985 21.2777L140.406 20.7903Z" fill="#455A64"/>
<path d="M142.89 26.706C142.329 26.4542 141.839 26.0677 141.464 25.5809C141.089 25.0952 140.854 24.5161 140.785 23.9063C140.711 23.3444 140.802 22.773 141.049 22.2628C141.298 21.7318 141.683 21.2758 142.164 20.9407C142.678 20.5782 143.275 20.3533 143.901 20.2874C144.497 20.2046 145.105 20.2796 145.663 20.5052C146.191 20.723 146.648 21.0817 146.986 21.5421C147.326 21.9967 147.541 22.5333 147.608 23.0975C147.678 23.6999 147.594 24.3105 147.363 24.8712C147.131 25.4319 146.761 25.9243 146.286 26.3016C145.816 26.6723 145.252 26.9056 144.658 26.9756C144.055 27.0476 143.444 26.9544 142.89 26.706ZM145.078 24.2899C145.165 24.1742 145.229 24.0422 145.266 23.9016C145.302 23.761 145.311 23.6146 145.29 23.4708C145.257 23.1928 145.117 22.9385 144.901 22.7605C144.79 22.6665 144.659 22.5972 144.519 22.557C144.379 22.5168 144.232 22.5066 144.087 22.5272C143.94 22.5395 143.797 22.5817 143.667 22.6512C143.537 22.7208 143.422 22.8162 143.33 22.9316C143.2 23.1066 143.124 23.3163 143.112 23.5343C143.1 23.7523 143.153 23.969 143.264 24.1572C143.374 24.3454 143.538 24.4968 143.734 24.5923C143.931 24.6879 144.151 24.7233 144.367 24.6943C144.507 24.6786 144.642 24.6346 144.764 24.5651C144.886 24.4956 144.993 24.402 145.078 24.2899Z" fill="#455A64"/>
<path d="M152.761 25.9853L152.704 25.5135C152.313 25.9342 151.79 26.2086 151.221 26.2912C150.87 26.3539 150.508 26.3249 150.171 26.2068C149.834 26.0887 149.533 25.8856 149.298 25.6172C148.764 24.9251 148.45 24.089 148.396 23.2167L148.002 20.0437L150.506 19.743L150.791 22.5946C150.802 22.9004 150.903 23.1961 151.081 23.4448C151.156 23.5354 151.254 23.6046 151.364 23.6456C151.474 23.6866 151.593 23.6978 151.709 23.6781C151.825 23.6756 151.938 23.642 152.036 23.5809C152.135 23.5198 152.215 23.4334 152.269 23.3308C152.37 23.0429 152.392 22.7329 152.331 22.4338L151.994 19.5253L154.441 19.2297L155.234 25.555L152.761 25.9853Z" fill="#455A64"/>
<path d="M155.929 22.159L154.991 16.456L157.583 16.1449L158.221 21.6976L155.929 22.159ZM156.484 24.7202C156.213 24.5031 156.038 24.1886 155.997 23.844C155.968 23.6108 156.01 23.3745 156.116 23.1649C156.223 22.9569 156.379 22.7787 156.572 22.6464C156.765 22.5126 156.987 22.4273 157.22 22.3975C157.381 22.3745 157.545 22.3838 157.703 22.4247C157.86 22.4656 158.008 22.5375 158.138 22.636C158.272 22.7403 158.383 22.8718 158.464 23.0219C158.544 23.1719 158.592 23.3372 158.604 23.507C158.631 23.6832 158.622 23.8627 158.578 24.0354C158.534 24.208 158.457 24.3703 158.35 24.5129C158.251 24.6576 158.121 24.7789 157.969 24.8684C157.818 24.958 157.649 25.0135 157.474 25.0313C157.296 25.0528 157.116 25.0361 156.946 24.9825C156.775 24.9289 156.617 24.8395 156.484 24.7202Z" fill="#455A64"/>
<path d="M159.646 21.6976L158.708 15.9946L161.3 15.6835L161.954 21.2051L159.646 21.6976ZM160.217 24.29C160.081 24.1844 159.967 24.0523 159.883 23.9018C159.8 23.7512 159.747 23.5851 159.729 23.4138C159.699 23.1827 159.739 22.948 159.843 22.7398C159.947 22.5298 160.105 22.351 160.3 22.2213C160.492 22.0846 160.714 21.9973 160.948 21.9672C161.273 21.9231 161.603 22.0088 161.865 22.2057C162.001 22.3106 162.112 22.4429 162.192 22.5939C162.273 22.7449 162.32 22.9112 162.332 23.0819C162.358 23.2572 162.349 23.436 162.305 23.6077C162.262 23.7795 162.185 23.9409 162.078 24.0826C161.977 24.2261 161.847 24.3466 161.696 24.4359C161.545 24.5253 161.376 24.5816 161.202 24.601C161.025 24.6214 160.846 24.6042 160.676 24.5506C160.506 24.497 160.35 24.4082 160.217 24.29Z" fill="#455A64"/>
<path d="M163.384 21.2569L162.446 15.5539L165.038 15.2428L165.692 20.7592L163.384 21.2569ZM163.944 23.8233C163.808 23.7164 163.695 23.5833 163.612 23.4319C163.528 23.2805 163.475 23.1139 163.457 22.9419C163.428 22.7109 163.467 22.4764 163.571 22.2679C163.676 22.0559 163.831 21.8732 164.024 21.7365C164.217 21.5998 164.441 21.5134 164.675 21.4851C164.841 21.4595 165.009 21.4686 165.171 21.5116C165.332 21.5546 165.483 21.6307 165.614 21.7349C165.744 21.8392 165.852 21.9694 165.929 22.1174C166.007 22.2654 166.053 22.4279 166.065 22.5946C166.114 22.9493 166.021 23.3091 165.806 23.5952C165.706 23.7397 165.576 23.8608 165.424 23.9503C165.273 24.0398 165.104 24.0955 164.929 24.1137C164.754 24.1385 164.575 24.1254 164.405 24.0754C164.236 24.0253 164.078 23.9393 163.944 23.8233Z" fill="#455A64"/>
<path d="M108.791 32.5024C109.112 32.9534 109.828 33.0934 110.346 33.223C110.714 33.3164 111.087 33.3941 111.461 33.4615C112.156 33.5901 112.859 33.6698 113.566 33.7C114.932 33.7396 116.298 33.6037 117.63 33.2956C118.844 33.038 120.017 32.6141 121.114 32.0358C122.174 31.4524 123.15 30.7268 124.013 29.879C125.058 28.9693 125.887 27.8374 126.439 26.566C126.475 26.4721 126.477 26.3684 126.443 26.2735C126.41 26.1786 126.344 26.0985 126.258 26.0475C126.112 25.9438 125.807 25.8557 125.667 26.0475C124.832 27.0378 124.111 28.1214 123.188 29.0339C122.394 29.8162 121.498 30.4877 120.523 31.0299C118.451 32.1343 116.132 32.6945 113.783 32.6579C113.06 32.6564 112.338 32.6079 111.621 32.5127C111.264 32.4609 110.906 32.3987 110.553 32.3261C110.039 32.1657 109.505 32.0733 108.967 32.0513C108.749 32.0513 108.703 32.3365 108.811 32.492L108.791 32.5024Z" fill="#16BF78"/>
<path d="M149.936 6.54299C149.813 6.52312 149.702 6.45983 149.622 6.36467C149.542 6.26951 149.499 6.1488 149.5 6.02453L149.796 0.476987C149.806 0.346793 149.865 0.22534 149.962 0.136908C150.058 0.0484766 150.184 -0.00041591 150.314 2.66554e-06C150.444 0.0104509 150.566 0.0696525 150.654 0.165774C150.743 0.261895 150.792 0.387853 150.791 0.518465L150.48 6.06082C150.47 6.19101 150.411 6.31247 150.314 6.4009C150.218 6.48933 150.092 6.53822 149.962 6.5378L149.936 6.54299Z" fill="#16BF78"/>
<path d="M152.958 7.51769C152.884 7.50701 152.814 7.48048 152.751 7.43992C152.641 7.36417 152.565 7.24926 152.538 7.11897C152.511 6.98869 152.535 6.853 152.606 6.74L155.665 2.11013C155.691 2.03599 155.734 1.9688 155.79 1.91368C155.846 1.85855 155.914 1.81692 155.989 1.79195C156.063 1.76698 156.143 1.75932 156.221 1.76955C156.299 1.77978 156.373 1.80763 156.439 1.851C156.505 1.89436 156.56 1.9521 156.6 2.01984C156.64 2.08758 156.664 2.16354 156.67 2.24196C156.676 2.32039 156.665 2.39923 156.636 2.4725C156.607 2.54578 156.562 2.61157 156.505 2.66489L153.451 7.29475C153.397 7.37362 153.323 7.43617 153.236 7.4755C153.149 7.51483 153.053 7.52943 152.958 7.51769Z" fill="#16BF78"/>
<path d="M154.929 9.69005C154.836 9.67596 154.749 9.63721 154.677 9.5779C154.605 9.51858 154.551 9.4409 154.519 9.35305C154.48 9.22647 154.492 9.08991 154.55 8.97135C154.609 8.85278 154.711 8.76119 154.835 8.71535L160.092 6.93702C160.208 6.92743 160.323 6.9568 160.42 7.02045C160.517 7.08409 160.59 7.17834 160.627 7.28815C160.664 7.39796 160.663 7.517 160.624 7.62627C160.586 7.73554 160.512 7.82874 160.414 7.89099L155.157 9.66932C155.083 9.69315 155.005 9.70024 154.929 9.69005Z" fill="#16BF78"/>
<path d="M139.846 38.9624C139.742 38.9603 139.64 38.9264 139.555 38.8653C139.47 38.8042 139.405 38.7188 139.369 38.6202L137.586 33.363C137.572 33.2454 137.6 33.1267 137.663 33.0267C137.726 32.9267 137.822 32.8514 137.934 32.8132C138.046 32.775 138.168 32.7764 138.279 32.817C138.39 32.8576 138.484 32.935 138.545 33.0364L140.323 38.2884C140.362 38.415 140.351 38.5515 140.292 38.6701C140.233 38.7887 140.131 38.8803 140.007 38.9261C139.956 38.9458 139.901 38.958 139.846 38.9624Z" fill="#16BF78"/>
<path d="M133.786 39.3668C133.753 39.3718 133.72 39.3718 133.687 39.3668C133.559 39.3369 133.446 39.2592 133.373 39.1493C133.3 39.0395 133.271 38.9059 133.293 38.7757L134.403 33.3371C134.398 33.2581 134.412 33.1793 134.443 33.1066C134.474 33.0339 134.521 32.9692 134.581 32.9175C134.641 32.8658 134.712 32.8284 134.788 32.8083C134.864 32.7881 134.944 32.7857 135.022 32.8012C135.099 32.8167 135.172 32.8497 135.235 32.8977C135.298 32.9457 135.349 33.0074 135.384 33.0781C135.42 33.1488 135.438 33.2267 135.439 33.3057C135.439 33.3847 135.422 33.4628 135.388 33.5341L134.278 38.9727C134.251 39.0834 134.188 39.182 134.099 39.2533C134.01 39.3245 133.9 39.3644 133.786 39.3668Z" fill="#16BF78"/>
<path d="M128.046 36.256C127.973 36.2573 127.901 36.2421 127.834 36.2116C127.768 36.1811 127.709 36.136 127.663 36.0798C127.579 35.9771 127.538 35.8464 127.547 35.7143C127.557 35.5822 127.617 35.4589 127.714 35.3695L131.93 31.7402C132.033 31.6854 132.153 31.6675 132.268 31.6895C132.384 31.7114 132.488 31.772 132.565 31.8611C132.642 31.9503 132.685 32.0629 132.69 32.1803C132.694 32.2978 132.658 32.4132 132.588 32.5076L128.373 36.1368C128.281 36.213 128.166 36.2551 128.046 36.256Z" fill="#16BF78"/>
<path d="M72.2131 12.1268C71.3863 11.2721 70.329 10.6759 69.1698 10.4107C67.2979 9.98827 65.3438 10.1159 63.5428 10.7782C61.7418 11.4404 60.1705 12.6092 59.0183 14.1436C56.9963 16.933 56.5971 20.5985 56.8822 24.0307C57.1674 27.4629 58.0539 30.8226 58.3339 34.2548C58.588 37.2981 55.3891 39.7971 53.2582 41.5132C52.8641 41.8243 52.4286 42.2857 52.6205 42.7472C52.704 42.8844 52.8164 43.0018 52.9498 43.0913C53.0831 43.1808 53.2344 43.2403 53.393 43.2656C55.1742 43.7641 57.0608 43.7434 58.8307 43.2061C60.6006 42.6688 62.1802 41.6372 63.3837 40.2326L63.4563 42.8249C64.1499 42.7047 64.8072 42.4291 65.3792 42.0188C65.9511 41.6084 66.4228 41.074 66.7589 40.4556C67.4255 39.2146 67.8146 37.8436 67.8995 36.4375C68.3558 31.7713 66.9456 27.3437 66.8263 22.7501C66.6967 17.5655 68.4647 13.7133 71.7413 14.3044C73.0738 14.5429 73.7167 14.0918 72.856 12.9149C72.6608 12.6372 72.4459 12.3739 72.2131 12.1268Z" fill="#263238"/>
<path d="M71.1661 13.0549C70.995 12.8216 69.927 7.43475 72.3326 4.49507C74.7383 1.55539 75.9619 3.77959 75.7286 6.37709C75.5729 7.77864 75.0755 9.12054 74.28 10.2849C73.4845 11.4492 72.4152 12.4004 71.1661 13.0549Z" fill="#16BF78"/>
<path d="M71.9282 12.9356C71.6741 13.0704 66.1888 13.3608 63.6328 10.5611C61.0768 7.76139 63.4462 6.87482 65.9866 7.45031C67.3513 7.80628 68.6073 8.49296 69.6436 9.44967C70.6799 10.4064 71.4645 11.6036 71.9282 12.9356Z" fill="#16BF78"/>
<path d="M119.756 61.5155C117.802 59.5609 113.166 54.0341 112.197 52.7016C110.979 51.0477 107.634 47.0608 105.612 45.5624C103.59 44.0641 99.3598 43.3175 95.9535 43.5663C95.6839 47.714 99.4428 54.2104 99.4428 54.2104L107.961 62.7391C112.949 67.1978 119.056 69.7539 126.014 70.8582C125.366 68.9554 121.716 63.4701 119.756 61.5155Z" fill="#FFA8A7"/>
<path d="M107.961 62.7546C108.957 62.9413 112.238 62.7287 114.473 63.1487C116.708 63.5686 120.772 65.2847 122.914 68.2296L107.961 62.7546Z" fill="#F28F8F"/>
<path d="M95.9536 43.5819C97.1202 43.5352 102.175 42.7886 105.286 45.0751C108.112 47.1489 110.232 50.1197 112.503 52.909C113.633 54.2985 115.365 56.5694 115.365 56.5694C115.365 56.5694 113.063 60.3852 107.391 63.1746L97.566 53.7282L95.9536 43.5819Z" fill="#37474F"/>
<path d="M92.8947 190.835C92.7928 190.859 92.6994 190.911 92.6245 190.984C92.5496 191.057 92.496 191.149 92.4696 191.25C92.2103 192.137 92.2207 193.143 92.0393 194.055C91.7541 195.476 91.4534 197.524 91.6867 198.664C91.92 199.805 93.465 200.92 96.3529 201.739C98.1001 202.257 101.216 203.745 102.642 205.036C104.384 206.623 108.117 207.95 110.642 208.028C113.602 208.116 116.687 207.328 117.382 205.197C117.682 204.3 117.9 202.765 113.69 201.101C112.251 200.584 110.862 199.935 109.543 199.162C107.578 198.006 104.628 196.476 103 194.952C101.509 193.448 100.647 191.433 100.589 189.316C100.022 189.126 99.4173 189.082 98.8293 189.188C98.2413 189.293 97.6894 189.545 97.2245 189.92C96.7595 190.295 96.3965 190.781 96.169 191.334C95.9414 191.886 95.8567 192.487 95.9225 193.08C95.7203 193.194 95.4715 193.003 95.4041 192.785C95.3614 192.559 95.3372 192.33 95.3315 192.1C95.2717 191.859 95.1506 191.636 94.9799 191.454C94.8092 191.273 94.5946 191.138 94.3568 191.064C93.8987 190.858 93.3937 190.779 92.8947 190.835Z" fill="#37474F"/>
<path d="M52.4028 190.929C52.6395 191.58 52.7623 192.268 52.7657 192.961C52.8868 193.532 52.9682 194.111 53.0094 194.693C53.0094 195.211 53.1287 195.823 53.6056 196.005C53.8002 196.057 54.0058 196.051 54.1973 195.989C54.3888 195.926 54.558 195.809 54.684 195.652C54.9304 195.333 55.1588 195.001 55.3684 194.657C55.6213 194.315 55.9458 194.032 56.3193 193.829C56.6927 193.626 57.1061 193.506 57.5304 193.48C58.3755 193.433 58.4377 193.511 59.008 194.138L58.5207 195.305C56.8875 199.452 56.789 203.164 57.8052 207.483C58.0126 208.365 59.288 209.801 59.9879 210.501C60.3991 210.916 60.8373 211.304 61.2996 211.662C61.7092 211.983 62.1136 212.362 62.1654 212.699C62.239 213.193 62.1499 213.697 61.9114 214.135C61.5478 214.717 60.9741 215.137 60.3093 215.307C57.8233 216.2 55.0899 216.111 52.6672 215.058C51.637 214.554 50.7467 213.805 50.0749 212.875C48.6543 210.402 48.815 208.048 48.7943 205.917C48.758 201.215 47.9803 198.789 47.6018 196.435C47.1404 193.604 51.5162 190.504 52.4028 190.929Z" fill="#37474F"/>
<path d="M102.58 193.485C100.838 191.603 100.506 189.788 100.744 186.294C100.983 182.799 102.73 151.909 103.44 144.298C104.638 131.492 105.244 95.5059 104.182 86.6246L70.0409 89.3103C67.5627 95.5318 65.7377 103.138 66.1265 115.114C66.4168 124.249 66.2043 149.027 66.2043 149.027C66.2043 149.027 62.0566 152.656 59.0599 159.857C56.4313 166.198 53.4035 188.124 53.4035 188.124C53.1418 189.076 52.8073 190.007 52.4028 190.908C51.6566 191.815 51.2253 192.939 51.1741 194.112C51.1745 197.906 51.5777 201.69 52.3769 205.399C52.7917 207.317 53.9893 208.556 55.9024 209.319C56.3263 209.491 56.7835 209.565 57.2401 209.536C57.4776 209.537 57.7075 209.452 57.8882 209.298C58.2148 208.971 57.9193 208.204 57.857 207.82C57.7613 207.199 57.7041 206.572 57.686 205.943C57.6497 204.709 57.686 203.206 57.7689 201.977C57.9324 199.222 58.3771 196.491 59.0962 193.827L59.7598 192.246C59.7598 192.246 74.5774 162.367 78.7873 155.088C82.1314 149.384 84.3556 127.184 86.7302 115.057L90.7327 144.055C90.7327 144.055 88.9751 149.291 88.5137 153.299C87.8915 158.675 91.6919 179.74 92.8273 187.248C93.0346 188.639 93.0503 190.052 92.874 191.447C93.2732 194.693 95.7151 195.693 98.2348 197.534C99.4843 198.446 104.975 201.796 108.324 202.47C111.03 203.019 113.11 201.397 111.435 200.354C108.288 198.198 104.322 195.382 102.58 193.485Z" fill="#FFA8A7"/>
<path d="M85.3354 124.26C85.6828 121.004 86.6212 116.545 86.6212 116.545L88.1455 129.107L89.369 143.536C88.9116 145.469 88.5551 147.425 88.301 149.395C87.7826 153.273 88.0158 159.505 88.7261 163.668C89.4364 167.831 90.9089 175.302 90.9089 175.302C97.0993 178.538 101.797 175.225 101.797 175.225C101.797 175.225 102.398 166.893 103.554 154.683C104.71 142.473 105.11 130.258 105.192 120.112C105.192 120.112 106.66 94.8111 102.388 77.7382C97.3637 81.2741 82.4424 81.9844 76.423 77.2197C76.423 77.2197 74.007 81.2119 68.7394 90.1139C64.5917 97.1079 65.8153 108.338 65.7427 117.727C65.6339 132.213 65.7116 148.57 65.7116 148.57C63.805 150.705 62.1005 153.011 60.6203 155.461C57.9814 159.712 56.6282 169.164 56.6282 169.164C56.6282 169.164 59.2931 174.831 68.3921 175.074C68.3921 175.074 77.237 158.976 79.456 155.321C81.6751 151.666 84.988 127.521 85.3354 124.26Z" fill="#16BF78"/>
<path opacity="0.15" d="M86.6213 116.545L89.9447 103.76C89.9447 103.76 96.3114 103.096 101.263 99.4669C101.263 99.4669 100.226 104.133 91.4793 105.517L87.7049 118.069L88.1456 129.133L86.6213 116.545Z" fill="black"/>
<path d="M104.249 53.6971C100.101 48.2532 98.7118 46.3712 95.9535 43.5819L80.8404 42.9546C79.6635 43.0583 72.8975 44.147 72.8975 44.147C71.2074 44.8936 69.3513 48.9117 69.7868 52.095C70.2534 55.4184 70.6371 58.7106 71.4666 62.7805C72.2961 66.8505 73.5923 70.0131 73.8878 71.3196C74.4685 73.9378 74.7485 76.6598 73.3693 79.2832C70.5074 84.753 68.1847 88.2837 67.2048 92.8772C68.8378 92.4279 70.3282 91.5676 71.534 90.3783C73.3797 88.6103 74.4892 87.786 75.9668 85.7121C75.9668 85.7121 76.1172 88.8229 79.2072 92.898C79.9945 93.9464 80.8991 94.9014 81.9032 95.7443C87.4508 100.411 104.135 102.407 104.679 87.8534C104.679 87.8534 103.046 81.2119 102.725 77.2612C102.403 73.3105 102.336 70.9308 102.372 69.9146C109.169 65.0358 106.95 57.2278 104.249 53.6971Z" fill="#455A64"/>
<path d="M41.6809 66.4616C43.5111 63.2835 45.8804 62.4747 48.8979 60.209C51.9153 57.9433 58.1213 52.9972 61.9424 50.3997C66.2819 47.4496 69.6934 44.8055 72.9286 44.8314C72.9286 44.8314 73.4471 44.7329 74.3647 47.3045C75.2824 49.876 75.1891 56.1754 73.0997 57.85C71.0103 59.5246 54.0877 68.9036 54.0877 68.9036L41.6809 66.4616Z" fill="#FFA8A7"/>
<path d="M62.2121 64.3463L60.9885 61.9251C59.8375 62.708 57.9555 63.4234 54.8966 63.5997C51.8376 63.776 46.3627 63.6516 43.3297 65.4714C43.1339 65.5993 42.9802 65.7822 42.888 65.9971C42.7958 66.212 42.769 66.4493 42.8112 66.6794L54.0981 68.9036C54.0981 68.9036 57.9503 66.7623 62.2121 64.3463Z" fill="#F28F8F"/>
<path d="M72.8924 44.1211C71.0415 44.1211 68.4648 45.2617 66.2406 46.9001C63.4927 48.9273 56.2654 54.4852 56.2654 54.4852C56.2654 54.4852 57.7274 62.2621 62.7358 64.2426C62.7358 64.2426 72.1148 59.058 72.8613 58.4929C73.6079 57.9278 74.9093 56.6835 75.1478 52.2713C75.3863 47.8592 73.8931 45.8424 72.8924 44.1211Z" fill="#37474F"/>
<path d="M93.2471 67.5452C93.2471 67.5452 89.1357 71.1744 84.091 69.7435C82.1609 69.2339 80.4609 68.0841 79.2693 66.4824C79.2156 66.4166 79.1403 66.3721 79.0569 66.3568C78.9734 66.3415 78.8872 66.3563 78.8136 66.3987C78.7401 66.4411 78.684 66.5082 78.6554 66.5881C78.6268 66.668 78.6276 66.7555 78.6575 66.8349C79.3678 68.4992 80.9077 70.4382 84.2362 71.2418C90.3592 72.7091 93.2471 67.5452 93.2471 67.5452Z" fill="#37474F"/>
<path d="M77.1648 8.10874C82.3494 6.06081 86.129 6.44966 88.7005 7.01997C99.4171 2.18272 108.205 16.513 98.6135 23.6107C98.6135 23.6107 98.1676 34.768 89.6804 37.4433L80.3481 39.3875C78.9379 35.5146 70.7877 34.2548 68.5998 25.6172C66.0489 17.4514 71.6431 10.2915 77.1648 8.10874Z" fill="#263238"/>
<path d="M93.6618 12.1424C95.5802 12.9045 98.4472 16.9952 99.676 26.3119C100.713 34.2081 98.468 36.5516 97.2755 37.3085C96.0831 38.0655 93.5581 38.1121 91.0954 38.0862L91.8368 43.5352C91.8368 43.5352 94.3618 45.0647 94.8802 47.7244C95.3002 49.8864 89.4519 51.2551 85.4598 48.8495C83.5904 47.7761 82.053 46.2082 81.0166 44.3181L79.5234 32.969C79.5234 32.969 78.2428 34.6229 75.8942 33.4149C73.3537 32.1187 72.8093 29.1739 74.1106 27.3696C75.412 25.5654 78.4709 25.9231 79.4249 27.9918C79.4249 27.9918 82.8001 27.2452 87.2433 23.3826C92.0339 19.1986 92.8064 15.6576 93.6618 12.1424Z" fill="#FFA8A7"/>
<path d="M89.1358 25.7364C89.1672 25.9299 89.1411 26.1283 89.0607 26.307C88.9804 26.4858 88.8493 26.637 88.6837 26.7419C88.5182 26.8468 88.3255 26.9008 88.1296 26.8972C87.9336 26.8936 87.743 26.8325 87.5815 26.7215C87.42 26.6105 87.2946 26.4546 87.2209 26.273C87.1472 26.0914 87.1285 25.8921 87.167 25.7C87.2055 25.5078 87.2996 25.3312 87.4377 25.1921C87.5757 25.0529 87.7515 24.9574 87.9433 24.9173C88.2097 24.8715 88.4833 24.9315 88.706 25.0845C88.9288 25.2375 89.083 25.4714 89.1358 25.7364Z" fill="#263238"/>
<path d="M89.9914 31.1388L93.911 31.8958C93.8735 32.157 93.7836 32.408 93.6465 32.6335C93.5095 32.859 93.3282 33.0545 93.1136 33.208C92.8989 33.3616 92.6555 33.4701 92.3978 33.5271C92.1401 33.584 91.8735 33.5882 91.6142 33.5393C91.0839 33.4302 90.6172 33.118 90.314 32.6695C90.0108 32.2209 89.895 31.6716 89.9914 31.1388Z" fill="#B16668"/>
<path d="M91.614 33.5393C91.9341 33.601 92.2648 33.5778 92.5732 33.4719C92.5453 33.1971 92.449 32.9337 92.2932 32.7056C92.1373 32.4775 91.9268 32.2922 91.6809 32.1664C91.435 32.0406 91.1615 31.9784 90.8854 31.9855C90.6092 31.9925 90.3392 32.0686 90.1001 32.2069C90.2142 32.5418 90.414 32.841 90.6796 33.0747C90.9452 33.3085 91.2673 33.4686 91.614 33.5393Z" fill="#F28F8F"/>
<path d="M97.343 21.5421L95.124 20.4637C95.1871 20.3156 95.2797 20.182 95.3962 20.0709C95.5128 19.9599 95.6507 19.8738 95.8017 19.818C95.9527 19.7622 96.1135 19.7378 96.2742 19.7463C96.4349 19.7548 96.5922 19.796 96.7364 19.8675C97.0324 20.0163 97.2601 20.2727 97.3729 20.5841C97.4858 20.8955 97.475 21.2383 97.343 21.5421Z" fill="#263238"/>
<path d="M97.2446 23.9374C97.2773 24.1321 97.2519 24.3322 97.1717 24.5126C97.0914 24.693 96.9598 24.8458 96.7933 24.952C96.6269 25.0581 96.4328 25.1129 96.2354 25.1095C96.0379 25.1061 95.8459 25.0447 95.6831 24.9329C95.5204 24.8211 95.3941 24.6639 95.3201 24.4808C95.2461 24.2977 95.2277 24.0969 95.267 23.9034C95.3063 23.71 95.4018 23.5323 95.5414 23.3927C95.681 23.2531 95.8586 23.1576 96.0521 23.1182C96.3184 23.0725 96.5921 23.1325 96.8148 23.2855C97.0375 23.4385 97.1918 23.6724 97.2446 23.9374Z" fill="#263238"/>
<path d="M92.4177 23.787L93.5013 29.7182L96.4877 28.2614L92.4177 23.787Z" fill="#F28F8F"/>
<path d="M91.0957 38.0862C88.5034 38.1484 83.0751 37.4589 81.9448 35.5302C82.4328 36.5212 83.2127 37.3391 84.1794 37.8736C85.9422 38.9624 91.3082 39.6623 91.3082 39.6623L91.0957 38.0862Z" fill="#F28F8F"/>
<path d="M126.014 70.8737C121.638 67.1667 120.28 65.0358 107.961 62.7546C107.961 62.7546 101.185 60.6808 100.345 60.0845C99.5049 59.4883 97.794 59.4313 96.5549 58.975C95.3158 58.5188 90.8207 56.9012 89.6438 56.1079C88.4669 55.3147 87.9536 54.8014 85.9316 54.6718C83.9096 54.5422 81.1773 54.2156 80.5241 54.283C79.8708 54.3504 79.2849 55.7813 78.6317 56.8753C77.9784 57.9692 77.6518 58.1351 78.1599 60.3334C78.4917 61.7851 78.9583 61.9562 78.9583 61.9562C79.3109 62.1065 79.8034 61.4377 79.8034 61.4377C80.5137 61.6295 80.6122 60.8311 80.6122 60.8311C81.167 60.8311 82.2194 59.0269 82.2194 59.0269L83.2823 58.7625C84.2103 59.0269 86.1701 60.6393 85.5168 62.1325C84.8636 63.6256 82.5149 64.2063 81.1203 65.2432C79.7256 66.2802 79.5649 68.5458 80.1974 68.8725C80.5707 69.0591 81.0321 68.3073 82.2713 67.4623C83.3877 66.7515 84.5944 66.1935 85.859 65.8032C88.6172 64.9581 90.9711 65.5491 93.3197 65.4195C95.6683 65.2899 96.3838 64.3826 104.321 69.3339C107.593 71.3715 110.382 73.1809 113.068 74.1608C116.111 75.1969 119.3 75.743 122.514 75.7784C126.278 75.9858 126.667 72.792 126.014 70.8737Z" fill="#FFA8A7"/>
<path d="M94.9788 63.693C93.8886 63.4305 92.8682 62.9353 91.9873 62.2414C91.023 61.5466 89.9757 60.2297 89.2135 59.535C88.4514 58.8402 87.3834 59.535 86.7664 59.535C86.5749 59.5336 86.3866 59.4856 86.2177 59.3953C86.0488 59.305 85.9044 59.175 85.7969 59.0165C86.7819 58.8195 86.7664 58.2388 86.7664 58.2388C86.178 58.5043 85.5141 58.5502 84.8947 58.3684C84.48 58.1455 84.4592 57.4767 84.4592 57.4767C84.4126 58.0366 83.8526 58.327 83.1423 58.4151C82.4321 58.5032 82.2195 58.1714 82.2195 58.1714C82.2826 58.4548 82.2826 58.7487 82.2195 59.0321L83.2823 58.7677C83.4153 58.8082 83.5438 58.8621 83.666 58.9284C84.6562 59.4468 86.0872 60.8311 85.5169 62.1377C85.2491 62.6634 84.8373 63.1022 84.3296 63.4027C86.8804 62.6665 87.3574 61.0074 88.0055 60.7585C88.4618 60.5823 89.0839 60.7119 90.4475 61.8473C91.7124 62.9466 93.3059 63.5956 94.9788 63.693Z" fill="#F28F8F"/>
<path d="M86.2427 56.362C85.2404 56.3365 84.2375 56.3781 83.2408 56.4864C82.8105 56.5694 81.2499 57.6685 80.9751 57.8396C80.7003 58.0107 80.5707 59.0891 80.3426 59.7838C80.1145 60.4786 80.213 60.6082 80.5033 60.8208C80.5033 60.8208 79.8501 60.7326 80.1456 59.7216C80.4411 58.7106 80.5292 57.7618 80.8559 57.4974C81.5911 56.993 82.3722 56.559 83.189 56.2013C83.5156 56.1235 86.2427 56.362 86.2427 56.362Z" fill="#F28F8F"/>
<path d="M82.2193 54.5266C81.649 54.4385 81.4779 54.7133 81.0424 55.211C80.3827 56.0378 79.7733 56.9035 79.2174 57.8033C79.1437 58.234 79.1437 58.674 79.2174 59.1047C79.2174 59.5868 79.2796 60.7274 79.8033 61.4533C79.8033 61.4533 79.5544 61.417 79.2848 60.7274C79.083 59.9618 78.97 59.1755 78.9478 58.384C78.896 57.9485 78.9478 57.8189 79.3522 57.2071C79.8797 56.4115 80.4563 55.6496 81.0787 54.9259C81.4935 54.5007 81.6438 54.3607 82.2193 54.5266Z" fill="#F28F8F"/>
<path d="M97.286 65.6476C96.8931 65.0773 96.7099 64.3884 96.7675 63.6982C96.7675 62.7546 96.6897 62.5472 96.5186 63.2783C96.3476 64.0093 95.4402 65.2795 94.6885 65.3003C95.5692 65.2303 96.4546 65.3487 97.286 65.6476Z" fill="#F28F8F"/>
<path d="M41.681 66.4616C39.8508 69.6398 39.2597 72.1129 40.4418 73.4609C41.3543 74.4978 43.0341 74.363 45.3983 74.4978C47.6744 74.6119 51.8843 74.1038 54.824 72.4499C59.1116 70.0338 61.367 68.7325 64.8769 68.4162C68.2106 68.1207 69.6779 67.3171 71.5184 67.1512C73.6856 66.9594 75.972 66.8972 77.4704 67.6697C78.1605 68.0338 78.821 68.4516 79.4457 68.9192C79.6012 68.9917 79.8242 68.831 79.8709 68.3437C79.9028 67.7783 79.7733 67.2155 79.4976 66.7209C78.9117 65.658 77.1956 64.984 75.3499 64.647C73.5041 64.31 72.1769 63.3975 71.9021 62.2984C71.6935 61.4421 71.7907 60.5398 72.1769 59.7476C72.5347 59.8527 72.8982 59.9375 73.2656 60.0016C73.7712 60.0671 74.2802 60.1035 74.7899 60.1105C75.1498 60.592 75.5657 61.0289 76.029 61.4118C76.4646 61.7125 76.8741 61.8422 77.066 61.6555C77.296 62.0399 77.6688 62.3176 78.1029 62.428C78.6888 62.4954 78.8028 62.2051 78.8028 62.2051C78.8028 62.2051 78.611 61.08 78.554 60.6082C78.4969 60.1364 78.5021 59.4054 78.4347 59.0528C78.3673 58.7003 78.0562 58.4514 77.1748 57.4974C76.2935 56.5435 75.8891 55.6984 75.4639 55.6102C75.0557 55.5731 74.6442 55.6029 74.2455 55.6984C73.9541 55.6458 73.6556 55.6458 73.3642 55.6984C72.6642 55.7658 71.6843 55.8798 70.5593 55.9576C69.4342 56.0354 68.1277 55.9939 67.8114 56.3102C67.4952 56.6264 66.9974 57.3937 66.2975 58.2025C65.3043 59.2849 64.2501 60.3097 63.1401 61.2718C62.5781 61.7456 61.9895 62.1871 61.3773 62.5939C60.7357 63.031 60.0381 63.3798 59.3035 63.6308C58.0488 63.999 56.1927 64.0715 53.7922 64.2737C49.7327 64.5848 43.366 64.5174 41.681 66.4616Z" fill="#FFA8A7"/>
<path d="M74.3648 64.367C73.0583 63.9264 72.1354 63.1642 71.9177 62.2932C71.709 61.4369 71.8062 60.5346 72.1925 59.7424C72.0459 59.8964 71.8698 60.0193 71.6747 60.1039C71.4797 60.1885 71.2696 60.2331 71.057 60.2349C70.3886 60.2299 69.7316 60.0608 69.1439 59.7424C69.2884 59.9726 69.4826 60.1675 69.7122 60.3129C69.9419 60.4582 70.2012 60.5503 70.4712 60.5823C69.7961 60.9342 69.0896 61.2223 68.361 61.4429C67.1426 61.811 66.9093 62.9983 66.4738 64.2322C66.0383 65.4662 65.9242 66.7053 64.5037 67.4571C64.5037 67.4571 65.8983 67.2445 67.1997 65.4817C68.501 63.719 69.372 63.2264 70.7045 63.2005C72.0369 63.1746 72.8924 64.2011 74.3337 64.367H74.3648Z" fill="#F28F8F"/>
<path d="M77.1024 61.6192C77.4031 61.3547 77.5327 61.2666 77.1594 60.7896C76.7861 60.3126 76.2521 59.5972 75.9825 59.2965C75.6135 58.9408 75.1784 58.6607 74.7019 58.4721C74.0435 58.1455 73.7739 57.8759 73.0999 57.8292C73.4805 57.8025 73.8621 57.8646 74.2145 58.0107C74.6708 58.2492 75.7699 58.8247 76.0188 58.9906C76.4282 59.4008 76.7916 59.8545 77.1024 60.3437C77.2838 60.6133 77.6571 61.0851 77.6208 61.2511C77.5845 61.417 77.1024 61.6192 77.1024 61.6192Z" fill="#F28F8F"/>
<path d="M77.1022 61.6192C77.2509 61.7494 77.4318 61.8374 77.626 61.8738C77.8203 61.9103 78.0207 61.894 78.2065 61.8266C78.5643 61.6192 78.5332 61.4585 78.3206 60.9763C78.1149 60.4447 77.9417 59.901 77.8021 59.3483C77.7495 58.8794 77.524 58.4468 77.1696 58.1351C76.366 57.5078 74.4892 55.9317 74.2559 55.6673C74.2559 55.6673 76.1223 57.0671 76.4541 57.29C77.0244 57.6737 77.7658 58.1714 77.8592 58.5395C77.9525 58.9076 78.3362 60.3801 78.4087 60.5719C78.5843 60.889 78.6736 61.2465 78.668 61.6088C78.5384 61.8992 78.1288 62.4747 77.1022 61.6192Z" fill="#F28F8F"/>
<path d="M64.7006 68.4266C63.6222 68.3385 63.0726 67.5245 62.6008 67.2601C62.129 66.9957 62.6578 67.7319 62.6008 68.1933C62.5529 68.4775 62.3968 68.732 62.1653 68.9036C62.9929 68.67 63.8396 68.5104 64.6954 68.4266H64.7006Z" fill="#F28F8F"/>
</svg>
