<svg width="46" height="14" viewBox="0 0 46 14" fill="none" xmlns="http://www.w3.org/2000/svg">
<path fill-rule="evenodd" clip-rule="evenodd" d="M0 4.6543L3.86234 9.52649L0 12.727V4.6543Z" fill="white"/>
<path fill-rule="evenodd" clip-rule="evenodd" d="M1.55444 12.7278L4.46066 10.2966L6.46937 12.7278H1.55444Z" fill="white"/>
<path fill-rule="evenodd" clip-rule="evenodd" d="M0 2.04827L1.00793 3.32326L5.15214 8.50178L6.49503 7.43242C6.49503 7.43242 5.38019 6.11993 4.63163 4.65532C3.16811 1.79184 4.20425 0.0090332 4.20425 0.0090332H0V2.04827Z" fill="white"/>
<path fill-rule="evenodd" clip-rule="evenodd" d="M5.74292 9.3003L7.11055 8.17065C7.11055 8.17065 8.41674 9.89006 9.93129 10.2959C11.916 10.8277 12.7948 9.52659 12.7948 9.52659V12.7271H8.43545L9.41843 11.8772C9.41843 11.8772 8.90557 12.2191 7.65126 11.3503C6.91095 10.8375 5.74292 9.3003 5.74292 9.3003Z" fill="white"/>
<path fill-rule="evenodd" clip-rule="evenodd" d="M5.86878 0C5.86878 0 5.43249 0.594344 5.74305 2.04856C6.075 3.60293 7.39516 5.24804 7.39209 5.21121C7.39209 5.21121 7.47696 3.57768 8.43557 2.61907C10.4789 0.575782 12.7949 1.79213 12.7949 1.79213V0.00932562L5.86878 0Z" fill="white"/>
<path fill-rule="evenodd" clip-rule="evenodd" d="M12.7947 3.94592C12.7947 3.94592 11.5025 2.83911 10.3791 2.83911C8.94202 2.83911 8.15759 4.07981 8.15759 4.97981C8.15759 6.29072 8.78682 7.01913 9.41838 7.65069C10.326 8.55828 11.4301 9.53715 12.7947 8.7493C12.7947 7.2582 12.7947 3.94592 12.7947 3.94592Z" fill="white"/>
<path fill-rule="evenodd" clip-rule="evenodd" d="M27.5106 0.134033H30.5598C30.5598 0.134033 33.2611 4.22407 34.5886 5.9139C35.9161 7.60373 37.345 9.52849 37.345 9.52849C37.345 9.52849 37.345 3.94687 37.345 1.04999C37.345 0.683813 36.3836 0.134033 36.3836 0.134033H39.8998C39.8998 0.134033 38.746 0.60805 38.746 1.04999C38.746 4.6563 38.746 13.3842 38.746 13.3842C38.746 13.3842 37.639 12.7703 36.3836 11.3115C34.9731 9.67252 29.9555 3.05533 29.9555 3.05533C29.9555 3.05533 29.9555 9.30221 29.9555 11.6261C29.9555 12.0651 30.917 12.729 30.917 12.729H27.5106C27.5106 12.729 28.4446 12.0597 28.4446 11.6261C28.4446 8.50277 28.4446 3.94687 28.4446 1.04999C28.4446 0.660768 27.5106 0.134033 27.5106 0.134033Z" fill="white"/>
<path fill-rule="evenodd" clip-rule="evenodd" d="M41.869 0.134033H45.7825C45.7825 0.134033 44.7316 0.631792 44.7316 1.04999C44.7316 3.94687 44.7316 8.75025 44.7316 11.6261C44.7316 12.0831 45.7825 12.729 45.7825 12.729H41.869C41.869 12.729 42.8474 12.0684 42.8474 11.6261C42.8474 8.17256 42.8474 3.94687 42.8474 1.04999C42.8474 0.647927 41.869 0.134033 41.869 0.134033Z" fill="white"/>
<path fill-rule="evenodd" clip-rule="evenodd" d="M15.9968 0.134033C15.9968 0.134033 17.0114 0.639924 17.0114 1.04999C17.0114 3.94687 17.0114 8.17256 17.0114 11.6261C17.0114 12.0757 15.9968 12.729 15.9968 12.729C15.9968 12.729 21.0655 12.729 21.7946 12.729C22.1569 12.729 26.2153 12.0654 26.2153 8.93651C26.2153 5.80764 23.0628 5.51467 23.0628 5.51467C23.0628 5.51467 24.9833 4.98076 24.9833 2.84006C24.9833 0.532627 22.1569 0.134033 21.7946 0.134033C21.0415 0.134033 15.9968 0.134033 15.9968 0.134033ZM19.0769 5.30732V1.36975C19.0769 1.36975 20.7574 1.36975 21.4322 1.36975C21.7946 1.36975 23.0628 1.79282 23.0628 3.3625C23.0628 4.6563 21.7946 5.30732 21.4322 5.30732C20.6107 5.30732 19.0769 5.30732 19.0769 5.30732ZM19.0769 6.34005C19.0769 6.34005 21.4322 6.34005 21.7946 6.34005C22.1569 6.34005 24.2948 6.89537 24.2948 8.75025C24.2948 10.6414 22.1569 11.3115 21.7946 11.3115C21.4322 11.3115 19.0769 11.3115 19.0769 11.3115V6.34005Z" fill="white"/>
</svg>
