<svg width="48" height="15" viewBox="0 0 48 15" fill="none" xmlns="http://www.w3.org/2000/svg">
<path d="M0.0506792 9.80797C0.0506792 9.09903 0.0382909 8.50552 0 7.97451H1.34075L1.40438 8.88561H1.44154C1.74505 8.40472 2.3014 7.83486 3.33863 7.83486C4.14837 7.83486 4.78017 8.29098 5.04596 8.97346H5.07186C5.28696 8.63222 5.53923 8.37882 5.82979 8.20257C6.1716 7.96156 6.56464 7.83486 7.06974 7.83486C8.09459 7.83486 9.1307 8.5303 9.1307 10.5045V14.1332H7.61314V10.7309C7.61314 9.70718 7.25895 9.09903 6.51284 9.09903C5.98183 9.09903 5.58935 9.47969 5.42549 9.92228C5.37989 10.0912 5.35437 10.2649 5.34947 10.4398V14.1337H3.83191V10.5659C3.83191 9.70774 3.49067 9.09959 2.76934 9.09959C2.18878 9.09959 1.79686 9.5557 1.65608 9.98479C1.59358 10.1368 1.56768 10.3148 1.56768 10.4905V14.1337H0.0506792V9.80797ZM15.0438 12.6545C15.0438 13.2102 15.0692 13.7536 15.1317 14.1337H13.7279L13.6271 13.4512H13.5888C13.2092 13.9321 12.5639 14.2722 11.7688 14.2722C10.5289 14.2722 9.83345 13.3752 9.83345 12.4388C9.83345 10.8818 11.2108 10.0991 13.4885 10.1115V10.0107C13.4885 9.60526 13.3236 8.93517 12.2356 8.93517C11.6281 8.93517 10.9963 9.12549 10.579 9.39015L10.2755 8.37826C10.731 8.09952 11.5278 7.8343 12.5009 7.8343C14.4745 7.8343 15.0444 9.08777 15.0444 10.4268L15.0438 12.6545ZM13.5257 11.1245C12.4248 11.0986 11.3758 11.339 11.3758 12.2749C11.3758 12.8819 11.7688 13.1607 12.2615 13.1607C12.8804 13.1607 13.3365 12.7547 13.4756 12.3127C13.5096 12.2021 13.5267 12.0871 13.5263 11.9714V11.1245H13.5257ZM16.1182 9.80797C16.1182 9.09903 16.1053 8.50552 16.0687 7.97451H17.4331L17.5085 8.89913H17.5468C17.812 8.41768 18.4827 7.83486 19.507 7.83486C20.5825 7.83486 21.6946 8.5303 21.6946 10.4792V14.1332H20.1393V10.656C20.1393 9.77081 19.8099 9.09847 18.963 9.09847C18.3442 9.09847 17.9128 9.54163 17.749 10.0101C17.6983 10.1487 17.6859 10.339 17.6859 10.5147V14.1326H16.1177L16.1182 9.80797ZM28.4395 5.50024V12.4011C28.4395 13.0334 28.4654 13.7176 28.4901 14.1337H27.0998L27.0362 13.1607H27.0103C26.6443 13.8432 25.8971 14.2728 25 14.2728C23.5326 14.2728 22.3698 13.021 22.3698 11.1251C22.3563 9.06299 23.6458 7.83543 25.1267 7.83543C25.9736 7.83543 26.5807 8.18962 26.8588 8.64686H26.8853V5.50081H28.44V5.50024H28.4395ZM26.8847 10.5417C26.8847 10.4161 26.8723 10.2641 26.8464 10.1368C26.7074 9.53093 26.2152 9.03709 25.5063 9.03709C24.5073 9.03709 23.9498 9.92285 23.9498 11.0733C23.9498 12.1978 24.5068 13.0205 25.4939 13.0205C26.1251 13.0205 26.682 12.5897 26.8335 11.9196C26.8718 11.7811 26.8853 11.6285 26.8853 11.4646V10.5417H26.8847ZM29.5398 14.1337V7.97451H31.1091V14.1337H29.5398ZM32.2083 9.96057C32.2083 9.12606 32.1965 8.53086 32.1587 7.97508H33.5119L33.5614 9.15027H33.6127C33.9162 8.27803 34.6364 7.97508 35.2958 7.97508C35.4473 7.97508 35.5351 7.94917 35.6612 7.97508V9.34172C35.512 9.3087 35.3597 9.29171 35.2068 9.29105C34.459 9.29105 33.9534 9.77193 33.8148 10.4662C33.7842 10.6252 33.7674 10.7864 33.7647 10.9483V14.1343H32.2083V9.96057ZM36.3831 14.1337V7.97451H37.9502V14.1337H36.3831Z" fill="white"/>
<path d="M47.7122 1.46067C46.9357 0.574911 46.1102 0.975839 45.4542 1.30188C45.1783 1.43815 43.1866 2.56716 43.1866 2.56716C42.0953 3.01708 41.2456 2.52606 40.9122 2.11274C40.8803 2.07355 40.8515 2.03194 40.8261 1.9883L40.7484 1.85372C40.617 1.62656 40.4711 1.40818 40.3114 1.19995C40.2145 1.07374 40.1095 0.953927 39.9972 0.841258C39.2505 0.087265 38.0573 -0.440362 36.0628 0.518038C35.1185 1.06537 32.0422 2.82281 32.0422 2.82281C30.8862 3.29863 30.0021 2.7192 29.7149 2.29406C29.702 2.27814 29.6907 2.26098 29.6812 2.24282L29.6434 2.17862L29.4486 1.85991C29.3607 1.7203 29.2663 1.58482 29.1659 1.45391C29.0681 1.32851 28.963 1.20892 28.8511 1.09578C28.1095 0.346292 26.9225 -0.180208 24.9455 0.760171C23.75 1.44265 20.9694 3.03229 20.9694 3.03229L20.9683 3.03341L18.9332 4.19622L19.9862 5.4891C20.4294 5.91143 21.2622 6.60404 22.5506 6.0201C22.5506 6.0201 26.1066 3.96084 26.1207 3.95465C29.1608 2.28618 30.6609 3.88032 31.3243 4.94289C31.3474 4.97611 31.366 5.01215 31.3868 5.04425L31.3879 5.04594C31.3964 5.05889 31.4014 5.07071 31.4087 5.0831L31.4836 5.20586C31.8069 5.69576 32.3165 6.01222 32.9241 5.99758C33.2591 5.99082 33.4866 5.88158 33.8177 5.69745L37.2582 3.70181L37.2656 3.69844C40.344 2.00969 41.8695 3.70801 42.521 4.77058C42.5717 4.86237 42.6291 4.95021 42.6882 5.03186C43.0109 5.46939 43.4557 5.75601 44.0211 5.74193C44.3944 5.73461 44.8128 5.5105 44.8753 5.46939L49 3.0886C49.0012 3.08972 48.58 2.45285 47.7122 1.46067Z" fill="#FDD213"/>
</svg>
