<svg width="45" height="14" viewBox="0 0 45 14" fill="none" xmlns="http://www.w3.org/2000/svg">
<path d="M24.1989 6.66355C27.0188 5.38453 27.4358 1.21072 23.4247 1.21072H18.7797L17.063 4.5767H17.8709L15.8176 12.6214H21.2032C25.1322 12.6549 26.8992 8.02838 24.1989 6.66355ZM21.2032 9.69298H19.8568L20.3616 7.8754H21.6407C23.1554 8.17826 22.213 9.76025 21.2032 9.69298ZM22.011 5.82203H20.8666L21.2032 4.24005H22.4822C23.7181 4.54301 22.6506 5.8894 22.011 5.82203Z" fill="white"/>
<path d="M35.2256 5.51067L36.989 2.39766L34.6028 1.15299L34.2916 1.53713C33.0043 0.855727 26.2638 1.79656 25.8417 8.4458C26.094 14.0237 32.3443 13.0203 32.9573 12.6664L34.6764 9.11281C32.9928 10.2218 29.5454 10.7542 29.3996 7.42293C29.702 4.6759 32.9453 3.65004 35.2256 5.51067ZM44.0252 1.21187H38.6041L36.8809 4.47708H37.7661L33.6806 12.6225H37.6352L38.447 10.6578H40.8745L40.935 12.6225H44.5753L44.0252 1.21187ZM39.5468 8.01263L40.8744 4.84374L40.9349 8.01263H39.5468Z" fill="white"/>
<path d="M10.1709 12.0773L10.3815 12.0162L10.1505 11.697L10.1709 12.0773ZM6.7135 12.023L6.67277 12.3083C6.77758 12.298 6.90662 12.3884 6.95807 12.186C6.95421 12.0283 6.83414 12.0196 6.7135 12.023ZM8.39132 12.0162C8.37385 11.9385 8.30899 11.8813 8.14675 11.9348L8.20109 12.2267C8.33438 12.1972 8.4029 12.1183 8.39132 12.0162ZM4.60106 11.7773L4.5362 12.0367C4.64044 12.041 4.76253 12.1256 4.83173 11.9718C4.83637 11.8755 4.84032 11.7796 4.60106 11.7773ZM8.24867 12.4442L8.29625 12.7431C8.40753 12.7459 8.50907 12.679 8.47963 12.5393C8.45126 12.405 8.33843 12.4262 8.24867 12.4442Z" fill="white"/>
<path d="M12.6661 1.36516C9.06926 -0.467185 4.77365 -0.416224 1.34658 1.28525C-0.420616 4.39623 -0.476884 8.74898 1.34658 12.6042C5.12217 14.5148 9.298 14.389 12.6926 12.6841C14.288 9.41097 14.5515 5.47237 12.6661 1.36516ZM6.59142 10.6546L6.37822 10.657C6.32543 10.0679 6.18461 9.57274 5.88252 9.19382C4.49723 7.45663 1.66547 8.76451 2.3931 5.8122C2.77144 4.3029 7.08693 3.41274 6.59142 10.6546ZM2.39821 7.73865C2.70069 8.35432 4.59577 8.45518 5.25362 8.92647C6.29715 9.67398 6.14735 10.6573 6.14735 10.6573H5.90124C5.41673 9.1722 4.05693 10.348 2.96775 9.94808C2.28394 9.70487 1.78746 8.65063 2.39821 7.73865ZM5.85096 12.58L5.95288 11.7716L6.13626 11.7853L6.0547 12.675C5.97247 13.067 5.38807 13.0146 5.31433 12.6411L5.4094 11.7173L5.62675 11.7514L5.53168 12.5256C5.54375 12.7819 5.80077 12.7665 5.85096 12.58ZM4.87509 12.8007L4.66604 12.7502C4.69055 12.5775 4.89545 12.2259 4.49047 12.2259L4.37774 12.6854L4.14707 12.6421L4.39212 11.5392C4.9911 11.6045 5.04351 11.7712 5.05538 11.9501C5.03173 12.0889 4.99477 12.1858 4.87518 12.2095C5.01513 12.3366 4.87683 12.6027 4.87509 12.8007ZM3.54733 11.5654C3.48971 11.6418 3.37437 11.9089 3.35767 12.1217C3.33991 12.3473 3.55659 12.2998 3.61054 12.2734C3.65407 12.2523 3.6864 12.0711 3.6864 12.0711L3.53468 12.0206L3.58526 11.8689L3.92673 11.9827L3.76236 12.5518L3.62328 12.5138L3.63593 12.4252C3.46567 12.5028 3.15403 12.4446 3.11745 12.2482C3.08087 12.0904 3.19167 11.612 3.37032 11.3885C3.54395 11.1711 3.96697 11.3836 3.9773 11.5149C3.98753 11.6458 3.9359 11.7931 3.9359 11.7931L3.77665 11.7631C3.77665 11.7631 3.78639 11.7158 3.80029 11.6413C3.81496 11.5623 3.6091 11.4833 3.54733 11.5654ZM6.65252 12.4916L6.61179 12.9807L6.44202 12.9739L6.50311 11.8124C6.9271 11.8212 7.17013 11.8798 7.16202 12.1792C7.13673 12.5883 6.80549 12.4963 6.65252 12.4916ZM7.07516 10.6572H6.79111C6.76592 9.6513 6.95934 7.81143 6.43082 6.45741C6.03038 5.43097 5.01697 4.96924 4.79237 4.14008C4.43681 2.82766 5.04196 1.40763 7.07516 1.29828C8.83782 1.47924 9.37937 2.84001 9.07872 4.10697C8.56178 5.37374 8.04475 5.19171 7.40109 6.45355C6.87537 7.80621 7.07554 9.57833 7.07516 10.6572ZM10.2253 12.5188L10.0283 12.5867L9.96714 11.4184L10.1981 11.3573L10.7687 12.3218L10.6124 12.4237L10.4222 12.1521L10.2049 12.2336L10.2253 12.5188ZM7.9272 10.6572H7.7C7.88724 8.07385 11.1335 8.63509 11.4302 7.73865C11.9433 8.62737 11.7589 9.37671 11.2231 9.76084C9.89177 10.7158 8.61516 9.05416 7.9272 10.6572ZM9.1318 11.9619L9.23372 12.4985C9.29713 12.6221 9.34018 12.5993 9.43747 12.5868C9.55029 12.5052 9.52674 12.4256 9.50541 12.3219L9.7024 12.2948C9.75375 12.6835 9.56892 12.7232 9.43071 12.7498C9.13431 12.7711 9.07621 12.7133 8.99601 12.3287C8.94929 11.9995 8.86861 11.6519 9.14541 11.5884C9.59981 11.519 9.57298 11.7235 9.61409 11.8668L9.4171 11.9009C9.38564 11.7777 9.34037 11.7289 9.24048 11.738C9.14947 11.7798 9.11211 11.8474 9.1318 11.9619ZM8.71746 12.5188C8.72692 12.688 8.6695 12.8003 8.5612 12.838L8.09928 12.9331L7.9159 11.8124C8.01068 11.7969 8.4754 11.6267 8.58833 11.9348C8.64402 12.1229 8.5863 12.1903 8.52038 12.2743C8.64537 12.3145 8.68754 12.4117 8.71746 12.5188ZM7.53129 6.89453C8.56034 3.99714 10.915 4.50915 11.4373 5.8123C12.1527 8.42719 9.84891 7.71008 8.37319 8.78237C7.81543 9.26746 7.52193 9.82397 7.51758 10.6676H7.26471C7.24956 8.96836 7.22205 7.7651 7.53129 6.89453Z" fill="white"/>
</svg>
