<svg width="241" height="212" viewBox="0 0 241 212" fill="none" xmlns="http://www.w3.org/2000/svg">
<path d="M206.656 110.02C161.726 86.7903 89.1218 86.7903 44.4826 110.02C-0.156718 133.249 0.0789118 170.913 44.9839 194.143C89.8889 217.373 162.523 217.377 207.162 194.143C251.802 170.909 251.591 133.249 206.656 110.02Z" fill="#F5F5F5"/>
<path d="M47.4304 150.997L84.9406 131.615L130.507 155.164C130.779 155.304 131.005 155.507 131.161 155.75C131.318 155.994 131.401 156.27 131.401 156.551C131.401 156.832 131.318 157.108 131.161 157.352C131.005 157.595 130.779 157.797 130.507 157.938L118.2 164.296C125.78 163.483 133.962 164.601 139.822 167.649C149.082 172.467 149.032 180.279 139.717 185.101C130.402 189.923 115.337 189.918 106.077 185.101C100.211 182.048 98.0858 177.796 99.685 173.877L97.444 175.03C96.0865 175.732 94.5469 176.101 92.9796 176.101C91.4124 176.101 89.8727 175.732 88.5152 175.03L47.4304 153.772C47.1587 153.631 46.9332 153.429 46.7763 153.185C46.6195 152.942 46.537 152.666 46.537 152.385C46.537 152.103 46.6195 151.827 46.7763 151.584C46.9332 151.34 47.1587 151.138 47.4304 150.997Z" fill="#E6E6E6"/>
<path d="M46.2873 186.089L71.3042 173.154C71.4729 173.067 71.613 172.941 71.7104 172.79C71.8078 172.64 71.8591 172.468 71.8591 172.294C71.8591 172.12 71.8078 171.948 71.7104 171.797C71.613 171.646 71.4729 171.521 71.3042 171.434L49.2452 159.959C49.0772 159.871 48.886 159.824 48.6913 159.824C48.4966 159.824 48.3054 159.871 48.1373 159.959L22.5589 173.181C22.3902 173.268 22.2501 173.393 22.1527 173.544C22.0553 173.695 22.004 173.866 22.004 174.04C22.004 174.215 22.0553 174.386 22.1527 174.537C22.2501 174.688 22.3902 174.813 22.5589 174.9L44.0514 186.084C44.3903 186.262 44.7759 186.356 45.1687 186.357C45.5615 186.357 45.9475 186.265 46.2873 186.089Z" fill="#E6E6E6"/>
<path d="M223.24 167.017C224.433 167.636 224.438 168.637 223.24 169.261L218.362 171.78C217.694 172.086 216.954 172.245 216.204 172.245C215.454 172.245 214.714 172.086 214.046 171.78L160.523 144.083C159.324 143.468 159.319 142.463 160.523 141.839L165.401 139.315C166.069 139.01 166.809 138.851 167.559 138.851C168.309 138.851 169.049 139.01 169.717 139.315L223.24 167.017Z" fill="#E6E6E6"/>
<path d="M208.22 170.976C209.418 171.596 209.423 172.597 208.22 173.221L203.342 175.744C202.674 176.05 201.934 176.209 201.184 176.209C200.434 176.209 199.694 176.05 199.026 175.744L153.303 152.093C152.11 151.478 152.1 150.472 153.303 149.848L158.181 147.325C158.85 147.019 159.589 146.86 160.34 146.86C161.09 146.86 161.83 147.019 162.498 147.325L208.22 170.976Z" fill="#E6E6E6"/>
<path d="M53.0655 43.9137L53.1006 55.8697L54.72 56.7138L54.6748 43.0786L53.0655 43.9137Z" fill="#F0F0F0"/>
<path d="M35.6339 64.9029L35.6389 66.5775L54.7199 56.7137L53.1006 55.8696L35.6339 64.9029Z" fill="#F5F5F5"/>
<path d="M56.6501 40.0615L33.6336 51.9502L33.6887 69.5902L56.6801 57.7015L56.6501 40.0615ZM35.6389 66.5776V64.9029L35.5938 52.9469L53.0655 43.9137L54.6748 43.101L54.7199 56.7362L35.6389 66.5776Z" fill="#E0E0E0"/>
<path d="M56.625 40.0613L55.0057 39.2173L32.0143 51.106L33.6336 51.9455L56.625 40.0613Z" fill="#F5F5F5"/>
<path d="M32.0143 51.106L32.0694 68.7594L33.6888 69.6034L33.6336 51.9455L32.0143 51.106Z" fill="#F0F0F0"/>
<path d="M53.0505 70.7482L53.0906 82.7042L54.7099 83.5438L54.6648 69.9131L53.0505 70.7482Z" fill="#F0F0F0"/>
<path d="M35.6239 91.7333L35.6289 93.4125L54.7099 83.5442L53.0906 82.7046L35.6239 91.7333Z" fill="#F5F5F5"/>
<path d="M56.615 66.896L33.6235 78.7802L33.6787 96.4336L56.6501 84.5449L56.615 66.896ZM35.6289 93.4121V91.7329L35.5938 79.7769L53.0605 70.7481L54.6748 69.9131L54.7199 83.5437L35.6289 93.4121Z" fill="#E0E0E0"/>
<path d="M56.615 66.8918L54.9957 66.0522L32.0042 77.9364L33.6236 78.7805L56.615 66.8918Z" fill="#F5F5F5"/>
<path d="M32.0042 77.9365L32.0594 95.59L33.6787 96.434L33.6236 78.7806L32.0042 77.9365Z" fill="#F0F0F0"/>
<path d="M47.5157 48.4526L52.2784 51.8154L52.2884 55.0929L36.4411 63.2866L36.4311 60.0046L39.4541 54.6349L42.1664 56.5206L41.2038 59.1875L42.5975 56.8169L47.5157 48.4526Z" fill="#E0E0E0"/>
<path d="M42.3068 50.1095C43.0538 49.7234 43.6604 50.0332 43.6654 50.8009C43.64 51.2194 43.5046 51.6266 43.2703 51.9894C43.0359 52.3522 42.7092 52.6603 42.3168 52.8886C41.5698 53.2747 40.9632 52.965 40.9632 52.1972C40.9877 51.779 41.1222 51.372 41.3556 51.0092C41.5891 50.6464 41.915 50.3381 42.3068 50.1095Z" fill="#E0E0E0"/>
<path d="M47.5006 75.2876L52.2634 78.6459L52.2784 81.9278L36.4311 90.1215L36.421 86.8396L39.4391 81.4654L42.1513 83.3511L41.1938 86.0179L42.5825 83.6519L47.5006 75.2876Z" fill="#E0E0E0"/>
<path d="M42.2968 76.9396C43.0438 76.5535 43.6504 76.8633 43.6504 77.631C43.6271 78.0494 43.4931 78.4569 43.2595 78.8199C43.0259 79.1828 42.6994 79.4909 42.3068 79.7187C41.5598 80.1048 40.9532 79.795 40.9532 79.0273C40.9765 78.6089 41.1104 78.2014 41.344 77.8384C41.5776 77.4755 41.9042 77.1674 42.2968 76.9396Z" fill="#E0E0E0"/>
<path d="M224.057 58.761C223.627 57.9658 222.938 57.3055 222.082 56.8663L170.615 30.6466C170.377 30.5652 170.127 30.5196 169.873 30.5119C167.226 30.467 164.563 32.6984 164.187 33.8747C164.102 34.0233 164.057 34.1879 164.057 34.3551V134.004C164.057 134.782 164.287 135.546 164.724 136.219C165.16 136.892 165.788 137.449 166.544 137.833L218.011 164.098C218.075 164.126 218.14 164.15 218.207 164.17C221.28 165.337 224.549 162.913 224.549 160.371V60.7005C224.552 60.0289 224.384 59.3654 224.057 58.761Z" fill="#263238"/>
<path d="M164.192 33.8791C164.568 32.7028 167.231 30.4714 169.878 30.5163C170.132 30.524 170.382 30.5695 170.62 30.651L222.092 56.8662C222.845 57.2553 223.472 57.8129 223.911 58.4842C224.35 59.1556 224.587 59.9178 224.599 60.6959V160.367C224.599 162.908 221.33 165.333 218.257 164.165C218.19 164.145 218.125 164.121 218.061 164.093L166.544 137.833C165.789 137.448 165.162 136.891 164.726 136.218C164.291 135.545 164.061 134.781 164.062 134.003V34.3595C164.062 34.1923 164.107 34.0277 164.192 33.8791Z" fill="#455A64"/>
<path d="M217.39 71.2333C217.388 70.8441 217.273 70.4621 217.055 70.1256C216.836 69.7891 216.523 69.5099 216.146 69.3162L168.359 44.9731C168.172 44.8781 167.96 44.8286 167.745 44.8296C167.531 44.8306 167.32 44.8821 167.134 44.9789C166.948 45.0756 166.794 45.2144 166.687 45.3812C166.58 45.5479 166.524 45.737 166.524 45.9294V126.317C166.524 126.706 166.639 127.087 166.858 127.423C167.076 127.759 167.39 128.037 167.767 128.23L215.575 152.618C215.762 152.713 215.974 152.762 216.19 152.761C216.405 152.759 216.616 152.707 216.803 152.61C216.989 152.513 217.143 152.374 217.25 152.207C217.358 152.039 217.414 151.85 217.415 151.657L217.39 71.2333Z" fill="#0F8654"/>
<path opacity="0.2" d="M217.39 71.2333C217.388 70.8441 217.273 70.4621 217.055 70.1256C216.836 69.7891 216.523 69.5099 216.146 69.3162L168.359 44.9731C168.172 44.8781 167.96 44.8286 167.745 44.8296C167.531 44.8306 167.32 44.8821 167.134 44.9789C166.948 45.0756 166.794 45.2144 166.687 45.3812C166.58 45.5479 166.524 45.737 166.524 45.9294V126.317C166.524 126.706 166.639 127.087 166.858 127.423C167.076 127.759 167.39 128.037 167.767 128.23L215.575 152.618C215.762 152.713 215.974 152.762 216.19 152.761C216.405 152.759 216.616 152.707 216.803 152.61C216.989 152.513 217.143 152.374 217.25 152.207C217.358 152.039 217.414 151.85 217.415 151.657L217.39 71.2333Z" fill="black"/>
<path opacity="0.3" d="M224.569 60.6962V160.367C224.569 162.908 221.3 165.333 218.227 164.165C218.412 164.225 218.61 164.244 218.805 164.221C218.999 164.198 219.185 164.133 219.346 164.032C219.507 163.932 219.639 163.798 219.73 163.642C219.822 163.486 219.87 163.313 219.871 163.137V63.4663C219.868 62.5995 219.578 61.7528 219.039 61.0329L224.077 58.7881C224.399 59.383 224.567 60.0352 224.569 60.6962Z" fill="black"/>
<path opacity="0.1" d="M169.873 30.5296C170.127 30.5374 170.377 30.5829 170.615 30.6643L222.092 56.8661C222.948 57.3053 223.637 57.9656 224.067 58.7607L219.029 61.0056C218.607 60.4298 218.04 59.9502 217.375 59.6048L165.902 33.3985C165.756 33.3247 165.594 33.2785 165.427 33.2628C165.26 33.2471 165.091 33.2622 164.931 33.3072C164.771 33.3522 164.623 33.4262 164.496 33.5245C164.369 33.6229 164.265 33.7435 164.192 33.8789C164.563 32.6981 167.226 30.4668 169.873 30.5296Z" fill="white"/>
<path d="M185.615 49.8626C185.254 49.674 184.953 49.8177 184.953 50.1903C184.965 50.3951 185.031 50.5945 185.145 50.7724C185.259 50.9502 185.418 51.1015 185.61 51.214L195.707 56.431C196.068 56.6196 196.358 56.4624 196.358 56.0898C196.347 55.8882 196.283 55.6918 196.171 55.5169C196.058 55.3421 195.901 55.1937 195.712 55.0841L185.615 49.8626Z" fill="#263238"/>
<path d="M198.304 56.4217C197.943 56.2376 197.647 56.3858 197.647 56.7585C197.66 56.9613 197.726 57.1587 197.839 57.3348C197.952 57.511 198.109 57.661 198.299 57.7731C198.659 57.9617 198.96 57.8045 198.96 57.4364C198.947 57.233 198.881 57.0353 198.767 56.8591C198.653 56.6829 198.494 56.5331 198.304 56.4217Z" fill="#263238"/>
<path d="M191.841 49.1038C191.119 48.7311 190.533 49.0275 190.533 49.7683C190.555 50.1749 190.685 50.571 190.91 50.9244C191.136 51.2778 191.451 51.5785 191.831 51.8021C192.553 52.1747 193.15 51.8694 193.155 51.1241C193.128 50.7187 192.995 50.3247 192.767 49.9737C192.539 49.6228 192.222 49.3248 191.841 49.1038Z" fill="#263238"/>
<path d="M191.836 142.952C190.367 142.193 189.179 142.795 189.174 144.299C189.221 145.125 189.484 145.93 189.943 146.649C190.402 147.367 191.044 147.979 191.816 148.434C193.29 149.192 194.508 148.573 194.513 147.055C194.458 146.231 194.187 145.43 193.722 144.717C193.257 144.004 192.611 143.4 191.836 142.952Z" fill="#263238"/>
<path d="M209.559 74.8609C209.497 74.4113 209.351 73.9741 209.127 73.5678C209.029 73.3902 208.917 73.2192 208.791 73.056C208.414 72.5584 207.915 72.144 207.333 71.8438L160.618 48.0485L160.548 48.0215C160.485 48.0029 160.422 47.9879 160.357 47.9766C160.22 47.9519 160.081 47.9369 159.941 47.9317C159.182 47.9271 158.432 48.0808 157.75 48.3807C157.084 48.6749 156.471 49.0562 155.93 49.5121L155.644 49.768C155.264 50.1039 154.97 50.5098 154.782 50.9578C154.746 51.0237 154.717 51.0929 154.697 51.1643C154.672 51.2386 154.66 51.3158 154.662 51.3933V141.874C154.664 142.579 154.874 143.272 155.27 143.882C155.666 144.492 156.234 144.998 156.918 145.349L203.633 169.189C203.691 169.214 203.751 169.235 203.813 169.252C206.601 170.312 209.569 168.112 209.569 165.804V75.3233C209.575 75.1691 209.572 75.0147 209.559 74.8609Z" fill="#0F8654"/>
<path d="M154.772 50.9804C155.113 49.9163 157.529 47.887 159.931 47.9319C160.162 47.9367 160.391 47.9762 160.608 48.0486L207.322 71.8439C208.099 72.2461 208.724 72.8463 209.117 73.568C209.419 74.1137 209.577 74.7144 209.579 75.3234V165.809C209.579 168.116 206.611 170.298 203.823 169.257C203.761 169.24 203.701 169.219 203.643 169.194L156.918 145.34C156.233 144.99 155.664 144.485 155.268 143.874C154.871 143.264 154.662 142.571 154.662 141.865V51.4159C154.661 51.2651 154.699 51.1162 154.772 50.9804Z" fill="#0F8654"/>
<path opacity="0.2" d="M209.558 75.3233V165.808C209.558 168.116 206.591 170.298 203.803 169.256C203.972 169.314 204.153 169.334 204.332 169.315C204.511 169.295 204.682 169.237 204.83 169.145C204.979 169.053 205.1 168.93 205.183 168.787C205.266 168.643 205.308 168.484 205.307 168.323V77.8241C205.305 77.0375 205.043 76.269 204.555 75.6152L209.127 73.5679C209.419 74.1159 209.566 74.7164 209.558 75.3233Z" fill="white"/>
<path opacity="0.4" d="M159.926 47.9275C160.157 47.9323 160.386 47.9718 160.603 48.0442L207.317 71.8395C208.094 72.2417 208.719 72.8419 209.112 73.5636L204.545 75.6154C204.162 75.0917 203.647 74.6563 203.041 74.3448L156.326 50.5495C156.193 50.4823 156.046 50.4406 155.893 50.427C155.741 50.4133 155.587 50.4281 155.442 50.4703C155.296 50.5124 155.162 50.5811 155.048 50.672C154.933 50.7629 154.841 50.8741 154.777 50.9984C155.108 49.9119 157.524 47.8826 159.926 47.9275Z" fill="white"/>
<path opacity="0.3" d="M154.772 50.9804C155.113 49.9163 157.529 47.887 159.931 47.9319C160.162 47.9367 160.391 47.9762 160.608 48.0486L207.322 71.8439C208.099 72.2461 208.724 72.8463 209.117 73.568C209.419 74.1137 209.577 74.7144 209.579 75.3234V165.809C209.579 168.116 206.611 170.298 203.823 169.257C203.761 169.24 203.701 169.219 203.643 169.194L156.918 145.34C156.233 144.99 155.664 144.485 155.268 143.874C154.871 143.264 154.662 142.571 154.662 141.865V51.4159C154.661 51.2651 154.699 51.1162 154.772 50.9804Z" fill="white"/>
<path d="M159.364 56.3322L159.886 56.6061L159.896 54.5902L159.369 54.3208L159.364 56.3322Z" fill="white"/>
<path d="M158.467 55.8695L158.988 56.1389L158.993 54.5091L158.472 54.2397L158.467 55.8695Z" fill="white"/>
<path d="M157.565 55.403L158.086 55.6724L158.091 54.4647L157.57 54.1953L157.565 55.403Z" fill="white"/>
<path d="M156.667 54.9402L157.189 55.2095V54.3924L156.667 54.123V54.9402Z" fill="white"/>
<path d="M161.31 57.3425L164.513 58.9992L164.518 57.3066L161.315 55.6499L161.31 57.3425Z" fill="white"/>
<path d="M166.107 59.8204L167.707 60.6465L167.712 58.9584L166.112 58.1323L166.107 59.8204Z" fill="white"/>
<path d="M199.161 76.6973L199.166 75.3369L200.885 76.2259L199.166 75.3369L199.161 76.6973Z" fill="white"/>
<path d="M199.161 76.6973L200.88 77.5862L200.885 76.2259L199.166 75.3369L199.161 76.6973Z" fill="#0F8654"/>
<path d="M202.099 77.0566V76.5268L198.85 74.8477V76.859L202.099 78.5382V78.0084L202.515 78.2239V77.2721L202.099 77.0566ZM200.88 77.5864L199.161 76.6884V75.3415L200.88 76.2395V77.5864Z" fill="white"/>
<path d="M194.198 74.3132L197.401 75.9654L197.406 74.2773L194.203 72.6206L194.198 74.3132Z" fill="white"/>
<path d="M178.912 66.3082L182.115 67.9649L182.12 66.2768L178.917 64.6201L178.912 66.3082Z" fill="white"/>
<path d="M196.764 82.3902L149.694 58.0516C149.558 57.9675 149.402 57.9145 149.239 57.8973C149.075 57.88 148.91 57.8991 148.756 57.9529H148.731L147.728 58.4647L148.345 59.0124L148.31 71.0493V71.3321V74.5782C148.335 75.0007 148.472 75.412 148.708 75.7786C148.944 76.1452 149.273 76.4569 149.669 76.6883L194.905 100.12L196.644 101.655L197.617 101.157C197.652 101.142 197.686 101.124 197.717 101.103H197.762C197.872 101.012 197.957 100.899 198.012 100.774C198.066 100.649 198.089 100.514 198.078 100.38V97.4082V96.8515L198.118 84.5363C198.099 84.1079 197.967 83.6897 197.731 83.3165C197.496 82.9432 197.165 82.6257 196.764 82.3902Z" fill="#0F8654"/>
<path opacity="0.2" d="M196.764 82.3902L149.694 58.0516C149.558 57.9675 149.402 57.9145 149.239 57.8973C149.075 57.88 148.91 57.8991 148.756 57.9529H148.731L147.728 58.4647L148.345 59.0124L148.31 71.0493V71.3321V74.5782C148.335 75.0007 148.472 75.412 148.708 75.7786C148.944 76.1452 149.273 76.4569 149.669 76.6883L194.905 100.12L196.644 101.655L197.617 101.157C197.652 101.142 197.686 101.124 197.717 101.103H197.762C197.872 101.012 197.957 100.899 198.012 100.774C198.066 100.649 198.089 100.514 198.078 100.38V97.4082V96.8515L198.118 84.5363C198.099 84.1079 197.967 83.6897 197.731 83.3165C197.496 82.9432 197.165 82.6257 196.764 82.3902Z" fill="black"/>
<path d="M195.757 82.8974C196.152 83.1289 196.482 83.4405 196.718 83.8071C196.954 84.1738 197.09 84.585 197.115 85.0076L197.075 97.3183L147.277 71.5745V72.1357L197.075 97.875V100.843C197.075 101.619 196.459 101.934 195.707 101.543L148.626 77.2225C148.231 76.9915 147.902 76.6805 147.666 76.3148C147.43 75.949 147.293 75.5386 147.267 75.1168L147.317 59.2727C147.317 58.5005 147.929 58.1862 148.686 58.5723L195.757 82.8974Z" fill="#0F8654"/>
<path d="M197.075 97.3185V97.8798L147.277 72.1359V71.5747L197.075 97.3185Z" fill="#0F8654"/>
<g opacity="0.2">
<path opacity="0.2" d="M197.075 97.3185V97.8798L147.277 72.1359V71.5747L197.075 97.3185Z" fill="white"/>
</g>
<g opacity="0.6">
<path opacity="0.6" d="M172.75 86.7135L172.745 88.0874L148.846 75.7273L148.852 74.3579L172.75 86.7135Z" fill="white"/>
</g>
<path d="M157.715 64.9523C157.952 65.0912 158.149 65.2782 158.291 65.4982C158.432 65.7182 158.513 65.965 158.527 66.2184V74.4525C158.527 74.9014 158.161 75.1035 157.705 74.87L149.709 70.7305C149.471 70.5931 149.273 70.4071 149.131 70.1878C148.989 69.9685 148.907 69.7221 148.892 69.4689L148.917 61.2348C148.917 60.7859 149.288 60.5793 149.739 60.8128L157.715 64.9523Z" fill="white"/>
<g opacity="0.6">
<path opacity="0.6" d="M186.938 80.9357L186.933 82.736L161.611 69.6441L161.616 67.8438L186.938 80.9357Z" fill="white"/>
</g>
<g opacity="0.6">
<path opacity="0.6" d="M175.733 81.4699L175.728 83.2702L161.59 75.961L161.595 74.1606L175.733 81.4699Z" fill="white"/>
</g>
<g opacity="0.6">
<path opacity="0.6" d="M186.928 84.0963L186.923 85.8922L161.601 72.8003L161.606 71.0044L186.928 84.0963Z" fill="white"/>
</g>
<g opacity="0.5">
<path opacity="0.5" d="M195.19 84.4013L194.428 85.0119L195.326 86.6776L194.574 86.287L194.032 85.2364L193.536 85.7527L192.779 85.3576L193.696 84.6348L192.964 83.252L193.706 83.6336L194.097 84.4058L194.438 84.0152L195.19 84.4013Z" fill="white"/>
</g>
<path d="M196.764 104.816L149.694 80.4775C149.558 80.3941 149.402 80.3419 149.238 80.3254C149.075 80.309 148.909 80.3288 148.756 80.3832H148.731L147.728 80.895L148.345 81.4428L148.31 93.4796V93.7625V97.0085C148.336 97.4303 148.473 97.8407 148.709 98.2064C148.945 98.5722 149.274 98.8832 149.669 99.1142L194.94 122.523L196.679 124.059L197.652 123.556C197.687 123.543 197.721 123.526 197.752 123.507L197.797 123.484C197.907 123.393 197.992 123.28 198.047 123.155C198.102 123.03 198.124 122.895 198.113 122.761V119.789V119.228L198.153 106.917C198.123 106.494 197.981 106.083 197.74 105.718C197.499 105.353 197.164 105.044 196.764 104.816Z" fill="#0F8654"/>
<path opacity="0.2" d="M196.764 104.816L149.694 80.4775C149.558 80.3941 149.402 80.3419 149.238 80.3254C149.075 80.309 148.909 80.3288 148.756 80.3832H148.731L147.728 80.895L148.345 81.4428L148.31 93.4796V93.7625V97.0085C148.336 97.4303 148.473 97.8407 148.709 98.2064C148.945 98.5722 149.274 98.8832 149.669 99.1142L194.94 122.523L196.679 124.059L197.652 123.556C197.687 123.543 197.721 123.526 197.752 123.507L197.797 123.484C197.907 123.393 197.992 123.28 198.047 123.155C198.102 123.03 198.124 122.895 198.113 122.761V119.789V119.228L198.153 106.917C198.123 106.494 197.981 106.083 197.74 105.718C197.499 105.353 197.164 105.044 196.764 104.816Z" fill="black"/>
<path d="M195.757 105.328C196.152 105.559 196.482 105.871 196.718 106.238C196.954 106.604 197.09 107.016 197.115 107.438L197.075 119.749L147.277 94.005V94.5617L197.075 120.324V123.291C197.075 124.068 196.459 124.382 195.707 123.992L148.636 99.653C148.241 99.422 147.912 99.1111 147.676 98.7453C147.44 98.3795 147.304 97.9691 147.277 97.5473L147.327 81.7033C147.327 80.9265 147.939 80.6123 148.696 81.0029L195.757 105.328Z" fill="#0F8654"/>
<path d="M197.075 119.749V120.31L147.277 94.5616V94.0049L197.075 119.749Z" fill="#0F8654"/>
<g opacity="0.2">
<path opacity="0.2" d="M197.075 119.749V120.31L147.277 94.5616V94.0049L197.075 119.749Z" fill="white"/>
</g>
<path d="M157.715 87.3829C157.952 87.5218 158.149 87.7089 158.291 87.9289C158.432 88.1489 158.513 88.3956 158.527 88.649V96.8786C158.527 97.3276 158.161 97.5296 157.705 97.3007L149.709 93.1612C149.47 93.0233 149.272 92.8366 149.13 92.6164C148.988 92.3963 148.906 92.149 148.892 91.8951L148.917 83.6655C148.917 83.2165 149.288 83.01 149.739 83.2435L157.715 87.3829Z" fill="white"/>
<g opacity="0.6">
<path opacity="0.6" d="M186.938 103.366L186.933 105.166L161.611 92.0699L161.616 90.2695L186.938 103.366Z" fill="white"/>
</g>
<g opacity="0.5">
<path opacity="0.5" d="M195.19 106.832L194.428 107.443L195.326 109.104L194.574 108.718L194.032 107.667L193.536 108.179L192.779 107.788L193.696 107.065L192.964 105.683L193.706 106.064L194.097 106.836L194.438 106.446L195.19 106.832Z" fill="white"/>
</g>
<path opacity="0.6" d="M148.852 96.7886L148.846 98.1579L162.739 105.341V103.968L148.852 96.7886Z" fill="white"/>
<path opacity="0.6" d="M161.606 93.4302L161.601 95.2305L173.678 101.471V99.6708L161.606 93.4302Z" fill="white"/>
<path d="M196.764 149.987L149.694 125.648C149.558 125.564 149.402 125.511 149.239 125.494C149.075 125.477 148.91 125.496 148.756 125.55H148.731L147.728 126.061L148.345 126.609L148.31 138.646V138.929V142.175C148.335 142.597 148.472 143.009 148.708 143.375C148.944 143.742 149.273 144.054 149.669 144.285L194.94 167.69L196.679 169.225L197.652 168.727L197.752 168.677L197.797 168.65C197.907 168.559 197.992 168.446 198.047 168.321C198.102 168.196 198.124 168.062 198.113 167.928V164.96V164.399L198.153 152.084C198.122 151.661 197.98 151.251 197.739 150.886C197.498 150.522 197.164 150.214 196.764 149.987Z" fill="#0F8654"/>
<path opacity="0.2" d="M196.764 149.987L149.694 125.648C149.558 125.564 149.402 125.511 149.239 125.494C149.075 125.477 148.91 125.496 148.756 125.55H148.731L147.728 126.061L148.345 126.609L148.31 138.646V138.929V142.175C148.335 142.597 148.472 143.009 148.708 143.375C148.944 143.742 149.273 144.054 149.669 144.285L194.94 167.69L196.679 169.225L197.652 168.727L197.752 168.677L197.797 168.65C197.907 168.559 197.992 168.446 198.047 168.321C198.102 168.196 198.124 168.062 198.113 167.928V164.96V164.399L198.153 152.084C198.122 151.661 197.98 151.251 197.739 150.886C197.498 150.522 197.164 150.214 196.764 149.987Z" fill="black"/>
<path d="M195.757 150.498C196.152 150.729 196.481 151.04 196.717 151.406C196.953 151.772 197.089 152.182 197.115 152.604L197.075 164.919L147.277 139.18V139.741L197.075 165.485V168.457C197.075 169.229 196.459 169.544 195.707 169.158L148.636 144.819C148.24 144.588 147.911 144.276 147.675 143.909C147.439 143.543 147.303 143.131 147.277 142.709L147.327 126.869C147.327 126.093 147.939 125.778 148.696 126.169L195.757 150.498Z" fill="#0F8654"/>
<path d="M197.075 164.92V165.476L147.277 139.733V139.171L197.075 164.92Z" fill="#0F8654"/>
<g opacity="0.2">
<path opacity="0.2" d="M197.075 164.92V165.476L147.277 139.733V139.171L197.075 164.92Z" fill="white"/>
</g>
<path d="M157.715 132.549C157.952 132.688 158.149 132.875 158.29 133.095C158.431 133.315 158.512 133.562 158.527 133.815V142.049C158.527 142.498 158.161 142.7 157.705 142.466L149.709 138.331C149.471 138.193 149.273 138.006 149.131 137.786C148.989 137.566 148.907 137.319 148.892 137.065L148.897 128.854C148.897 128.405 149.268 128.203 149.719 128.436L157.715 132.549Z" fill="white"/>
<g opacity="0.6">
<path opacity="0.6" d="M186.938 148.532L186.933 150.333L161.611 137.241L161.616 135.44L186.938 148.532Z" fill="white"/>
</g>
<g opacity="0.5">
<path opacity="0.5" d="M195.19 152.002L194.428 152.613L195.326 154.274L194.574 153.888L194.032 152.838L193.536 153.349L192.779 152.959L193.696 152.231L192.964 150.849L193.706 151.235L194.097 152.007L194.438 151.612L195.19 152.002Z" fill="white"/>
</g>
<path opacity="0.6" d="M148.852 141.955L148.846 143.328L162.739 150.507V149.134L148.852 141.955Z" fill="white"/>
<path opacity="0.6" d="M161.606 138.601L161.601 140.397L167.06 143.216V141.416L161.606 138.601Z" fill="white"/>
<path d="M196.764 127.247L149.694 102.908C149.559 102.823 149.403 102.769 149.239 102.753C149.075 102.736 148.909 102.757 148.756 102.814H148.731L147.728 103.33L148.345 103.874L148.31 115.915V116.198V119.444C148.336 119.866 148.473 120.276 148.709 120.642C148.945 121.007 149.274 121.318 149.669 121.549L194.94 144.959L196.679 146.494L197.652 145.991L197.752 145.942L197.797 145.919C197.908 145.827 197.993 145.714 198.048 145.588C198.103 145.462 198.125 145.327 198.113 145.192V142.224V141.663L198.153 129.352C198.124 128.928 197.982 128.516 197.741 128.15C197.5 127.784 197.165 127.475 196.764 127.247Z" fill="#0F8654"/>
<path opacity="0.2" d="M196.764 127.247L149.694 102.908C149.559 102.823 149.403 102.769 149.239 102.753C149.075 102.736 148.909 102.757 148.756 102.814H148.731L147.728 103.33L148.345 103.874L148.31 115.915V116.198V119.444C148.336 119.866 148.473 120.276 148.709 120.642C148.945 121.007 149.274 121.318 149.669 121.549L194.94 144.959L196.679 146.494L197.652 145.991L197.752 145.942L197.797 145.919C197.908 145.827 197.993 145.714 198.048 145.588C198.103 145.462 198.125 145.327 198.113 145.192V142.224V141.663L198.153 129.352C198.124 128.928 197.982 128.516 197.741 128.15C197.5 127.784 197.165 127.475 196.764 127.247Z" fill="black"/>
<path d="M195.757 127.758C196.152 127.989 196.481 128.3 196.717 128.666C196.953 129.032 197.089 129.442 197.115 129.864L197.075 142.179L147.277 116.431V116.992L197.075 142.74V145.708C197.075 146.485 196.459 146.795 195.707 146.409L148.636 122.07C148.241 121.839 147.912 121.528 147.676 121.162C147.44 120.796 147.304 120.386 147.277 119.964L147.327 104.12C147.327 103.344 147.939 103.029 148.696 103.42L195.757 127.758Z" fill="#0F8654"/>
<path d="M197.075 142.179V142.741L147.277 116.992V116.431L197.075 142.179Z" fill="#0F8654"/>
<g opacity="0.2">
<path opacity="0.2" d="M197.075 142.179V142.741L147.277 116.992V116.431L197.075 142.179Z" fill="white"/>
</g>
<g opacity="0.6">
<path opacity="0.6" d="M166.624 128.455L166.619 129.824L148.846 120.589L148.852 119.219L166.624 128.455Z" fill="white"/>
</g>
<path d="M157.715 109.809C157.952 109.948 158.149 110.135 158.29 110.355C158.431 110.575 158.512 110.821 158.527 111.075V119.309C158.527 119.758 158.161 119.96 157.705 119.726L149.709 115.591C149.47 115.453 149.272 115.267 149.13 115.047C148.988 114.826 148.906 114.579 148.892 114.325L148.917 106.096C148.917 105.647 149.288 105.44 149.739 105.674L157.715 109.809Z" fill="white"/>
<g opacity="0.6">
<path opacity="0.6" d="M186.938 125.792L186.933 127.592L161.611 114.501L161.616 112.7L186.938 125.792Z" fill="white"/>
</g>
<g opacity="0.6">
<path opacity="0.6" d="M182.471 129.851L182.466 131.651L161.59 120.822L161.595 119.021L182.471 129.851Z" fill="white"/>
</g>
<g opacity="0.6">
<path opacity="0.6" d="M186.928 128.953L186.923 130.753L161.601 117.661L161.606 115.861L186.928 128.953Z" fill="white"/>
</g>
<g opacity="0.5">
<path opacity="0.5" d="M195.19 129.263L194.428 129.873L195.326 131.534L194.574 131.148L194.032 130.098L193.536 130.61L192.779 130.219L193.696 129.496L192.964 128.113L193.706 128.495L194.097 129.267L194.438 128.877L195.19 129.263Z" fill="white"/>
</g>
<path d="M143.102 58.3344L134.709 54.0243C133.977 53.6472 132.238 54.159 132.238 55.2186C132.238 55.1328 132.262 55.0484 132.31 54.974C132.358 54.8995 132.426 54.8376 132.509 54.7944C132.592 54.7512 132.686 54.7282 132.782 54.7278C132.878 54.7274 132.972 54.7496 133.055 54.7921L141.442 59.1022C141.718 59.2441 141.94 59.4568 142.079 59.7128L143.708 58.8822C143.565 58.6542 143.355 58.465 143.102 58.3344Z" fill="#0F8654"/>
<path d="M142.078 59.7128C142.198 59.9149 142.261 60.1397 142.264 60.3683V68.993C142.263 69.0784 142.238 69.1622 142.19 69.236C142.142 69.3099 142.073 69.3712 141.99 69.4139C141.908 69.4565 141.814 69.4791 141.719 69.4793C141.623 69.4795 141.53 69.4573 141.447 69.415C141.689 69.5503 141.966 69.6261 142.251 69.6345C142.536 69.6429 142.819 69.5838 143.07 69.463C143.321 69.3423 143.533 69.1642 143.683 68.9469C143.832 68.7295 143.915 68.4806 143.923 68.2253V59.6051C143.921 59.3531 143.847 59.1059 143.708 58.8867L142.078 59.7128Z" fill="#0F8654"/>
<path opacity="0.4" d="M143.102 58.3344L134.709 54.0243C133.977 53.6472 132.238 54.159 132.238 55.2186C132.238 55.1328 132.262 55.0484 132.31 54.974C132.358 54.8995 132.426 54.8376 132.509 54.7944C132.592 54.7512 132.686 54.7282 132.782 54.7278C132.878 54.7274 132.972 54.7496 133.055 54.7921L141.442 59.1022C141.718 59.2441 141.94 59.4568 142.079 59.7128L143.708 58.8822C143.565 58.6542 143.355 58.465 143.102 58.3344Z" fill="white"/>
<path opacity="0.2" d="M142.078 59.7128C142.198 59.9149 142.261 60.1397 142.264 60.3683V68.993C142.263 69.0784 142.238 69.1622 142.19 69.236C142.142 69.3099 142.073 69.3712 141.99 69.4139C141.908 69.4565 141.814 69.4791 141.719 69.4793C141.623 69.4795 141.53 69.4573 141.447 69.415C141.689 69.5503 141.966 69.6261 142.251 69.6345C142.536 69.6429 142.819 69.5838 143.07 69.463C143.321 69.3423 143.533 69.1642 143.683 68.9469C143.832 68.7295 143.915 68.4806 143.923 68.2253V59.6051C143.921 59.3531 143.847 59.1059 143.708 58.8867L142.078 59.7128Z" fill="white"/>
<path d="M133.054 54.7741L141.442 59.0842C141.692 59.212 141.9 59.3969 142.044 59.6201C142.189 59.8433 142.265 60.0968 142.264 60.3548V68.9794C142.263 69.0649 142.238 69.1487 142.19 69.2225C142.142 69.2963 142.073 69.3576 141.99 69.4003C141.908 69.443 141.814 69.4656 141.719 69.4658C141.623 69.466 141.53 69.4438 141.447 69.4015L133.059 65.1093C132.809 64.9815 132.601 64.7966 132.457 64.5734C132.312 64.3502 132.237 64.0967 132.237 63.8388V55.2231C132.232 55.1354 132.254 55.0481 132.3 54.9705C132.345 54.8928 132.414 54.8276 132.497 54.7817C132.581 54.7358 132.677 54.7109 132.775 54.7095C132.873 54.7082 132.969 54.7305 133.054 54.7741Z" fill="#0F8654"/>
<path d="M144.284 65.042L142.279 65.3787V63.062L144.364 64.8309C144.382 64.8476 144.394 64.8682 144.4 64.8907C144.406 64.9131 144.404 64.9365 144.396 64.9582C144.388 64.98 144.373 64.9993 144.353 65.014C144.333 65.0288 144.31 65.0385 144.284 65.042Z" fill="#0F8654"/>
<path d="M142.269 63.0619L143.923 62.2134L146.009 64.0093C146.024 64.0229 146.035 64.0396 146.042 64.0579C146.049 64.0761 146.051 64.0956 146.048 64.1147C146.045 64.1338 146.037 64.152 146.025 64.168C146.013 64.1839 145.997 64.1972 145.979 64.2068L144.329 65.0329L142.269 63.0619Z" fill="#0F8654"/>
<path opacity="0.2" d="M142.269 63.0619L143.923 62.2134L146.009 64.0093C146.024 64.0229 146.035 64.0396 146.042 64.0579C146.049 64.0761 146.051 64.0956 146.048 64.1147C146.045 64.1338 146.037 64.152 146.025 64.168C146.013 64.1839 145.997 64.1972 145.979 64.2068L144.329 65.0329L142.269 63.0619Z" fill="white"/>
<path d="M136.218 64.4268C136.328 64.9193 136.646 65.3549 137.105 65.6435H137.145C137.602 65.8814 138.048 65.7647 138.103 65.3831L136.218 64.4268Z" fill="white"/>
<path d="M134.899 62.4693C135.047 62.2475 135.13 61.9957 135.14 61.7375C135.17 61.3604 135.18 60.9698 135.195 60.5837C135.225 59.789 135.581 59.3714 136.273 59.3355C136.438 59.3355 136.473 59.2772 136.448 59.0706C136.403 58.7249 136.513 58.5184 136.774 58.478C136.914 58.4602 137.056 58.4872 137.175 58.5543C137.337 58.6404 137.475 58.7568 137.581 58.8955C137.7 59.0232 137.79 59.1706 137.845 59.3293C137.9 59.488 137.919 59.6549 137.902 59.8204C137.881 59.902 137.886 59.9873 137.916 60.0667C137.946 60.146 138 60.2162 138.073 60.2694C138.594 60.8173 138.94 61.4812 139.075 62.191C139.107 62.4263 139.122 62.6633 139.12 62.9003C139.114 63.3164 139.144 63.7322 139.211 64.144C139.279 64.5826 139.45 65.0033 139.712 65.3786C139.803 65.4908 139.85 65.6263 139.847 65.7647C139.847 65.9668 139.757 66.0162 139.552 65.9129L137.155 64.6513L135.205 63.6411L134.954 63.5109L134.699 63.3807C134.6 63.3287 134.524 63.2479 134.483 63.1518C134.403 62.9767 134.438 62.7567 134.558 62.7028C134.696 62.6587 134.816 62.5771 134.899 62.4693ZM136.754 62.4244L137.571 62.8464L137.782 60.9383L136.559 60.3053L136.754 62.4244ZM137.16 63.9285C137.511 64.1125 137.757 63.9868 137.757 63.677C137.744 63.5012 137.682 63.331 137.578 63.1815C137.474 63.0319 137.331 62.9076 137.16 62.8195C136.809 62.6399 136.564 62.7477 136.564 63.062C136.577 63.2389 136.638 63.4104 136.742 63.5613C136.846 63.7123 136.99 63.8383 137.16 63.9285ZM137.16 59.0661C137.025 58.9943 136.91 59.0661 136.91 59.1963C136.917 59.2727 136.943 59.3466 136.986 59.4127C137.03 59.4787 137.089 59.5352 137.16 59.578C137.184 59.5943 137.212 59.6039 137.242 59.6056C137.272 59.6074 137.302 59.6011 137.328 59.5876C137.354 59.5741 137.374 59.554 137.387 59.5299C137.4 59.5058 137.405 59.4788 137.401 59.4523C137.401 59.3743 137.378 59.2978 137.335 59.2301C137.292 59.1624 137.23 59.1059 137.155 59.0661" fill="white"/>
<path d="M143.101 81.6001L134.709 77.29C133.977 76.9129 132.237 77.4247 132.237 78.4798C132.238 78.3944 132.263 78.3106 132.311 78.2367C132.359 78.1629 132.428 78.1016 132.511 78.0589C132.593 78.0162 132.687 77.9937 132.782 77.9935C132.878 77.9933 132.972 78.0154 133.054 78.0578L141.442 82.3679C141.718 82.511 141.94 82.7253 142.079 82.9829L143.708 82.1523C143.565 81.9227 143.355 81.7319 143.101 81.6001Z" fill="#0F8654"/>
<path d="M142.078 82.9829C142.198 83.185 142.261 83.4098 142.264 83.6384V92.2631C142.263 92.3485 142.238 92.4323 142.19 92.5062C142.142 92.58 142.073 92.6413 141.99 92.684C141.908 92.7267 141.814 92.7492 141.719 92.7494C141.623 92.7496 141.53 92.7275 141.447 92.6851C141.689 92.8206 141.967 92.8963 142.252 92.9046C142.538 92.9128 142.821 92.8532 143.072 92.732C143.324 92.6107 143.535 92.432 143.684 92.2141C143.834 91.9961 143.916 91.7466 143.923 91.4909V82.8707C143.922 82.6186 143.847 82.3713 143.708 82.1523L142.078 82.9829Z" fill="#0F8654"/>
<path opacity="0.4" d="M143.101 81.6001L134.709 77.29C133.977 76.9129 132.237 77.4247 132.237 78.4798C132.238 78.3944 132.263 78.3106 132.311 78.2367C132.359 78.1629 132.428 78.1016 132.511 78.0589C132.593 78.0162 132.687 77.9937 132.782 77.9935C132.878 77.9933 132.972 78.0154 133.054 78.0578L141.442 82.3679C141.718 82.511 141.94 82.7253 142.079 82.9829L143.708 82.1523C143.565 81.9227 143.355 81.7319 143.101 81.6001Z" fill="white"/>
<path opacity="0.2" d="M142.078 82.9829C142.198 83.185 142.261 83.4098 142.264 83.6384V92.2631C142.263 92.3485 142.238 92.4323 142.19 92.5062C142.142 92.58 142.073 92.6413 141.99 92.684C141.908 92.7267 141.814 92.7492 141.719 92.7494C141.623 92.7496 141.53 92.7275 141.447 92.6851C141.689 92.8206 141.967 92.8963 142.252 92.9046C142.538 92.9128 142.821 92.8532 143.072 92.732C143.324 92.6107 143.535 92.432 143.684 92.2141C143.834 91.9961 143.916 91.7466 143.923 91.4909V82.8707C143.922 82.6186 143.847 82.3713 143.708 82.1523L142.078 82.9829Z" fill="white"/>
<path d="M133.054 78.0574L141.442 82.3675C141.692 82.4953 141.9 82.6803 142.044 82.9035C142.189 83.1267 142.265 83.3801 142.264 83.6381V92.2628C142.263 92.3482 142.238 92.432 142.19 92.5059C142.142 92.5797 142.073 92.641 141.991 92.6837C141.908 92.7263 141.814 92.7489 141.719 92.7491C141.623 92.7493 141.53 92.7272 141.447 92.6848L133.059 88.3927C132.808 88.2645 132.6 88.0789 132.456 87.8548C132.311 87.6308 132.236 87.3764 132.237 87.1176V78.4795C132.238 78.3941 132.263 78.3103 132.311 78.2364C132.359 78.1626 132.428 78.1013 132.511 78.0586C132.593 78.0159 132.687 77.9934 132.782 77.9932C132.878 77.993 132.972 78.0151 133.054 78.0574Z" fill="#0F8654"/>
<path d="M144.284 88.3076L142.279 88.6443V86.3276L144.364 88.0966C144.382 88.1132 144.394 88.1339 144.4 88.1563C144.406 88.1787 144.404 88.2021 144.396 88.2239C144.388 88.2456 144.373 88.2649 144.353 88.2797C144.333 88.2944 144.31 88.3041 144.284 88.3076Z" fill="#0F8654"/>
<path d="M142.269 86.3276L143.923 85.479L146.009 87.2749C146.024 87.2886 146.035 87.3052 146.042 87.3235C146.049 87.3418 146.051 87.3612 146.048 87.3803C146.045 87.3994 146.037 87.4176 146.025 87.4336C146.013 87.4496 145.997 87.4629 145.979 87.4724L144.329 88.2985L142.269 86.3276Z" fill="#0F8654"/>
<path opacity="0.2" d="M142.269 86.3276L143.923 85.479L146.009 87.2749C146.024 87.2886 146.035 87.3052 146.042 87.3235C146.049 87.3418 146.051 87.3612 146.048 87.3803C146.045 87.3994 146.037 87.4176 146.025 87.4336C146.013 87.4496 145.997 87.4629 145.979 87.4724L144.329 88.2985L142.269 86.3276Z" fill="white"/>
<path d="M136.218 87.688C136.327 88.1821 136.645 88.6195 137.105 88.9092H137.145C137.602 89.1471 138.048 89.0259 138.103 88.6488L136.218 87.688Z" fill="white"/>
<path d="M134.899 85.7532C135.048 85.5333 135.131 85.2828 135.14 85.0258C135.17 84.6487 135.18 84.2581 135.195 83.872C135.225 83.0728 135.581 82.6598 136.273 82.6239C136.438 82.6239 136.474 82.5655 136.448 82.359C136.403 82.0133 136.514 81.8067 136.774 81.7663C136.914 81.746 137.057 81.7732 137.175 81.8426C137.337 81.9287 137.475 82.0452 137.581 82.1839C137.7 82.3115 137.79 82.4589 137.845 82.6176C137.9 82.7764 137.92 82.9432 137.902 83.1087C137.881 83.1904 137.886 83.2757 137.916 83.355C137.946 83.4344 138 83.5046 138.073 83.5577C138.594 84.1056 138.941 84.7696 139.075 85.4793C139.107 85.7146 139.123 85.9516 139.121 86.1887C139.114 86.6047 139.144 87.0205 139.211 87.4323C139.279 87.8709 139.45 88.2916 139.712 88.667C139.803 88.7791 139.85 88.9146 139.848 89.0531C139.848 89.2551 139.757 89.3045 139.552 89.2012L137.13 87.9486L135.18 86.9384L134.929 86.8082L134.674 86.678C134.575 86.6261 134.499 86.5452 134.458 86.4491C134.378 86.274 134.413 86.054 134.533 86.0001C134.684 85.9581 134.813 85.8708 134.899 85.7532ZM136.754 85.7128L137.571 86.1303L137.782 84.2267L136.559 83.5936L136.754 85.7128ZM137.16 87.2168C137.511 87.3964 137.757 87.2752 137.757 86.9654C137.744 86.7896 137.682 86.6194 137.578 86.4698C137.474 86.3202 137.331 86.1959 137.16 86.1078C136.809 85.9238 136.564 86.036 136.564 86.3503C136.577 86.5273 136.638 86.6987 136.742 86.8497C136.846 87.0007 136.99 87.1267 137.16 87.2168ZM137.16 82.3545C137.025 82.2826 136.91 82.3545 136.91 82.4802C136.916 82.5573 136.942 82.6321 136.986 82.699C137.029 82.7659 137.089 82.8231 137.16 82.8663C137.184 82.8826 137.213 82.8923 137.243 82.894C137.272 82.8957 137.302 82.8894 137.328 82.8759C137.354 82.8624 137.374 82.8423 137.387 82.8182C137.401 82.7941 137.405 82.7671 137.401 82.7406C137.401 82.6627 137.378 82.5861 137.335 82.5184C137.292 82.4507 137.23 82.3942 137.155 82.3545" fill="white"/>
<path d="M143.101 104.865L134.709 100.569C133.977 100.192 132.237 100.704 132.237 101.759C132.238 101.673 132.263 101.589 132.311 101.516C132.359 101.442 132.428 101.38 132.511 101.338C132.593 101.295 132.687 101.272 132.782 101.272C132.878 101.272 132.972 101.294 133.054 101.337L141.442 105.647C141.718 105.79 141.94 106.004 142.079 106.262L143.708 105.431C143.567 105.197 143.357 105.001 143.101 104.865Z" fill="#0F8654"/>
<path d="M142.078 106.249C142.198 106.451 142.261 106.675 142.264 106.904V115.524C142.264 115.61 142.239 115.694 142.192 115.769C142.144 115.843 142.075 115.905 141.993 115.948C141.91 115.992 141.816 116.015 141.72 116.015C141.624 116.015 141.53 115.993 141.447 115.951C141.689 116.086 141.967 116.162 142.252 116.17C142.538 116.178 142.821 116.119 143.072 115.998C143.324 115.876 143.535 115.698 143.684 115.48C143.834 115.262 143.916 115.012 143.923 114.757V106.136C143.922 105.884 143.847 105.637 143.708 105.418L142.078 106.249Z" fill="#0F8654"/>
<path opacity="0.4" d="M143.101 104.865L134.709 100.569C133.977 100.192 132.237 100.704 132.237 101.759C132.238 101.673 132.263 101.589 132.311 101.516C132.359 101.442 132.428 101.38 132.511 101.338C132.593 101.295 132.687 101.272 132.782 101.272C132.878 101.272 132.972 101.294 133.054 101.337L141.442 105.647C141.718 105.79 141.94 106.004 142.079 106.262L143.708 105.431C143.567 105.197 143.357 105.001 143.101 104.865Z" fill="white"/>
<path opacity="0.2" d="M142.078 106.249C142.198 106.451 142.261 106.675 142.264 106.904V115.524C142.264 115.61 142.239 115.694 142.192 115.769C142.144 115.843 142.075 115.905 141.993 115.948C141.91 115.992 141.816 116.015 141.72 116.015C141.624 116.015 141.53 115.993 141.447 115.951C141.689 116.086 141.967 116.162 142.252 116.17C142.538 116.178 142.821 116.119 143.072 115.998C143.324 115.876 143.535 115.698 143.684 115.48C143.834 115.262 143.916 115.012 143.923 114.757V106.136C143.922 105.884 143.847 105.637 143.708 105.418L142.078 106.249Z" fill="white"/>
<path d="M133.054 101.323L141.442 105.633C141.692 105.761 141.9 105.946 142.044 106.169C142.189 106.392 142.265 106.646 142.264 106.904V115.524C142.264 115.61 142.239 115.694 142.192 115.769C142.144 115.843 142.076 115.905 141.993 115.948C141.91 115.991 141.816 116.014 141.72 116.015C141.624 116.015 141.53 115.993 141.447 115.95L133.059 111.658C132.809 111.53 132.601 111.344 132.456 111.12C132.312 110.896 132.236 110.642 132.237 110.383V101.745C132.238 101.66 132.263 101.576 132.311 101.502C132.359 101.428 132.428 101.367 132.511 101.324C132.593 101.282 132.687 101.259 132.782 101.259C132.878 101.259 132.972 101.281 133.054 101.323Z" fill="#0F8654"/>
<path d="M144.284 111.573L142.279 111.91V109.593L144.364 111.358C144.384 111.374 144.397 111.395 144.404 111.418C144.41 111.441 144.409 111.466 144.4 111.488C144.392 111.511 144.377 111.531 144.356 111.546C144.336 111.561 144.311 111.57 144.284 111.573Z" fill="#0F8654"/>
<path d="M142.269 109.593L143.923 108.745L146.009 110.541C146.024 110.554 146.035 110.571 146.042 110.589C146.049 110.607 146.051 110.627 146.048 110.646C146.045 110.665 146.037 110.683 146.025 110.699C146.013 110.715 145.997 110.728 145.979 110.738L144.329 111.564L142.269 109.593Z" fill="#0F8654"/>
<path opacity="0.2" d="M142.269 109.593L143.923 108.745L146.009 110.541C146.024 110.554 146.035 110.571 146.042 110.589C146.049 110.607 146.051 110.627 146.048 110.646C146.045 110.665 146.037 110.683 146.025 110.699C146.013 110.715 145.997 110.728 145.979 110.738L144.329 111.564L142.269 109.593Z" fill="white"/>
<path d="M136.218 110.954C136.326 111.447 136.644 111.883 137.105 112.17H137.145C137.602 112.404 138.048 112.287 138.103 111.91L136.218 110.954Z" fill="white"/>
<path d="M134.899 108.996C135.048 108.776 135.131 108.525 135.14 108.269C135.17 107.891 135.18 107.501 135.195 107.115C135.225 106.315 135.581 105.902 136.273 105.867C136.438 105.867 136.474 105.808 136.448 105.602C136.403 105.256 136.514 105.049 136.774 105.009C136.914 104.989 137.057 105.016 137.175 105.085C137.337 105.171 137.475 105.288 137.581 105.427C137.701 105.554 137.79 105.701 137.845 105.86C137.9 106.019 137.92 106.186 137.902 106.351C137.881 106.433 137.886 106.518 137.916 106.598C137.946 106.677 138 106.747 138.073 106.8C138.594 107.348 138.941 108.012 139.075 108.722C139.107 108.957 139.123 109.194 139.121 109.431C139.114 109.846 139.144 110.26 139.211 110.67C139.279 111.11 139.45 111.532 139.712 111.91C139.804 112.021 139.851 112.157 139.848 112.296C139.848 112.498 139.757 112.547 139.552 112.444L137.13 111.191L135.18 110.181L134.929 110.051L134.674 109.921C134.574 109.868 134.498 109.785 134.458 109.687C134.378 109.517 134.413 109.297 134.533 109.238C134.683 109.197 134.812 109.112 134.899 108.996ZM136.754 108.955L137.571 109.373L137.782 107.469L136.559 106.854L136.754 108.973V108.955ZM137.16 110.477C137.511 110.657 137.757 110.531 137.757 110.226C137.744 110.05 137.682 109.88 137.578 109.73C137.474 109.581 137.331 109.457 137.16 109.368C136.809 109.184 136.564 109.297 136.564 109.606C136.576 109.784 136.637 109.957 136.741 110.108C136.845 110.26 136.989 110.387 137.16 110.477ZM137.16 105.615C137.025 105.543 136.91 105.615 136.91 105.741C136.915 105.818 136.941 105.892 136.985 105.958C137.028 106.024 137.088 106.081 137.16 106.122C137.291 106.19 137.401 106.122 137.401 105.992C137.4 105.915 137.377 105.839 137.334 105.773C137.291 105.706 137.229 105.65 137.155 105.611" fill="white"/>
<path d="M143.101 128.131L134.709 123.821C133.977 123.44 132.237 123.951 132.237 125.011C132.236 124.925 132.261 124.84 132.308 124.766C132.356 124.691 132.425 124.629 132.508 124.586C132.591 124.543 132.686 124.521 132.782 124.521C132.877 124.522 132.972 124.545 133.054 124.589L141.442 128.899C141.718 129.042 141.94 129.256 142.078 129.514L143.708 128.683C143.566 128.453 143.356 128.262 143.101 128.131Z" fill="#0F8654"/>
<path d="M142.078 129.514C142.198 129.716 142.261 129.941 142.264 130.169V138.789C142.264 138.875 142.239 138.96 142.192 139.034C142.144 139.108 142.075 139.17 141.993 139.214C141.91 139.257 141.816 139.28 141.72 139.28C141.624 139.281 141.53 139.258 141.447 139.216C141.689 139.351 141.967 139.427 142.252 139.435C142.538 139.444 142.821 139.384 143.072 139.263C143.324 139.141 143.535 138.963 143.684 138.745C143.834 138.527 143.916 138.277 143.923 138.022V129.401C143.922 129.149 143.847 128.902 143.708 128.683L142.078 129.514Z" fill="#0F8654"/>
<path opacity="0.4" d="M143.101 128.131L134.709 123.821C133.977 123.44 132.237 123.951 132.237 125.011C132.236 124.925 132.261 124.84 132.308 124.766C132.356 124.691 132.425 124.629 132.508 124.586C132.591 124.543 132.686 124.521 132.782 124.521C132.877 124.522 132.972 124.545 133.054 124.589L141.442 128.899C141.718 129.042 141.94 129.256 142.078 129.514L143.708 128.683C143.566 128.453 143.356 128.262 143.101 128.131Z" fill="white"/>
<path opacity="0.2" d="M142.078 129.514C142.198 129.716 142.261 129.941 142.264 130.169V138.789C142.264 138.875 142.239 138.96 142.192 139.034C142.144 139.108 142.075 139.17 141.993 139.214C141.91 139.257 141.816 139.28 141.72 139.28C141.624 139.281 141.53 139.258 141.447 139.216C141.689 139.351 141.967 139.427 142.252 139.435C142.538 139.444 142.821 139.384 143.072 139.263C143.324 139.141 143.535 138.963 143.684 138.745C143.834 138.527 143.916 138.277 143.923 138.022V129.401C143.922 129.149 143.847 128.902 143.708 128.683L142.078 129.514Z" fill="white"/>
<path d="M133.054 124.589L141.442 128.899C141.692 129.026 141.9 129.211 142.044 129.435C142.189 129.658 142.264 129.911 142.264 130.169V138.789C142.264 138.875 142.239 138.96 142.192 139.034C142.144 139.109 142.075 139.17 141.993 139.214C141.91 139.257 141.816 139.28 141.72 139.28C141.624 139.281 141.53 139.258 141.447 139.216L133.059 134.924C132.809 134.795 132.6 134.61 132.456 134.386C132.312 134.162 132.236 133.907 132.237 133.649V125.011C132.236 124.925 132.261 124.84 132.308 124.765C132.356 124.691 132.425 124.629 132.508 124.586C132.591 124.543 132.686 124.521 132.782 124.521C132.877 124.521 132.972 124.545 133.054 124.589Z" fill="#0F8654"/>
<path d="M144.284 134.839L142.279 135.176V132.859L144.364 134.623C144.384 134.64 144.397 134.661 144.404 134.684C144.41 134.707 144.409 134.731 144.4 134.754C144.392 134.776 144.377 134.796 144.356 134.811C144.336 134.826 144.311 134.836 144.284 134.839Z" fill="#0F8654"/>
<path d="M142.269 132.859L143.923 132.01L146.009 133.806C146.024 133.82 146.035 133.836 146.042 133.855C146.049 133.873 146.051 133.892 146.048 133.912C146.045 133.931 146.037 133.949 146.025 133.965C146.013 133.981 145.997 133.994 145.979 134.004L144.329 134.83L142.269 132.859Z" fill="#0F8654"/>
<path opacity="0.2" d="M142.269 132.859L143.923 132.01L146.009 133.806C146.024 133.82 146.035 133.836 146.042 133.855C146.049 133.873 146.051 133.892 146.048 133.912C146.045 133.931 146.037 133.949 146.025 133.965C146.013 133.981 145.997 133.994 145.979 134.004L144.329 134.83L142.269 132.859Z" fill="white"/>
<path d="M136.218 134.242C136.326 134.735 136.644 135.171 137.105 135.458H137.145C137.602 135.692 138.048 135.575 138.103 135.194L136.218 134.242Z" fill="white"/>
<path d="M134.899 132.262C135.048 132.042 135.131 131.791 135.14 131.534C135.17 131.153 135.18 130.767 135.195 130.376C135.225 129.581 135.581 129.168 136.273 129.132C136.438 129.132 136.474 129.074 136.448 128.863C136.403 128.517 136.514 128.315 136.774 128.275C136.913 128.255 137.056 128.281 137.175 128.347C137.336 128.436 137.474 128.554 137.581 128.693C137.701 128.82 137.79 128.967 137.845 129.126C137.9 129.285 137.92 129.452 137.902 129.617C137.881 129.699 137.886 129.784 137.916 129.864C137.946 129.943 138 130.013 138.073 130.066C138.595 130.614 138.942 131.278 139.075 131.988C139.108 132.223 139.123 132.46 139.121 132.697C139.114 133.112 139.144 133.526 139.211 133.936C139.279 134.375 139.45 134.796 139.712 135.171C139.804 135.285 139.851 135.422 139.848 135.562C139.848 135.764 139.757 135.813 139.552 135.71L137.13 134.457L135.18 133.447L134.929 133.317L134.674 133.182C134.575 133.13 134.499 133.049 134.458 132.953C134.378 132.783 134.413 132.563 134.533 132.504C134.682 132.461 134.81 132.376 134.899 132.262ZM136.754 132.217L137.571 132.639L137.782 130.735L136.559 130.102L136.754 132.217ZM137.16 133.725C137.511 133.905 137.757 133.779 137.757 133.474C137.745 133.298 137.684 133.127 137.58 132.977C137.476 132.828 137.332 132.704 137.16 132.616C136.809 132.432 136.564 132.545 136.564 132.854C136.576 133.032 136.637 133.205 136.741 133.356C136.845 133.508 136.989 133.635 137.16 133.725ZM137.16 128.859C137.136 128.841 137.106 128.831 137.075 128.828C137.044 128.826 137.012 128.833 136.985 128.847C136.958 128.861 136.936 128.882 136.923 128.907C136.909 128.933 136.905 128.961 136.91 128.989C136.915 129.066 136.941 129.14 136.985 129.206C137.028 129.272 137.088 129.329 137.16 129.37C137.291 129.438 137.401 129.37 137.401 129.24C137.398 129.163 137.374 129.087 137.332 129.02C137.289 128.953 137.228 128.896 137.155 128.854" fill="white"/>
<path d="M85.9533 156.56L57.8382 141.834C56.9475 141.366 56.2761 140.626 55.9479 139.749C55.6198 138.873 55.6573 137.919 56.0534 137.066L57.4722 134.013L56.7102 135.651C56.3472 136.436 56.3171 137.312 56.6255 138.115C56.934 138.918 57.5596 139.592 58.3847 140.011L88.9664 155.505C88.8774 155.773 88.7214 156.019 88.5103 156.224C88.2991 156.43 88.0383 156.59 87.7477 156.692C87.4571 156.793 87.1445 156.834 86.8335 156.812C86.5226 156.789 86.2215 156.703 85.9533 156.56Z" fill="#37474F"/>
<path d="M58.0789 125.949L60.5856 127.296L57.4672 134.031L56.0484 137.084C55.6523 137.937 55.6148 138.891 55.943 139.767C56.2711 140.644 56.9426 141.384 57.8332 141.852L85.9483 156.578C86.2164 156.72 86.517 156.805 86.8273 156.827C87.1376 156.85 87.4496 156.809 87.7395 156.707C88.0294 156.605 88.2897 156.446 88.5005 156.241C88.7113 156.035 88.8672 155.79 88.9564 155.523L90.9617 156.533L128.693 136.98L129.911 148.429L127.931 148.694L127.785 147.917C127.725 147.61 127.583 147.32 127.372 147.073C127.16 146.825 126.885 146.627 126.57 146.495C126.254 146.363 125.908 146.3 125.56 146.314C125.213 146.327 124.873 146.415 124.572 146.57L96.7572 160.901C95.6221 161.486 94.6989 162.352 94.098 163.394C93.497 164.436 93.2437 165.611 93.3682 166.778L93.4634 167.676H91.4581L91.047 165.503C90.8809 164.614 90.4966 163.768 89.9219 163.028C89.3471 162.287 88.5962 161.67 87.7231 161.22L55.5872 144.644C55.2814 144.486 54.9422 144.386 54.5912 144.351C54.2401 144.316 53.8847 144.346 53.5475 144.441C53.2102 144.535 52.8984 144.69 52.6316 144.898C52.3649 145.105 52.149 145.36 51.9976 145.645L48.9545 151.365C48.9545 151.365 47.9518 151.846 47.5708 150.984L58.0789 125.949Z" fill="#455A64"/>
<path d="M93.8294 97.7227L124.04 118.68C124.961 119.32 125.726 120.122 126.288 121.036C126.85 121.95 127.197 122.957 127.309 123.996L130.693 155.792C130.506 155.948 130.267 156.044 130.013 156.064C129.758 156.084 129.504 156.028 129.289 155.904L123.273 123.983C123.171 123.439 122.939 122.922 122.593 122.466C122.247 122.011 121.795 121.627 121.268 121.343L94.5664 107.012C91.067 105.149 90.4554 98.5622 93.8294 97.7227Z" fill="#455A64"/>
<path opacity="0.3" d="M93.8294 97.7227L124.04 118.68C124.961 119.32 125.726 120.122 126.288 121.036C126.85 121.95 127.197 122.957 127.309 123.996L130.693 155.792C130.506 155.948 130.267 156.044 130.013 156.064C129.758 156.084 129.504 156.028 129.289 155.904L123.273 123.983C123.171 123.439 122.939 122.922 122.593 122.466C122.247 122.011 121.795 121.627 121.268 121.343L94.5664 107.012C91.067 105.149 90.4554 98.5622 93.8294 97.7227Z" fill="white"/>
<path d="M59.2219 133.9C59.3563 133.577 59.6137 133.307 59.9489 133.137L90.2398 117.477C90.8801 117.144 91.6074 116.968 92.348 116.968C93.0885 116.968 93.8158 117.144 94.4561 117.477L124.536 133.128C124.873 133.3 125.131 133.574 125.263 133.9C126.126 135.328 126.416 138.569 125.213 140.635C125.055 140.905 124.817 141.131 124.526 141.29L94.2505 156.95C93.6098 157.282 92.8826 157.457 92.1424 157.457C91.4022 157.457 90.6751 157.282 90.0343 156.95L59.9539 141.299C59.6581 141.144 59.422 140.913 59.2771 140.635C58.0689 138.569 58.3596 135.328 59.2219 133.9Z" fill="#0F8654"/>
<path opacity="0.3" d="M59.2219 133.9C59.3563 133.577 59.6137 133.307 59.9489 133.137L90.2398 117.477C90.8801 117.144 91.6074 116.968 92.348 116.968C93.0885 116.968 93.8158 117.144 94.4561 117.477L124.536 133.128C124.873 133.3 125.131 133.574 125.263 133.9C126.126 135.328 126.416 138.569 125.213 140.635C125.055 140.905 124.817 141.131 124.526 141.29L94.2505 156.95C93.6098 157.282 92.8826 157.457 92.1424 157.457C91.4022 157.457 90.6751 157.282 90.0343 156.95L59.9539 141.299C59.6581 141.144 59.422 140.913 59.2771 140.635C58.0689 138.569 58.3596 135.328 59.2219 133.9Z" fill="white"/>
<path opacity="0.3" d="M59.2219 133.9C59.078 134.235 59.0716 134.604 59.2039 134.942C59.3362 135.28 59.5985 135.565 59.9439 135.746L90.0243 151.397C90.665 151.729 91.3922 151.903 92.1324 151.903C92.8726 151.903 93.5997 151.729 94.2405 151.397L124.531 135.732C124.877 135.555 125.14 135.273 125.274 134.937C125.408 134.601 125.405 134.234 125.263 133.9C126.126 135.328 126.416 138.57 125.213 140.635C125.055 140.905 124.817 141.132 124.526 141.29L94.2505 156.95C93.6098 157.282 92.8826 157.457 92.1424 157.457C91.4022 157.457 90.6751 157.282 90.0343 156.95L59.9539 141.299C59.6581 141.145 59.422 140.913 59.2771 140.635C58.0689 138.57 58.3596 135.328 59.2219 133.9Z" fill="black"/>
<path d="M56.7202 104.161L85.3617 89.3447C85.6161 89.2121 85.9046 89.1409 86.199 89.1382H86.3393C88.9563 89.1606 91.0068 90.5569 92.5259 92.2002C92.5501 92.2189 92.572 92.24 92.5911 92.263C92.7436 92.4319 92.8546 92.6277 92.9169 92.8377L101.134 120.225C101.378 121.003 101.327 121.831 100.988 122.58C100.65 123.33 100.043 123.957 99.2639 124.364L70.6274 139.18C70.3239 139.337 69.9741 139.408 69.6247 139.382C66.3459 139.077 64.4158 137.263 63.4482 136.307C63.2646 136.123 63.1323 135.903 63.0621 135.665L54.8452 108.278C54.6078 107.502 54.6629 106.678 55.0019 105.934C55.341 105.19 55.945 104.566 56.7202 104.161Z" fill="#0F8654"/>
<path opacity="0.2" d="M56.7202 104.161L85.3617 89.3447C85.6161 89.2121 85.9046 89.1409 86.199 89.1382H86.3393C88.9563 89.1606 91.0068 90.5569 92.5259 92.2002C92.5501 92.2189 92.572 92.24 92.5911 92.263C92.7436 92.4319 92.8546 92.6277 92.9169 92.8377L101.134 120.225C101.378 121.003 101.327 121.831 100.988 122.58C100.65 123.33 100.043 123.957 99.2639 124.364L70.6274 139.18C70.3239 139.337 69.9741 139.408 69.6247 139.382C66.3459 139.077 64.4158 137.263 63.4482 136.307C63.2646 136.123 63.1323 135.903 63.0621 135.665L54.8452 108.278C54.6078 107.502 54.6629 106.678 55.0019 105.934C55.341 105.19 55.945 104.566 56.7202 104.161Z" fill="white"/>
<path opacity="0.1" d="M56.7202 104.161L85.3618 89.3447C85.6161 89.2121 85.9046 89.1409 86.199 89.1382H86.3394C88.9564 89.1606 91.0068 90.5569 92.5259 92.2002C92.2589 91.9384 91.9001 91.7663 91.5089 91.7124C91.1176 91.6585 90.7176 91.7261 90.3751 91.9038L61.7336 106.72C60.9193 107.143 60.294 107.807 59.9639 108.596L54.9505 106.01C55.2868 105.231 55.9115 104.578 56.7202 104.161Z" fill="black"/>
<path opacity="0.2" d="M59.9639 108.574C59.6571 109.291 59.6132 110.078 59.8386 110.819L68.0555 138.206C68.1481 138.517 68.3464 138.795 68.623 139.001C68.8997 139.207 69.241 139.331 69.5997 139.355C66.3209 139.05 64.3907 137.236 63.4232 136.28C63.2396 136.096 63.1073 135.876 63.0371 135.638L54.8202 108.251C54.5994 107.508 54.6468 106.723 54.9555 106.006L59.9639 108.574Z" fill="black"/>
<path d="M120.115 153.718C119.781 155.29 119.592 156.885 119.548 158.486L118.315 158.037C117.717 157.832 117.065 157.79 116.44 157.916C115.816 158.042 115.247 158.331 114.805 158.746L114.745 158.804C114.521 159.017 114.213 159.143 113.887 159.156C113.56 159.169 113.241 159.069 112.996 158.876C112.864 158.774 112.758 158.649 112.684 158.508C112.61 158.368 112.569 158.215 112.564 158.059L112.394 153.264L120.115 153.718Z" fill="#FFA8A7"/>
<path d="M115.262 171.528C117.869 174.029 122.677 176.216 126.166 174.083L125.775 174.878C122.265 177.01 117.478 174.824 114.871 172.328C112.264 169.831 113.953 168.094 111.607 165.876C110.721 165.12 110.028 164.201 109.577 163.182C109.682 162.944 109.777 162.63 109.902 162.284C110.409 163.325 111.118 164.277 111.998 165.095C114.344 167.299 112.65 169.032 115.262 171.528Z" fill="white"/>
<path d="M111.186 159.658C111.59 159.147 111.87 158.565 112.008 157.952C112.032 157.811 112.089 157.677 112.175 157.557C112.262 157.438 112.375 157.337 112.509 157.26L112.539 158.064C112.546 158.288 112.627 158.504 112.772 158.687C112.917 158.869 113.118 159.009 113.352 159.089C113.585 159.169 113.84 159.185 114.083 159.135C114.327 159.085 114.549 158.972 114.72 158.809L114.78 158.751C115.222 158.336 115.791 158.047 116.415 157.921C117.04 157.794 117.692 157.836 118.29 158.041L119.568 158.49C119.756 158.557 119.918 158.672 120.032 158.822C120.145 158.972 120.206 159.149 120.205 159.33C120.12 162.607 121.829 166.962 123.624 169.351C125.469 170.038 127.058 172.287 126.246 173.935L126.166 174.101C122.656 176.234 117.869 174.047 115.262 171.546C112.655 169.046 114.344 167.317 111.998 165.099C111.118 164.281 110.409 163.33 109.902 162.289C110.191 161.362 110.623 160.477 111.186 159.658Z" fill="#0F8654"/>
<path opacity="0.2" d="M111.186 159.658C111.59 159.147 111.87 158.565 112.008 157.952C112.032 157.811 112.089 157.677 112.175 157.557C112.262 157.438 112.375 157.337 112.509 157.26L112.539 158.064C112.546 158.288 112.627 158.504 112.772 158.687C112.917 158.869 113.118 159.009 113.352 159.089C113.585 159.169 113.84 159.185 114.083 159.135C114.327 159.085 114.549 158.972 114.72 158.809L114.78 158.751C115.222 158.336 115.791 158.047 116.415 157.921C117.04 157.794 117.692 157.836 118.29 158.041L119.568 158.49C119.756 158.557 119.918 158.672 120.032 158.822C120.145 158.972 120.206 159.149 120.205 159.33C120.12 162.607 121.829 166.962 123.624 169.351C125.469 170.038 127.058 172.287 126.246 173.935L126.166 174.101C122.656 176.234 117.869 174.047 115.262 171.546C112.655 169.046 114.344 167.317 111.998 165.099C111.118 164.281 110.409 163.33 109.902 162.289C110.191 161.362 110.623 160.477 111.186 159.658Z" fill="white"/>
<path d="M116.309 164.39C116.257 164.413 116.201 164.426 116.143 164.43C116.085 164.433 116.027 164.426 115.972 164.41C115.917 164.393 115.866 164.367 115.823 164.332C115.779 164.298 115.744 164.257 115.718 164.21C115.691 164.165 115.674 164.115 115.668 164.064C115.663 164.012 115.668 163.961 115.685 163.911C115.702 163.862 115.729 163.816 115.766 163.777C115.803 163.737 115.848 163.704 115.898 163.68C116.663 163.293 117.527 163.089 118.405 163.089C119.284 163.089 120.147 163.293 120.912 163.68C120.987 163.936 121.072 164.192 121.157 164.448C120.424 164.063 119.592 163.855 118.742 163.845C117.892 163.834 117.054 164.022 116.309 164.39Z" fill="white"/>
<path d="M115.653 162.616C115.548 162.665 115.425 162.675 115.312 162.643C115.2 162.611 115.106 162.54 115.051 162.446C114.997 162.352 114.986 162.242 115.022 162.141C115.058 162.04 115.137 161.956 115.242 161.907C116.043 161.515 116.942 161.313 117.854 161.32C118.767 161.328 119.662 161.543 120.456 161.947C120.506 162.212 120.571 162.482 120.636 162.751C119.112 162.033 117.578 161.745 115.653 162.616Z" fill="white"/>
<path d="M116.996 166.154C116.891 166.2 116.77 166.206 116.66 166.173C116.549 166.139 116.458 166.068 116.405 165.975C116.352 165.882 116.341 165.775 116.376 165.676C116.411 165.577 116.488 165.494 116.59 165.445C117.337 165.068 118.178 164.866 119.035 164.858C119.893 164.85 120.738 165.037 121.493 165.4C121.604 165.678 121.719 165.948 121.839 166.217C121.107 165.832 120.276 165.624 119.427 165.613C118.578 165.602 117.741 165.788 116.996 166.154Z" fill="white"/>
<path d="M123.624 169.333C125.469 170.02 127.058 172.269 126.246 173.917L126.166 174.083C122.727 176.184 118.019 174.083 115.382 171.641C117.578 167.784 122.17 168.745 123.624 169.333Z" fill="white"/>
<path d="M117.768 167.874C117.716 167.897 117.66 167.91 117.602 167.914C117.544 167.917 117.486 167.911 117.431 167.894C117.376 167.877 117.325 167.851 117.282 167.817C117.238 167.782 117.202 167.741 117.177 167.694C117.125 167.602 117.114 167.495 117.148 167.397C117.182 167.298 117.257 167.215 117.357 167.164C118.107 166.787 118.951 166.587 119.811 166.58C120.671 166.574 121.519 166.763 122.275 167.128C122.431 167.434 122.591 167.726 122.777 168.026C121.233 167.29 119.699 167.016 117.768 167.874Z" fill="white"/>
<path d="M125.599 163.245C125.999 164.798 126.541 166.319 127.219 167.793L125.88 167.861C125.243 167.891 124.63 168.089 124.118 168.43C123.606 168.771 123.218 169.24 123.002 169.778L122.972 169.849C122.862 170.125 122.637 170.351 122.344 170.48C122.052 170.61 121.714 170.633 121.403 170.545C121.237 170.501 121.084 170.425 120.952 170.324C120.821 170.222 120.715 170.098 120.641 169.957L118.315 165.629L125.599 163.245Z" fill="#FFA8A7"/>
<path d="M129.189 181.298C132.698 182.645 138.083 182.905 140.314 179.69V180.561C138.083 183.772 132.703 183.511 129.189 182.169C125.674 180.826 126.442 178.626 123.293 177.446C122.141 177.071 121.093 176.478 120.22 175.708C120.22 175.452 120.16 175.133 120.11 174.761C121.042 175.531 122.12 176.146 123.293 176.579C126.442 177.76 125.674 179.955 129.189 181.298Z" fill="white"/>
<path d="M120.11 171.91C120.254 171.297 120.254 170.664 120.11 170.051C120.069 169.912 120.063 169.767 120.09 169.625C120.118 169.483 120.179 169.348 120.27 169.23L120.661 169.957C120.735 170.097 120.841 170.222 120.972 170.324C121.104 170.425 121.257 170.5 121.423 170.545C121.734 170.633 122.072 170.61 122.364 170.48C122.657 170.35 122.882 170.124 122.992 169.849L123.022 169.777C123.238 169.24 123.626 168.771 124.138 168.43C124.65 168.089 125.263 167.891 125.9 167.86L127.264 167.793C127.466 167.787 127.666 167.835 127.836 167.932C128.007 168.029 128.142 168.17 128.221 168.336C129.625 171.362 133.149 174.725 135.867 176.27C137.872 176.225 140.334 177.711 140.334 179.511V179.691C138.103 182.905 132.723 182.64 129.209 181.298C125.695 179.956 126.462 177.76 123.313 176.579C122.14 176.147 121.062 175.531 120.13 174.761C119.976 173.816 119.969 172.857 120.11 171.91Z" fill="#0F8654"/>
<path opacity="0.2" d="M120.11 171.91C120.254 171.297 120.254 170.664 120.11 170.051C120.069 169.912 120.063 169.767 120.09 169.625C120.118 169.483 120.179 169.348 120.27 169.23L120.661 169.957C120.735 170.097 120.841 170.222 120.972 170.324C121.104 170.425 121.257 170.5 121.423 170.545C121.734 170.633 122.072 170.61 122.364 170.48C122.657 170.35 122.882 170.124 122.992 169.849L123.022 169.777C123.238 169.24 123.626 168.771 124.138 168.43C124.65 168.089 125.263 167.891 125.9 167.86L127.264 167.793C127.466 167.787 127.666 167.835 127.836 167.932C128.007 168.029 128.142 168.17 128.221 168.336C129.625 171.362 133.149 174.725 135.867 176.27C137.872 176.225 140.334 177.711 140.334 179.511V179.691C138.103 182.905 132.723 182.64 129.209 181.298C125.695 179.956 126.462 177.76 123.313 176.579C122.14 176.147 121.062 175.531 120.13 174.761C119.976 173.816 119.969 172.857 120.11 171.91Z" fill="white"/>
<path d="M126.913 174.393C126.838 174.475 126.73 174.528 126.612 174.54C126.494 174.551 126.376 174.52 126.284 174.453C126.191 174.386 126.132 174.29 126.119 174.184C126.107 174.078 126.141 173.972 126.216 173.89C126.745 173.263 127.445 172.768 128.25 172.453C129.054 172.139 129.935 172.015 130.808 172.094C130.994 172.305 131.184 172.507 131.38 172.709C130.536 172.619 129.681 172.727 128.898 173.023C128.115 173.318 127.431 173.79 126.913 174.393Z" fill="white"/>
<path d="M125.524 173.001C125.446 173.072 125.342 173.114 125.232 173.12C125.122 173.125 125.013 173.094 124.927 173.032C124.84 172.97 124.783 172.881 124.766 172.784C124.748 172.686 124.772 172.586 124.832 172.503C125.387 171.854 126.119 171.343 126.957 171.019C127.795 170.696 128.712 170.569 129.62 170.653C129.79 170.877 129.966 171.102 130.146 171.322C128.432 171.214 126.898 171.506 125.524 173.001Z" fill="white"/>
<path d="M128.342 175.749C128.264 175.819 128.16 175.861 128.05 175.867C127.939 175.873 127.83 175.842 127.744 175.779C127.658 175.717 127.601 175.629 127.583 175.531C127.566 175.433 127.59 175.333 127.65 175.25C128.166 174.639 128.846 174.154 129.627 173.84C130.407 173.526 131.264 173.394 132.117 173.454C132.342 173.67 132.573 173.876 132.804 174.078C131.962 173.988 131.109 174.094 130.327 174.387C129.545 174.679 128.861 175.149 128.342 175.749Z" fill="white"/>
<path d="M135.862 176.27C137.867 176.225 140.329 177.711 140.329 179.511V179.691C138.128 182.833 132.879 182.645 129.364 181.356C129.62 177.033 134.252 176.252 135.862 176.27Z" fill="white"/>
<path d="M129.846 177.046C129.77 177.124 129.664 177.174 129.549 177.183C129.434 177.193 129.319 177.162 129.229 177.098C129.139 177.033 129.08 176.94 129.065 176.837C129.05 176.735 129.08 176.631 129.149 176.548C129.666 175.934 130.349 175.448 131.132 175.134C131.916 174.82 132.775 174.689 133.631 174.752C133.912 174.976 134.187 175.201 134.468 175.385C132.738 175.259 131.204 175.546 129.846 177.046Z" fill="white"/>
<path d="M104.954 122.312L122.546 131.099C124.14 131.894 125.415 133.117 126.192 134.596C126.968 136.075 127.206 137.735 126.873 139.342L123.459 155.792L126.261 163.757C123.83 166.662 118.315 166.81 118.315 166.81C115.222 161.256 112.95 158.894 111.196 154.239C109.441 149.583 108.253 146.364 108.253 146.364L93.6439 142.772C90.3029 141.959 87.3109 140.268 85.0543 137.916C82.7977 135.565 81.3803 132.661 80.9851 129.581C80.7394 127.606 80.7244 126.254 80.7244 126.254L104.954 122.312Z" fill="#455A64"/>
<path d="M104.954 122.312L122.546 131.099C124.14 131.894 125.415 133.117 126.192 134.596C126.968 136.075 127.206 137.735 126.873 139.342L123.459 155.792L126.261 163.757C123.83 166.662 118.315 166.81 118.315 166.81C115.222 161.256 112.95 158.894 111.196 154.239C109.441 149.583 108.253 146.364 108.253 146.364L93.6439 142.772C90.3029 141.959 87.3109 140.268 85.0543 137.916C82.7977 135.565 81.3803 132.661 80.9851 129.581C80.7394 127.606 80.7244 126.254 80.7244 126.254L104.954 122.312Z" fill="#37474F"/>
<path opacity="0.2" d="M104.824 126.739C104.824 128.5 104.128 130.203 102.859 131.548L115.267 138.507C117.089 139.527 118.439 141.102 119.067 142.943L123.459 155.792L119.498 141.465C119.042 139.817 117.883 138.394 116.269 137.501L104.809 131.162C105.982 128.544 104.824 126.739 104.824 126.739Z" fill="black"/>
<path d="M103.054 95.2529H103.505C106.543 95.2799 110.389 97.1341 112.269 101.88L119.568 114.541L111.236 117.849L106.674 105.902L103.054 95.2529Z" fill="#0F8654"/>
<g opacity="0.2">
<path opacity="0.2" d="M103.054 95.2529H103.505C106.543 95.2799 110.389 97.1341 112.269 101.88L119.568 114.541L111.236 117.849L106.674 105.902L103.054 95.2529Z" fill="black"/>
</g>
<path opacity="0.2" d="M108.905 103.653C109.486 105.148 109.521 106.76 109.617 108.345C109.712 109.93 109.912 111.834 110.719 113.243C111.61 112.688 112.679 112.406 113.763 112.441C114.848 112.476 115.891 112.825 116.736 113.436C117.339 113.892 117.803 114.477 118.084 115.138L111.246 117.854L106.684 105.907L104.443 99.3164C105.47 99.7382 106.394 100.339 107.16 101.083C107.926 101.828 108.519 102.702 108.905 103.653Z" fill="black"/>
<path d="M111.156 115.569C111.475 114.866 111.988 114.246 112.648 113.769C113.307 113.292 114.091 112.972 114.926 112.839C115.796 112.761 116.675 112.876 117.485 113.173C118.295 113.471 119.01 113.942 119.568 114.546C120.476 115.529 120.335 116.862 119.759 118.03C119.279 118.937 118.463 119.668 117.449 120.098C116.435 120.527 115.287 120.629 114.199 120.387C112.048 119.848 110.344 117.437 111.156 115.569Z" fill="#0F8654"/>
<g opacity="0.2">
<path opacity="0.2" d="M111.156 115.569C111.475 114.866 111.988 114.246 112.648 113.769C113.307 113.292 114.091 112.972 114.926 112.839C115.796 112.761 116.675 112.876 117.485 113.173C118.295 113.471 119.01 113.942 119.568 114.546C120.476 115.529 120.335 116.862 119.759 118.03C119.279 118.937 118.463 119.668 117.449 120.098C116.435 120.527 115.287 120.629 114.199 120.387C112.048 119.848 110.344 117.437 111.156 115.569Z" fill="black"/>
</g>
<path d="M80.4437 127.507C83.567 130.201 98.5521 130.681 106.197 124.162C105.466 119.56 105.696 114.63 106.197 109.755C106.699 104.879 109.867 96.3529 103.791 95.3607C95.6744 93.9419 91.5784 95.2484 84.9507 96.7929C79.1602 105.431 79.9574 118.361 80.4437 127.507Z" fill="#0F8654"/>
<path opacity="0.2" d="M80.4437 127.507C83.567 130.201 98.5521 130.681 106.197 124.162C105.466 119.56 105.696 114.63 106.197 109.755C106.699 104.879 109.867 96.3529 103.791 95.3607C95.6744 93.9419 91.5784 95.2484 84.9507 96.7929C79.1602 105.431 79.9574 118.361 80.4437 127.507Z" fill="black"/>
<path opacity="0.2" d="M89.3124 117.913C88.9915 113.118 89.3124 104.96 87.5527 102.576L82.7198 101.018C79.7518 108.377 79.9223 117.473 80.2933 124.849C83.5493 126.529 87.115 127.672 90.8214 128.226C92.3655 128.481 93.9247 128.675 95.4889 128.787C99.4144 128.059 103.32 126.6 106.187 124.153C106.087 123.538 106.012 122.91 105.947 122.281C102.162 122.092 98.4236 121.445 94.8321 120.36C94.1627 119.62 93.323 119.019 92.3705 118.597C91.4179 118.174 90.3748 117.941 89.3124 117.913Z" fill="black"/>
<path opacity="0.15" d="M102.558 127.184C102.558 127.184 102.558 127.184 102.558 127.161C102.558 127.139 102.558 127.161 102.558 127.134V127.112V127.085C102.558 127.085 102.558 127.085 102.558 127.058V127.035L108.012 117.944L108.764 118.712L103.31 127.803C103.275 127.854 103.251 127.911 103.24 127.969C103.234 127.986 103.233 128.004 103.238 128.022C103.242 128.039 103.251 128.055 103.265 128.068L102.513 127.305V127.269C102.513 127.269 102.513 127.246 102.513 127.237L102.558 127.184Z" fill="white"/>
<path opacity="0.2" d="M108.103 117.886V117.859V117.832V117.805V117.774V117.747V117.715L108.128 117.688V117.661V117.634V117.612L108.208 117.549H108.233H108.263H108.298H108.333H108.368L114.64 114.406H114.675H114.71H114.745H114.78H114.811H114.846H114.876H114.911H114.946H115.061C115.079 114.406 115.097 114.409 115.113 114.415C115.129 114.422 115.144 114.431 115.156 114.442L115.903 115.21C115.873 115.174 115.808 115.165 115.718 115.183C115.597 115.211 115.481 115.253 115.372 115.309L109.1 118.451C108.977 118.515 108.858 118.585 108.744 118.662C108.624 118.748 108.509 118.833 108.398 118.927C108.293 119.016 108.194 119.11 108.103 119.21C108.025 119.294 107.956 119.384 107.897 119.48L107.145 118.712L108.103 117.886Z" fill="white"/>
<path d="M111.256 121.343C111.256 121.343 107.295 123.138 105.541 122.151L106.468 120.606C103.976 120.572 101.547 121.311 99.5948 122.698C95.8496 122.085 92.1935 121.095 88.6956 119.749L87.4523 119.3L81.1505 123.992C85.447 126.483 105.716 128.189 107.822 127.027C109.927 125.864 111.542 123.556 111.256 121.343Z" fill="#FFA8A7"/>
<path d="M115.537 116.768C115.67 117.359 115.747 117.96 115.768 118.563C115.606 120.013 114.919 121.375 113.813 122.443C113.583 122.676 113.294 122.858 112.971 122.972C112.809 123.026 112.634 123.041 112.464 123.017C112.293 122.993 112.133 122.929 111.998 122.833C111.762 122.583 111.64 122.262 111.657 121.935C111.604 121.445 111.634 120.95 111.747 120.467C111.859 119.98 112.166 119.546 112.61 119.246C112.955 119.058 113.323 118.907 113.707 118.797C114.083 118.656 114.418 118.439 114.685 118.164L115.537 116.768Z" fill="#FFA8A7"/>
<path d="M87.4524 119.286L87.6429 104.111C87.6686 102.061 87.1058 100.038 86.0085 98.2385L84.9507 96.7974C84.1071 96.8727 83.2981 97.1361 82.5975 97.5635C81.8968 97.9909 81.327 98.5688 80.94 99.2442C79.4745 101.499 78.7953 104.094 78.9898 106.697C78.9898 106.697 78.323 122.339 81.1505 123.978L87.4524 119.286Z" fill="#0F8654"/>
<path d="M91.6836 119.906L87.4523 119.287L81.1505 123.978C83.0004 125.258 87.4323 126.632 90.3551 127.274C91.2506 127.47 92.1884 127.45 93.0723 127.215L93.5737 127.085L94.5413 121.222C93.7649 120.527 92.7659 120.068 91.6836 119.906Z" fill="#0F8654"/>
<g opacity="0.2">
<path opacity="0.2" d="M87.4524 119.286L87.6429 104.111C87.6686 102.061 87.1058 100.038 86.0085 98.2385L84.9507 96.7974C84.1071 96.8727 83.2981 97.1361 82.5975 97.5635C81.8968 97.9909 81.327 98.5688 80.94 99.2442C79.4745 101.499 78.7953 104.094 78.9898 106.697C78.9898 106.697 78.323 122.339 81.1505 123.978L87.4524 119.286Z" fill="black"/>
<path opacity="0.2" d="M91.6837 119.906L87.4524 119.286L81.1506 123.978C83.0005 125.257 87.4324 126.631 90.3552 127.273C91.2507 127.47 92.1885 127.45 93.0724 127.215L93.5738 127.085L94.5414 121.221C93.765 120.527 92.766 120.067 91.6837 119.906Z" fill="black"/>
</g>
<path d="M98.2613 122.479C96.3411 123.354 97.3237 126.82 97.6998 127.085L98.2613 127.13C98.1689 127.27 98.0342 127.383 97.8726 127.457C97.7111 127.531 97.5294 127.563 97.3488 127.548C96.3211 127.453 94.2806 127.251 93.5487 127.099C91.5784 124.445 93.7793 121.603 94.5213 121.222C95.7245 121.54 96.9026 121.774 97.5293 121.886C97.6634 121.911 97.7899 121.961 97.8999 122.034C98.0099 122.107 98.1007 122.2 98.166 122.308L98.2613 122.479Z" fill="#0F8654"/>
<path opacity="0.3" d="M98.2613 122.479C96.3411 123.354 97.3237 126.82 97.6998 127.085L98.2613 127.13C98.1689 127.27 98.0342 127.383 97.8726 127.457C97.7111 127.531 97.5294 127.563 97.3488 127.548C96.3211 127.453 94.2806 127.251 93.5487 127.099C91.5784 124.445 93.7793 121.603 94.5213 121.222C95.7245 121.54 96.9026 121.774 97.5293 121.886C97.6634 121.911 97.7899 121.961 97.8999 122.034C98.0099 122.107 98.1007 122.2 98.166 122.308L98.2613 122.479Z" fill="black"/>
<path d="M91.0119 95.9177C90.8734 96.1573 90.7969 96.4218 90.7882 96.6915C90.7796 96.9612 90.8389 97.2292 90.9617 97.4756C91.2164 97.9665 91.5897 98.4005 92.0547 98.7462C93.4383 99.8417 95.1819 100.505 97.0229 100.636C98.0153 100.738 99.0193 100.582 99.9157 100.187C100.359 99.9824 100.738 99.681 101.017 99.3107C101.297 98.9404 101.468 98.5132 101.515 98.0682C101.5 97.5466 101.322 97.0391 101.001 96.6035C100.68 96.1678 100.23 95.8214 99.7001 95.6034C98.6299 95.1916 97.4583 95.0369 96.301 95.1544C95.2178 95.2845 94.1249 95.3385 93.0323 95.3161C92.2803 95.2173 91.448 95.2487 91.0119 95.9177Z" fill="#0F8654"/>
<path opacity="0.3" d="M91.0119 95.9177C90.8734 96.1573 90.7969 96.4218 90.7882 96.6915C90.7796 96.9612 90.8389 97.2292 90.9617 97.4756C91.2164 97.9665 91.5897 98.4005 92.0547 98.7462C93.4383 99.8417 95.1819 100.505 97.0229 100.636C98.0153 100.738 99.0193 100.582 99.9157 100.187C100.359 99.9824 100.738 99.681 101.017 99.3107C101.297 98.9404 101.468 98.5132 101.515 98.0682C101.5 97.5466 101.322 97.0391 101.001 96.6035C100.68 96.1678 100.23 95.8214 99.7001 95.6034C98.6299 95.1916 97.4583 95.0369 96.301 95.1544C95.2178 95.2845 94.1249 95.3385 93.0323 95.3161C92.2803 95.2173 91.448 95.2487 91.0119 95.9177Z" fill="black"/>
<path d="M90.32 84.6349L94.7368 90.4715H94.8471L90.1345 84.2578C90.1345 84.2578 82.5693 87.1626 83.1157 89.2414C83.128 89.2676 83.1381 89.2946 83.1458 89.3222L83.206 89.4569C83.2041 89.4703 83.2041 89.4839 83.206 89.4973L83.3564 89.8385C83.327 89.7791 83.3035 89.7175 83.2862 89.6544C82.7548 87.5488 90.32 84.6349 90.32 84.6349Z" fill="#0F8654"/>
<path opacity="0.1" d="M90.32 84.6349L94.7368 90.4715H94.8471L90.1345 84.2578C90.1345 84.2578 82.5693 87.1626 83.1157 89.2414C83.128 89.2676 83.1381 89.2946 83.1458 89.3222L83.206 89.4569C83.2041 89.4703 83.2041 89.4839 83.206 89.4973L83.3564 89.8385C83.327 89.7791 83.3035 89.7175 83.2862 89.6544C82.7548 87.5488 90.32 84.6349 90.32 84.6349Z" fill="black"/>
<path d="M94.7519 90.4626L90.3351 84.626C90.3351 84.626 82.7699 87.5353 83.3163 89.6095C83.3337 89.6726 83.3571 89.7342 83.3865 89.7936C84.5596 92.3078 95.0427 90.8397 95.0427 90.8397L94.7519 90.4626Z" fill="#0F8654"/>
<path opacity="0.3" d="M94.7519 90.4626L90.3351 84.626C90.3351 84.626 82.7699 87.5353 83.3163 89.6095C83.3337 89.6726 83.3571 89.7342 83.3865 89.7936C84.5596 92.3078 95.0427 90.8397 95.0427 90.8397L94.7519 90.4626Z" fill="black"/>
<path d="M92.6914 93.9734C91.6481 92.27 90.8352 90.4614 90.2699 88.5858C89.7685 86.6911 88.3297 82.4843 89.3524 80.7692C90.1245 79.4807 92.2502 78.1787 93.679 77.4738C95.1078 76.7689 96.9778 76.9844 98.5721 76.6747C99.9727 76.3641 101.421 76.264 102.859 76.3783C104.287 76.5355 106.087 78.8477 107.04 79.8174C108.544 81.3439 108.594 83.7549 107.511 85.5508C106.428 87.3466 104.418 88.5768 102.272 89.2727C100.126 89.9686 97.8351 90.1706 95.569 90.3906C94.6315 91.5131 93.6289 92.842 92.6914 93.9734Z" fill="#263238"/>
<path d="M104.698 75.3684C102.473 73.5726 99.1085 73.2134 96.1757 73.9048C93.6941 74.493 90.8164 75.1799 89.3825 77.0476C87.9487 78.9153 88.6757 81.5732 88.8411 84.2311C91.4309 82.3798 94.4971 81.1388 97.7599 80.6214C98.146 80.5585 98.542 80.5136 98.9431 80.4777L98.7476 79.6067C98.6903 79.3587 98.6932 79.1025 98.756 78.8556C98.8188 78.6086 98.9401 78.3766 99.1117 78.1753C99.2833 77.9739 99.5012 77.8079 99.7506 77.6885C100 77.5691 100.275 77.499 100.557 77.4831C101.007 77.4607 101.458 77.4697 101.906 77.51C102.529 77.5675 103.117 77.7978 103.587 78.1689C104.057 78.5399 104.386 79.0332 104.528 79.5798C104.628 79.9838 104.729 80.3924 104.824 80.7606C105.933 80.9354 107.027 81.1814 108.098 81.4969C107.366 79.3104 106.599 76.9039 104.698 75.3684Z" fill="#455A64"/>
<path d="M104.458 79.3956C102.568 79.0133 100.614 78.9615 98.7025 79.243C98.7011 79.3651 98.7146 79.4871 98.7426 79.6066L98.9381 80.4776C100.904 80.3335 102.882 80.4287 104.819 80.7605C104.724 80.3923 104.623 79.9838 104.523 79.5797C104.503 79.5169 104.478 79.4675 104.458 79.3956Z" fill="#37474F"/>
<path d="M99.8856 93.3852L99.5948 96.2855C99.5833 96.5114 99.6479 96.7351 99.7803 96.9276C99.9589 97.2299 100.027 97.5747 99.9761 97.9137C99.9249 98.2527 99.7565 98.5688 99.4945 98.8177C99.0788 99.1042 98.5702 99.2618 98.0456 99.2667C97.0596 99.3141 96.0734 99.1747 95.1516 98.8575C94.2299 98.5403 93.3932 98.0525 92.6963 97.4259C92.5562 97.2938 92.4467 97.138 92.3744 96.9677C92.3021 96.7973 92.2684 96.6158 92.2752 96.4337L92.4858 89.0796L99.8856 93.3852Z" fill="#FFA8A7"/>
<path d="M99.8856 93.3852L99.5948 96.2855C99.5833 96.5114 99.6479 96.7351 99.7803 96.9276C99.9589 97.2299 100.027 97.5747 99.9761 97.9137C99.9249 98.2527 99.7565 98.5688 99.4945 98.8177C99.0788 99.1042 98.5702 99.2618 98.0456 99.2667C97.0596 99.3141 96.0734 99.1747 95.1516 98.8575C94.2299 98.5403 93.3932 98.0525 92.6963 97.4259C92.5562 97.2938 92.4467 97.138 92.3744 96.9677C92.3021 96.7973 92.2684 96.6158 92.2752 96.4337L92.4858 89.0796L99.8856 93.3852Z" fill="#FFA8A7"/>
<path opacity="0.2" d="M94.8973 94.8266C95.7141 95.4568 96.7072 95.8759 97.7699 96.0388C98.3992 96.1168 99.0401 96.0599 99.6399 95.8727L99.8856 93.3899L92.4858 89.0708L92.4106 91.7646C92.9369 92.9572 93.7924 94.0108 94.8973 94.8266Z" fill="black"/>
<path d="M102.638 84.4061C103.336 84.1123 103.924 83.6447 104.332 83.0592C102.875 83.6551 101.316 84.0284 99.7201 84.1637C100.332 83.6878 100.913 83.149 101.525 82.6731C100.431 83.0044 99.3074 83.2493 98.166 83.4049C98.8028 83.1121 99.3698 82.711 99.8354 82.2241C98.0458 82.9726 96.1264 83.4418 94.1603 83.6114C94.0728 83.7171 94.016 83.8405 93.9948 83.9706L93.694 86.0583C93.6975 86.2068 93.6637 86.354 93.5952 86.4892C93.5266 86.6244 93.4251 86.7441 93.298 86.8395C93.1602 86.8975 93.0062 86.9169 92.856 86.8953C92.7057 86.8736 92.5662 86.812 92.4557 86.7183C92.2394 86.5248 92.0688 86.2943 91.9544 86.0404C91.7111 85.5138 91.3853 85.021 90.9868 84.5767C90.7845 84.3558 90.5318 84.1762 90.2455 84.0499C89.9593 83.9237 89.6463 83.8538 89.3274 83.8449C88.2896 83.8673 87.4975 84.7967 87.3872 85.7216C87.3364 86.1996 87.4194 86.6813 87.6286 87.1234C87.8378 87.5655 88.1666 87.954 88.5854 88.2538C89.0169 88.528 89.5182 88.7011 90.0435 88.7576C90.5689 88.8141 91.1017 88.752 91.5934 88.577C91.1222 90.1888 92.0647 91.9173 93.4634 93.0128C94.8622 94.1083 96.6569 94.7009 98.4066 95.2577C99.3642 95.5675 100.377 95.8817 101.375 95.7066C102.188 95.5427 102.917 95.1397 103.445 94.5618C103.97 93.9866 104.401 93.3471 104.724 92.6626C106.302 89.6104 107.201 86.3118 107.371 82.9514C106.036 83.9243 104.358 84.44 102.638 84.4061Z" fill="#FFA8A7"/>
<path d="M101.334 87.6924L102.798 91.1584L100.236 91.1854L101.334 87.6924Z" fill="#F28F8F"/>
<path d="M97.3989 91.8545L100.086 92.8467C99.8803 93.1244 99.5793 93.3346 99.2284 93.4455C98.8775 93.5565 98.4958 93.5622 98.1409 93.4618C97.4842 93.2373 97.2586 92.4875 97.3989 91.8545Z" fill="#F28F8F"/>
<path opacity="0.3" d="M97.3989 91.8545L100.086 92.8467C99.8803 93.1244 99.5793 93.3346 99.2284 93.4455C98.8775 93.5565 98.4958 93.5622 98.1409 93.4618C97.4842 93.2373 97.2586 92.4875 97.3989 91.8545Z" fill="black"/>
<path d="M99.0533 93.4888C98.753 93.5613 98.4353 93.5519 98.1409 93.4619C97.8939 93.3537 97.688 93.1827 97.5489 92.9703C97.4098 92.7579 97.3437 92.5135 97.3588 92.2676C97.7619 92.239 98.162 92.3496 98.4771 92.5766C98.7921 92.8037 98.9983 93.13 99.0533 93.4888Z" fill="#F28F8F"/>
<path d="M97.7148 87.0595C97.663 87.225 97.6866 87.4022 97.7807 87.5521C97.8747 87.7019 98.0313 87.8122 98.2161 87.8587C98.401 87.9051 98.5988 87.8839 98.7662 87.7997C98.9335 87.7155 99.0567 87.5752 99.1085 87.4097C99.1342 87.3277 99.1416 87.2421 99.1303 87.1575C99.119 87.073 99.0892 86.9913 99.0427 86.9171C98.9961 86.8429 98.9337 86.7776 98.859 86.725C98.7843 86.6724 98.6987 86.6335 98.6072 86.6105C98.5157 86.5875 98.42 86.5809 98.3256 86.591C98.2313 86.6011 98.14 86.6278 98.0572 86.6695C97.9743 86.7112 97.9014 86.7671 97.8427 86.834C97.7839 86.9009 97.7405 86.9775 97.7148 87.0595Z" fill="#263238"/>
<path d="M103.49 88.1415C103.438 88.307 103.462 88.4842 103.556 88.6341C103.65 88.784 103.807 88.8942 103.992 88.9407C104.176 88.9871 104.374 88.9659 104.542 88.8817C104.709 88.7975 104.832 88.6572 104.884 88.4917C104.91 88.4098 104.917 88.3241 104.906 88.2396C104.894 88.1551 104.865 88.0734 104.818 87.9992C104.771 87.9249 104.709 87.8597 104.634 87.8071C104.56 87.7545 104.474 87.7156 104.383 87.6926C104.291 87.6696 104.195 87.6629 104.101 87.6731C104.007 87.6832 103.915 87.7098 103.833 87.7515C103.75 87.7932 103.677 87.8491 103.618 87.916C103.559 87.9829 103.516 88.0596 103.49 88.1415Z" fill="#263238"/>
<path d="M105.064 84.949L106.308 86.296C106.432 86.1426 106.499 85.9579 106.499 85.7684C106.499 85.5789 106.432 85.3942 106.308 85.2409C106.152 85.0928 105.953 84.987 105.733 84.9354C105.513 84.8838 105.281 84.8885 105.064 84.949Z" fill="#263238"/>
<path d="M98.6624 83.8808L96.8174 84.451C96.8006 84.2633 96.8501 84.0755 96.959 83.9144C97.0679 83.7533 97.2305 83.6268 97.424 83.5531C97.644 83.4983 97.8767 83.5 98.0957 83.5579C98.3146 83.6159 98.511 83.7277 98.6624 83.8808Z" fill="#263238"/>
<path d="M57.3519 116.66L87.5576 137.618C88.4794 138.257 89.2451 139.058 89.8073 139.972C90.3695 140.887 90.7164 141.895 90.8264 142.934L94.2154 174.73C94.0287 174.885 93.7893 174.981 93.5351 175.001C93.2808 175.022 93.0263 174.966 92.8117 174.842L86.7956 142.92C86.6947 142.376 86.4632 141.858 86.117 141.401C85.7708 140.944 85.3181 140.561 84.7903 140.276L58.0889 125.949C54.5895 124.086 53.9729 117.5 57.3519 116.66Z" fill="#455A64"/>
<path opacity="0.3" d="M57.3519 116.66L87.5576 137.618C88.4794 138.257 89.2451 139.058 89.8073 139.972C90.3695 140.887 90.7164 141.895 90.8264 142.934L94.2154 174.73C94.0287 174.885 93.7893 174.981 93.5351 175.001C93.2808 175.022 93.0263 174.966 92.8117 174.842L86.7956 142.92C86.6947 142.376 86.4632 141.858 86.117 141.401C85.7708 140.944 85.3181 140.561 84.7903 140.276L58.0889 125.949C54.5895 124.086 53.9729 117.5 57.3519 116.66Z" fill="white"/>
<path d="M102.558 127.211C102.558 127.211 102.558 127.233 102.558 127.242V127.278L103.31 128.041C103.31 128.041 103.31 128.01 103.31 127.992C103.34 128.109 103.53 128.104 103.856 127.942L110.128 124.8C110.613 124.548 111.025 124.197 111.331 123.776L116.811 114.671C116.896 114.518 116.896 114.429 116.811 114.388H116.836L116.089 113.62C116.077 113.609 116.062 113.6 116.045 113.594C116.029 113.587 116.011 113.584 115.994 113.584H115.878H115.843H115.808H115.778H115.743H115.713H115.678H115.643H115.608H115.573L109.301 116.727H109.266H109.231H109.195H109.165H109.14L109.06 116.79V116.813V116.839V116.866L109.035 116.893V116.925V116.952V116.983V117.01V117.037V117.064V117.091L103.58 126.183V126.205C103.58 126.205 103.58 126.205 103.58 126.232V126.259V126.281C103.58 126.281 103.58 126.281 103.58 126.308C103.58 126.335 103.58 126.308 103.58 126.331V126.367L102.558 127.211ZM116.63 114.375H116.655C116.655 114.375 116.68 114.375 116.701 114.375C116.677 114.37 116.653 114.37 116.63 114.375ZM109.336 118.128L109.511 117.998L109.336 118.128ZM109.04 118.411L109.115 118.339L109.04 118.411ZM103.31 127.956C103.322 127.897 103.345 127.841 103.38 127.79C103.343 127.846 103.319 127.909 103.31 127.974V127.956Z" fill="#455A64"/>
<path d="M65.7343 171.519L67.875 172.633L67.865 170.419L65.7343 171.519Z" fill="#E6E6E6"/>
<path d="M67.7798 148.936L46.9842 159.684L67.7798 148.936Z" fill="#CFCFCF"/>
<path d="M67.865 170.419V172.633L70.091 171.484L70.0158 145.466L44.7332 158.54L44.8134 184.553L47.0394 183.404V181.19L65.7343 171.506L67.865 170.419ZM46.9842 159.685L67.7798 148.936L67.8049 157.372L47.0143 168.148L46.9842 159.685ZM47.0193 170.433L67.8149 159.68V159.707V168.121L47.0444 178.869L47.0193 170.433Z" fill="#E0E0E0"/>
<path d="M67.84 168.121L67.8149 159.707V159.685L47.0193 170.433L47.0444 178.869L67.84 168.121Z" fill="#E0E0E0"/>
<path d="M67.8049 157.372L67.7798 148.936L46.9842 159.684L47.0143 168.125L67.8049 157.372Z" fill="#E0E0E0"/>
<path d="M44.7332 158.539L22.6592 147.05L22.7394 173.068L44.8134 184.553L44.7332 158.539Z" fill="#E0E0E0"/>
<path d="M44.7332 158.54L70.0158 145.466L47.9418 133.977L22.6592 147.051L44.7332 158.54Z" fill="#E0E0E0"/>
<path opacity="0.2" d="M65.7343 171.519L67.875 172.633L67.865 170.419L65.7343 171.519Z" fill="white"/>
<path d="M67.7798 148.936L46.9842 159.684L67.7798 148.936Z" fill="#CFCFCF"/>
<path opacity="0.8" d="M67.84 168.121L67.8149 159.707V159.685L47.0193 170.433L47.0444 178.869L67.84 168.121Z" fill="white"/>
<path opacity="0.8" d="M67.8049 157.372L67.7798 148.936L46.9842 159.684L47.0143 168.125L67.8049 157.372Z" fill="white"/>
<path d="M61.0016 155.576L60.9916 154.414L53.7924 158.136L53.7974 159.303L61.0016 155.576Z" fill="#E0E0E0"/>
<path d="M61.0016 166.177L60.9916 165.009L53.7924 168.731L53.7974 169.899L61.0016 166.177Z" fill="#E0E0E0"/>
<path opacity="0.2" d="M44.7332 158.539L22.6592 147.05L22.7394 173.068L44.8134 184.553L44.7332 158.539Z" fill="white"/>
<path opacity="0.4" d="M44.7332 158.54L70.0158 145.466L47.9418 133.977L22.6592 147.051L44.7332 158.54Z" fill="white"/>
<path opacity="0.05" d="M39.8301 140.689C42.6376 139.234 47.1747 139.234 49.9622 140.689C52.7496 142.143 52.7346 144.491 49.9271 145.946C47.1196 147.401 42.5825 147.396 39.795 145.946C37.0076 144.496 37.0226 142.139 39.8301 140.689Z" fill="black"/>
<path d="M37.3936 131.548L45.0941 131.75L52.7997 131.548C53.1306 136.208 52.1129 140.954 50.7142 143.275C50.3889 143.869 49.8626 144.356 49.2101 144.667C46.9391 145.843 43.2643 145.843 41.0082 144.667C40.3437 144.354 39.8145 143.851 39.5042 143.239C38.0704 140.909 37.0627 136.19 37.3936 131.548Z" fill="white"/>
<path d="M39.6696 128.728C36.6616 130.291 36.6315 132.818 39.6295 134.381C42.6276 135.943 47.5056 135.939 50.5236 134.381C53.5417 132.823 53.5317 130.291 50.5587 128.728C47.5858 127.166 42.6877 127.17 39.6696 128.728Z" fill="#EBEBEB"/>
<path d="M40.8628 129.348C38.5065 130.569 38.4965 132.54 40.8327 133.757C43.169 134.973 46.9792 134.973 49.3555 133.757C51.7319 132.54 51.7218 130.569 49.3856 129.348C47.0494 128.127 43.2141 128.131 40.8628 129.348Z" fill="#E0E0E0"/>
<g opacity="0.15">
<path opacity="0.15" d="M40.8628 129.348C38.5065 130.569 38.4965 132.54 40.8327 133.757C43.169 134.973 46.9792 134.973 49.3555 133.757C51.7319 132.54 51.7218 130.569 49.3856 129.348C47.0494 128.127 43.2141 128.131 40.8628 129.348Z" fill="black"/>
</g>
<path d="M45.7409 131.75C45.1232 132.211 44.3924 132.535 43.6082 132.695C42.824 132.855 42.0087 132.846 41.2288 132.67C40.4772 132.464 39.7945 132.094 39.2423 131.594C38.69 131.093 38.2856 130.477 38.0654 129.801C38.9771 129.413 39.812 128.895 40.537 128.266C39.3789 128.005 38.162 128.044 37.0276 128.378C36.714 127.937 36.5258 127.434 36.4795 126.912C36.4332 126.391 36.5301 125.868 36.7619 125.388C38.0764 124.864 39.5552 124.772 40.9381 125.127C40.3643 124.679 39.6931 124.341 38.9665 124.137C38.24 123.932 37.474 123.864 36.7168 123.938C36.6042 121.96 36.9454 119.983 37.7195 118.128C40.5921 118.263 43.3746 119.367 44.3171 120.166C44.3583 121.087 44.2503 122.008 43.9962 122.9C44.367 122.73 44.6837 122.479 44.9168 122.169C45.15 121.86 45.292 121.503 45.3298 121.132C47.1296 121.536 47.8967 122.339 48.1774 122.95C47.9194 124.094 47.3337 125.158 46.4779 126.039C48.1624 125.59 48.8492 123.897 48.8492 123.897C50.5187 127.417 50.2028 131.404 45.7409 131.75Z" fill="#0F8654"/>
<path opacity="0.2" d="M45.7409 131.75C45.1232 132.211 44.3924 132.535 43.6082 132.695C42.824 132.855 42.0087 132.846 41.2288 132.67C40.4772 132.464 39.7945 132.094 39.2423 131.594C38.69 131.093 38.2856 130.477 38.0654 129.801C38.9771 129.413 39.812 128.895 40.537 128.266C39.3789 128.005 38.162 128.044 37.0276 128.378C36.714 127.937 36.5258 127.434 36.4795 126.912C36.4332 126.391 36.5301 125.868 36.7619 125.388C38.0764 124.864 39.5552 124.772 40.9381 125.127C40.3643 124.679 39.6931 124.341 38.9665 124.137C38.24 123.932 37.474 123.864 36.7168 123.938C36.6042 121.96 36.9454 119.983 37.7195 118.128C40.5921 118.263 43.3746 119.367 44.3171 120.166C44.3583 121.087 44.2503 122.008 43.9962 122.9C44.367 122.73 44.6837 122.479 44.9168 122.169C45.15 121.86 45.292 121.503 45.3298 121.132C47.1296 121.536 47.8967 122.339 48.1774 122.95C47.9194 124.094 47.3337 125.158 46.4779 126.039C48.1624 125.59 48.8492 123.897 48.8492 123.897C50.5187 127.417 50.2028 131.404 45.7409 131.75Z" fill="black"/>
<path opacity="0.3" d="M45.7409 131.75C45.1232 132.211 44.3924 132.535 43.6082 132.695C42.824 132.855 42.0087 132.846 41.2288 132.67C40.4772 132.464 39.7945 132.094 39.2423 131.594C38.69 131.093 38.2856 130.477 38.0654 129.801C38.9771 129.413 39.812 128.895 40.537 128.266C39.3789 128.005 38.162 128.044 37.0276 128.378C36.714 127.937 36.5258 127.434 36.4795 126.912C36.4332 126.391 36.5301 125.868 36.7619 125.388C38.0764 124.864 39.5552 124.772 40.9381 125.127C40.3643 124.679 39.6931 124.341 38.9665 124.137C38.24 123.932 37.474 123.864 36.7168 123.938C36.6042 121.96 36.9454 119.983 37.7195 118.128C40.5921 118.263 43.3746 119.367 44.3171 120.166C44.3583 121.087 44.2503 122.008 43.9962 122.9C44.367 122.73 44.6837 122.479 44.9168 122.169C45.15 121.86 45.292 121.503 45.3298 121.132C47.1296 121.536 47.8967 122.339 48.1774 122.95C47.9194 124.094 47.3337 125.158 46.4779 126.039C48.1624 125.59 48.8492 123.897 48.8492 123.897C50.5187 127.417 50.2028 131.404 45.7409 131.75Z" fill="white"/>
<path d="M45.8411 132.131C45.885 132.127 45.9253 132.108 45.9541 132.078C45.9829 132.048 45.9981 132.009 45.9965 131.97C45.7208 128.724 43.6452 123.363 38.697 118.95C38.6821 118.936 38.6641 118.925 38.6443 118.917C38.6245 118.91 38.6032 118.906 38.5817 118.906C38.5602 118.906 38.5389 118.91 38.5191 118.917C38.4993 118.925 38.4814 118.936 38.4664 118.95C38.4508 118.963 38.4384 118.98 38.4299 118.998C38.4215 119.016 38.4171 119.035 38.4171 119.055C38.4171 119.075 38.4215 119.094 38.4299 119.112C38.4384 119.13 38.4508 119.147 38.4664 119.161C43.3495 123.525 45.3949 128.804 45.6656 132.001C45.6675 132.02 45.6736 132.038 45.6834 132.055C45.6933 132.072 45.7068 132.087 45.7231 132.099C45.7394 132.111 45.7582 132.12 45.7785 132.126C45.7987 132.131 45.82 132.133 45.8411 132.131Z" fill="#F5F5F5"/>
<path d="M44.4826 133.487C45.0584 133.909 45.7375 134.202 46.4643 134.344C47.1911 134.485 47.945 134.471 48.6643 134.301C49.3835 134.132 50.0478 133.812 50.6028 133.369C51.1578 132.925 51.5876 132.371 51.8573 131.75C51.0333 131.418 50.2788 130.963 49.6263 130.403C50.7187 130.17 51.8606 130.201 52.9351 130.493C53.26 130.121 53.4729 129.68 53.5536 129.213C53.6344 128.746 53.5802 128.269 53.3964 127.826C52.1457 127.365 50.759 127.29 49.4558 127.615C50.6157 126.803 52.0754 126.415 53.5418 126.528C53.7927 124.785 53.6042 123.013 52.9903 121.343C50.253 121.491 47.5457 122.506 46.6032 123.224C46.4978 124.034 46.535 124.853 46.7135 125.653C46.3832 125.51 46.1029 125.289 45.9031 125.014C45.7033 124.738 45.5917 124.419 45.5805 124.09C43.8659 124.463 43.0738 125.181 42.788 125.725C42.9501 126.733 43.4302 127.678 44.1717 128.45C43.6911 128.294 43.2561 128.042 42.8993 127.714C42.5425 127.386 42.2731 126.99 42.1112 126.555C40.3114 129.676 40.3415 133.187 44.4826 133.487Z" fill="#0F8654"/>
<path opacity="0.3" d="M44.4826 133.487C45.0584 133.909 45.7375 134.202 46.4643 134.344C47.1911 134.485 47.945 134.471 48.6643 134.301C49.3835 134.132 50.0478 133.812 50.6028 133.369C51.1578 132.925 51.5876 132.371 51.8573 131.75C51.0333 131.418 50.2788 130.963 49.6263 130.403C50.7187 130.17 51.8606 130.201 52.9351 130.493C53.26 130.121 53.4729 129.68 53.5536 129.213C53.6344 128.746 53.5802 128.269 53.3964 127.826C52.1457 127.365 50.759 127.29 49.4558 127.615C50.6157 126.803 52.0754 126.415 53.5418 126.528C53.7927 124.785 53.6042 123.013 52.9903 121.343C50.253 121.491 47.5457 122.506 46.6032 123.224C46.4978 124.034 46.535 124.853 46.7135 125.653C46.3832 125.51 46.1029 125.289 45.9031 125.014C45.7033 124.738 45.5917 124.419 45.5805 124.09C43.8659 124.463 43.0738 125.181 42.788 125.725C42.9501 126.733 43.4302 127.678 44.1717 128.45C43.6911 128.294 43.2561 128.042 42.8993 127.714C42.5425 127.386 42.2731 126.99 42.1112 126.555C40.3114 129.676 40.3415 133.187 44.4826 133.487Z" fill="white"/>
<path d="M44.3723 133.842C44.4119 133.841 44.45 133.829 44.4802 133.806C44.5104 133.783 44.5307 133.751 44.5377 133.716C45.009 130.888 47.3001 126.191 52.2182 122.272C52.2339 122.258 52.2463 122.242 52.2547 122.224C52.2632 122.205 52.2675 122.186 52.2675 122.166C52.2675 122.147 52.2632 122.127 52.2547 122.109C52.2463 122.091 52.2339 122.075 52.2182 122.061C52.2033 122.047 52.1854 122.036 52.1656 122.028C52.1457 122.021 52.1245 122.017 52.1029 122.017C52.0814 122.017 52.0601 122.021 52.0403 122.028C52.0205 122.036 52.0026 122.047 51.9876 122.061C47.0043 126.039 44.6781 130.807 44.1968 133.685C44.1911 133.723 44.2026 133.762 44.2289 133.794C44.2552 133.825 44.2941 133.845 44.3372 133.851L44.3723 133.842Z" fill="white"/>
<path d="M100.412 35.0823L80.193 45.4085C79.7375 45.6482 79.3593 45.9899 79.0956 46.4C78.8319 46.81 78.6918 47.2745 78.689 47.7477V64.7366C78.7022 65.206 78.8538 65.6639 79.1283 66.0639C79.4029 66.4639 79.7907 66.7917 80.2524 67.0142C80.7141 67.2366 81.2333 67.3458 81.7573 67.3306C82.2813 67.3154 82.7915 67.1763 83.2362 66.9276L89.0016 64.0183L89.2422 64.3685C89.2531 64.3812 89.2668 64.3919 89.2823 64.3999H89.3124C89.7536 64.6603 90.5307 65.0374 90.7061 65.1137C90.7467 65.1254 90.7907 65.1225 90.829 65.1058C90.8673 65.0891 90.8969 65.0597 90.9117 65.024L91.9144 62.5142L103.445 56.6013C103.904 56.364 104.285 56.0222 104.549 55.6107C104.813 55.1991 104.951 54.7324 104.949 54.2577V37.2642C104.964 35.3292 101.771 34.3864 100.412 35.0823Z" fill="#0F8654"/>
<path opacity="0.2" d="M89.2372 64.3866C89.2481 64.3993 89.2617 64.41 89.2773 64.418H89.3073C89.7485 64.6784 90.5256 65.0555 90.7011 65.1319C90.6805 65.128 90.661 65.1204 90.6437 65.1096C90.6265 65.0988 90.6119 65.085 90.6008 65.069L89.6483 63.6817L89.8338 63.5874L88.9965 64.0364L89.2372 64.3866Z" fill="white"/>
<path opacity="0.4" d="M82.068 47.9675C82.2634 47.6206 82.5385 47.3146 82.8752 47.0695C82.9903 46.9861 83.1126 46.911 83.2411 46.845L103.455 36.5188C103.608 36.4398 103.781 36.3983 103.958 36.3985C104.134 36.3986 104.307 36.4404 104.46 36.5197C104.612 36.5989 104.739 36.7128 104.826 36.8498C104.914 36.9868 104.96 37.1421 104.959 37.3C104.959 35.3559 101.761 34.4131 100.407 35.109L80.188 45.4353C79.7186 45.6774 79.332 46.0299 79.07 46.4544L82.068 47.9675Z" fill="white"/>
<path opacity="0.2" d="M81.7171 66.1686V49.1796C81.7095 49.0735 81.7095 48.967 81.7171 48.8609C81.7676 48.5482 81.8743 48.245 82.0329 47.9629L79.0249 46.4409C78.7701 46.8435 78.6354 47.2981 78.6339 47.7609V64.7498C78.6471 65.2192 78.7986 65.6771 79.0732 66.0771C79.3478 66.4771 79.7356 66.8049 80.1973 67.0274C80.659 67.2499 81.1781 67.359 81.7021 67.3438C82.2262 67.3286 82.7364 67.1896 83.181 66.9408C83.0303 67.0108 82.8621 67.0454 82.6924 67.0413C82.5226 67.0372 82.3568 66.9946 82.2105 66.9174C82.0642 66.8402 81.9422 66.731 81.8559 66.6C81.7696 66.4691 81.7218 66.3206 81.7171 66.1686Z" fill="white"/>
<path d="M96.1457 56.8931C96.1056 57.7012 95.143 59.0346 94.2005 59.551L94.1203 59.5959C93.1176 60.1122 92.15 59.8563 92.0247 59.0257L96.1457 56.8931Z" fill="white"/>
<path d="M99.7653 53.1621C100.021 53.2474 100.101 53.7278 99.9258 54.1095C99.8376 54.3179 99.6733 54.4936 99.4595 54.6078L98.903 54.8996L98.3465 55.187L94.0852 57.3869L88.796 60.1256C88.3548 60.3501 88.1693 60.2424 88.1493 59.8024C88.1446 59.4979 88.2501 59.2002 88.4501 58.9538C89.0265 58.1355 89.404 57.2176 89.5581 56.26C89.7014 55.368 89.7685 54.4674 89.7586 53.5662C89.7463 53.047 89.7781 52.5277 89.8538 52.0128C90.1544 50.4561 90.928 49.0037 92.0898 47.8149C92.2389 47.697 92.3515 47.5466 92.4165 47.3782C92.4815 47.2099 92.4968 47.0293 92.4608 46.8541C92.4375 46.31 92.5704 45.7696 92.8469 45.2846C93.1234 44.7996 93.5342 44.3862 94.04 44.084C94.3026 43.936 94.6156 43.8771 94.9224 43.9179C95.4939 44.0122 95.7346 44.4566 95.6343 45.2109C95.5741 45.6599 95.6343 45.7721 96.0203 45.7901C97.5243 45.8709 98.3114 46.7778 98.3716 48.5153C98.4017 49.3639 98.4217 50.2124 98.4869 51.0385C98.5094 51.6017 98.6923 52.1503 99.0183 52.6324C99.1966 52.8768 99.4588 53.0627 99.7653 53.1621ZM94.9675 52.5291L95.3987 47.9047L92.7466 49.2786L93.2028 53.4405L94.9826 52.5426L94.9675 52.5291ZM94.1002 55.829C94.4729 55.6317 94.7863 55.356 95.0134 55.0259C95.2405 54.6958 95.3744 54.3212 95.4037 53.9344C95.4037 53.2519 94.8672 53.0095 94.0952 53.4091C93.7223 53.6017 93.4083 53.8738 93.1809 54.2012C92.9535 54.5285 92.8198 54.9011 92.7917 55.2858C92.7917 55.9547 93.3331 56.2286 94.1002 55.829ZM94.0651 45.2064C93.9073 45.2982 93.776 45.4221 93.6819 45.568C93.5878 45.714 93.5336 45.8777 93.5237 46.046C93.5237 46.3513 93.7643 46.4725 94.0601 46.3244C94.2172 46.233 94.3481 46.1098 94.4422 45.9647C94.5362 45.8196 94.5908 45.6568 94.6015 45.4893C94.6015 45.1795 94.3609 45.0403 94.0601 45.2064" fill="white"/>
</svg>
