<svg width="345" height="96" viewBox="0 0 345 96" fill="none" xmlns="http://www.w3.org/2000/svg">
<g filter="url(#filter0_d_409_4754)">
<g clip-path="url(#clip0_409_4754)">
<rect width="345" height="96" rx="20" fill="white"/>
<rect width="345" height="96" rx="20" fill="url(#paint0_linear_409_4754)"/>
<g opacity="0.25">
<path opacity="0.0344828" d="M264.413 153.335L239.24 90.7004L196.94 61.2751L169.893 -5.43693L131.648 -38.0203L110.386 -83.5068" stroke="#EDCC76"/>
<path opacity="0.0689655" d="M263.547 153.489L236.203 91.7712L192.902 63.84L163.544 -1.88744L124.185 -33.1162L101.348 -77.833" stroke="#EDCC76"/>
<path opacity="0.103448" d="M262.582 153.503L233.101 92.7774L188.852 66.3744L157.218 1.71161L116.792 -28.1245L92.4092 -72.0171" stroke="#EDCC76"/>
<path opacity="0.137931" d="M261.514 153.379L229.932 93.7196L184.788 68.8769L150.916 5.35754L109.474 -23.0496L83.5741 -66.0645" stroke="#EDCC76"/>
<path opacity="0.172414" d="M260.338 153.122L226.692 94.6004L180.709 71.3484L144.641 9.04977L102.233 -17.8938L74.8474 -59.9785" stroke="#EDCC76"/>
<path opacity="0.206897" d="M259.048 152.735L223.381 95.4232L176.614 73.7902L138.394 12.7883L95.0713 -12.6588L66.2336 -53.7622" stroke="#EDCC76"/>
<path opacity="0.241379" d="M257.641 152.222L219.995 96.1902L172.502 76.2025L132.176 16.5717L87.9919 -7.34802L57.7373 -47.4199" stroke="#EDCC76"/>
<path opacity="0.275862" d="M256.112 151.587L216.534 96.9034L168.372 78.5854L125.99 20.3982L80.9975 -1.96492L49.3629 -40.9565" stroke="#EDCC76"/>
<path opacity="0.310345" d="M254.457 150.835L212.995 97.5663L164.223 80.9403L119.836 24.2676L74.0904 3.48835L41.1143 -34.3755" stroke="#EDCC76"/>
<path opacity="0.344828" d="M252.672 149.971L209.376 98.1812L160.054 83.2674L113.716 28.1784L67.2731 9.00828L32.9956 -27.6816" stroke="#EDCC76"/>
<path opacity="0.37931" d="M250.754 148.998L205.677 98.7507L155.864 85.5673L107.631 32.129L60.548 14.5914L25.0109 -20.8799" stroke="#EDCC76"/>
<path opacity="0.413793" d="M248.698 147.922L201.894 99.2785L151.652 87.8416L101.584 36.1191L53.9171 20.2353L17.1637 -13.9741" stroke="#EDCC76"/>
<path opacity="0.448276" d="M246.5 146.747L198.028 99.7664L147.417 90.0899L95.5741 40.1463L47.3822 25.9357L9.45734 -6.97021" stroke="#EDCC76"/>
<path opacity="0.482759" d="M244.159 145.478L194.076 100.218L143.158 92.3137L89.6042 44.2098L40.9457 31.6898L1.89557 0.127441" stroke="#EDCC76"/>
<path opacity="0.517241" d="M241.67 144.121L190.038 100.636L138.875 94.5136L83.6751 48.308L34.6093 37.4938L-5.51862 7.31348" stroke="#EDCC76"/>
<path opacity="0.551724" d="M239.03 142.68L185.912 101.024L134.567 96.6908L77.7877 52.4397L28.3744 43.3445L-12.7823 14.583" stroke="#EDCC76"/>
<path opacity="0.586207" d="M236.237 141.162L181.698 101.385L130.232 98.846L71.9435 56.6035L22.2429 49.2383L-19.8925 21.9307" stroke="#EDCC76"/>
<path opacity="0.62069" d="M233.288 139.571L177.393 101.721L125.871 100.98L66.1433 60.7978L16.2159 55.1715L-26.8468 29.3511" stroke="#EDCC76"/>
<path opacity="0.655172" d="M230.18 137.912L172.999 102.037L121.482 103.094L60.3885 65.0206L10.2951 61.1402L-33.6425 36.8384" stroke="#EDCC76"/>
<path opacity="0.689655" d="M226.912 136.192L168.514 102.334L117.065 105.189L54.6797 69.2706L4.48151 67.1409L-40.2775 44.3872" stroke="#EDCC76"/>
<path opacity="0.724138" d="M223.481 134.417L163.936 102.617L112.619 107.266L49.018 73.5465L-1.22399 73.1699L-46.7498 51.9922" stroke="#EDCC76"/>
<path opacity="0.758621" d="M219.885 132.591L159.267 102.889L108.143 109.325L43.4042 77.8464L-6.82027 79.2235L-53.0575 59.6475" stroke="#EDCC76"/>
<path opacity="0.793103" d="M216.123 130.72L154.505 103.152L103.637 111.369L37.8391 82.1685L-12.3068 85.2976L-59.199 67.3472" stroke="#EDCC76"/>
<path opacity="0.827586" d="M212.193 128.811L149.651 103.41L99.1004 113.397L32.3237 86.5107L-17.6824 91.3879L-65.1725 75.085" stroke="#EDCC76"/>
<path opacity="0.862069" d="M208.094 126.869L144.704 103.666L94.5326 115.412L26.8583 90.8722L-22.9472 97.4916L-70.9773 82.856" stroke="#EDCC76"/>
<path opacity="0.896552" d="M203.826 124.901L139.664 103.924L89.9333 117.414L21.4438 95.2507L-28.1003 103.604L-76.612 90.6538" stroke="#EDCC76"/>
<path opacity="0.931035" d="M199.386 122.911L134.532 104.187L85.3019 119.403L16.0806 99.6442L-33.1418 109.722L-82.0759 98.4722" stroke="#EDCC76"/>
<path opacity="0.965517" d="M194.775 120.907L129.307 104.457L80.638 121.383L10.7692 104.051L-38.0714 115.841L-87.3683 106.306" stroke="#EDCC76"/>
<path d="M189.993 118.894L123.99 104.739L75.9413 123.352L5.5103 108.47L-42.8892 121.957L-92.4888 114.148" stroke="#EDCC76"/>
</g>
</g>
</g>
<defs>
<filter id="filter0_d_409_4754" x="-13" y="-11" width="375" height="126" filterUnits="userSpaceOnUse" color-interpolation-filters="sRGB">
<feFlood flood-opacity="0" result="BackgroundImageFix"/>
<feColorMatrix in="SourceAlpha" type="matrix" values="0 0 0 0 0 0 0 0 0 0 0 0 0 0 0 0 0 0 127 0" result="hardAlpha"/>
<feOffset dx="2" dy="4"/>
<feGaussianBlur stdDeviation="7.5"/>
<feComposite in2="hardAlpha" operator="out"/>
<feColorMatrix type="matrix" values="0 0 0 0 0 0 0 0 0 0 0 0 0 0 0 0 0 0 0.1 0"/>
<feBlend mode="normal" in2="BackgroundImageFix" result="effect1_dropShadow_409_4754"/>
<feBlend mode="normal" in="SourceGraphic" in2="effect1_dropShadow_409_4754" result="shape"/>
</filter>
<linearGradient id="paint0_linear_409_4754" x1="-44.5" y1="105.882" x2="466.837" y2="-338.614" gradientUnits="userSpaceOnUse">
<stop stop-color="#16BF78"/>
<stop offset="1" stop-color="#007156"/>
</linearGradient>
<clipPath id="clip0_409_4754">
<rect width="345" height="96" rx="20" fill="white"/>
</clipPath>
</defs>
</svg>
